<svg xmlns="http://www.w3.org/2000/svg" height="667" width="960.0" font-size="16" font-family="sans-serif" stroke-width="2">
<g transform="translate(10.0 0)">
<text fill="hsl(0, 100%, 40%)" y="22">Full Decode Persons JSON.Ordered Keys.SIMD Decode 283  ms</text>
<g>
<title>283  ms ±  23 ms</title>
<rect y="28" rx="5" height="22" width="361.1207757860919" fill="hsl(0, 100%, 80%)" stroke="hsl(0, 100%, 55%)" />
<g stroke="hsl(0, 100%, 40%)"><line x1="331.3523524384342" x2="390.88919913374957" y1="39" y2="39" />
<line x1="331.3523524384342" x2="331.3523524384342" y1="33" y2="45" />
<line x1="390.88919913374957" x2="390.88919913374957" y1="33" y2="45" />
</g>
</g>
<text fill="hsl(30, 100%, 40%)" y="77">Full Decode Persons JSON.Ordered Keys.SIMD DecodeWith 255  ms</text>
<g>
<title>255  ms ±  17 ms</title>
<rect y="83" rx="5" height="22" width="325.8716078855036" fill="hsl(30, 100%, 80%)" stroke="hsl(30, 100%, 55%)" />
<g stroke="hsl(30, 100%, 40%)"><line x1="303.78189653882595" x2="347.9613192321812" y1="94" y2="94" />
<line x1="303.78189653882595" x2="303.78189653882595" y1="88" y2="100" />
<line x1="347.9613192321812" x2="347.9613192321812" y1="88" y2="100" />
</g>
</g>
<g fill="hsl(60, 100%, 40%)">
<text y="132">Full Decode Persons JSON.Ordered Keys.Aeson Decode Lazy</text>
<text y="132" x="885.7955156466795" text-anchor="end">694  ms</text>
</g>
<g>
<title>694  ms ±  33 ms</title>
<rect y="138" rx="5" height="22" width="885.7955156466795" fill="hsl(60, 100%, 80%)" stroke="hsl(60, 100%, 55%)" />
<g stroke="hsl(60, 100%, 40%)"><line x1="844.1397017672662" x2="927.4513295260929" y1="149" y2="149" />
<line x1="844.1397017672662" x2="844.1397017672662" y1="143" y2="155" />
<line x1="927.4513295260929" x2="927.4513295260929" y1="143" y2="155" />
</g>
</g>
<g fill="hsl(90, 100%, 40%)">
<text y="187">Full Decode Persons JSON.Ordered Keys.Aeson Decode Strict</text>
<text y="187" x="575.7465351432488" text-anchor="end">451  ms</text>
</g>
<g>
<title>451  ms ±  30 ms</title>
<rect y="193" rx="5" height="22" width="575.7465351432488" fill="hsl(90, 100%, 80%)" stroke="hsl(90, 100%, 55%)" />
<g stroke="hsl(90, 100%, 40%)"><line x1="537.969178644575" x2="613.5238916419227" y1="204" y2="204" />
<line x1="537.969178644575" x2="537.969178644575" y1="198" y2="210" />
<line x1="613.5238916419227" x2="613.5238916419227" y1="198" y2="210" />
</g>
</g>
<text fill="hsl(120, 100%, 40%)" y="242">Full Decode Persons JSON.Unordered Keys.SIMD Decode 294  ms</text>
<g>
<title>294  ms ±  29 ms</title>
<rect y="248" rx="5" height="22" width="375.785709095293" fill="hsl(120, 100%, 80%)" stroke="hsl(120, 100%, 55%)" />
<g stroke="hsl(120, 100%, 40%)"><line x1="339.33066424935896" x2="412.240753941227" y1="259" y2="259" />
<line x1="339.33066424935896" x2="339.33066424935896" y1="253" y2="265" />
<line x1="412.240753941227" x2="412.240753941227" y1="253" y2="265" />
</g>
</g>
<text fill="hsl(150, 100%, 40%)" y="297">Full Decode Persons JSON.Unordered Keys.SIMD DecodeWith 277  ms</text>
<g>
<title>277  ms ±  17 ms</title>
<rect y="303" rx="5" height="22" width="353.1887206080828" fill="hsl(150, 100%, 80%)" stroke="hsl(150, 100%, 55%)" />
<g stroke="hsl(150, 100%, 40%)"><line x1="332.0357299268306" x2="374.341711289335" y1="314" y2="314" />
<line x1="332.0357299268306" x2="332.0357299268306" y1="308" y2="320" />
<line x1="374.341711289335" x2="374.341711289335" y1="308" y2="320" />
</g>
</g>
<g fill="hsl(180, 100%, 40%)">
<text y="352">Full Decode Persons JSON.Unordered Keys.Aeson Decode Lazy</text>
<text y="352" x="893.746206252984" text-anchor="end">700  ms</text>
</g>
<g>
<title>700  ms ±  36 ms</title>
<rect y="358" rx="5" height="22" width="893.746206252984" fill="hsl(180, 100%, 80%)" stroke="hsl(180, 100%, 55%)" />
<g stroke="hsl(180, 100%, 40%)"><line x1="847.4924125059681" x2="940.0" y1="369" y2="369" />
<line x1="847.4924125059681" x2="847.4924125059681" y1="363" y2="375" />
<line x1="940.0" x2="940.0" y1="363" y2="375" />
</g>
</g>
<g fill="hsl(210, 100%, 40%)">
<text y="407">Full Decode Persons JSON.Unordered Keys.Aeson Decode Strict</text>
<text y="407" x="608.0788117758876" text-anchor="end">476  ms</text>
</g>
<g>
<title>476  ms ±  29 ms</title>
<rect y="413" rx="5" height="22" width="608.0788117758876" fill="hsl(210, 100%, 80%)" stroke="hsl(210, 100%, 55%)" />
<g stroke="hsl(210, 100%, 40%)"><line x1="570.7098791877488" x2="645.4477443640264" y1="424" y2="424" />
<line x1="570.7098791877488" x2="570.7098791877488" y1="418" y2="430" />
<line x1="645.4477443640264" x2="645.4477443640264" y1="418" y2="430" />
</g>
</g>
<text fill="hsl(240, 100%, 40%)" y="462">Partial Decode Twitter JSON.SIMD Decode 945  μs</text>
<g>
<title>945  μs ±  29 μs</title>
<rect y="468" rx="5" height="22" width="1.205640562596165" fill="hsl(240, 100%, 80%)" stroke="hsl(240, 100%, 55%)" />
<g stroke="hsl(240, 100%, 40%)"><line x1="1.1689596066588588" x2="1.2423215185334713" y1="479" y2="479" />
<line x1="1.1689596066588588" x2="1.1689596066588588" y1="473" y2="485" />
<line x1="1.2423215185334713" x2="1.2423215185334713" y1="473" y2="485" />
</g>
</g>
<text fill="hsl(270, 100%, 40%)" y="517">Partial Decode Twitter JSON.SIMD DecodeWith 484  μs</text>
<g>
<title>484  μs ±  38 μs</title>
<rect y="523" rx="5" height="22" width="0.6177684865195653" fill="hsl(270, 100%, 80%)" stroke="hsl(270, 100%, 55%)" />
<g stroke="hsl(270, 100%, 40%)"><line x1="0.5688360179828288" x2="0.6667009550563018" y1="534" y2="534" />
<line x1="0.5688360179828288" x2="0.5688360179828288" y1="528" y2="540" />
<line x1="0.6667009550563018" x2="0.6667009550563018" y1="528" y2="540" />
</g>
</g>
<text fill="hsl(300, 100%, 40%)" y="572">Partial Decode Twitter JSON.Aeson Decode Lazy 24.8 ms</text>
<g>
<title>24.8 ms ± 1.7 ms</title>
<rect y="578" rx="5" height="22" width="31.636766709476955" fill="hsl(300, 100%, 80%)" stroke="hsl(300, 100%, 55%)" />
<g stroke="hsl(300, 100%, 40%)"><line x1="29.421759122800506" x2="33.85177429615341" y1="589" y2="589" />
<line x1="29.421759122800506" x2="29.421759122800506" y1="583" y2="595" />
<line x1="33.85177429615341" x2="33.85177429615341" y1="583" y2="595" />
</g>
</g>
<text fill="hsl(330, 100%, 40%)" y="627">Partial Decode Twitter JSON.Aeson Decode Strict 18.4 ms</text>
<g>
<title>18.4 ms ± 1.6 ms</title>
<rect y="633" rx="5" height="22" width="23.47342799673321" fill="hsl(330, 100%, 80%)" stroke="hsl(330, 100%, 55%)" />
<g stroke="hsl(330, 100%, 40%)"><line x1="21.47008873970743" x2="25.476767253758993" y1="644" y2="644" />
<line x1="21.47008873970743" x2="21.47008873970743" y1="638" y2="650" />
<line x1="25.476767253758993" x2="25.476767253758993" y1="638" y2="650" />
</g>
</g>
</g>
</svg>
