<svg version="1.2" baseProfile="tiny-ps" xmlns="http://www.w3.org/2000/svg" viewBox="0 0 1237 667" width="100" height="54"><title>foour-22-ai</title><style>tspan { white-space:pre }.shp0 { fill: #00d2ff } </style><g ><g ><path fill-rule="evenodd" class="shp0" d="M1186.82 124.31C1183.77 132.99 1179.77 140.97 1175.08 148.31C1180.76 151.89 1184.44 158.05 1184.77 164.89C1186.49 200.26 1168.93 236.11 1138.5 262.26C1141.27 267.78 1141.52 274.43 1138.77 280.34C1130.16 298.86 1120.66 317.95 1107.19 334.26C1111.26 340.32 1111.96 348.28 1108.52 355.15C1095.84 380.49 1078.47 415.2 1045.58 432.91C1043.54 434.01 1041.48 435.02 1039.41 435.96C1039.11 437.51 1038.63 439.05 1037.97 440.54C1022.19 475.78 986.84 503.4 940.96 516.32C911.14 524.72 880.71 526.63 851.29 528.48C843.92 528.94 836.31 529.41 828.93 529.99C822.11 530.51 815.17 531.23 811.68 533.63C808.7 535.68 805.54 540.87 802.49 545.89L801.87 546.9C770.61 598.15 735.84 629.17 695.59 641.75C693.54 642.39 691.45 642.7 689.39 642.7C681.96 642.7 674.89 638.7 671.17 631.9C666.42 623.22 668.44 612.39 676.02 606.02C705.78 580.97 744.13 539.95 757.77 486.71C770.17 438.35 758.91 390.07 728.39 360.69C721.38 353.94 719.99 343.24 725.05 334.93C729.79 327.13 733.98 318.85 738.41 310.08C744.18 298.68 750.14 286.89 757.7 275.56C785.22 234.37 830.13 203.75 895.01 181.96C916.77 174.66 939.02 168.76 960.54 163.07C989.39 155.43 1016.65 148.21 1043.08 137.83C1079.4 123.57 1127.19 96.98 1148.64 51.26C1152.07 43.94 1159.42 39.3 1167.44 39.3C1167.82 39.3 1168.2 39.31 1168.59 39.33C1177.05 39.8 1184.38 45.35 1187.11 53.37C1194.92 76.27 1194.82 101.47 1186.82 124.31ZM1167.45 60.08C1145.42 107.04 1098.96 138.21 1050.67 157.17C1002.39 176.13 950.8 185.14 901.63 201.66C852.45 218.17 803.79 243.97 774.98 287.1C762.6 305.65 754.38 326.66 742.8 345.72C781.2 382.68 791.13 440.24 777.9 491.86C764.67 543.49 730.18 587.61 689.39 621.92C730.98 608.92 761.44 573.27 784.14 536.08C788.53 528.87 792.95 521.31 799.89 516.52C807.78 511.09 817.78 510.01 827.33 509.27C863.55 506.47 900.36 506.17 935.33 496.32C970.3 486.48 1004.16 465.21 1019 432.05C946.19 465.71 856.08 439.92 783.85 474.81C804.54 451.28 838.52 445.92 869.6 442.03C907.74 437.25 945.87 432.47 984 427.69C1001.76 425.47 1019.98 423.1 1035.73 414.62C1061.86 400.54 1076.66 372.39 1089.94 345.85C1077.99 358.53 1060.07 363.38 1042.95 366.62C959.32 382.42 869.08 373.7 793.1 412.07C797.33 396.8 814.57 389.7 829.83 385.42C865.94 375.29 903.11 368.95 940.54 366.53C988.84 363.41 1042.34 365.11 1079.01 333.52C1097.91 317.24 1109.41 294.2 1119.93 271.58C1097.32 293.69 1063.79 299.51 1032.38 303.18C982.29 309.04 931.87 312.14 881.94 319.28C854.21 323.25 825.48 328.96 803.3 346.08C821.02 317.33 858.9 310.11 892.37 305.63C923.35 301.48 954.33 297.32 985.32 293.17C1025.35 287.81 1066.44 282.1 1101.8 262.57C1137.15 243.03 1165.98 206.25 1164.02 165.9C1127.02 197.89 1080.91 217.73 1033.8 230.87C986.69 244.01 938.11 250.88 890.04 259.91C870.43 263.6 849.15 268.69 836.99 284.52C848.23 260.69 878.67 254.73 904.67 250.49C967.2 240.28 1028.88 222.87 1085.57 194.57C1119.94 177.42 1154.5 153.69 1167.21 117.44C1173.65 99.05 1173.73 78.51 1167.45 60.08Z" /><path fill-rule="evenodd" class="shp0" d="M52.89 53.37C55.62 45.35 62.95 39.8 71.41 39.33C71.8 39.31 72.18 39.3 72.56 39.3C80.58 39.3 87.93 43.94 91.36 51.26C112.81 96.98 160.6 123.57 196.92 137.83C223.35 148.21 250.61 155.43 279.46 163.07C300.98 168.76 323.23 174.66 344.99 181.96C409.87 203.75 454.78 234.37 482.3 275.56C489.86 286.89 495.82 298.68 501.59 310.08C506.02 318.85 510.21 327.13 514.95 334.93C520.01 343.24 518.62 353.94 511.61 360.69C481.09 390.07 469.83 438.35 482.23 486.71C495.87 539.95 534.22 580.97 563.98 606.02C571.56 612.39 573.58 623.22 568.83 631.9C565.11 638.7 558.04 642.7 550.61 642.7C548.55 642.7 546.46 642.39 544.41 641.75C504.16 629.17 469.39 598.15 438.13 546.9L437.51 545.89C434.46 540.87 431.3 535.68 428.32 533.63C424.83 531.23 417.89 530.51 411.07 529.99C403.69 529.41 396.08 528.94 388.71 528.48C359.29 526.63 328.86 524.72 299.04 516.32C253.16 503.4 217.81 475.78 202.03 440.54C201.37 439.05 200.89 437.51 200.59 435.96C198.52 435.02 196.46 434.01 194.42 432.91C161.53 415.2 144.16 380.49 131.48 355.15C128.04 348.28 128.74 340.32 132.81 334.26C119.34 317.95 109.84 298.86 101.23 280.34C98.48 274.43 98.73 267.78 101.5 262.26C71.07 236.11 53.51 200.26 55.23 164.89C55.56 158.05 59.24 151.89 64.92 148.31C60.23 140.97 56.23 132.99 53.18 124.31C45.18 101.47 45.08 76.27 52.89 53.37ZM72.79 117.44C85.5 153.69 120.06 177.42 154.43 194.57C211.12 222.87 272.8 240.28 335.33 250.49C361.33 254.73 391.77 260.69 403.01 284.52C390.85 268.69 369.57 263.6 349.96 259.91C301.89 250.88 253.31 244.01 206.2 230.87C159.09 217.73 112.98 197.89 75.98 165.9C74.02 206.25 102.85 243.03 138.2 262.57C173.56 282.1 214.65 287.81 254.68 293.17C285.67 297.32 316.65 301.48 347.63 305.63C381.1 310.11 418.98 317.33 436.7 346.08C414.52 328.96 385.79 323.25 358.06 319.28C308.13 312.14 257.71 309.04 207.62 303.18C176.21 299.51 142.68 293.69 120.07 271.58C130.59 294.2 142.09 317.24 160.99 333.52C197.66 365.11 251.16 363.41 299.46 366.53C336.89 368.95 374.06 375.29 410.17 385.42C425.43 389.7 442.67 396.8 446.9 412.07C370.92 373.7 280.68 382.42 197.05 366.62C179.93 363.38 162.01 358.53 150.06 345.85C163.34 372.39 178.14 400.54 204.27 414.62C220.02 423.1 238.24 425.47 256 427.69C294.13 432.47 332.26 437.25 370.4 442.03C401.48 445.92 435.46 451.28 456.15 474.81C383.92 439.92 293.81 465.71 221 432.05C235.84 465.21 269.7 486.48 304.67 496.32C339.64 506.17 376.45 506.47 412.67 509.27C422.22 510.01 432.22 511.09 440.11 516.52C447.05 521.31 451.47 528.87 455.86 536.08C478.56 573.27 509.02 608.92 550.61 621.92C509.82 587.61 475.33 543.49 462.1 491.86C448.87 440.24 458.8 382.68 497.2 345.72C485.62 326.66 477.4 305.65 465.02 287.1C436.21 243.97 387.55 218.17 338.37 201.66C289.2 185.14 237.61 176.13 189.33 157.17C141.04 138.21 94.58 107.04 72.55 60.08C66.27 78.51 66.35 99.05 72.79 117.44Z" /></g></g><g ></g></svg>