<svg xmlns="http://www.w3.org/2000/svg" height="777" width="960.0" font-size="16" font-family="sans-serif" stroke-width="2">
<g transform="translate(10.0 0)">
<text fill="hsl(0, 100%, 40%)" y="22">1 Million 3-Arrays.Hermes [[Double]] 542  ms</text>
<g>
<title>542  ms ±  29 ms</title>
<rect y="28" rx="5" height="22" width="244.89608651852123" fill="hsl(0, 100%, 80%)" stroke="hsl(0, 100%, 55%)" />
<g stroke="hsl(0, 100%, 40%)"><line x1="231.63597582795066" x2="258.1561972090918" y1="39" y2="39" />
<line x1="231.63597582795066" x2="231.63597582795066" y1="33" y2="45" />
<line x1="258.1561972090918" x2="258.1561972090918" y1="33" y2="45" />
</g>
</g>
<g fill="hsl(25, 100%, 40%)">
<text y="77">1 Million 3-Arrays.Aeson [[Double]]</text>
<text y="77" x="882.6733592980543" text-anchor="end">1.953 s</text>
</g>
<g>
<title>1.953 s ± 127 ms</title>
<rect y="83" rx="5" height="22" width="882.6733592980543" fill="hsl(25, 100%, 80%)" stroke="hsl(25, 100%, 55%)" />
<g stroke="hsl(25, 100%, 40%)"><line x1="825.3467185961085" x2="940.0" y1="94" y2="94" />
<line x1="825.3467185961085" x2="825.3467185961085" y1="88" y2="100" />
<line x1="940.0" x2="940.0" y1="88" y2="100" />
</g>
</g>
<text fill="hsl(51, 100%, 40%)" y="132">Small Object to Map.Hermes Decode 1.47 μs</text>
<g>
<title>1.47 μs ±  92 ns</title>
<rect y="138" rx="5" height="22" width="0.000665370753889532" fill="hsl(51, 100%, 80%)" stroke="hsl(51, 100%, 55%)" />
<g stroke="hsl(51, 100%, 40%)"><line x1="0.0006239934943757049" x2="0.0007067480134033593" y1="149" y2="149" />
<line x1="0.0006239934943757049" x2="0.0006239934943757049" y1="143" y2="155" />
<line x1="0.0007067480134033593" x2="0.0007067480134033593" y1="143" y2="155" />
</g>
</g>
<text fill="hsl(77, 100%, 40%)" y="187">Small Object to Map.Aeson Lazy 3.10 μs</text>
<g>
<title>3.10 μs ± 193 ns</title>
<rect y="193" rx="5" height="22" width="0.0013993121072291591" fill="hsl(77, 100%, 80%)" stroke="hsl(77, 100%, 55%)" />
<g stroke="hsl(77, 100%, 40%)"><line x1="0.0013119843169068636" x2="0.0014866398975514547" y1="204" y2="204" />
<line x1="0.0013119843169068636" x2="0.0013119843169068636" y1="198" y2="210" />
<line x1="0.0014866398975514547" x2="0.0014866398975514547" y1="198" y2="210" />
</g>
</g>
<text fill="hsl(102, 100%, 40%)" y="242">Small Object to Map.Aeson Strict 2.99 μs</text>
<g>
<title>2.99 μs ± 200 ns</title>
<rect y="248" rx="5" height="22" width="0.001349713353183375" fill="hsl(102, 100%, 80%)" stroke="hsl(102, 100%, 55%)" />
<g stroke="hsl(102, 100%, 40%)"><line x1="0.001259321651855381" x2="0.0014401050545113688" y1="259" y2="259" />
<line x1="0.001259321651855381" x2="0.001259321651855381" y1="253" y2="265" />
<line x1="0.0014401050545113688" x2="0.0014401050545113688" y1="253" y2="265" />
</g>
</g>
<text fill="hsl(128, 100%, 40%)" y="297">Full Persons Array.Ordered Keys.Hermes Decode 90.3 ms</text>
<g>
<title>90.3 ms ± 7.5 ms</title>
<rect y="303" rx="5" height="22" width="40.8119658093258" fill="hsl(128, 100%, 80%)" stroke="hsl(128, 100%, 55%)" />
<g stroke="hsl(128, 100%, 40%)"><line x1="37.410819339885165" x2="44.21311227876643" y1="314" y2="314" />
<line x1="37.410819339885165" x2="37.410819339885165" y1="308" y2="320" />
<line x1="44.21311227876643" x2="44.21311227876643" y1="308" y2="320" />
</g>
</g>
<text fill="hsl(154, 100%, 40%)" y="352">Full Persons Array.Ordered Keys.Aeson Lazy 422  ms</text>
<g>
<title>422  ms ±  38 ms</title>
<rect y="358" rx="5" height="22" width="190.87080615633377" fill="hsl(154, 100%, 80%)" stroke="hsl(154, 100%, 55%)" />
<g stroke="hsl(154, 100%, 40%)"><line x1="173.67429920236862" x2="208.06731311029893" y1="369" y2="369" />
<line x1="173.67429920236862" x2="173.67429920236862" y1="363" y2="375" />
<line x1="208.06731311029893" x2="208.06731311029893" y1="363" y2="375" />
</g>
</g>
<text fill="hsl(180, 100%, 40%)" y="407">Full Persons Array.Ordered Keys.Aeson Strict 300  ms</text>
<g>
<title>300  ms ± 3.1 ms</title>
<rect y="413" rx="5" height="22" width="135.7820615351907" fill="hsl(180, 100%, 80%)" stroke="hsl(180, 100%, 55%)" />
<g stroke="hsl(180, 100%, 40%)"><line x1="134.39341564871825" x2="137.17070742166317" y1="424" y2="424" />
<line x1="134.39341564871825" x2="134.39341564871825" y1="418" y2="430" />
<line x1="137.17070742166317" x2="137.17070742166317" y1="418" y2="430" />
</g>
</g>
<text fill="hsl(205, 100%, 40%)" y="462">Full Persons Array.Unordered Keys.Hermes Decode 101  ms</text>
<g>
<title>101  ms ± 2.9 ms</title>
<rect y="468" rx="5" height="22" width="45.58404737499124" fill="hsl(205, 100%, 80%)" stroke="hsl(205, 100%, 55%)" />
<g stroke="hsl(205, 100%, 40%)"><line x1="44.28849861964958" x2="46.87959613033291" y1="479" y2="479" />
<line x1="44.28849861964958" x2="44.28849861964958" y1="473" y2="485" />
<line x1="46.87959613033291" x2="46.87959613033291" y1="473" y2="485" />
</g>
</g>
<text fill="hsl(231, 100%, 40%)" y="517">Full Persons Array.Unordered Keys.Aeson Lazy 424  ms</text>
<g>
<title>424  ms ±  34 ms</title>
<rect y="523" rx="5" height="22" width="191.6298557632704" fill="hsl(231, 100%, 80%)" stroke="hsl(231, 100%, 55%)" />
<g stroke="hsl(231, 100%, 40%)"><line x1="176.2868882049875" x2="206.9728233215533" y1="534" y2="534" />
<line x1="176.2868882049875" x2="176.2868882049875" y1="528" y2="540" />
<line x1="206.9728233215533" x2="206.9728233215533" y1="528" y2="540" />
</g>
</g>
<text fill="hsl(257, 100%, 40%)" y="572">Full Persons Array.Unordered Keys.Aeson Strict 304  ms</text>
<g>
<title>304  ms ± 7.2 ms</title>
<rect y="578" rx="5" height="22" width="137.16607749603298" fill="hsl(257, 100%, 80%)" stroke="hsl(257, 100%, 55%)" />
<g stroke="hsl(257, 100%, 40%)"><line x1="133.93238961585584" x2="140.39976537621013" y1="589" y2="589" />
<line x1="133.93238961585584" x2="133.93238961585584" y1="583" y2="595" />
<line x1="140.39976537621013" x2="140.39976537621013" y1="583" y2="595" />
</g>
</g>
<text fill="hsl(282, 100%, 40%)" y="627">Partial Twitter.Hermes Decode 385  μs</text>
<g>
<title>385  μs ±  23 μs</title>
<rect y="633" rx="5" height="22" width="0.17408563806520944" fill="hsl(282, 100%, 80%)" stroke="hsl(282, 100%, 55%)" />
<g stroke="hsl(282, 100%, 40%)"><line x1="0.16379877558524797" x2="0.1843725005451709" y1="644" y2="644" />
<line x1="0.16379877558524797" x2="0.16379877558524797" y1="638" y2="650" />
<line x1="0.1843725005451709" x2="0.1843725005451709" y1="638" y2="650" />
</g>
</g>
<text fill="hsl(308, 100%, 40%)" y="682">Partial Twitter.Aeson Lazy 14.5 ms</text>
<g>
<title>14.5 ms ± 980 μs</title>
<rect y="688" rx="5" height="22" width="6.554685188901954" fill="hsl(308, 100%, 80%)" stroke="hsl(308, 100%, 55%)" />
<g stroke="hsl(308, 100%, 40%)"><line x1="6.111891675199134" x2="6.997478702604774" y1="699" y2="699" />
<line x1="6.111891675199134" x2="6.111891675199134" y1="693" y2="705" />
<line x1="6.997478702604774" x2="6.997478702604774" y1="693" y2="705" />
</g>
</g>
<text fill="hsl(334, 100%, 40%)" y="737">Partial Twitter.Aeson Strict 11.4 ms</text>
<g>
<title>11.4 ms ± 799 μs</title>
<rect y="743" rx="5" height="22" width="5.135306294797797" fill="hsl(334, 100%, 80%)" stroke="hsl(334, 100%, 55%)" />
<g stroke="hsl(334, 100%, 40%)"><line x1="4.774355088858231" x2="5.496257500737363" y1="754" y2="754" />
<line x1="4.774355088858231" x2="4.774355088858231" y1="748" y2="760" />
<line x1="5.496257500737363" x2="5.496257500737363" y1="748" y2="760" />
</g>
</g>
</g>
</svg>
