<svg xmlns="http://www.w3.org/2000/svg" height="777" width="960.0" font-size="16" font-family="sans-serif" stroke-width="2">
<g transform="translate(10.0 0)">
<text fill="hsl(0, 100%, 40%)" y="22">1 Million 3-Arrays.Hermes [[Double]] 496  ms</text>
<g>
<title>496  ms ±  14 ms</title>
<rect y="28" rx="5" height="22" width="181.47974789478883" fill="hsl(0, 100%, 80%)" stroke="hsl(0, 100%, 55%)" />
<g stroke="hsl(0, 100%, 40%)"><line x1="176.38394501999363" x2="186.57555076958403" y1="39" y2="39" />
<line x1="176.38394501999363" x2="176.38394501999363" y1="33" y2="45" />
<line x1="186.57555076958403" x2="186.57555076958403" y1="33" y2="45" />
</g>
</g>
<g fill="hsl(25, 100%, 40%)">
<text y="77">1 Million 3-Arrays.Aeson [[Double]]</text>
<text y="77" x="902.6948767114671" text-anchor="end">2.465 s</text>
</g>
<g>
<title>2.465 s ± 102 ms</title>
<rect y="83" rx="5" height="22" width="902.6948767114671" fill="hsl(25, 100%, 80%)" stroke="hsl(25, 100%, 55%)" />
<g stroke="hsl(25, 100%, 40%)"><line x1="865.3897534229343" x2="940.0" y1="94" y2="94" />
<line x1="865.3897534229343" x2="865.3897534229343" y1="88" y2="100" />
<line x1="940.0" x2="940.0" y1="88" y2="100" />
</g>
</g>
<text fill="hsl(51, 100%, 40%)" y="132">Small Object to Map.Hermes Decode 1.80 μs</text>
<g>
<title>1.80 μs ± 102 ns</title>
<rect y="138" rx="5" height="22" width="0.0006588044736059752" fill="hsl(51, 100%, 80%)" stroke="hsl(51, 100%, 55%)" />
<g stroke="hsl(51, 100%, 40%)"><line x1="0.0006214089226103323" x2="0.0006962000246016182" y1="149" y2="149" />
<line x1="0.0006214089226103323" x2="0.0006214089226103323" y1="143" y2="155" />
<line x1="0.0006962000246016182" x2="0.0006962000246016182" y1="143" y2="155" />
</g>
</g>
<text fill="hsl(77, 100%, 40%)" y="187">Small Object to Map.Aeson Lazy 3.53 μs</text>
<g>
<title>3.53 μs ± 255 ns</title>
<rect y="193" rx="5" height="22" width="0.001292458877449258" fill="hsl(77, 100%, 80%)" stroke="hsl(77, 100%, 55%)" />
<g stroke="hsl(77, 100%, 40%)"><line x1="0.0011992545146099327" x2="0.0013856632402885834" y1="204" y2="204" />
<line x1="0.0011992545146099327" x2="0.0011992545146099327" y1="198" y2="210" />
<line x1="0.0013856632402885834" x2="0.0013856632402885834" y1="198" y2="210" />
</g>
</g>
<text fill="hsl(102, 100%, 40%)" y="242">Small Object to Map.Aeson Strict 3.48 μs</text>
<g>
<title>3.48 μs ± 181 ns</title>
<rect y="248" rx="5" height="22" width="0.0012756399239180136" fill="hsl(102, 100%, 80%)" stroke="hsl(102, 100%, 55%)" />
<g stroke="hsl(102, 100%, 40%)"><line x1="0.0012093454473238146" x2="0.0013419344005122125" y1="259" y2="259" />
<line x1="0.0012093454473238146" x2="0.0012093454473238146" y1="253" y2="265" />
<line x1="0.0013419344005122125" x2="0.0013419344005122125" y1="253" y2="265" />
</g>
</g>
<text fill="hsl(128, 100%, 40%)" y="297">Full Persons Array.Ordered Keys.Hermes Decode 78.5 ms</text>
<g>
<title>78.5 ms ± 6.2 ms</title>
<rect y="303" rx="5" height="22" width="28.758419704838037" fill="hsl(128, 100%, 80%)" stroke="hsl(128, 100%, 55%)" />
<g stroke="hsl(128, 100%, 40%)"><line x1="26.49797344093994" x2="31.018865968736133" y1="314" y2="314" />
<line x1="26.49797344093994" x2="26.49797344093994" y1="308" y2="320" />
<line x1="31.018865968736133" x2="31.018865968736133" y1="308" y2="320" />
</g>
</g>
<text fill="hsl(154, 100%, 40%)" y="352">Full Persons Array.Ordered Keys.Aeson Lazy 495  ms</text>
<g>
<title>495  ms ±  25 ms</title>
<rect y="358" rx="5" height="22" width="181.34433649768727" fill="hsl(154, 100%, 80%)" stroke="hsl(154, 100%, 55%)" />
<g stroke="hsl(154, 100%, 40%)"><line x1="172.06796366985586" x2="190.62070932551867" y1="369" y2="369" />
<line x1="172.06796366985586" x2="172.06796366985586" y1="363" y2="375" />
<line x1="190.62070932551867" x2="190.62070932551867" y1="363" y2="375" />
</g>
</g>
<text fill="hsl(180, 100%, 40%)" y="407">Full Persons Array.Ordered Keys.Aeson Strict 400  ms</text>
<g>
<title>400  ms ±  26 ms</title>
<rect y="413" rx="5" height="22" width="146.60398943379474" fill="hsl(180, 100%, 80%)" stroke="hsl(180, 100%, 55%)" />
<g stroke="hsl(180, 100%, 40%)"><line x1="136.91141073129864" x2="156.29656813629083" y1="424" y2="424" />
<line x1="136.91141073129864" x2="136.91141073129864" y1="418" y2="430" />
<line x1="156.29656813629083" x2="156.29656813629083" y1="418" y2="430" />
</g>
</g>
<text fill="hsl(205, 100%, 40%)" y="462">Full Persons Array.Unordered Keys.Hermes Decode 110  ms</text>
<g>
<title>110  ms ± 7.4 ms</title>
<rect y="468" rx="5" height="22" width="40.411710900752155" fill="hsl(205, 100%, 80%)" stroke="hsl(205, 100%, 55%)" />
<g stroke="hsl(205, 100%, 40%)"><line x1="37.703201240151024" x2="43.120220561353285" y1="479" y2="479" />
<line x1="37.703201240151024" x2="37.703201240151024" y1="473" y2="485" />
<line x1="43.120220561353285" x2="43.120220561353285" y1="473" y2="485" />
</g>
</g>
<text fill="hsl(231, 100%, 40%)" y="517">Full Persons Array.Unordered Keys.Aeson Lazy 496  ms</text>
<g>
<title>496  ms ±  17 ms</title>
<rect y="523" rx="5" height="22" width="181.45641249388248" fill="hsl(231, 100%, 80%)" stroke="hsl(231, 100%, 55%)" />
<g stroke="hsl(231, 100%, 40%)"><line x1="175.09961609410246" x2="187.8132088936625" y1="534" y2="534" />
<line x1="175.09961609410246" x2="175.09961609410246" y1="528" y2="540" />
<line x1="187.8132088936625" x2="187.8132088936625" y1="528" y2="540" />
</g>
</g>
<text fill="hsl(257, 100%, 40%)" y="572">Full Persons Array.Unordered Keys.Aeson Strict 400  ms</text>
<g>
<title>400  ms ±  18 ms</title>
<rect y="578" rx="5" height="22" width="146.61037750171525" fill="hsl(257, 100%, 80%)" stroke="hsl(257, 100%, 55%)" />
<g stroke="hsl(257, 100%, 40%)"><line x1="139.96421677288666" x2="153.25653823054384" y1="589" y2="589" />
<line x1="139.96421677288666" x2="139.96421677288666" y1="583" y2="595" />
<line x1="153.25653823054384" x2="153.25653823054384" y1="583" y2="595" />
</g>
</g>
<text fill="hsl(282, 100%, 40%)" y="627">Partial Twitter.Hermes Decode 482  μs</text>
<g>
<title>482  μs ±  38 μs</title>
<rect y="633" rx="5" height="22" width="0.1766021032912886" fill="hsl(282, 100%, 80%)" stroke="hsl(282, 100%, 55%)" />
<g stroke="hsl(282, 100%, 40%)"><line x1="0.1627126612595099" x2="0.19049154532306728" y1="644" y2="644" />
<line x1="0.1627126612595099" x2="0.1627126612595099" y1="638" y2="650" />
<line x1="0.19049154532306728" x2="0.19049154532306728" y1="638" y2="650" />
</g>
</g>
<text fill="hsl(308, 100%, 40%)" y="682">Partial Twitter.Aeson Lazy 13.6 ms</text>
<g>
<title>13.6 ms ± 904 μs</title>
<rect y="688" rx="5" height="22" width="4.987643111804494" fill="hsl(308, 100%, 80%)" stroke="hsl(308, 100%, 55%)" />
<g stroke="hsl(308, 100%, 40%)"><line x1="4.656643195252376" x2="5.318643028356612" y1="699" y2="699" />
<line x1="4.656643195252376" x2="4.656643195252376" y1="693" y2="705" />
<line x1="5.318643028356612" x2="5.318643028356612" y1="693" y2="705" />
</g>
</g>
<text fill="hsl(334, 100%, 40%)" y="737">Partial Twitter.Aeson Strict 11.9 ms</text>
<g>
<title>11.9 ms ± 724 μs</title>
<rect y="743" rx="5" height="22" width="4.361409120993853" fill="hsl(334, 100%, 80%)" stroke="hsl(334, 100%, 55%)" />
<g stroke="hsl(334, 100%, 40%)"><line x1="4.096357969005987" x2="4.62646027298172" y1="754" y2="754" />
<line x1="4.096357969005987" x2="4.096357969005987" y1="748" y2="760" />
<line x1="4.62646027298172" x2="4.62646027298172" y1="748" y2="760" />
</g>
</g>
</g>
</svg>
