<svg xmlns="http://www.w3.org/2000/svg" height="667" width="960.0" font-size="16" font-family="sans-serif" stroke-width="2">
<g transform="translate(10.0 0)">
<text fill="hsl(0, 100%, 40%)" y="22">Small Map.Hermes Decode 1.50 μs</text>
<g>
<title>1.50 μs ±  85 ns</title>
<rect y="28" rx="5" height="22" width="0.0027384261494129863" fill="hsl(0, 100%, 80%)" stroke="hsl(0, 100%, 55%)" />
<g stroke="hsl(0, 100%, 40%)"><line x1="0.0025819276047682796" x2="0.002894924694057693" y1="39" y2="39" />
<line x1="0.0025819276047682796" x2="0.0025819276047682796" y1="33" y2="45" />
<line x1="0.002894924694057693" x2="0.002894924694057693" y1="33" y2="45" />
</g>
</g>
<text fill="hsl(30, 100%, 40%)" y="77">Small Map.Aeson Lazy 3.08 μs</text>
<g>
<title>3.08 μs ± 165 ns</title>
<rect y="83" rx="5" height="22" width="0.005640501024954119" fill="hsl(30, 100%, 80%)" stroke="hsl(30, 100%, 55%)" />
<g stroke="hsl(30, 100%, 40%)"><line x1="0.005339120692370775" x2="0.005941881357537463" y1="94" y2="94" />
<line x1="0.005339120692370775" x2="0.005339120692370775" y1="88" y2="100" />
<line x1="0.005941881357537463" x2="0.005941881357537463" y1="88" y2="100" />
</g>
</g>
<text fill="hsl(60, 100%, 40%)" y="132">Small Map.Aeson Strict 3.02 μs</text>
<g>
<title>3.02 μs ± 182 ns</title>
<rect y="138" rx="5" height="22" width="0.00552286717643714" fill="hsl(60, 100%, 80%)" stroke="hsl(60, 100%, 55%)" />
<g stroke="hsl(60, 100%, 40%)"><line x1="0.005189276246469617" x2="0.005856458106404663" y1="149" y2="149" />
<line x1="0.005189276246469617" x2="0.005189276246469617" y1="143" y2="155" />
<line x1="0.005856458106404663" x2="0.005856458106404663" y1="143" y2="155" />
</g>
</g>
<text fill="hsl(90, 100%, 40%)" y="187">Full Persons Array.Ordered Keys.Hermes Decode 111  ms</text>
<g>
<title>111  ms ± 3.3 ms</title>
<rect y="193" rx="5" height="22" width="202.34309618284524" fill="hsl(90, 100%, 80%)" stroke="hsl(90, 100%, 55%)" />
<g stroke="hsl(90, 100%, 40%)"><line x1="196.24280068004504" x2="208.44339168564545" y1="204" y2="204" />
<line x1="196.24280068004504" x2="196.24280068004504" y1="198" y2="210" />
<line x1="208.44339168564545" x2="208.44339168564545" y1="198" y2="210" />
</g>
</g>
<g fill="hsl(120, 100%, 40%)">
<text y="242">Full Persons Array.Ordered Keys.Aeson Lazy</text>
<text y="242" x="858.871342586868" text-anchor="end">469  ms</text>
</g>
<g>
<title>469  ms ±  38 ms</title>
<rect y="248" rx="5" height="22" width="858.871342586868" fill="hsl(120, 100%, 80%)" stroke="hsl(120, 100%, 55%)" />
<g stroke="hsl(120, 100%, 40%)"><line x1="788.8040002480092" x2="928.9386849257268" y1="259" y2="259" />
<line x1="788.8040002480092" x2="788.8040002480092" y1="253" y2="265" />
<line x1="928.9386849257268" x2="928.9386849257268" y1="253" y2="265" />
</g>
</g>
<g fill="hsl(150, 100%, 40%)">
<text y="297">Full Persons Array.Ordered Keys.Aeson Strict</text>
<text y="297" x="673.635490362011" text-anchor="end">368  ms</text>
</g>
<g>
<title>368  ms ±  31 ms</title>
<rect y="303" rx="5" height="22" width="673.635490362011" fill="hsl(150, 100%, 80%)" stroke="hsl(150, 100%, 55%)" />
<g stroke="hsl(150, 100%, 40%)"><line x1="616.637061282059" x2="730.6339194419629" y1="314" y2="314" />
<line x1="616.637061282059" x2="616.637061282059" y1="308" y2="320" />
<line x1="730.6339194419629" x2="730.6339194419629" y1="308" y2="320" />
</g>
</g>
<text fill="hsl(180, 100%, 40%)" y="352">Full Persons Array.Unordered Keys.Hermes Decode 119  ms</text>
<g>
<title>119  ms ± 4.3 ms</title>
<rect y="358" rx="5" height="22" width="218.06546567911167" fill="hsl(180, 100%, 80%)" stroke="hsl(180, 100%, 55%)" />
<g stroke="hsl(180, 100%, 40%)"><line x1="210.1677112271004" x2="225.96322013112294" y1="369" y2="369" />
<line x1="210.1677112271004" x2="210.1677112271004" y1="363" y2="375" />
<line x1="225.96322013112294" x2="225.96322013112294" y1="363" y2="375" />
</g>
</g>
<g fill="hsl(210, 100%, 40%)">
<text y="407">Full Persons Array.Unordered Keys.Aeson Lazy</text>
<text y="407" x="860.4824769081829" text-anchor="end">470  ms</text>
</g>
<g>
<title>470  ms ±  43 ms</title>
<rect y="413" rx="5" height="22" width="860.4824769081829" fill="hsl(210, 100%, 80%)" stroke="hsl(210, 100%, 55%)" />
<g stroke="hsl(210, 100%, 40%)"><line x1="780.9649538163658" x2="940.0" y1="424" y2="424" />
<line x1="780.9649538163658" x2="780.9649538163658" y1="418" y2="430" />
<line x1="940.0" x2="940.0" y1="418" y2="430" />
</g>
</g>
<g fill="hsl(240, 100%, 40%)">
<text y="462">Full Persons Array.Unordered Keys.Aeson Strict</text>
<text y="462" x="669.3893197581925" text-anchor="end">366  ms</text>
</g>
<g>
<title>366  ms ±  33 ms</title>
<rect y="468" rx="5" height="22" width="669.3893197581925" fill="hsl(240, 100%, 80%)" stroke="hsl(240, 100%, 55%)" />
<g stroke="hsl(240, 100%, 40%)"><line x1="609.2780545747104" x2="729.5005849416747" y1="479" y2="479" />
<line x1="609.2780545747104" x2="609.2780545747104" y1="473" y2="485" />
<line x1="729.5005849416747" x2="729.5005849416747" y1="473" y2="485" />
</g>
</g>
<text fill="hsl(270, 100%, 40%)" y="517">Partial Twitter.Hermes Decode 464  μs</text>
<g>
<title>464  μs ±  45 μs</title>
<rect y="523" rx="5" height="22" width="0.8487289840561523" fill="hsl(270, 100%, 80%)" stroke="hsl(270, 100%, 55%)" />
<g stroke="hsl(270, 100%, 40%)"><line x1="0.7667187126123824" x2="0.9307392554999221" y1="534" y2="534" />
<line x1="0.7667187126123824" x2="0.7667187126123824" y1="528" y2="540" />
<line x1="0.9307392554999221" x2="0.9307392554999221" y1="528" y2="540" />
</g>
</g>
<text fill="hsl(300, 100%, 40%)" y="572">Partial Twitter.Aeson Lazy 17.6 ms</text>
<g>
<title>17.6 ms ± 1.3 ms</title>
<rect y="578" rx="5" height="22" width="32.29016630981233" fill="hsl(300, 100%, 80%)" stroke="hsl(300, 100%, 55%)" />
<g stroke="hsl(300, 100%, 40%)"><line x1="29.870386229884378" x2="34.70994638974028" y1="589" y2="589" />
<line x1="29.870386229884378" x2="29.870386229884378" y1="583" y2="595" />
<line x1="34.70994638974028" x2="34.70994638974028" y1="583" y2="595" />
</g>
</g>
<text fill="hsl(330, 100%, 40%)" y="627">Partial Twitter.Aeson Strict 14.6 ms</text>
<g>
<title>14.6 ms ± 1.1 ms</title>
<rect y="633" rx="5" height="22" width="26.685394774681104" fill="hsl(330, 100%, 80%)" stroke="hsl(330, 100%, 55%)" />
<g stroke="hsl(330, 100%, 40%)"><line x1="24.72121592981348" x2="28.64957361954873" y1="644" y2="644" />
<line x1="24.72121592981348" x2="24.72121592981348" y1="638" y2="650" />
<line x1="28.64957361954873" x2="28.64957361954873" y1="638" y2="650" />
</g>
</g>
</g>
</svg>
