<svg xmlns="http://www.w3.org/2000/svg" height="997" width="960.0" font-size="16" font-family="sans-serif" stroke-width="2">
<g transform="translate(10.0 0)">
<text fill="hsl(0, 100%, 40%)" y="22">Small Map.Hermes Decode 1.59 μs</text>
<g>
<title>1.59 μs ±  69 ns</title>
<rect y="28" rx="5" height="22" width="0.0020201863451235836" fill="hsl(0, 100%, 80%)" stroke="hsl(0, 100%, 55%)" />
<g stroke="hsl(0, 100%, 40%)"><line x1="0.0019328504802424594" x2="0.0021075222100047078" y1="39" y2="39" />
<line x1="0.0019328504802424594" x2="0.0019328504802424594" y1="33" y2="45" />
<line x1="0.0021075222100047078" x2="0.0021075222100047078" y1="33" y2="45" />
</g>
</g>
<text fill="hsl(20, 100%, 40%)" y="77">Small Map.Hermes DecodeWith 1.18 μs</text>
<g>
<title>1.18 μs ±  97 ns</title>
<rect y="83" rx="5" height="22" width="0.001491125376789911" fill="hsl(20, 100%, 80%)" stroke="hsl(20, 100%, 55%)" />
<g stroke="hsl(20, 100%, 40%)"><line x1="0.0013680859954148445" x2="0.0016141647581649774" y1="94" y2="94" />
<line x1="0.0013680859954148445" x2="0.0013680859954148445" y1="88" y2="100" />
<line x1="0.0016141647581649774" x2="0.0016141647581649774" y1="88" y2="100" />
</g>
</g>
<text fill="hsl(40, 100%, 40%)" y="132">Small Map.Aeson Lazy 3.07 μs</text>
<g>
<title>3.07 μs ±  79 ns</title>
<rect y="138" rx="5" height="22" width="0.0038961785821389062" fill="hsl(40, 100%, 80%)" stroke="hsl(40, 100%, 55%)" />
<g stroke="hsl(40, 100%, 40%)"><line x1="0.0037964756117506077" x2="0.003995881552527204" y1="149" y2="149" />
<line x1="0.0037964756117506077" x2="0.0037964756117506077" y1="143" y2="155" />
<line x1="0.003995881552527204" x2="0.003995881552527204" y1="143" y2="155" />
</g>
</g>
<text fill="hsl(60, 100%, 40%)" y="187">Small Map.Aeson Strict 3.06 μs</text>
<g>
<title>3.06 μs ± 201 ns</title>
<rect y="193" rx="5" height="22" width="0.0038834157292555026" fill="hsl(60, 100%, 80%)" stroke="hsl(60, 100%, 55%)" />
<g stroke="hsl(60, 100%, 40%)"><line x1="0.0036280673452698388" x2="0.004138764113241166" y1="204" y2="204" />
<line x1="0.0036280673452698388" x2="0.0036280673452698388" y1="198" y2="210" />
<line x1="0.004138764113241166" x2="0.004138764113241166" y1="198" y2="210" />
</g>
</g>
<text fill="hsl(80, 100%, 40%)" y="242">Small Map.Waargonaut Attoparsec 64.1 μs</text>
<g>
<title>64.1 μs ± 2.0 μs</title>
<rect y="248" rx="5" height="22" width="0.08126183014022446" fill="hsl(80, 100%, 80%)" stroke="hsl(80, 100%, 55%)" />
<g stroke="hsl(80, 100%, 40%)"><line x1="0.078781701628131" x2="0.08374195865231793" y1="259" y2="259" />
<line x1="0.078781701628131" x2="0.078781701628131" y1="253" y2="265" />
<line x1="0.08374195865231793" x2="0.08374195865231793" y1="253" y2="265" />
</g>
</g>
<text fill="hsl(100, 100%, 40%)" y="297">Full Persons Array.Ordered Keys.Hermes Decode 162  ms</text>
<g>
<title>162  ms ±  15 ms</title>
<rect y="303" rx="5" height="22" width="205.5473208125094" fill="hsl(100, 100%, 80%)" stroke="hsl(100, 100%, 55%)" />
<g stroke="hsl(100, 100%, 40%)"><line x1="186.07148935347266" x2="225.02315227154617" y1="314" y2="314" />
<line x1="186.07148935347266" x2="186.07148935347266" y1="308" y2="320" />
<line x1="225.02315227154617" x2="225.02315227154617" y1="308" y2="320" />
</g>
</g>
<text fill="hsl(120, 100%, 40%)" y="352">Full Persons Array.Ordered Keys.Hermes DecodeWith 161  ms</text>
<g>
<title>161  ms ± 4.3 ms</title>
<rect y="358" rx="5" height="22" width="203.6874626379177" fill="hsl(120, 100%, 80%)" stroke="hsl(120, 100%, 55%)" />
<g stroke="hsl(120, 100%, 40%)"><line x1="198.2273379754889" x2="209.1475873003465" y1="369" y2="369" />
<line x1="198.2273379754889" x2="198.2273379754889" y1="363" y2="375" />
<line x1="209.1475873003465" x2="209.1475873003465" y1="363" y2="375" />
</g>
</g>
<g fill="hsl(140, 100%, 40%)">
<text y="407">Full Persons Array.Ordered Keys.Aeson Lazy</text>
<text y="407" x="725.9938246477884" text-anchor="end">572  ms</text>
</g>
<g>
<title>572  ms ±  12 ms</title>
<rect y="413" rx="5" height="22" width="725.9938246477884" fill="hsl(140, 100%, 80%)" stroke="hsl(140, 100%, 55%)" />
<g stroke="hsl(140, 100%, 40%)"><line x1="710.9400568107195" x2="741.0475924848573" y1="424" y2="424" />
<line x1="710.9400568107195" x2="710.9400568107195" y1="418" y2="430" />
<line x1="741.0475924848573" x2="741.0475924848573" y1="418" y2="430" />
</g>
</g>
<g fill="hsl(160, 100%, 40%)">
<text y="462">Full Persons Array.Ordered Keys.Aeson Strict</text>
<text y="462" x="526.3487372833152" text-anchor="end">415  ms</text>
</g>
<g>
<title>415  ms ± 3.7 ms</title>
<rect y="468" rx="5" height="22" width="526.3487372833152" fill="hsl(160, 100%, 80%)" stroke="hsl(160, 100%, 55%)" />
<g stroke="hsl(160, 100%, 40%)"><line x1="521.6552315786337" x2="531.0422429879968" y1="479" y2="479" />
<line x1="521.6552315786337" x2="521.6552315786337" y1="473" y2="485" />
<line x1="531.0422429879968" x2="531.0422429879968" y1="473" y2="485" />
</g>
</g>
<text fill="hsl(180, 100%, 40%)" y="517">Full Persons Array.Unordered Keys.Hermes Decode 177  ms</text>
<g>
<title>177  ms ± 5.2 ms</title>
<rect y="523" rx="5" height="22" width="224.5470661560788" fill="hsl(180, 100%, 80%)" stroke="hsl(180, 100%, 55%)" />
<g stroke="hsl(180, 100%, 40%)"><line x1="217.97575105151452" x2="231.1183812606431" y1="534" y2="534" />
<line x1="217.97575105151452" x2="217.97575105151452" y1="528" y2="540" />
<line x1="231.1183812606431" x2="231.1183812606431" y1="528" y2="540" />
</g>
</g>
<text fill="hsl(200, 100%, 40%)" y="572">Full Persons Array.Unordered Keys.Hermes DecodeWith 177  ms</text>
<g>
<title>177  ms ±  11 ms</title>
<rect y="578" rx="5" height="22" width="224.01685384193294" fill="hsl(200, 100%, 80%)" stroke="hsl(200, 100%, 55%)" />
<g stroke="hsl(200, 100%, 40%)"><line x1="210.34830890177486" x2="237.68539878209103" y1="589" y2="589" />
<line x1="210.34830890177486" x2="210.34830890177486" y1="583" y2="595" />
<line x1="237.68539878209103" x2="237.68539878209103" y1="583" y2="595" />
</g>
</g>
<g fill="hsl(220, 100%, 40%)">
<text y="627">Full Persons Array.Unordered Keys.Aeson Lazy</text>
<text y="627" x="873.3291123580283" text-anchor="end">689  ms</text>
</g>
<g>
<title>689  ms ±  53 ms</title>
<rect y="633" rx="5" height="22" width="873.3291123580283" fill="hsl(220, 100%, 80%)" stroke="hsl(220, 100%, 55%)" />
<g stroke="hsl(220, 100%, 40%)"><line x1="806.6582247160566" x2="940.0" y1="644" y2="644" />
<line x1="806.6582247160566" x2="806.6582247160566" y1="638" y2="650" />
<line x1="940.0" x2="940.0" y1="638" y2="650" />
</g>
</g>
<g fill="hsl(240, 100%, 40%)">
<text y="682">Full Persons Array.Unordered Keys.Aeson Strict</text>
<text y="682" x="600.7546588406337" text-anchor="end">474  ms</text>
</g>
<g>
<title>474  ms ±  70 ms</title>
<rect y="688" rx="5" height="22" width="600.7546588406337" fill="hsl(240, 100%, 80%)" stroke="hsl(240, 100%, 55%)" />
<g stroke="hsl(240, 100%, 40%)"><line x1="512.2861814252356" x2="689.2231362560319" y1="699" y2="699" />
<line x1="512.2861814252356" x2="512.2861814252356" y1="693" y2="705" />
<line x1="689.2231362560319" x2="689.2231362560319" y1="693" y2="705" />
</g>
</g>
<text fill="hsl(260, 100%, 40%)" y="737">Partial Twitter.Hermes Decode 612  μs</text>
<g>
<title>612  μs ±  23 μs</title>
<rect y="743" rx="5" height="22" width="0.7764623911151658" fill="hsl(260, 100%, 80%)" stroke="hsl(260, 100%, 55%)" />
<g stroke="hsl(260, 100%, 40%)"><line x1="0.7473050841819664" x2="0.8056196980483652" y1="754" y2="754" />
<line x1="0.7473050841819664" x2="0.7473050841819664" y1="748" y2="760" />
<line x1="0.8056196980483652" x2="0.8056196980483652" y1="748" y2="760" />
</g>
</g>
<text fill="hsl(280, 100%, 40%)" y="792">Partial Twitter.Hermes DecodeWith 618  μs</text>
<g>
<title>618  μs ±  52 μs</title>
<rect y="798" rx="5" height="22" width="0.7836046139824053" fill="hsl(280, 100%, 80%)" stroke="hsl(280, 100%, 55%)" />
<g stroke="hsl(280, 100%, 40%)"><line x1="0.7173419112854981" x2="0.8498673166793126" y1="809" y2="809" />
<line x1="0.7173419112854981" x2="0.7173419112854981" y1="803" y2="815" />
<line x1="0.8498673166793126" x2="0.8498673166793126" y1="803" y2="815" />
</g>
</g>
<text fill="hsl(300, 100%, 40%)" y="847">Partial Twitter.Aeson Lazy 13.8 ms</text>
<g>
<title>13.8 ms ± 854 μs</title>
<rect y="853" rx="5" height="22" width="17.54553704513948" fill="hsl(300, 100%, 80%)" stroke="hsl(300, 100%, 55%)" />
<g stroke="hsl(300, 100%, 40%)"><line x1="16.461856210662567" x2="18.62921787961639" y1="864" y2="864" />
<line x1="16.461856210662567" x2="16.461856210662567" y1="858" y2="870" />
<line x1="18.62921787961639" x2="18.62921787961639" y1="858" y2="870" />
</g>
</g>
<text fill="hsl(320, 100%, 40%)" y="902">Partial Twitter.Aeson Strict 18.4 ms</text>
<g>
<title>18.4 ms ± 1.4 ms</title>
<rect y="908" rx="5" height="22" width="23.294229358435715" fill="hsl(320, 100%, 80%)" stroke="hsl(320, 100%, 55%)" />
<g stroke="hsl(320, 100%, 40%)"><line x1="21.571801921092494" x2="25.016656795778935" y1="919" y2="919" />
<line x1="21.571801921092494" x2="21.571801921092494" y1="913" y2="925" />
<line x1="25.016656795778935" x2="25.016656795778935" y1="913" y2="925" />
</g>
</g>
<text fill="hsl(340, 100%, 40%)" y="957">Partial Twitter.Waargonaut Attoparsec 8.15 ms</text>
<g>
<title>8.15 ms ± 755 μs</title>
<rect y="963" rx="5" height="22" width="10.335873846437787" fill="hsl(340, 100%, 80%)" stroke="hsl(340, 100%, 55%)" />
<g stroke="hsl(340, 100%, 40%)"><line x1="9.378169389362311" x2="11.293578303513263" y1="974" y2="974" />
<line x1="9.378169389362311" x2="9.378169389362311" y1="968" y2="980" />
<line x1="11.293578303513263" x2="11.293578303513263" y1="968" y2="980" />
</g>
</g>
</g>
</svg>
