<svg xmlns="http://www.w3.org/2000/svg" height="997" width="960.0" font-size="16" font-family="sans-serif" stroke-width="2">
<g transform="translate(10.0 0)">
<text fill="hsl(0, 100%, 40%)" y="22">Small Map Decode.Hermes Decode 1.81 μs</text>
<g>
<title>1.81 μs ±  64 ns</title>
<rect y="28" rx="5" height="22" width="0.002429644122330606" fill="hsl(0, 100%, 80%)" stroke="hsl(0, 100%, 55%)" />
<g stroke="hsl(0, 100%, 40%)"><line x1="0.002343298398495648" x2="0.002515989846165564" y1="39" y2="39" />
<line x1="0.002343298398495648" x2="0.002343298398495648" y1="33" y2="45" />
<line x1="0.002515989846165564" x2="0.002515989846165564" y1="33" y2="45" />
</g>
</g>
<text fill="hsl(20, 100%, 40%)" y="77">Small Map Decode.Hermes DecodeWith 1.09 μs</text>
<g>
<title>1.09 μs ±  81 ns</title>
<rect y="83" rx="5" height="22" width="0.0014559107683651243" fill="hsl(20, 100%, 80%)" stroke="hsl(20, 100%, 55%)" />
<g stroke="hsl(20, 100%, 40%)"><line x1="0.0013472250060301914" x2="0.0015645965307000572" y1="94" y2="94" />
<line x1="0.0013472250060301914" x2="0.0013472250060301914" y1="88" y2="100" />
<line x1="0.0015645965307000572" x2="0.0015645965307000572" y1="88" y2="100" />
</g>
</g>
<text fill="hsl(40, 100%, 40%)" y="132">Small Map Decode.Aeson Decode Lazy 2.98 μs</text>
<g>
<title>2.98 μs ± 177 ns</title>
<rect y="138" rx="5" height="22" width="0.003995143104765986" fill="hsl(40, 100%, 80%)" stroke="hsl(40, 100%, 55%)" />
<g stroke="hsl(40, 100%, 40%)"><line x1="0.0037571372156040665" x2="0.004233148993927906" y1="149" y2="149" />
<line x1="0.0037571372156040665" x2="0.0037571372156040665" y1="143" y2="155" />
<line x1="0.004233148993927906" x2="0.004233148993927906" y1="143" y2="155" />
</g>
</g>
<text fill="hsl(60, 100%, 40%)" y="187">Small Map Decode.Aeson Decode Strict 2.99 μs</text>
<g>
<title>2.99 μs ±  84 ns</title>
<rect y="193" rx="5" height="22" width="0.004012864950433194" fill="hsl(60, 100%, 80%)" stroke="hsl(60, 100%, 55%)" />
<g stroke="hsl(60, 100%, 40%)"><line x1="0.003900880478931998" x2="0.004124849421934389" y1="204" y2="204" />
<line x1="0.003900880478931998" x2="0.003900880478931998" y1="198" y2="210" />
<line x1="0.004124849421934389" x2="0.004124849421934389" y1="198" y2="210" />
</g>
</g>
<text fill="hsl(80, 100%, 40%)" y="242">Small Map Decode.Waargonaut Decode Attoparsec 62.9 μs</text>
<g>
<title>62.9 μs ± 2.6 μs</title>
<rect y="248" rx="5" height="22" width="0.08432791148358694" fill="hsl(80, 100%, 80%)" stroke="hsl(80, 100%, 55%)" />
<g stroke="hsl(80, 100%, 40%)"><line x1="0.08077784067885488" x2="0.087877982288319" y1="259" y2="259" />
<line x1="0.08077784067885488" x2="0.08077784067885488" y1="253" y2="265" />
<line x1="0.087877982288319" x2="0.087877982288319" y1="253" y2="265" />
</g>
</g>
<text fill="hsl(100, 100%, 40%)" y="297">Full Decode Persons Array JSON.Ordered Keys.Hermes Decode 167  ms</text>
<g>
<title>167  ms ± 3.4 ms</title>
<rect y="303" rx="5" height="22" width="224.54511317871467" fill="hsl(100, 100%, 80%)" stroke="hsl(100, 100%, 55%)" />
<g stroke="hsl(100, 100%, 40%)"><line x1="220.02547311469158" x2="229.06475324273777" y1="314" y2="314" />
<line x1="220.02547311469158" x2="220.02547311469158" y1="308" y2="320" />
<line x1="229.06475324273777" x2="229.06475324273777" y1="308" y2="320" />
</g>
</g>
<text fill="hsl(120, 100%, 40%)" y="352">Full Decode Persons Array JSON.Ordered Keys.Hermes DecodeWith 164  ms</text>
<g>
<title>164  ms ± 2.2 ms</title>
<rect y="358" rx="5" height="22" width="219.33719669890704" fill="hsl(120, 100%, 80%)" stroke="hsl(120, 100%, 55%)" />
<g stroke="hsl(120, 100%, 40%)"><line x1="216.35963362098596" x2="222.3147597768281" y1="369" y2="369" />
<line x1="216.35963362098596" x2="216.35963362098596" y1="363" y2="375" />
<line x1="222.3147597768281" x2="222.3147597768281" y1="363" y2="375" />
</g>
</g>
<g fill="hsl(140, 100%, 40%)">
<text y="407">Full Decode Persons Array JSON.Ordered Keys.Aeson Decode Lazy</text>
<text y="407" x="865.0217273369955" text-anchor="end">645  ms</text>
</g>
<g>
<title>645  ms ±  52 ms</title>
<rect y="413" rx="5" height="22" width="865.0217273369955" fill="hsl(140, 100%, 80%)" stroke="hsl(140, 100%, 55%)" />
<g stroke="hsl(140, 100%, 40%)"><line x1="795.4675207695464" x2="934.5759339044446" y1="424" y2="424" />
<line x1="795.4675207695464" x2="795.4675207695464" y1="418" y2="430" />
<line x1="934.5759339044446" x2="934.5759339044446" y1="418" y2="430" />
</g>
</g>
<g fill="hsl(160, 100%, 40%)">
<text y="462">Full Decode Persons Array JSON.Ordered Keys.Aeson Decode Strict</text>
<text y="462" x="596.2658610720076" text-anchor="end">445  ms</text>
</g>
<g>
<title>445  ms ±  32 ms</title>
<rect y="468" rx="5" height="22" width="596.2658610720076" fill="hsl(160, 100%, 80%)" stroke="hsl(160, 100%, 55%)" />
<g stroke="hsl(160, 100%, 40%)"><line x1="553.5171826201363" x2="639.014539523879" y1="479" y2="479" />
<line x1="553.5171826201363" x2="553.5171826201363" y1="473" y2="485" />
<line x1="639.014539523879" x2="639.014539523879" y1="473" y2="485" />
</g>
</g>
<text fill="hsl(180, 100%, 40%)" y="517">Full Decode Persons Array JSON.Unordered Keys.Hermes Decode 197  ms</text>
<g>
<title>197  ms ±  13 ms</title>
<rect y="523" rx="5" height="22" width="264.34434319342876" fill="hsl(180, 100%, 80%)" stroke="hsl(180, 100%, 55%)" />
<g stroke="hsl(180, 100%, 40%)"><line x1="247.3727565343732" x2="281.3159298524843" y1="534" y2="534" />
<line x1="247.3727565343732" x2="247.3727565343732" y1="528" y2="540" />
<line x1="281.3159298524843" x2="281.3159298524843" y1="528" y2="540" />
</g>
</g>
<text fill="hsl(200, 100%, 40%)" y="572">Full Decode Persons Array JSON.Unordered Keys.Hermes DecodeWith 186  ms</text>
<g>
<title>186  ms ± 5.5 ms</title>
<rect y="578" rx="5" height="22" width="249.5069931462316" fill="hsl(200, 100%, 80%)" stroke="hsl(200, 100%, 55%)" />
<g stroke="hsl(200, 100%, 40%)"><line x1="242.13565510067994" x2="256.8783311917833" y1="589" y2="589" />
<line x1="242.13565510067994" x2="242.13565510067994" y1="583" y2="595" />
<line x1="256.8783311917833" x2="256.8783311917833" y1="583" y2="595" />
</g>
</g>
<g fill="hsl(220, 100%, 40%)">
<text y="627">Full Decode Persons Array JSON.Unordered Keys.Aeson Decode Lazy</text>
<text y="627" x="915.5517692322388" text-anchor="end">683  ms</text>
</g>
<g>
<title>683  ms ±  18 ms</title>
<rect y="633" rx="5" height="22" width="915.5517692322388" fill="hsl(220, 100%, 80%)" stroke="hsl(220, 100%, 55%)" />
<g stroke="hsl(220, 100%, 40%)"><line x1="891.1035384644777" x2="940.0" y1="644" y2="644" />
<line x1="891.1035384644777" x2="891.1035384644777" y1="638" y2="650" />
<line x1="940.0" x2="940.0" y1="638" y2="650" />
</g>
</g>
<g fill="hsl(240, 100%, 40%)">
<text y="682">Full Decode Persons Array JSON.Unordered Keys.Aeson Decode Strict</text>
<text y="682" x="671.2122286682298" text-anchor="end">501  ms</text>
</g>
<g>
<title>501  ms ±  26 ms</title>
<rect y="688" rx="5" height="22" width="671.2122286682298" fill="hsl(240, 100%, 80%)" stroke="hsl(240, 100%, 55%)" />
<g stroke="hsl(240, 100%, 40%)"><line x1="636.3521822134693" x2="706.0722751229904" y1="699" y2="699" />
<line x1="636.3521822134693" x2="636.3521822134693" y1="693" y2="705" />
<line x1="706.0722751229904" x2="706.0722751229904" y1="693" y2="705" />
</g>
</g>
<text fill="hsl(260, 100%, 40%)" y="737">Partial Decode Twitter JSON.Hermes Decode 755  μs</text>
<g>
<title>755  μs ±  42 μs</title>
<rect y="743" rx="5" height="22" width="1.0121279230167792" fill="hsl(260, 100%, 80%)" stroke="hsl(260, 100%, 55%)" />
<g stroke="hsl(260, 100%, 40%)"><line x1="0.9551659606370081" x2="1.0690898853965505" y1="754" y2="754" />
<line x1="0.9551659606370081" x2="0.9551659606370081" y1="748" y2="760" />
<line x1="1.0690898853965505" x2="1.0690898853965505" y1="748" y2="760" />
</g>
</g>
<text fill="hsl(280, 100%, 40%)" y="792">Partial Decode Twitter JSON.Hermes DecodeWith 671  μs</text>
<g>
<title>671  μs ±  50 μs</title>
<rect y="798" rx="5" height="22" width="0.899706473121455" fill="hsl(280, 100%, 80%)" stroke="hsl(280, 100%, 55%)" />
<g stroke="hsl(280, 100%, 40%)"><line x1="0.8329539633912347" x2="0.9664589828516753" y1="809" y2="809" />
<line x1="0.8329539633912347" x2="0.8329539633912347" y1="803" y2="815" />
<line x1="0.9664589828516753" x2="0.9664589828516753" y1="803" y2="815" />
</g>
</g>
<text fill="hsl(300, 100%, 40%)" y="847">Partial Decode Twitter JSON.Aeson Decode Lazy 16.1 ms</text>
<g>
<title>16.1 ms ± 1.6 ms</title>
<rect y="853" rx="5" height="22" width="21.5875775954094" fill="hsl(300, 100%, 80%)" stroke="hsl(300, 100%, 55%)" />
<g stroke="hsl(300, 100%, 40%)"><line x1="19.449374336734284" x2="23.725780854084515" y1="864" y2="864" />
<line x1="19.449374336734284" x2="19.449374336734284" y1="858" y2="870" />
<line x1="23.725780854084515" x2="23.725780854084515" y1="858" y2="870" />
</g>
</g>
<text fill="hsl(320, 100%, 40%)" y="902">Partial Decode Twitter JSON.Aeson Decode Strict 17.3 ms</text>
<g>
<title>17.3 ms ± 581 μs</title>
<rect y="908" rx="5" height="22" width="23.260203431910917" fill="hsl(320, 100%, 80%)" stroke="hsl(320, 100%, 55%)" />
<g stroke="hsl(320, 100%, 40%)"><line x1="22.480901566464265" x2="24.039505297357568" y1="919" y2="919" />
<line x1="22.480901566464265" x2="22.480901566464265" y1="913" y2="925" />
<line x1="24.039505297357568" x2="24.039505297357568" y1="913" y2="925" />
</g>
</g>
<text fill="hsl(340, 100%, 40%)" y="957">Partial Decode Twitter JSON.Waargonaut Decode Attoparsec 8.08 ms</text>
<g>
<title>8.08 ms ± 458 μs</title>
<rect y="963" rx="5" height="22" width="10.834754206358154" fill="hsl(340, 100%, 80%)" stroke="hsl(340, 100%, 55%)" />
<g stroke="hsl(340, 100%, 40%)"><line x1="10.220730902524219" x2="11.44877751019209" y1="974" y2="974" />
<line x1="10.220730902524219" x2="10.220730902524219" y1="968" y2="980" />
<line x1="11.44877751019209" x2="11.44877751019209" y1="968" y2="980" />
</g>
</g>
</g>
</svg>
