<svg xmlns="http://www.w3.org/2000/svg" height="777" width="960.0" font-size="16" font-family="sans-serif" stroke-width="2">
<g transform="translate(10.0 0)">
<text fill="hsl(0, 100%, 40%)" y="22">1 Million 3-Arrays.Hermes [[Double]] 115  ms</text>
<g>
<title>115  ms ± 1.9 ms</title>
<rect y="28" rx="5" height="22" width="55.25792927127189" fill="hsl(0, 100%, 80%)" stroke="hsl(0, 100%, 55%)" />
<g stroke="hsl(0, 100%, 40%)"><line x1="54.33049132048109" x2="56.185367222062695" y1="39" y2="39" />
<line x1="54.33049132048109" x2="54.33049132048109" y1="33" y2="45" />
<line x1="56.185367222062695" x2="56.185367222062695" y1="33" y2="45" />
</g>
</g>
<g fill="hsl(25, 100%, 40%)">
<text y="77">1 Million 3-Arrays.Aeson [[Double]]</text>
<text y="77" x="903.3246220448822" text-anchor="end">1.884 s</text>
</g>
<g>
<title>1.884 s ±  77 ms</title>
<rect y="83" rx="5" height="22" width="903.3246220448822" fill="hsl(25, 100%, 80%)" stroke="hsl(25, 100%, 55%)" />
<g stroke="hsl(25, 100%, 40%)"><line x1="866.6492440897644" x2="940.0" y1="94" y2="94" />
<line x1="866.6492440897644" x2="866.6492440897644" y1="88" y2="100" />
<line x1="940.0" x2="940.0" y1="88" y2="100" />
</g>
</g>
<text fill="hsl(51, 100%, 40%)" y="132">Small Object to Map.Hermes Decode 1.47 μs</text>
<g>
<title>1.47 μs ±  93 ns</title>
<rect y="138" rx="5" height="22" width="0.0007049862828293056" fill="hsl(51, 100%, 80%)" stroke="hsl(51, 100%, 55%)" />
<g stroke="hsl(51, 100%, 40%)"><line x1="0.0006602086157264957" x2="0.0007497639499321154" y1="149" y2="149" />
<line x1="0.0006602086157264957" x2="0.0006602086157264957" y1="143" y2="155" />
<line x1="0.0007497639499321154" x2="0.0007497639499321154" y1="143" y2="155" />
</g>
</g>
<text fill="hsl(77, 100%, 40%)" y="187">Small Object to Map.Aeson Lazy 3.13 μs</text>
<g>
<title>3.13 μs ± 267 ns</title>
<rect y="193" rx="5" height="22" width="0.0014994976997461762" fill="hsl(77, 100%, 80%)" stroke="hsl(77, 100%, 55%)" />
<g stroke="hsl(77, 100%, 40%)"><line x1="0.0013714482404609094" x2="0.001627547159031443" y1="204" y2="204" />
<line x1="0.0013714482404609094" x2="0.0013714482404609094" y1="198" y2="210" />
<line x1="0.001627547159031443" x2="0.001627547159031443" y1="198" y2="210" />
</g>
</g>
<text fill="hsl(102, 100%, 40%)" y="242">Small Object to Map.Aeson Strict 2.99 μs</text>
<g>
<title>2.99 μs ± 282 ns</title>
<rect y="248" rx="5" height="22" width="0.0014329078775367175" fill="hsl(102, 100%, 80%)" stroke="hsl(102, 100%, 55%)" />
<g stroke="hsl(102, 100%, 40%)"><line x1="0.001297699552171659" x2="0.0015681162029017762" y1="259" y2="259" />
<line x1="0.001297699552171659" x2="0.001297699552171659" y1="253" y2="265" />
<line x1="0.0015681162029017762" x2="0.0015681162029017762" y1="253" y2="265" />
</g>
</g>
<text fill="hsl(128, 100%, 40%)" y="297">Full Persons Array.Ordered Keys.Hermes Decode 108  ms</text>
<g>
<title>108  ms ± 2.0 ms</title>
<rect y="303" rx="5" height="22" width="51.946173539651724" fill="hsl(128, 100%, 80%)" stroke="hsl(128, 100%, 55%)" />
<g stroke="hsl(128, 100%, 40%)"><line x1="51.010199858173465" x2="52.88214722112998" y1="314" y2="314" />
<line x1="51.010199858173465" x2="51.010199858173465" y1="308" y2="320" />
<line x1="52.88214722112998" x2="52.88214722112998" y1="308" y2="320" />
</g>
</g>
<text fill="hsl(154, 100%, 40%)" y="352">Full Persons Array.Ordered Keys.Aeson Lazy 449  ms</text>
<g>
<title>449  ms ± 5.2 ms</title>
<rect y="358" rx="5" height="22" width="215.26731868653496" fill="hsl(154, 100%, 80%)" stroke="hsl(154, 100%, 55%)" />
<g stroke="hsl(154, 100%, 40%)"><line x1="212.78847669430482" x2="217.7461606787651" y1="369" y2="369" />
<line x1="212.78847669430482" x2="212.78847669430482" y1="363" y2="375" />
<line x1="217.7461606787651" x2="217.7461606787651" y1="363" y2="375" />
</g>
</g>
<text fill="hsl(180, 100%, 40%)" y="407">Full Persons Array.Ordered Keys.Aeson Strict 360  ms</text>
<g>
<title>360  ms ±  34 ms</title>
<rect y="413" rx="5" height="22" width="172.67945663114176" fill="hsl(180, 100%, 80%)" stroke="hsl(180, 100%, 55%)" />
<g stroke="hsl(180, 100%, 40%)"><line x1="156.54205188981737" x2="188.81686137246615" y1="424" y2="424" />
<line x1="156.54205188981737" x2="156.54205188981737" y1="418" y2="430" />
<line x1="188.81686137246615" x2="188.81686137246615" y1="418" y2="430" />
</g>
</g>
<text fill="hsl(205, 100%, 40%)" y="462">Full Persons Array.Unordered Keys.Hermes Decode 117  ms</text>
<g>
<title>117  ms ± 3.2 ms</title>
<rect y="468" rx="5" height="22" width="56.28332552819554" fill="hsl(205, 100%, 80%)" stroke="hsl(205, 100%, 55%)" />
<g stroke="hsl(205, 100%, 40%)"><line x1="54.74664999612791" x2="57.82000106026317" y1="479" y2="479" />
<line x1="54.74664999612791" x2="54.74664999612791" y1="473" y2="485" />
<line x1="57.82000106026317" x2="57.82000106026317" y1="473" y2="485" />
</g>
</g>
<text fill="hsl(231, 100%, 40%)" y="517">Full Persons Array.Unordered Keys.Aeson Lazy 447  ms</text>
<g>
<title>447  ms ± 7.8 ms</title>
<rect y="523" rx="5" height="22" width="214.4904292781864" fill="hsl(231, 100%, 80%)" stroke="hsl(231, 100%, 55%)" />
<g stroke="hsl(231, 100%, 40%)"><line x1="210.7703476023001" x2="218.21051095407273" y1="534" y2="534" />
<line x1="210.7703476023001" x2="210.7703476023001" y1="528" y2="540" />
<line x1="218.21051095407273" x2="218.21051095407273" y1="528" y2="540" />
</g>
</g>
<text fill="hsl(257, 100%, 40%)" y="572">Full Persons Array.Unordered Keys.Aeson Strict 359  ms</text>
<g>
<title>359  ms ±  34 ms</title>
<rect y="578" rx="5" height="22" width="172.27483036815696" fill="hsl(257, 100%, 80%)" stroke="hsl(257, 100%, 55%)" />
<g stroke="hsl(257, 100%, 40%)"><line x1="155.88975908647564" x2="188.65990164983828" y1="589" y2="589" />
<line x1="155.88975908647564" x2="155.88975908647564" y1="583" y2="595" />
<line x1="188.65990164983828" x2="188.65990164983828" y1="583" y2="595" />
</g>
</g>
<text fill="hsl(282, 100%, 40%)" y="627">Partial Twitter.Hermes Decode 468  μs</text>
<g>
<title>468  μs ±  36 μs</title>
<rect y="633" rx="5" height="22" width="0.22416539571138439" fill="hsl(282, 100%, 80%)" stroke="hsl(282, 100%, 55%)" />
<g stroke="hsl(282, 100%, 40%)"><line x1="0.20705074720891734" x2="0.24128004421385144" y1="644" y2="644" />
<line x1="0.20705074720891734" x2="0.20705074720891734" y1="638" y2="650" />
<line x1="0.24128004421385144" x2="0.24128004421385144" y1="638" y2="650" />
</g>
</g>
<text fill="hsl(308, 100%, 40%)" y="682">Partial Twitter.Aeson Lazy 17.0 ms</text>
<g>
<title>17.0 ms ± 1.3 ms</title>
<rect y="688" rx="5" height="22" width="8.161376735190501" fill="hsl(308, 100%, 80%)" stroke="hsl(308, 100%, 55%)" />
<g stroke="hsl(308, 100%, 40%)"><line x1="7.554190979655047" x2="8.768562490725955" y1="699" y2="699" />
<line x1="7.554190979655047" x2="7.554190979655047" y1="693" y2="705" />
<line x1="8.768562490725955" x2="8.768562490725955" y1="693" y2="705" />
</g>
</g>
<text fill="hsl(334, 100%, 40%)" y="737">Partial Twitter.Aeson Strict 14.3 ms</text>
<g>
<title>14.3 ms ± 1.1 ms</title>
<rect y="743" rx="5" height="22" width="6.861941587027916" fill="hsl(334, 100%, 80%)" stroke="hsl(334, 100%, 55%)" />
<g stroke="hsl(334, 100%, 40%)"><line x1="6.336180779077685" x2="7.387702394978147" y1="754" y2="754" />
<line x1="6.336180779077685" x2="6.336180779077685" y1="748" y2="760" />
<line x1="7.387702394978147" x2="7.387702394978147" y1="748" y2="760" />
</g>
</g>
</g>
</svg>
