<svg xmlns="http://www.w3.org/2000/svg" height="997" width="960.0" font-size="16" font-family="sans-serif" stroke-width="2">
<g transform="translate(10.0 0)">
<text fill="hsl(0, 100%, 40%)" y="22">Small Map.Hermes Decode 1.45 μs</text>
<g>
<title>1.45 μs ±  95 ns</title>
<rect y="28" rx="5" height="22" width="0.0021433755686814313" fill="hsl(0, 100%, 80%)" stroke="hsl(0, 100%, 55%)" />
<g stroke="hsl(0, 100%, 40%)"><line x1="0.0020035085392144597" x2="0.0022832425981484028" y1="39" y2="39" />
<line x1="0.0020035085392144597" x2="0.0020035085392144597" y1="33" y2="45" />
<line x1="0.0022832425981484028" x2="0.0022832425981484028" y1="33" y2="45" />
</g>
</g>
<text fill="hsl(20, 100%, 40%)" y="77">Small Map.Hermes DecodeWith 1.15 μs</text>
<g>
<title>1.15 μs ±  21 ns</title>
<rect y="83" rx="5" height="22" width="0.0016904642446738778" fill="hsl(20, 100%, 80%)" stroke="hsl(20, 100%, 55%)" />
<g stroke="hsl(20, 100%, 40%)"><line x1="0.0016588842195177382" x2="0.0017220442698300173" y1="94" y2="94" />
<line x1="0.0016588842195177382" x2="0.0016588842195177382" y1="88" y2="100" />
<line x1="0.0017220442698300173" x2="0.0017220442698300173" y1="88" y2="100" />
</g>
</g>
<text fill="hsl(40, 100%, 40%)" y="132">Small Map.Aeson Lazy 3.07 μs</text>
<g>
<title>3.07 μs ± 220 ns</title>
<rect y="138" rx="5" height="22" width="0.004520978008655809" fill="hsl(40, 100%, 80%)" stroke="hsl(40, 100%, 55%)" />
<g stroke="hsl(40, 100%, 40%)"><line x1="0.0041968745154605845" x2="0.004845081501851033" y1="149" y2="149" />
<line x1="0.0041968745154605845" x2="0.0041968745154605845" y1="143" y2="155" />
<line x1="0.004845081501851033" x2="0.004845081501851033" y1="143" y2="155" />
</g>
</g>
<text fill="hsl(60, 100%, 40%)" y="187">Small Map.Aeson Strict 3.12 μs</text>
<g>
<title>3.12 μs ± 176 ns</title>
<rect y="193" rx="5" height="22" width="0.004593719062493385" fill="hsl(60, 100%, 80%)" stroke="hsl(60, 100%, 55%)" />
<g stroke="hsl(60, 100%, 40%)"><line x1="0.00433412264887088" x2="0.00485331547611589" y1="204" y2="204" />
<line x1="0.00433412264887088" x2="0.00433412264887088" y1="198" y2="210" />
<line x1="0.00485331547611589" x2="0.00485331547611589" y1="198" y2="210" />
</g>
</g>
<text fill="hsl(80, 100%, 40%)" y="242">Small Map.Waargonaut Attoparsec 65.5 μs</text>
<g>
<title>65.5 μs ± 2.6 μs</title>
<rect y="248" rx="5" height="22" width="0.0964879564668752" fill="hsl(80, 100%, 80%)" stroke="hsl(80, 100%, 55%)" />
<g stroke="hsl(80, 100%, 40%)"><line x1="0.092583994495739" x2="0.10039191843801142" y1="259" y2="259" />
<line x1="0.092583994495739" x2="0.092583994495739" y1="253" y2="265" />
<line x1="0.10039191843801142" x2="0.10039191843801142" y1="253" y2="265" />
</g>
</g>
<text fill="hsl(100, 100%, 40%)" y="297">Full Persons Array.Ordered Keys.Hermes Decode 176  ms</text>
<g>
<title>176  ms ±  14 ms</title>
<rect y="303" rx="5" height="22" width="259.882707448658" fill="hsl(100, 100%, 80%)" stroke="hsl(100, 100%, 55%)" />
<g stroke="hsl(100, 100%, 40%)"><line x1="239.64799628456768" x2="280.1174186127483" y1="314" y2="314" />
<line x1="239.64799628456768" x2="239.64799628456768" y1="308" y2="320" />
<line x1="280.1174186127483" x2="280.1174186127483" y1="308" y2="320" />
</g>
</g>
<text fill="hsl(120, 100%, 40%)" y="352">Full Persons Array.Ordered Keys.Hermes DecodeWith 170  ms</text>
<g>
<title>170  ms ±  12 ms</title>
<rect y="358" rx="5" height="22" width="250.96469610334734" fill="hsl(120, 100%, 80%)" stroke="hsl(120, 100%, 55%)" />
<g stroke="hsl(120, 100%, 40%)"><line x1="233.4231264928118" x2="268.5062657138829" y1="369" y2="369" />
<line x1="233.4231264928118" x2="233.4231264928118" y1="363" y2="375" />
<line x1="268.5062657138829" x2="268.5062657138829" y1="363" y2="375" />
</g>
</g>
<g fill="hsl(140, 100%, 40%)">
<text y="407">Full Persons Array.Ordered Keys.Aeson Lazy</text>
<text y="407" x="900.2441211658916" text-anchor="end">611  ms</text>
</g>
<g>
<title>611  ms ±  13 ms</title>
<rect y="413" rx="5" height="22" width="900.2441211658916" fill="hsl(140, 100%, 80%)" stroke="hsl(140, 100%, 55%)" />
<g stroke="hsl(140, 100%, 40%)"><line x1="881.0128711608622" x2="919.4753711709209" y1="424" y2="424" />
<line x1="881.0128711608622" x2="881.0128711608622" y1="418" y2="430" />
<line x1="919.4753711709209" x2="919.4753711709209" y1="418" y2="430" />
</g>
</g>
<g fill="hsl(160, 100%, 40%)">
<text y="462">Full Persons Array.Ordered Keys.Aeson Strict</text>
<text y="462" x="589.8403912835289" text-anchor="end">400  ms</text>
</g>
<g>
<title>400  ms ±  36 ms</title>
<rect y="468" rx="5" height="22" width="589.8403912835289" fill="hsl(160, 100%, 80%)" stroke="hsl(160, 100%, 55%)" />
<g stroke="hsl(160, 100%, 40%)"><line x1="537.1655301827278" x2="642.51525238433" y1="479" y2="479" />
<line x1="537.1655301827278" x2="537.1655301827278" y1="473" y2="485" />
<line x1="642.51525238433" x2="642.51525238433" y1="473" y2="485" />
</g>
</g>
<text fill="hsl(180, 100%, 40%)" y="517">Full Persons Array.Unordered Keys.Hermes Decode 199  ms</text>
<g>
<title>199  ms ±  18 ms</title>
<rect y="523" rx="5" height="22" width="293.4193875166201" fill="hsl(180, 100%, 80%)" stroke="hsl(180, 100%, 55%)" />
<g stroke="hsl(180, 100%, 40%)"><line x1="267.3498279742606" x2="319.48894705897953" y1="534" y2="534" />
<line x1="267.3498279742606" x2="267.3498279742606" y1="528" y2="540" />
<line x1="319.48894705897953" x2="319.48894705897953" y1="528" y2="540" />
</g>
</g>
<text fill="hsl(200, 100%, 40%)" y="572">Full Persons Array.Unordered Keys.Hermes DecodeWith 188  ms</text>
<g>
<title>188  ms ± 6.0 ms</title>
<rect y="578" rx="5" height="22" width="276.8839063970835" fill="hsl(200, 100%, 80%)" stroke="hsl(200, 100%, 55%)" />
<g stroke="hsl(200, 100%, 40%)"><line x1="267.9844237251623" x2="285.78338906900467" y1="589" y2="589" />
<line x1="267.9844237251623" x2="267.9844237251623" y1="583" y2="595" />
<line x1="285.78338906900467" x2="285.78338906900467" y1="583" y2="595" />
</g>
</g>
<g fill="hsl(220, 100%, 40%)">
<text y="627">Full Persons Array.Unordered Keys.Aeson Lazy</text>
<text y="627" x="922.88453711632" text-anchor="end">626  ms</text>
</g>
<g>
<title>626  ms ±  12 ms</title>
<rect y="633" rx="5" height="22" width="922.88453711632" fill="hsl(220, 100%, 80%)" stroke="hsl(220, 100%, 55%)" />
<g stroke="hsl(220, 100%, 40%)"><line x1="905.7690742326399" x2="940.0" y1="644" y2="644" />
<line x1="905.7690742326399" x2="905.7690742326399" y1="638" y2="650" />
<line x1="940.0" x2="940.0" y1="638" y2="650" />
</g>
</g>
<g fill="hsl(240, 100%, 40%)">
<text y="682">Full Persons Array.Unordered Keys.Aeson Strict</text>
<text y="682" x="722.4143014739598" text-anchor="end">490  ms</text>
</g>
<g>
<title>490  ms ±  39 ms</title>
<rect y="688" rx="5" height="22" width="722.4143014739598" fill="hsl(240, 100%, 80%)" stroke="hsl(240, 100%, 55%)" />
<g stroke="hsl(240, 100%, 40%)"><line x1="664.8271278951895" x2="780.00147505273" y1="699" y2="699" />
<line x1="664.8271278951895" x2="664.8271278951895" y1="693" y2="705" />
<line x1="780.00147505273" x2="780.00147505273" y1="693" y2="705" />
</g>
</g>
<text fill="hsl(260, 100%, 40%)" y="737">Partial Twitter.Hermes Decode 640  μs</text>
<g>
<title>640  μs ±  23 μs</title>
<rect y="743" rx="5" height="22" width="0.942998960763376" fill="hsl(260, 100%, 80%)" stroke="hsl(260, 100%, 55%)" />
<g stroke="hsl(260, 100%, 40%)"><line x1="0.9091790116426243" x2="0.9768189098841277" y1="754" y2="754" />
<line x1="0.9091790116426243" x2="0.9091790116426243" y1="748" y2="760" />
<line x1="0.9768189098841277" x2="0.9768189098841277" y1="748" y2="760" />
</g>
</g>
<text fill="hsl(280, 100%, 40%)" y="792">Partial Twitter.Hermes DecodeWith 640  μs</text>
<g>
<title>640  μs ±  45 μs</title>
<rect y="798" rx="5" height="22" width="0.9435144676823274" fill="hsl(280, 100%, 80%)" stroke="hsl(280, 100%, 55%)" />
<g stroke="hsl(280, 100%, 40%)"><line x1="0.8771521957451015" x2="1.0098767396195532" y1="809" y2="809" />
<line x1="0.8771521957451015" x2="0.8771521957451015" y1="803" y2="815" />
<line x1="1.0098767396195532" x2="1.0098767396195532" y1="803" y2="815" />
</g>
</g>
<text fill="hsl(300, 100%, 40%)" y="847">Partial Twitter.Aeson Lazy 14.8 ms</text>
<g>
<title>14.8 ms ± 1.0 ms</title>
<rect y="853" rx="5" height="22" width="21.758595809003083" fill="hsl(300, 100%, 80%)" stroke="hsl(300, 100%, 55%)" />
<g stroke="hsl(300, 100%, 40%)"><line x1="20.221595486518225" x2="23.29559613148794" y1="864" y2="864" />
<line x1="20.221595486518225" x2="20.221595486518225" y1="858" y2="870" />
<line x1="23.29559613148794" x2="23.29559613148794" y1="858" y2="870" />
</g>
</g>
<text fill="hsl(320, 100%, 40%)" y="902">Partial Twitter.Aeson Strict 18.3 ms</text>
<g>
<title>18.3 ms ± 1.1 ms</title>
<rect y="908" rx="5" height="22" width="26.98074418182806" fill="hsl(320, 100%, 80%)" stroke="hsl(320, 100%, 55%)" />
<g stroke="hsl(320, 100%, 40%)"><line x1="25.42079049843059" x2="28.540697865225532" y1="919" y2="919" />
<line x1="25.42079049843059" x2="25.42079049843059" y1="913" y2="925" />
<line x1="28.540697865225532" x2="28.540697865225532" y1="913" y2="925" />
</g>
</g>
<text fill="hsl(340, 100%, 40%)" y="957">Partial Twitter.Waargonaut Attoparsec 8.45 ms</text>
<g>
<title>8.45 ms ± 337 μs</title>
<rect y="963" rx="5" height="22" width="12.44942000597801" fill="hsl(340, 100%, 80%)" stroke="hsl(340, 100%, 55%)" />
<g stroke="hsl(340, 100%, 40%)"><line x1="11.953068111336902" x2="12.945771900619116" y1="974" y2="974" />
<line x1="11.953068111336902" x2="11.953068111336902" y1="968" y2="980" />
<line x1="12.945771900619116" x2="12.945771900619116" y1="968" y2="980" />
</g>
</g>
</g>
</svg>
