<svg xmlns="http://www.w3.org/2000/svg" height="667" width="960.0" font-size="16" font-family="sans-serif" stroke-width="2">
<g transform="translate(10.0 0)">
<text fill="hsl(0, 100%, 40%)" y="22">Full Decode Persons Array JSON.Ordered Keys.Hermes Decode 253  ms</text>
<g>
<title>253  ms ±  18 ms</title>
<rect y="28" rx="5" height="22" width="342.78314962306433" fill="hsl(0, 100%, 80%)" stroke="hsl(0, 100%, 55%)" />
<g stroke="hsl(0, 100%, 40%)"><line x1="318.2629063090066" x2="367.30339293712206" y1="39" y2="39" />
<line x1="318.2629063090066" x2="318.2629063090066" y1="33" y2="45" />
<line x1="367.30339293712206" x2="367.30339293712206" y1="33" y2="45" />
</g>
</g>
<text fill="hsl(30, 100%, 40%)" y="77">Full Decode Persons Array JSON.Ordered Keys.Hermes DecodeWith 230  ms</text>
<g>
<title>230  ms ±  17 ms</title>
<rect y="83" rx="5" height="22" width="311.5970900500422" fill="hsl(30, 100%, 80%)" stroke="hsl(30, 100%, 55%)" />
<g stroke="hsl(30, 100%, 40%)"><line x1="289.16511752621255" x2="334.02906257387184" y1="94" y2="94" />
<line x1="289.16511752621255" x2="289.16511752621255" y1="88" y2="100" />
<line x1="334.02906257387184" x2="334.02906257387184" y1="88" y2="100" />
</g>
</g>
<g fill="hsl(60, 100%, 40%)">
<text y="132">Full Decode Persons Array JSON.Ordered Keys.Aeson Decode Lazy</text>
<text y="132" x="803.1931787762547" text-anchor="end">594  ms</text>
</g>
<g>
<title>594  ms ±  37 ms</title>
<rect y="138" rx="5" height="22" width="803.1931787762547" fill="hsl(60, 100%, 80%)" stroke="hsl(60, 100%, 55%)" />
<g stroke="hsl(60, 100%, 40%)"><line x1="753.6360689581427" x2="852.7502885943668" y1="149" y2="149" />
<line x1="753.6360689581427" x2="753.6360689581427" y1="143" y2="155" />
<line x1="852.7502885943668" x2="852.7502885943668" y1="143" y2="155" />
</g>
</g>
<g fill="hsl(90, 100%, 40%)">
<text y="187">Full Decode Persons Array JSON.Ordered Keys.Aeson Decode Strict</text>
<text y="187" x="582.2099837518612" text-anchor="end">430  ms</text>
</g>
<g>
<title>430  ms ±  37 ms</title>
<rect y="193" rx="5" height="22" width="582.2099837518612" fill="hsl(90, 100%, 80%)" stroke="hsl(90, 100%, 55%)" />
<g stroke="hsl(90, 100%, 40%)"><line x1="531.8265188058846" x2="632.5934486978377" y1="204" y2="204" />
<line x1="531.8265188058846" x2="531.8265188058846" y1="198" y2="210" />
<line x1="632.5934486978377" x2="632.5934486978377" y1="198" y2="210" />
</g>
</g>
<text fill="hsl(120, 100%, 40%)" y="242">Full Decode Persons Array JSON.Unordered Keys.Hermes Decode 260  ms</text>
<g>
<title>260  ms ±  18 ms</title>
<rect y="248" rx="5" height="22" width="351.45746443167" fill="hsl(120, 100%, 80%)" stroke="hsl(120, 100%, 55%)" />
<g stroke="hsl(120, 100%, 40%)"><line x1="327.4638259054794" x2="375.45110295786066" y1="259" y2="259" />
<line x1="327.4638259054794" x2="327.4638259054794" y1="253" y2="265" />
<line x1="375.45110295786066" x2="375.45110295786066" y1="253" y2="265" />
</g>
</g>
<text fill="hsl(150, 100%, 40%)" y="297">Full Decode Persons Array JSON.Unordered Keys.Hermes DecodeWith 250  ms</text>
<g>
<title>250  ms ±  21 ms</title>
<rect y="303" rx="5" height="22" width="338.0906383061175" fill="hsl(150, 100%, 80%)" stroke="hsl(150, 100%, 55%)" />
<g stroke="hsl(150, 100%, 40%)"><line x1="310.1615288572425" x2="366.0197477549925" y1="314" y2="314" />
<line x1="310.1615288572425" x2="310.1615288572425" y1="308" y2="320" />
<line x1="366.0197477549925" x2="366.0197477549925" y1="308" y2="320" />
</g>
</g>
<g fill="hsl(180, 100%, 40%)">
<text y="352">Full Decode Persons Array JSON.Unordered Keys.Aeson Decode Lazy</text>
<text y="352" x="867.860286305214" text-anchor="end">642  ms</text>
</g>
<g>
<title>642  ms ±  53 ms</title>
<rect y="358" rx="5" height="22" width="867.860286305214" fill="hsl(180, 100%, 80%)" stroke="hsl(180, 100%, 55%)" />
<g stroke="hsl(180, 100%, 40%)"><line x1="795.720572610428" x2="940.0" y1="369" y2="369" />
<line x1="795.720572610428" x2="795.720572610428" y1="363" y2="375" />
<line x1="940.0" x2="940.0" y1="363" y2="375" />
</g>
</g>
<g fill="hsl(210, 100%, 40%)">
<text y="407">Full Decode Persons Array JSON.Unordered Keys.Aeson Decode Strict</text>
<text y="407" x="650.3355356982427" text-anchor="end">481  ms</text>
</g>
<g>
<title>481  ms ±  28 ms</title>
<rect y="413" rx="5" height="22" width="650.3355356982427" fill="hsl(210, 100%, 80%)" stroke="hsl(210, 100%, 55%)" />
<g stroke="hsl(210, 100%, 40%)"><line x1="612.6897966372338" x2="687.9812747592515" y1="424" y2="424" />
<line x1="612.6897966372338" x2="612.6897966372338" y1="418" y2="430" />
<line x1="687.9812747592515" x2="687.9812747592515" y1="418" y2="430" />
</g>
</g>
<text fill="hsl(240, 100%, 40%)" y="462">Partial Decode Twitter JSON.Hermes Decode 973  μs</text>
<g>
<title>973  μs ±  71 μs</title>
<rect y="468" rx="5" height="22" width="1.3162273524211205" fill="hsl(240, 100%, 80%)" stroke="hsl(240, 100%, 55%)" />
<g stroke="hsl(240, 100%, 40%)"><line x1="1.2204534236955946" x2="1.4120012811466465" y1="479" y2="479" />
<line x1="1.2204534236955946" x2="1.2204534236955946" y1="473" y2="485" />
<line x1="1.4120012811466465" x2="1.4120012811466465" y1="473" y2="485" />
</g>
</g>
<text fill="hsl(270, 100%, 40%)" y="517">Partial Decode Twitter JSON.Hermes DecodeWith 592  μs</text>
<g>
<title>592  μs ±  50 μs</title>
<rect y="523" rx="5" height="22" width="0.8002144621409019" fill="hsl(270, 100%, 80%)" stroke="hsl(270, 100%, 55%)" />
<g stroke="hsl(270, 100%, 40%)"><line x1="0.7329095842968334" x2="0.8675193399849703" y1="534" y2="534" />
<line x1="0.7329095842968334" x2="0.7329095842968334" y1="528" y2="540" />
<line x1="0.8675193399849703" x2="0.8675193399849703" y1="528" y2="540" />
</g>
</g>
<text fill="hsl(300, 100%, 40%)" y="572">Partial Decode Twitter JSON.Aeson Decode Lazy 27.7 ms</text>
<g>
<title>27.7 ms ± 2.7 ms</title>
<rect y="578" rx="5" height="22" width="37.43265245216475" fill="hsl(300, 100%, 80%)" stroke="hsl(300, 100%, 55%)" />
<g stroke="hsl(300, 100%, 40%)"><line x1="33.84177343457689" x2="41.02353146975261" y1="589" y2="589" />
<line x1="33.84177343457689" x2="33.84177343457689" y1="583" y2="595" />
<line x1="41.02353146975261" x2="41.02353146975261" y1="583" y2="595" />
</g>
</g>
<text fill="hsl(330, 100%, 40%)" y="627">Partial Decode Twitter JSON.Aeson Decode Strict 18.4 ms</text>
<g>
<title>18.4 ms ± 1.0 ms</title>
<rect y="633" rx="5" height="22" width="24.846248854119022" fill="hsl(330, 100%, 80%)" stroke="hsl(330, 100%, 55%)" />
<g stroke="hsl(330, 100%, 40%)"><line x1="23.461226846875952" x2="26.23127086136209" y1="644" y2="644" />
<line x1="23.461226846875952" x2="23.461226846875952" y1="638" y2="650" />
<line x1="26.23127086136209" x2="26.23127086136209" y1="638" y2="650" />
</g>
</g>
</g>
</svg>
