<svg xmlns="http://www.w3.org/2000/svg" height="942" width="960.0" font-size="16" font-family="sans-serif" stroke-width="2">
<g transform="translate(10.0 0)">
<text fill="hsl(0, 100%, 40%)" y="22">Small Map Decode.Hermes Decode 1.73 μs</text>
<g>
<title>1.73 μs ± 134 ns</title>
<rect y="28" rx="5" height="22" width="0.002419738905595837" fill="hsl(0, 100%, 80%)" stroke="hsl(0, 100%, 55%)" />
<g stroke="hsl(0, 100%, 40%)"><line x1="0.0022332487322212565" x2="0.0026062290789704173" y1="39" y2="39" />
<line x1="0.0022332487322212565" x2="0.0022332487322212565" y1="33" y2="45" />
<line x1="0.0026062290789704173" x2="0.0026062290789704173" y1="33" y2="45" />
</g>
</g>
<text fill="hsl(21, 100%, 40%)" y="77">Small Map Decode.Aeson Decode Lazy 2.99 μs</text>
<g>
<title>2.99 μs ± 166 ns</title>
<rect y="83" rx="5" height="22" width="0.004171240906592144" fill="hsl(21, 100%, 80%)" stroke="hsl(21, 100%, 55%)" />
<g stroke="hsl(21, 100%, 40%)"><line x1="0.003939746649985198" x2="0.00440273516319909" y1="94" y2="94" />
<line x1="0.003939746649985198" x2="0.003939746649985198" y1="88" y2="100" />
<line x1="0.00440273516319909" x2="0.00440273516319909" y1="88" y2="100" />
</g>
</g>
<text fill="hsl(42, 100%, 40%)" y="132">Small Map Decode.Aeson Decode Strict 3.00 μs</text>
<g>
<title>3.00 μs ± 181 ns</title>
<rect y="138" rx="5" height="22" width="0.004184699680149099" fill="hsl(42, 100%, 80%)" stroke="hsl(42, 100%, 55%)" />
<g stroke="hsl(42, 100%, 40%)"><line x1="0.003931929445754878" x2="0.004437469914543321" y1="149" y2="149" />
<line x1="0.003931929445754878" x2="0.003931929445754878" y1="143" y2="155" />
<line x1="0.004437469914543321" x2="0.004437469914543321" y1="143" y2="155" />
</g>
</g>
<text fill="hsl(63, 100%, 40%)" y="187">Small Map Decode.Waargonaut Decode Attoparsec 62.4 μs</text>
<g>
<title>62.4 μs ± 5.8 μs</title>
<rect y="193" rx="5" height="22" width="0.0871590175548395" fill="hsl(63, 100%, 80%)" stroke="hsl(63, 100%, 55%)" />
<g stroke="hsl(63, 100%, 40%)"><line x1="0.0790014563299003" x2="0.0953165787797787" y1="204" y2="204" />
<line x1="0.0790014563299003" x2="0.0790014563299003" y1="198" y2="210" />
<line x1="0.0953165787797787" x2="0.0953165787797787" y1="198" y2="210" />
</g>
</g>
<text fill="hsl(84, 100%, 40%)" y="242">Full Decode Persons Array JSON.Ordered Keys.Hermes Decode 201  ms</text>
<g>
<title>201  ms ± 3.6 ms</title>
<rect y="248" rx="5" height="22" width="281.31795011004834" fill="hsl(84, 100%, 80%)" stroke="hsl(84, 100%, 55%)" />
<g stroke="hsl(84, 100%, 40%)"><line x1="276.3144669463475" x2="286.32143327374916" y1="259" y2="259" />
<line x1="276.3144669463475" x2="276.3144669463475" y1="253" y2="265" />
<line x1="286.32143327374916" x2="286.32143327374916" y1="253" y2="265" />
</g>
</g>
<text fill="hsl(105, 100%, 40%)" y="297">Full Decode Persons Array JSON.Ordered Keys.Hermes DecodeWith 198  ms</text>
<g>
<title>198  ms ±  17 ms</title>
<rect y="303" rx="5" height="22" width="276.560579475408" fill="hsl(105, 100%, 80%)" stroke="hsl(105, 100%, 55%)" />
<g stroke="hsl(105, 100%, 40%)"><line x1="253.28415048764666" x2="299.8370084631694" y1="314" y2="314" />
<line x1="253.28415048764666" x2="253.28415048764666" y1="308" y2="320" />
<line x1="299.8370084631694" x2="299.8370084631694" y1="308" y2="320" />
</g>
</g>
<g fill="hsl(127, 100%, 40%)">
<text y="352">Full Decode Persons Array JSON.Ordered Keys.Aeson Decode Lazy</text>
<text y="352" x="830.3886232924955" text-anchor="end">595  ms</text>
</g>
<g>
<title>595  ms ±  30 ms</title>
<rect y="358" rx="5" height="22" width="830.3886232924955" fill="hsl(127, 100%, 80%)" stroke="hsl(127, 100%, 55%)" />
<g stroke="hsl(127, 100%, 40%)"><line x1="787.8393570791777" x2="872.9378895058132" y1="369" y2="369" />
<line x1="787.8393570791777" x2="787.8393570791777" y1="363" y2="375" />
<line x1="872.9378895058132" x2="872.9378895058132" y1="363" y2="375" />
</g>
</g>
<text fill="hsl(148, 100%, 40%)" y="407">Full Decode Persons Array JSON.Ordered Keys.Aeson Decode Strict 406  ms</text>
<g>
<title>406  ms ±  38 ms</title>
<rect y="413" rx="5" height="22" width="567.3975199060111" fill="hsl(148, 100%, 80%)" stroke="hsl(148, 100%, 55%)" />
<g stroke="hsl(148, 100%, 40%)"><line x1="514.625041815339" x2="620.1699979966832" y1="424" y2="424" />
<line x1="514.625041815339" x2="514.625041815339" y1="418" y2="430" />
<line x1="620.1699979966832" x2="620.1699979966832" y1="418" y2="430" />
</g>
</g>
<text fill="hsl(169, 100%, 40%)" y="462">Full Decode Persons Array JSON.Unordered Keys.Hermes Decode 218  ms</text>
<g>
<title>218  ms ± 5.9 ms</title>
<rect y="468" rx="5" height="22" width="304.42654798488314" fill="hsl(169, 100%, 80%)" stroke="hsl(169, 100%, 55%)" />
<g stroke="hsl(169, 100%, 40%)"><line x1="296.16720444558746" x2="312.6858915241788" y1="479" y2="479" />
<line x1="296.16720444558746" x2="296.16720444558746" y1="473" y2="485" />
<line x1="312.6858915241788" x2="312.6858915241788" y1="473" y2="485" />
</g>
</g>
<text fill="hsl(190, 100%, 40%)" y="517">Full Decode Persons Array JSON.Unordered Keys.Hermes DecodeWith 212  ms</text>
<g>
<title>212  ms ±  12 ms</title>
<rect y="523" rx="5" height="22" width="295.5965622469046" fill="hsl(190, 100%, 80%)" stroke="hsl(190, 100%, 55%)" />
<g stroke="hsl(190, 100%, 40%)"><line x1="278.20201603121967" x2="312.9911084625896" y1="534" y2="534" />
<line x1="278.20201603121967" x2="278.20201603121967" y1="528" y2="540" />
<line x1="312.9911084625896" x2="312.9911084625896" y1="528" y2="540" />
</g>
</g>
<g fill="hsl(211, 100%, 40%)">
<text y="572">Full Decode Persons Array JSON.Unordered Keys.Aeson Decode Lazy</text>
<text y="572" x="904.5805025475637" text-anchor="end">648  ms</text>
</g>
<g>
<title>648  ms ±  25 ms</title>
<rect y="578" rx="5" height="22" width="904.5805025475637" fill="hsl(211, 100%, 80%)" stroke="hsl(211, 100%, 55%)" />
<g stroke="hsl(211, 100%, 40%)"><line x1="869.1610050951274" x2="940.0" y1="589" y2="589" />
<line x1="869.1610050951274" x2="869.1610050951274" y1="583" y2="595" />
<line x1="940.0" x2="940.0" y1="583" y2="595" />
</g>
</g>
<g fill="hsl(232, 100%, 40%)">
<text y="627">Full Decode Persons Array JSON.Unordered Keys.Aeson Decode Strict</text>
<text y="627" x="678.5063747340419" text-anchor="end">486  ms</text>
</g>
<g>
<title>486  ms ±  16 ms</title>
<rect y="633" rx="5" height="22" width="678.5063747340419" fill="hsl(232, 100%, 80%)" stroke="hsl(232, 100%, 55%)" />
<g stroke="hsl(232, 100%, 40%)"><line x1="655.7997460105627" x2="701.213003457521" y1="644" y2="644" />
<line x1="655.7997460105627" x2="655.7997460105627" y1="638" y2="650" />
<line x1="701.213003457521" x2="701.213003457521" y1="638" y2="650" />
</g>
</g>
<text fill="hsl(254, 100%, 40%)" y="682">Partial Decode Twitter JSON.Hermes Decode 943  μs</text>
<g>
<title>943  μs ±  59 μs</title>
<rect y="688" rx="5" height="22" width="1.317448253416178" fill="hsl(254, 100%, 80%)" stroke="hsl(254, 100%, 55%)" />
<g stroke="hsl(254, 100%, 40%)"><line x1="1.2355492396015648" x2="1.3993472672307912" y1="699" y2="699" />
<line x1="1.2355492396015648" x2="1.2355492396015648" y1="693" y2="705" />
<line x1="1.3993472672307912" x2="1.3993472672307912" y1="693" y2="705" />
</g>
</g>
<text fill="hsl(275, 100%, 40%)" y="737">Partial Decode Twitter JSON.Hermes DecodeWith 858  μs</text>
<g>
<title>858  μs ±  63 μs</title>
<rect y="743" rx="5" height="22" width="1.1982885817198656" fill="hsl(275, 100%, 80%)" stroke="hsl(275, 100%, 55%)" />
<g stroke="hsl(275, 100%, 40%)"><line x1="1.1105371491143197" x2="1.2860400143254116" y1="754" y2="754" />
<line x1="1.1105371491143197" x2="1.1105371491143197" y1="748" y2="760" />
<line x1="1.2860400143254116" x2="1.2860400143254116" y1="748" y2="760" />
</g>
</g>
<text fill="hsl(296, 100%, 40%)" y="792">Partial Decode Twitter JSON.Aeson Decode Lazy 14.9 ms</text>
<g>
<title>14.9 ms ± 1.3 ms</title>
<rect y="798" rx="5" height="22" width="20.753357048422522" fill="hsl(296, 100%, 80%)" stroke="hsl(296, 100%, 55%)" />
<g stroke="hsl(296, 100%, 40%)"><line x1="18.895702385262318" x2="22.611011711582726" y1="809" y2="809" />
<line x1="18.895702385262318" x2="18.895702385262318" y1="803" y2="815" />
<line x1="22.611011711582726" x2="22.611011711582726" y1="803" y2="815" />
</g>
</g>
<text fill="hsl(317, 100%, 40%)" y="847">Partial Decode Twitter JSON.Aeson Decode Strict 16.9 ms</text>
<g>
<title>16.9 ms ± 810 μs</title>
<rect y="853" rx="5" height="22" width="23.60148042155361" fill="hsl(317, 100%, 80%)" stroke="hsl(317, 100%, 55%)" />
<g stroke="hsl(317, 100%, 40%)"><line x1="22.47022791862171" x2="24.73273292448551" y1="864" y2="864" />
<line x1="22.47022791862171" x2="22.47022791862171" y1="858" y2="870" />
<line x1="24.73273292448551" x2="24.73273292448551" y1="858" y2="870" />
</g>
</g>
<text fill="hsl(338, 100%, 40%)" y="902">Partial Decode Twitter JSON.Waargonaut Decode Attoparsec 7.57 ms</text>
<g>
<title>7.57 ms ± 370 μs</title>
<rect y="908" rx="5" height="22" width="10.566326824355615" fill="hsl(338, 100%, 80%)" stroke="hsl(338, 100%, 55%)" />
<g stroke="hsl(338, 100%, 40%)"><line x1="10.049683668932385" x2="11.082969979778845" y1="919" y2="919" />
<line x1="10.049683668932385" x2="10.049683668932385" y1="913" y2="925" />
<line x1="11.082969979778845" x2="11.082969979778845" y1="913" y2="925" />
</g>
</g>
</g>
</svg>
