<svg xmlns="http://www.w3.org/2000/svg" height="667" width="960.0" font-size="16" font-family="sans-serif" stroke-width="2">
<g transform="translate(10.0 0)">
<text fill="hsl(0, 100%, 40%)" y="22">Small Map.Hermes Decode 1.53 μs</text>
<g>
<title>1.53 μs ±  92 ns</title>
<rect y="28" rx="5" height="22" width="0.0028039473722772184" fill="hsl(0, 100%, 80%)" stroke="hsl(0, 100%, 55%)" />
<g stroke="hsl(0, 100%, 40%)"><line x1="0.0026345155732635512" x2="0.0029733791712908855" y1="39" y2="39" />
<line x1="0.0026345155732635512" x2="0.0026345155732635512" y1="33" y2="45" />
<line x1="0.0029733791712908855" x2="0.0029733791712908855" y1="33" y2="45" />
</g>
</g>
<text fill="hsl(30, 100%, 40%)" y="77">Small Map.Aeson Lazy 3.09 μs</text>
<g>
<title>3.09 μs ± 297 ns</title>
<rect y="83" rx="5" height="22" width="0.005676668463453615" fill="hsl(30, 100%, 80%)" stroke="hsl(30, 100%, 55%)" />
<g stroke="hsl(30, 100%, 40%)"><line x1="0.0051319537304073785" x2="0.006221383196499852" y1="94" y2="94" />
<line x1="0.0051319537304073785" x2="0.0051319537304073785" y1="88" y2="100" />
<line x1="0.006221383196499852" x2="0.006221383196499852" y1="88" y2="100" />
</g>
</g>
<text fill="hsl(60, 100%, 40%)" y="132">Small Map.Aeson Strict 3.03 μs</text>
<g>
<title>3.03 μs ± 167 ns</title>
<rect y="138" rx="5" height="22" width="0.005567673006609958" fill="hsl(60, 100%, 80%)" stroke="hsl(60, 100%, 55%)" />
<g stroke="hsl(60, 100%, 40%)"><line x1="0.005260333909450232" x2="0.005875012103769684" y1="149" y2="149" />
<line x1="0.005260333909450232" x2="0.005260333909450232" y1="143" y2="155" />
<line x1="0.005875012103769684" x2="0.005875012103769684" y1="143" y2="155" />
</g>
</g>
<text fill="hsl(90, 100%, 40%)" y="187">Full Persons Array.Ordered Keys.Hermes Decode 112  ms</text>
<g>
<title>112  ms ± 2.6 ms</title>
<rect y="193" rx="5" height="22" width="206.02551397968568" fill="hsl(90, 100%, 80%)" stroke="hsl(90, 100%, 55%)" />
<g stroke="hsl(90, 100%, 40%)"><line x1="201.33283814039478" x2="210.71818981897658" y1="204" y2="204" />
<line x1="201.33283814039478" x2="201.33283814039478" y1="198" y2="210" />
<line x1="210.71818981897658" x2="210.71818981897658" y1="198" y2="210" />
</g>
</g>
<g fill="hsl(120, 100%, 40%)">
<text y="242">Full Persons Array.Ordered Keys.Aeson Lazy</text>
<text y="242" x="860.4210478036564" text-anchor="end">469  ms</text>
</g>
<g>
<title>469  ms ±  43 ms</title>
<rect y="248" rx="5" height="22" width="860.4210478036564" fill="hsl(120, 100%, 80%)" stroke="hsl(120, 100%, 55%)" />
<g stroke="hsl(120, 100%, 40%)"><line x1="780.8420956073128" x2="940.0" y1="259" y2="259" />
<line x1="780.8420956073128" x2="780.8420956073128" y1="253" y2="265" />
<line x1="940.0" x2="940.0" y1="253" y2="265" />
</g>
</g>
<g fill="hsl(150, 100%, 40%)">
<text y="297">Full Persons Array.Ordered Keys.Aeson Strict</text>
<text y="297" x="672.3422461788533" text-anchor="end">366  ms</text>
</g>
<g>
<title>366  ms ±  35 ms</title>
<rect y="303" rx="5" height="22" width="672.3422461788533" fill="hsl(150, 100%, 80%)" stroke="hsl(150, 100%, 55%)" />
<g stroke="hsl(150, 100%, 40%)"><line x1="608.9586061972898" x2="735.7258861604168" y1="314" y2="314" />
<line x1="608.9586061972898" x2="608.9586061972898" y1="308" y2="320" />
<line x1="735.7258861604168" x2="735.7258861604168" y1="308" y2="320" />
</g>
</g>
<text fill="hsl(180, 100%, 40%)" y="352">Full Persons Array.Unordered Keys.Hermes Decode 120  ms</text>
<g>
<title>120  ms ± 7.8 ms</title>
<rect y="358" rx="5" height="22" width="220.16910908108218" fill="hsl(180, 100%, 80%)" stroke="hsl(180, 100%, 55%)" />
<g stroke="hsl(180, 100%, 40%)"><line x1="205.83273909012124" x2="234.50547907204313" y1="369" y2="369" />
<line x1="205.83273909012124" x2="205.83273909012124" y1="363" y2="375" />
<line x1="234.50547907204313" x2="234.50547907204313" y1="363" y2="375" />
</g>
</g>
<g fill="hsl(210, 100%, 40%)">
<text y="407">Full Persons Array.Unordered Keys.Aeson Lazy</text>
<text y="407" x="848.0720400866152" text-anchor="end">462  ms</text>
</g>
<g>
<title>462  ms ± 7.5 ms</title>
<rect y="413" rx="5" height="22" width="848.0720400866152" fill="hsl(210, 100%, 80%)" stroke="hsl(210, 100%, 55%)" />
<g stroke="hsl(210, 100%, 40%)"><line x1="834.2240757395464" x2="861.920004433684" y1="424" y2="424" />
<line x1="834.2240757395464" x2="834.2240757395464" y1="418" y2="430" />
<line x1="861.920004433684" x2="861.920004433684" y1="418" y2="430" />
</g>
</g>
<g fill="hsl(240, 100%, 40%)">
<text y="462">Full Persons Array.Unordered Keys.Aeson Strict</text>
<text y="462" x="676.8337836215829" text-anchor="end">369  ms</text>
</g>
<g>
<title>369  ms ±  32 ms</title>
<rect y="468" rx="5" height="22" width="676.8337836215829" fill="hsl(240, 100%, 80%)" stroke="hsl(240, 100%, 55%)" />
<g stroke="hsl(240, 100%, 40%)"><line x1="617.5270990890314" x2="736.1404681541345" y1="479" y2="479" />
<line x1="617.5270990890314" x2="617.5270990890314" y1="473" y2="485" />
<line x1="736.1404681541345" x2="736.1404681541345" y1="473" y2="485" />
</g>
</g>
<text fill="hsl(270, 100%, 40%)" y="517">Partial Twitter.Hermes Decode 460  μs</text>
<g>
<title>460  μs ±  21 μs</title>
<rect y="523" rx="5" height="22" width="0.8454335932226551" fill="hsl(270, 100%, 80%)" stroke="hsl(270, 100%, 55%)" />
<g stroke="hsl(270, 100%, 40%)"><line x1="0.806759680730443" x2="0.8841075057148672" y1="534" y2="534" />
<line x1="0.806759680730443" x2="0.806759680730443" y1="528" y2="540" />
<line x1="0.8841075057148672" x2="0.8841075057148672" y1="528" y2="540" />
</g>
</g>
<text fill="hsl(300, 100%, 40%)" y="572">Partial Twitter.Aeson Lazy 17.4 ms</text>
<g>
<title>17.4 ms ± 889 μs</title>
<rect y="578" rx="5" height="22" width="31.9664989724698" fill="hsl(300, 100%, 80%)" stroke="hsl(300, 100%, 55%)" />
<g stroke="hsl(300, 100%, 40%)"><line x1="30.33458557333081" x2="33.598412371608795" y1="589" y2="589" />
<line x1="30.33458557333081" x2="30.33458557333081" y1="583" y2="595" />
<line x1="33.598412371608795" x2="33.598412371608795" y1="583" y2="595" />
</g>
</g>
<text fill="hsl(330, 100%, 40%)" y="627">Partial Twitter.Aeson Strict 14.5 ms</text>
<g>
<title>14.5 ms ± 489 μs</title>
<rect y="633" rx="5" height="22" width="26.581260152663653" fill="hsl(330, 100%, 80%)" stroke="hsl(330, 100%, 55%)" />
<g stroke="hsl(330, 100%, 40%)"><line x1="25.68343893826472" x2="27.479081367062584" y1="644" y2="644" />
<line x1="25.68343893826472" x2="25.68343893826472" y1="638" y2="650" />
<line x1="27.479081367062584" x2="27.479081367062584" y1="638" y2="650" />
</g>
</g>
</g>
</svg>
