<svg xmlns="http://www.w3.org/2000/svg" height="722" width="960.0" font-size="16" font-family="sans-serif" stroke-width="2">
<g transform="translate(10.0 0)">
<text fill="hsl(0, 100%, 40%)" y="22">Full Decode Persons Array JSON.Ordered Keys.Hermes Decode 253  ms</text>
<g>
<title>253  ms ± 2.6 ms</title>
<rect y="28" rx="5" height="22" width="319.9113480251752" fill="hsl(0, 100%, 80%)" stroke="hsl(0, 100%, 55%)" />
<g stroke="hsl(0, 100%, 40%)"><line x1="316.5768615257377" x2="323.2458345246127" y1="39" y2="39" />
<line x1="316.5768615257377" x2="316.5768615257377" y1="33" y2="45" />
<line x1="323.2458345246127" x2="323.2458345246127" y1="33" y2="45" />
</g>
</g>
<text fill="hsl(27, 100%, 40%)" y="77">Full Decode Persons Array JSON.Ordered Keys.Hermes DecodeWith 245  ms</text>
<g>
<title>245  ms ± 4.7 ms</title>
<rect y="83" rx="5" height="22" width="309.56781335369345" fill="hsl(27, 100%, 80%)" stroke="hsl(27, 100%, 55%)" />
<g stroke="hsl(27, 100%, 40%)"><line x1="303.67486083888963" x2="315.4607658684973" y1="94" y2="94" />
<line x1="303.67486083888963" x2="303.67486083888963" y1="88" y2="100" />
<line x1="315.4607658684973" x2="315.4607658684973" y1="88" y2="100" />
</g>
</g>
<g fill="hsl(55, 100%, 40%)">
<text y="132">Full Decode Persons Array JSON.Ordered Keys.Aeson Decode Lazy</text>
<text y="132" x="786.936043356242" text-anchor="end">623  ms</text>
</g>
<g>
<title>623  ms ±  29 ms</title>
<rect y="138" rx="5" height="22" width="786.936043356242" fill="hsl(55, 100%, 80%)" stroke="hsl(55, 100%, 55%)" />
<g stroke="hsl(55, 100%, 40%)"><line x1="750.1640394690448" x2="823.7080472434391" y1="149" y2="149" />
<line x1="750.1640394690448" x2="750.1640394690448" y1="143" y2="155" />
<line x1="823.7080472434391" x2="823.7080472434391" y1="143" y2="155" />
</g>
</g>
<text fill="hsl(83, 100%, 40%)" y="187">Full Decode Persons Array JSON.Ordered Keys.Aeson Decode Strict 446  ms</text>
<g>
<title>446  ms ±  19 ms</title>
<rect y="193" rx="5" height="22" width="563.2653644297277" fill="hsl(83, 100%, 80%)" stroke="hsl(83, 100%, 55%)" />
<g stroke="hsl(83, 100%, 40%)"><line x1="538.9081802238579" x2="587.6225486355975" y1="204" y2="204" />
<line x1="538.9081802238579" x2="538.9081802238579" y1="198" y2="210" />
<line x1="587.6225486355975" x2="587.6225486355975" y1="198" y2="210" />
</g>
</g>
<text fill="hsl(110, 100%, 40%)" y="242">Full Decode Persons Array JSON.Unordered Keys.Hermes Decode 267  ms</text>
<g>
<title>267  ms ± 1.5 ms</title>
<rect y="248" rx="5" height="22" width="336.53325364644553" fill="hsl(110, 100%, 80%)" stroke="hsl(110, 100%, 55%)" />
<g stroke="hsl(110, 100%, 40%)"><line x1="334.6401751132198" x2="338.42633217967125" y1="259" y2="259" />
<line x1="334.6401751132198" x2="334.6401751132198" y1="253" y2="265" />
<line x1="338.42633217967125" x2="338.42633217967125" y1="253" y2="265" />
</g>
</g>
<text fill="hsl(138, 100%, 40%)" y="297">Full Decode Persons Array JSON.Unordered Keys.Hermes DecodeWith 259  ms</text>
<g>
<title>259  ms ± 5.3 ms</title>
<rect y="303" rx="5" height="22" width="327.4528829188223" fill="hsl(138, 100%, 80%)" stroke="hsl(138, 100%, 55%)" />
<g stroke="hsl(138, 100%, 40%)"><line x1="320.7185201327878" x2="334.1872457048568" y1="314" y2="314" />
<line x1="320.7185201327878" x2="320.7185201327878" y1="308" y2="320" />
<line x1="334.1872457048568" x2="334.1872457048568" y1="308" y2="320" />
</g>
</g>
<g fill="hsl(166, 100%, 40%)">
<text y="352">Full Decode Persons Array JSON.Unordered Keys.Aeson Decode Lazy</text>
<text y="352" x="905.4661182517298" text-anchor="end">717  ms</text>
</g>
<g>
<title>717  ms ±  27 ms</title>
<rect y="358" rx="5" height="22" width="905.4661182517298" fill="hsl(166, 100%, 80%)" stroke="hsl(166, 100%, 55%)" />
<g stroke="hsl(166, 100%, 40%)"><line x1="870.9322365034595" x2="940.0" y1="369" y2="369" />
<line x1="870.9322365034595" x2="870.9322365034595" y1="363" y2="375" />
<line x1="940.0" x2="940.0" y1="363" y2="375" />
</g>
</g>
<text fill="hsl(193, 100%, 40%)" y="407">Full Decode Persons Array JSON.Unordered Keys.Aeson Decode Strict 460  ms</text>
<g>
<title>460  ms ±  36 ms</title>
<rect y="413" rx="5" height="22" width="580.4465748448167" fill="hsl(193, 100%, 80%)" stroke="hsl(193, 100%, 55%)" />
<g stroke="hsl(193, 100%, 40%)"><line x1="535.2660163022556" x2="625.6271333873779" y1="424" y2="424" />
<line x1="535.2660163022556" x2="535.2660163022556" y1="418" y2="430" />
<line x1="625.6271333873779" x2="625.6271333873779" y1="418" y2="430" />
</g>
</g>
<text fill="hsl(221, 100%, 40%)" y="462">Partial Decode Twitter JSON.Hermes Decode 879  μs</text>
<g>
<title>879  μs ±  48 μs</title>
<rect y="468" rx="5" height="22" width="1.1092068231940848" fill="hsl(221, 100%, 80%)" stroke="hsl(221, 100%, 55%)" />
<g stroke="hsl(221, 100%, 40%)"><line x1="1.0486482267776123" x2="1.1697654196105574" y1="479" y2="479" />
<line x1="1.0486482267776123" x2="1.0486482267776123" y1="473" y2="485" />
<line x1="1.1697654196105574" x2="1.1697654196105574" y1="473" y2="485" />
</g>
</g>
<text fill="hsl(249, 100%, 40%)" y="517">Partial Decode Twitter JSON.Hermes DecodeWith 799  μs</text>
<g>
<title>799  μs ±  47 μs</title>
<rect y="523" rx="5" height="22" width="1.0084615327022697" fill="hsl(249, 100%, 80%)" stroke="hsl(249, 100%, 55%)" />
<g stroke="hsl(249, 100%, 40%)"><line x1="0.9490220511462342" x2="1.0679010142583052" y1="534" y2="534" />
<line x1="0.9490220511462342" x2="0.9490220511462342" y1="528" y2="540" />
<line x1="1.0679010142583052" x2="1.0679010142583052" y1="528" y2="540" />
</g>
</g>
<text fill="hsl(276, 100%, 40%)" y="572">Partial Decode Twitter JSON.Aeson Decode Lazy 12.8 ms</text>
<g>
<title>12.8 ms ± 706 μs</title>
<rect y="578" rx="5" height="22" width="16.153442740775162" fill="hsl(276, 100%, 80%)" stroke="hsl(276, 100%, 55%)" />
<g stroke="hsl(276, 100%, 40%)"><line x1="15.262702173549911" x2="17.044183308000413" y1="589" y2="589" />
<line x1="15.262702173549911" x2="15.262702173549911" y1="583" y2="595" />
<line x1="17.044183308000413" x2="17.044183308000413" y1="583" y2="595" />
</g>
</g>
<text fill="hsl(304, 100%, 40%)" y="627">Partial Decode Twitter JSON.Aeson Decode Strict 16.0 ms</text>
<g>
<title>16.0 ms ± 1.2 ms</title>
<rect y="633" rx="5" height="22" width="20.189912345932317" fill="hsl(304, 100%, 80%)" stroke="hsl(304, 100%, 55%)" />
<g stroke="hsl(304, 100%, 40%)"><line x1="18.693620100369774" x2="21.68620459149486" y1="644" y2="644" />
<line x1="18.693620100369774" x2="18.693620100369774" y1="638" y2="650" />
<line x1="21.68620459149486" x2="21.68620459149486" y1="638" y2="650" />
</g>
</g>
<text fill="hsl(332, 100%, 40%)" y="682">Partial Decode Twitter JSON.Waargonaut Decode Attoparsec 7.55 ms</text>
<g>
<title>7.55 ms ± 401 μs</title>
<rect y="688" rx="5" height="22" width="9.530984770728864" fill="hsl(332, 100%, 80%)" stroke="hsl(332, 100%, 55%)" />
<g stroke="hsl(332, 100%, 40%)"><line x1="9.024802722766244" x2="10.037166818691484" y1="699" y2="699" />
<line x1="9.024802722766244" x2="9.024802722766244" y1="693" y2="705" />
<line x1="10.037166818691484" x2="10.037166818691484" y1="693" y2="705" />
</g>
</g>
</g>
</svg>
