<svg xmlns="http://www.w3.org/2000/svg" height="997" width="960.0" font-size="16" font-family="sans-serif" stroke-width="2">
<g transform="translate(10.0 0)">
<text fill="hsl(0, 100%, 40%)" y="22">Small Map.Hermes Decode 1.29 μs</text>
<g>
<title>1.29 μs ±  83 ns</title>
<rect y="28" rx="5" height="22" width="0.001627358672097512" fill="hsl(0, 100%, 80%)" stroke="hsl(0, 100%, 55%)" />
<g stroke="hsl(0, 100%, 40%)"><line x1="0.0015224452392623871" x2="0.0017322721049326368" y1="39" y2="39" />
<line x1="0.0015224452392623871" x2="0.0015224452392623871" y1="33" y2="45" />
<line x1="0.0017322721049326368" x2="0.0017322721049326368" y1="33" y2="45" />
</g>
</g>
<text fill="hsl(20, 100%, 40%)" y="77">Small Map.Hermes DecodeWith 1.01 μs</text>
<g>
<title>1.01 μs ±  88 ns</title>
<rect y="83" rx="5" height="22" width="0.001271426380598425" fill="hsl(20, 100%, 80%)" stroke="hsl(20, 100%, 55%)" />
<g stroke="hsl(20, 100%, 40%)"><line x1="0.00116046784819581" x2="0.00138238491300104" y1="94" y2="94" />
<line x1="0.00116046784819581" x2="0.00116046784819581" y1="88" y2="100" />
<line x1="0.00138238491300104" x2="0.00138238491300104" y1="88" y2="100" />
</g>
</g>
<text fill="hsl(40, 100%, 40%)" y="132">Small Map.Aeson Lazy 2.95 μs</text>
<g>
<title>2.95 μs ± 167 ns</title>
<rect y="138" rx="5" height="22" width="0.003710905925835797" fill="hsl(40, 100%, 80%)" stroke="hsl(40, 100%, 55%)" />
<g stroke="hsl(40, 100%, 40%)"><line x1="0.003501036276363446" x2="0.003920775575308148" y1="149" y2="149" />
<line x1="0.003501036276363446" x2="0.003501036276363446" y1="143" y2="155" />
<line x1="0.003920775575308148" x2="0.003920775575308148" y1="143" y2="155" />
</g>
</g>
<text fill="hsl(60, 100%, 40%)" y="187">Small Map.Aeson Strict 2.97 μs</text>
<g>
<title>2.97 μs ± 189 ns</title>
<rect y="193" rx="5" height="22" width="0.0037359583586603524" fill="hsl(60, 100%, 80%)" stroke="hsl(60, 100%, 55%)" />
<g stroke="hsl(60, 100%, 40%)"><line x1="0.0034979369674053426" x2="0.003973979749915362" y1="204" y2="204" />
<line x1="0.0034979369674053426" x2="0.0034979369674053426" y1="198" y2="210" />
<line x1="0.003973979749915362" x2="0.003973979749915362" y1="198" y2="210" />
</g>
</g>
<text fill="hsl(80, 100%, 40%)" y="242">Small Map.Waargonaut Attoparsec 63.2 μs</text>
<g>
<title>63.2 μs ± 5.5 μs</title>
<rect y="248" rx="5" height="22" width="0.07954644972247901" fill="hsl(80, 100%, 80%)" stroke="hsl(80, 100%, 55%)" />
<g stroke="hsl(80, 100%, 40%)"><line x1="0.0726746110633485" x2="0.08641828838160953" y1="259" y2="259" />
<line x1="0.0726746110633485" x2="0.0726746110633485" y1="253" y2="265" />
<line x1="0.08641828838160953" x2="0.08641828838160953" y1="253" y2="265" />
</g>
</g>
<text fill="hsl(100, 100%, 40%)" y="297">Full Persons Array.Ordered Keys.Hermes Decode 165  ms</text>
<g>
<title>165  ms ± 7.6 ms</title>
<rect y="303" rx="5" height="22" width="208.03962241968293" fill="hsl(100, 100%, 80%)" stroke="hsl(100, 100%, 55%)" />
<g stroke="hsl(100, 100%, 40%)"><line x1="198.41963391654997" x2="217.6596109228159" y1="314" y2="314" />
<line x1="198.41963391654997" x2="198.41963391654997" y1="308" y2="320" />
<line x1="217.6596109228159" x2="217.6596109228159" y1="308" y2="320" />
</g>
</g>
<text fill="hsl(120, 100%, 40%)" y="352">Full Persons Array.Ordered Keys.Hermes DecodeWith 160  ms</text>
<g>
<title>160  ms ±  15 ms</title>
<rect y="358" rx="5" height="22" width="201.4691882221081" fill="hsl(120, 100%, 80%)" stroke="hsl(120, 100%, 55%)" />
<g stroke="hsl(120, 100%, 40%)"><line x1="182.97130337043387" x2="219.96707307378233" y1="369" y2="369" />
<line x1="182.97130337043387" x2="182.97130337043387" y1="363" y2="375" />
<line x1="219.96707307378233" x2="219.96707307378233" y1="363" y2="375" />
</g>
</g>
<g fill="hsl(140, 100%, 40%)">
<text y="407">Full Persons Array.Ordered Keys.Aeson Lazy</text>
<text y="407" x="759.5593460964221" text-anchor="end">604  ms</text>
</g>
<g>
<title>604  ms ±  58 ms</title>
<rect y="413" rx="5" height="22" width="759.5593460964221" fill="hsl(140, 100%, 80%)" stroke="hsl(140, 100%, 55%)" />
<g stroke="hsl(140, 100%, 40%)"><line x1="685.9560692558898" x2="833.1626229369544" y1="424" y2="424" />
<line x1="685.9560692558898" x2="685.9560692558898" y1="418" y2="430" />
<line x1="833.1626229369544" x2="833.1626229369544" y1="418" y2="430" />
</g>
</g>
<g fill="hsl(160, 100%, 40%)">
<text y="462">Full Persons Array.Ordered Keys.Aeson Strict</text>
<text y="462" x="542.4631393492396" text-anchor="end">431  ms</text>
</g>
<g>
<title>431  ms ±  11 ms</title>
<rect y="468" rx="5" height="22" width="542.4631393492396" fill="hsl(160, 100%, 80%)" stroke="hsl(160, 100%, 55%)" />
<g stroke="hsl(160, 100%, 40%)"><line x1="528.0231818505669" x2="556.9030968479123" y1="479" y2="479" />
<line x1="528.0231818505669" x2="528.0231818505669" y1="473" y2="485" />
<line x1="556.9030968479123" x2="556.9030968479123" y1="473" y2="485" />
</g>
</g>
<text fill="hsl(180, 100%, 40%)" y="517">Full Persons Array.Unordered Keys.Hermes Decode 184  ms</text>
<g>
<title>184  ms ± 3.7 ms</title>
<rect y="523" rx="5" height="22" width="231.17621520967947" fill="hsl(180, 100%, 80%)" stroke="hsl(180, 100%, 55%)" />
<g stroke="hsl(180, 100%, 40%)"><line x1="226.52822259739472" x2="235.82420782196422" y1="534" y2="534" />
<line x1="226.52822259739472" x2="226.52822259739472" y1="528" y2="540" />
<line x1="235.82420782196422" x2="235.82420782196422" y1="528" y2="540" />
</g>
</g>
<text fill="hsl(200, 100%, 40%)" y="572">Full Persons Array.Unordered Keys.Hermes DecodeWith 180  ms</text>
<g>
<title>180  ms ± 7.2 ms</title>
<rect y="578" rx="5" height="22" width="227.0590889113547" fill="hsl(200, 100%, 80%)" stroke="hsl(200, 100%, 55%)" />
<g stroke="hsl(200, 100%, 40%)"><line x1="218.04600145855255" x2="236.07217636415686" y1="589" y2="589" />
<line x1="218.04600145855255" x2="218.04600145855255" y1="583" y2="595" />
<line x1="236.07217636415686" x2="236.07217636415686" y1="583" y2="595" />
</g>
</g>
<g fill="hsl(220, 100%, 40%)">
<text y="627">Full Persons Array.Unordered Keys.Aeson Lazy</text>
<text y="627" x="856.468748364864" text-anchor="end">681  ms</text>
</g>
<g>
<title>681  ms ±  66 ms</title>
<rect y="633" rx="5" height="22" width="856.468748364864" fill="hsl(220, 100%, 80%)" stroke="hsl(220, 100%, 55%)" />
<g stroke="hsl(220, 100%, 40%)"><line x1="772.9374967297281" x2="940.0" y1="644" y2="644" />
<line x1="772.9374967297281" x2="772.9374967297281" y1="638" y2="650" />
<line x1="940.0" x2="940.0" y1="638" y2="650" />
</g>
</g>
<g fill="hsl(240, 100%, 40%)">
<text y="682">Full Persons Array.Unordered Keys.Aeson Strict</text>
<text y="682" x="589.9036520905003" text-anchor="end">469  ms</text>
</g>
<g>
<title>469  ms ±  13 ms</title>
<rect y="688" rx="5" height="22" width="589.9036520905003" fill="hsl(240, 100%, 80%)" stroke="hsl(240, 100%, 55%)" />
<g stroke="hsl(240, 100%, 40%)"><line x1="573.6409213692208" x2="606.1663828117797" y1="699" y2="699" />
<line x1="573.6409213692208" x2="573.6409213692208" y1="693" y2="705" />
<line x1="606.1663828117797" x2="606.1663828117797" y1="693" y2="705" />
</g>
</g>
<text fill="hsl(260, 100%, 40%)" y="737">Partial Twitter.Hermes Decode 595  μs</text>
<g>
<title>595  μs ±  46 μs</title>
<rect y="743" rx="5" height="22" width="0.7489503062091802" fill="hsl(260, 100%, 80%)" stroke="hsl(260, 100%, 55%)" />
<g stroke="hsl(260, 100%, 40%)"><line x1="0.6913967101467929" x2="0.8065039022715675" y1="754" y2="754" />
<line x1="0.6913967101467929" x2="0.6913967101467929" y1="748" y2="760" />
<line x1="0.8065039022715675" x2="0.8065039022715675" y1="748" y2="760" />
</g>
</g>
<text fill="hsl(280, 100%, 40%)" y="792">Partial Twitter.Hermes DecodeWith 594  μs</text>
<g>
<title>594  μs ±  54 μs</title>
<rect y="798" rx="5" height="22" width="0.747330147799307" fill="hsl(280, 100%, 80%)" stroke="hsl(280, 100%, 55%)" />
<g stroke="hsl(280, 100%, 40%)"><line x1="0.6798970898075889" x2="0.814763205791025" y1="809" y2="809" />
<line x1="0.6798970898075889" x2="0.6798970898075889" y1="803" y2="815" />
<line x1="0.814763205791025" x2="0.814763205791025" y1="803" y2="815" />
</g>
</g>
<text fill="hsl(300, 100%, 40%)" y="847">Partial Twitter.Aeson Lazy 14.4 ms</text>
<g>
<title>14.4 ms ± 525 μs</title>
<rect y="853" rx="5" height="22" width="18.167283086455" fill="hsl(300, 100%, 80%)" stroke="hsl(300, 100%, 55%)" />
<g stroke="hsl(300, 100%, 40%)"><line x1="17.506748732431838" x2="18.827817440478164" y1="864" y2="864" />
<line x1="17.506748732431838" x2="17.506748732431838" y1="858" y2="870" />
<line x1="18.827817440478164" x2="18.827817440478164" y1="858" y2="870" />
</g>
</g>
<text fill="hsl(320, 100%, 40%)" y="902">Partial Twitter.Aeson Strict 16.8 ms</text>
<g>
<title>16.8 ms ± 1.0 ms</title>
<rect y="908" rx="5" height="22" width="21.161701356347475" fill="hsl(320, 100%, 80%)" stroke="hsl(320, 100%, 55%)" />
<g stroke="hsl(320, 100%, 40%)"><line x1="19.84532626544423" x2="22.47807644725072" y1="919" y2="919" />
<line x1="19.84532626544423" x2="19.84532626544423" y1="913" y2="925" />
<line x1="22.47807644725072" x2="22.47807644725072" y1="913" y2="925" />
</g>
</g>
<text fill="hsl(340, 100%, 40%)" y="957">Partial Twitter.Waargonaut Attoparsec 7.87 ms</text>
<g>
<title>7.87 ms ± 686 μs</title>
<rect y="963" rx="5" height="22" width="9.897578415743832" fill="hsl(340, 100%, 80%)" stroke="hsl(340, 100%, 55%)" />
<g stroke="hsl(340, 100%, 40%)"><line x1="9.033824225624791" x2="10.761332605862872" y1="974" y2="974" />
<line x1="9.033824225624791" x2="9.033824225624791" y1="968" y2="980" />
<line x1="10.761332605862872" x2="10.761332605862872" y1="968" y2="980" />
</g>
</g>
</g>
</svg>
