<svg xmlns="http://www.w3.org/2000/svg" height="667" width="960.0" font-size="16" font-family="sans-serif" stroke-width="2">
<g transform="translate(10.0 0)">
<text fill="hsl(0, 100%, 40%)" y="22">Small Map.Hermes Decode 1.98 μs</text>
<g>
<title>1.98 μs ±  36 ns</title>
<rect y="28" rx="5" height="22" width="0.003705464077823473" fill="hsl(0, 100%, 80%)" stroke="hsl(0, 100%, 55%)" />
<g stroke="hsl(0, 100%, 40%)"><line x1="0.0036372770598846905" x2="0.003773651095762255" y1="39" y2="39" />
<line x1="0.0036372770598846905" x2="0.0036372770598846905" y1="33" y2="45" />
<line x1="0.003773651095762255" x2="0.003773651095762255" y1="33" y2="45" />
</g>
</g>
<text fill="hsl(30, 100%, 40%)" y="77">Small Map.Aeson Lazy 3.34 μs</text>
<g>
<title>3.34 μs ± 160 ns</title>
<rect y="83" rx="5" height="22" width="0.0062398840628504855" fill="hsl(30, 100%, 80%)" stroke="hsl(30, 100%, 55%)" />
<g stroke="hsl(30, 100%, 40%)"><line x1="0.005941417736426269" x2="0.006538350389274702" y1="94" y2="94" />
<line x1="0.005941417736426269" x2="0.005941417736426269" y1="88" y2="100" />
<line x1="0.006538350389274702" x2="0.006538350389274702" y1="88" y2="100" />
</g>
</g>
<text fill="hsl(60, 100%, 40%)" y="132">Small Map.Aeson Strict 3.14 μs</text>
<g>
<title>3.14 μs ± 260 ns</title>
<rect y="138" rx="5" height="22" width="0.005871200920190203" fill="hsl(60, 100%, 80%)" stroke="hsl(60, 100%, 55%)" />
<g stroke="hsl(60, 100%, 40%)"><line x1="0.005385929602402861" x2="0.006356472237977544" y1="149" y2="149" />
<line x1="0.005385929602402861" x2="0.005385929602402861" y1="143" y2="155" />
<line x1="0.006356472237977544" x2="0.006356472237977544" y1="143" y2="155" />
</g>
</g>
<text fill="hsl(90, 100%, 40%)" y="187">Full Persons Array.Ordered Keys.Hermes Decode 147  ms</text>
<g>
<title>147  ms ± 814 μs</title>
<rect y="193" rx="5" height="22" width="274.10631147266236" fill="hsl(90, 100%, 80%)" stroke="hsl(90, 100%, 55%)" />
<g stroke="hsl(90, 100%, 40%)"><line x1="272.5851036010097" x2="275.62751934431503" y1="204" y2="204" />
<line x1="272.5851036010097" x2="272.5851036010097" y1="198" y2="210" />
<line x1="275.62751934431503" x2="275.62751934431503" y1="198" y2="210" />
</g>
</g>
<g fill="hsl(120, 100%, 40%)">
<text y="242">Full Persons Array.Ordered Keys.Aeson Lazy</text>
<text y="242" x="898.8553114024973" text-anchor="end">481  ms</text>
</g>
<g>
<title>481  ms ± 1.7 ms</title>
<rect y="248" rx="5" height="22" width="898.8553114024973" fill="hsl(120, 100%, 80%)" stroke="hsl(120, 100%, 55%)" />
<g stroke="hsl(120, 100%, 40%)"><line x1="895.7019808974018" x2="902.0086419075927" y1="259" y2="259" />
<line x1="895.7019808974018" x2="895.7019808974018" y1="253" y2="265" />
<line x1="902.0086419075927" x2="902.0086419075927" y1="253" y2="265" />
</g>
</g>
<g fill="hsl(150, 100%, 40%)">
<text y="297">Full Persons Array.Ordered Keys.Aeson Strict</text>
<text y="297" x="705.5031635776503" text-anchor="end">377  ms</text>
</g>
<g>
<title>377  ms ±  33 ms</title>
<rect y="303" rx="5" height="22" width="705.5031635776503" fill="hsl(150, 100%, 80%)" stroke="hsl(150, 100%, 55%)" />
<g stroke="hsl(150, 100%, 40%)"><line x1="644.7137765746552" x2="766.2925505806454" y1="314" y2="314" />
<line x1="644.7137765746552" x2="644.7137765746552" y1="308" y2="320" />
<line x1="766.2925505806454" x2="766.2925505806454" y1="308" y2="320" />
</g>
</g>
<text fill="hsl(180, 100%, 40%)" y="352">Full Persons Array.Unordered Keys.Hermes Decode 158  ms</text>
<g>
<title>158  ms ± 2.2 ms</title>
<rect y="358" rx="5" height="22" width="295.2129193606609" fill="hsl(180, 100%, 80%)" stroke="hsl(180, 100%, 55%)" />
<g stroke="hsl(180, 100%, 40%)"><line x1="291.17423841332317" x2="299.2516003079987" y1="369" y2="369" />
<line x1="291.17423841332317" x2="291.17423841332317" y1="363" y2="375" />
<line x1="299.2516003079987" x2="299.2516003079987" y1="363" y2="375" />
</g>
</g>
<g fill="hsl(210, 100%, 40%)">
<text y="407">Full Persons Array.Unordered Keys.Aeson Lazy</text>
<text y="407" x="903.9209208906203" text-anchor="end">484  ms</text>
</g>
<g>
<title>484  ms ±  19 ms</title>
<rect y="413" rx="5" height="22" width="903.9209208906203" fill="hsl(210, 100%, 80%)" stroke="hsl(210, 100%, 55%)" />
<g stroke="hsl(210, 100%, 40%)"><line x1="867.8418417812406" x2="940.0" y1="424" y2="424" />
<line x1="867.8418417812406" x2="867.8418417812406" y1="418" y2="430" />
<line x1="940.0" x2="940.0" y1="418" y2="430" />
</g>
</g>
<g fill="hsl(240, 100%, 40%)">
<text y="462">Full Persons Array.Unordered Keys.Aeson Strict</text>
<text y="462" x="720.682006085284" text-anchor="end">386  ms</text>
</g>
<g>
<title>386  ms ±  15 ms</title>
<rect y="468" rx="5" height="22" width="720.682006085284" fill="hsl(240, 100%, 80%)" stroke="hsl(240, 100%, 55%)" />
<g stroke="hsl(240, 100%, 40%)"><line x1="692.6474484237592" x2="748.7165637468088" y1="479" y2="479" />
<line x1="692.6474484237592" x2="692.6474484237592" y1="473" y2="485" />
<line x1="748.7165637468088" x2="748.7165637468088" y1="473" y2="485" />
</g>
</g>
<text fill="hsl(270, 100%, 40%)" y="517">Partial Twitter.Hermes Decode 546  μs</text>
<g>
<title>546  μs ±  29 μs</title>
<rect y="523" rx="5" height="22" width="1.0198135127378056" fill="hsl(270, 100%, 80%)" stroke="hsl(270, 100%, 55%)" />
<g stroke="hsl(270, 100%, 40%)"><line x1="0.9661630093176349" x2="1.0734640161579765" y1="534" y2="534" />
<line x1="0.9661630093176349" x2="0.9661630093176349" y1="528" y2="540" />
<line x1="1.0734640161579765" x2="1.0734640161579765" y1="528" y2="540" />
</g>
</g>
<text fill="hsl(300, 100%, 40%)" y="572">Partial Twitter.Aeson Lazy 18.4 ms</text>
<g>
<title>18.4 ms ± 1.2 ms</title>
<rect y="578" rx="5" height="22" width="34.32489959618242" fill="hsl(300, 100%, 80%)" stroke="hsl(300, 100%, 55%)" />
<g stroke="hsl(300, 100%, 40%)"><line x1="31.996492654829982" x2="36.65330653753486" y1="589" y2="589" />
<line x1="31.996492654829982" x2="31.996492654829982" y1="583" y2="595" />
<line x1="36.65330653753486" x2="36.65330653753486" y1="583" y2="595" />
</g>
</g>
<text fill="hsl(330, 100%, 40%)" y="627">Partial Twitter.Aeson Strict 14.9 ms</text>
<g>
<title>14.9 ms ± 815 μs</title>
<rect y="633" rx="5" height="22" width="27.93004288740903" fill="hsl(330, 100%, 80%)" stroke="hsl(330, 100%, 55%)" />
<g stroke="hsl(330, 100%, 40%)"><line x1="26.406591961541842" x2="29.453493813276218" y1="644" y2="644" />
<line x1="26.406591961541842" x2="26.406591961541842" y1="638" y2="650" />
<line x1="29.453493813276218" x2="29.453493813276218" y1="638" y2="650" />
</g>
</g>
</g>
</svg>
