<svg xmlns="http://www.w3.org/2000/svg" height="667" width="960.0" font-size="16" font-family="sans-serif" stroke-width="2">
<g transform="translate(10.0 0)">
<text fill="hsl(0, 100%, 40%)" y="22">Small Map.Hermes Decode 1.99 μs</text>
<g>
<title>1.99 μs ±  33 ns</title>
<rect y="28" rx="5" height="22" width="0.0035128768713470725" fill="hsl(0, 100%, 80%)" stroke="hsl(0, 100%, 55%)" />
<g stroke="hsl(0, 100%, 40%)"><line x1="0.003454184439740665" x2="0.00357156930295348" y1="39" y2="39" />
<line x1="0.003454184439740665" x2="0.003454184439740665" y1="33" y2="45" />
<line x1="0.00357156930295348" x2="0.00357156930295348" y1="33" y2="45" />
</g>
</g>
<text fill="hsl(30, 100%, 40%)" y="77">Small Map.Aeson Lazy 3.07 μs</text>
<g>
<title>3.07 μs ± 206 ns</title>
<rect y="83" rx="5" height="22" width="0.005436797013123957" fill="hsl(30, 100%, 80%)" stroke="hsl(30, 100%, 55%)" />
<g stroke="hsl(30, 100%, 40%)"><line x1="0.005072949237642074" x2="0.00580064478860584" y1="94" y2="94" />
<line x1="0.005072949237642074" x2="0.005072949237642074" y1="88" y2="100" />
<line x1="0.00580064478860584" x2="0.00580064478860584" y1="88" y2="100" />
</g>
</g>
<text fill="hsl(60, 100%, 40%)" y="132">Small Map.Aeson Strict 3.05 μs</text>
<g>
<title>3.05 μs ± 193 ns</title>
<rect y="138" rx="5" height="22" width="0.005390381718833193" fill="hsl(60, 100%, 80%)" stroke="hsl(60, 100%, 55%)" />
<g stroke="hsl(60, 100%, 40%)"><line x1="0.005048044592127465" x2="0.005732718845538921" y1="149" y2="149" />
<line x1="0.005048044592127465" x2="0.005048044592127465" y1="143" y2="155" />
<line x1="0.005732718845538921" x2="0.005732718845538921" y1="143" y2="155" />
</g>
</g>
<text fill="hsl(90, 100%, 40%)" y="187">Full Persons Array.Ordered Keys.Hermes Decode 146  ms</text>
<g>
<title>146  ms ± 5.7 ms</title>
<rect y="193" rx="5" height="22" width="258.97111546620795" fill="hsl(90, 100%, 80%)" stroke="hsl(90, 100%, 55%)" />
<g stroke="hsl(90, 100%, 40%)"><line x1="248.9465436504425" x2="268.9956872819734" y1="204" y2="204" />
<line x1="248.9465436504425" x2="248.9465436504425" y1="198" y2="210" />
<line x1="268.9956872819734" x2="268.9956872819734" y1="198" y2="210" />
</g>
</g>
<g fill="hsl(120, 100%, 40%)">
<text y="242">Full Persons Array.Ordered Keys.Aeson Lazy</text>
<text y="242" x="869.6352242736718" text-anchor="end">491  ms</text>
</g>
<g>
<title>491  ms ±  30 ms</title>
<rect y="248" rx="5" height="22" width="869.6352242736718" fill="hsl(120, 100%, 80%)" stroke="hsl(120, 100%, 55%)" />
<g stroke="hsl(120, 100%, 40%)"><line x1="816.9176915338637" x2="922.35275701348" y1="259" y2="259" />
<line x1="816.9176915338637" x2="816.9176915338637" y1="253" y2="265" />
<line x1="922.35275701348" x2="922.35275701348" y1="253" y2="265" />
</g>
</g>
<g fill="hsl(150, 100%, 40%)">
<text y="297">Full Persons Array.Ordered Keys.Aeson Strict</text>
<text y="297" x="678.9298130672759" text-anchor="end">384  ms</text>
</g>
<g>
<title>384  ms ±  27 ms</title>
<rect y="303" rx="5" height="22" width="678.9298130672759" fill="hsl(150, 100%, 80%)" stroke="hsl(150, 100%, 55%)" />
<g stroke="hsl(150, 100%, 40%)"><line x1="631.671098306329" x2="726.1885278282227" y1="314" y2="314" />
<line x1="631.671098306329" x2="631.671098306329" y1="308" y2="320" />
<line x1="726.1885278282227" x2="726.1885278282227" y1="308" y2="320" />
</g>
</g>
<text fill="hsl(180, 100%, 40%)" y="352">Full Persons Array.Unordered Keys.Hermes Decode 154  ms</text>
<g>
<title>154  ms ±  15 ms</title>
<rect y="358" rx="5" height="22" width="271.9070411743198" fill="hsl(180, 100%, 80%)" stroke="hsl(180, 100%, 55%)" />
<g stroke="hsl(180, 100%, 40%)"><line x1="244.7745816189496" x2="299.0395007296899" y1="369" y2="369" />
<line x1="244.7745816189496" x2="244.7745816189496" y1="363" y2="375" />
<line x1="299.0395007296899" x2="299.0395007296899" y1="363" y2="375" />
</g>
</g>
<g fill="hsl(210, 100%, 40%)">
<text y="407">Full Persons Array.Unordered Keys.Aeson Lazy</text>
<text y="407" x="864.8444524203388" text-anchor="end">489  ms</text>
</g>
<g>
<title>489  ms ±  42 ms</title>
<rect y="413" rx="5" height="22" width="864.8444524203388" fill="hsl(210, 100%, 80%)" stroke="hsl(210, 100%, 55%)" />
<g stroke="hsl(210, 100%, 40%)"><line x1="789.6889048406777" x2="940.0" y1="424" y2="424" />
<line x1="789.6889048406777" x2="789.6889048406777" y1="418" y2="430" />
<line x1="940.0" x2="940.0" y1="418" y2="430" />
</g>
</g>
<g fill="hsl(240, 100%, 40%)">
<text y="462">Full Persons Array.Unordered Keys.Aeson Strict</text>
<text y="462" x="672.618884939008" text-anchor="end">380  ms</text>
</g>
<g>
<title>380  ms ±  12 ms</title>
<rect y="468" rx="5" height="22" width="672.618884939008" fill="hsl(240, 100%, 80%)" stroke="hsl(240, 100%, 55%)" />
<g stroke="hsl(240, 100%, 40%)"><line x1="650.6599524728086" x2="694.5778174052074" y1="479" y2="479" />
<line x1="650.6599524728086" x2="650.6599524728086" y1="473" y2="485" />
<line x1="694.5778174052074" x2="694.5778174052074" y1="473" y2="485" />
</g>
</g>
<text fill="hsl(270, 100%, 40%)" y="517">Partial Twitter.Hermes Decode 546  μs</text>
<g>
<title>546  μs ±  34 μs</title>
<rect y="523" rx="5" height="22" width="0.9654104773391127" fill="hsl(270, 100%, 80%)" stroke="hsl(270, 100%, 55%)" />
<g stroke="hsl(270, 100%, 40%)"><line x1="0.905614979097208" x2="1.0252059755810174" y1="534" y2="534" />
<line x1="0.905614979097208" x2="0.905614979097208" y1="528" y2="540" />
<line x1="1.0252059755810174" x2="1.0252059755810174" y1="528" y2="540" />
</g>
</g>
<text fill="hsl(300, 100%, 40%)" y="572">Partial Twitter.Aeson Lazy 17.4 ms</text>
<g>
<title>17.4 ms ± 1.0 ms</title>
<rect y="578" rx="5" height="22" width="30.86843917787277" fill="hsl(300, 100%, 80%)" stroke="hsl(300, 100%, 55%)" />
<g stroke="hsl(300, 100%, 40%)"><line x1="29.034396415744776" x2="32.70248194000076" y1="589" y2="589" />
<line x1="29.034396415744776" x2="29.034396415744776" y1="583" y2="595" />
<line x1="32.70248194000076" x2="32.70248194000076" y1="583" y2="595" />
</g>
</g>
<text fill="hsl(330, 100%, 40%)" y="627">Partial Twitter.Aeson Strict 15.2 ms</text>
<g>
<title>15.2 ms ± 900 μs</title>
<rect y="633" rx="5" height="22" width="26.898415485973985" fill="hsl(330, 100%, 80%)" stroke="hsl(330, 100%, 55%)" />
<g stroke="hsl(330, 100%, 40%)"><line x1="25.305723813404867" x2="28.4911071585431" y1="644" y2="644" />
<line x1="25.305723813404867" x2="25.305723813404867" y1="638" y2="650" />
<line x1="28.4911071585431" x2="28.4911071585431" y1="638" y2="650" />
</g>
</g>
</g>
</svg>
