<svg xmlns="http://www.w3.org/2000/svg" height="667" width="960.0" font-size="16" font-family="sans-serif" stroke-width="2">
<g transform="translate(10.0 0)">
<text fill="hsl(0, 100%, 40%)" y="22">Full Decode Persons Array JSON.Ordered Keys.Hermes Decode 250  ms</text>
<g>
<title>250  ms ± 3.3 ms</title>
<rect y="28" rx="5" height="22" width="325.4860883552329" fill="hsl(0, 100%, 80%)" stroke="hsl(0, 100%, 55%)" />
<g stroke="hsl(0, 100%, 40%)"><line x1="321.12761699808493" x2="329.8445597123808" y1="39" y2="39" />
<line x1="321.12761699808493" x2="321.12761699808493" y1="33" y2="45" />
<line x1="329.8445597123808" x2="329.8445597123808" y1="33" y2="45" />
</g>
</g>
<text fill="hsl(30, 100%, 40%)" y="77">Full Decode Persons Array JSON.Ordered Keys.Hermes DecodeWith 241  ms</text>
<g>
<title>241  ms ± 8.5 ms</title>
<rect y="83" rx="5" height="22" width="314.3946454279143" fill="hsl(30, 100%, 80%)" stroke="hsl(30, 100%, 55%)" />
<g stroke="hsl(30, 100%, 40%)"><line x1="303.296317284381" x2="325.49297357144764" y1="94" y2="94" />
<line x1="303.296317284381" x2="303.296317284381" y1="88" y2="100" />
<line x1="325.49297357144764" x2="325.49297357144764" y1="88" y2="100" />
</g>
</g>
<g fill="hsl(60, 100%, 40%)">
<text y="132">Full Decode Persons Array JSON.Ordered Keys.Aeson Decode Lazy</text>
<text y="132" x="816.1244610191918" text-anchor="end">626  ms</text>
</g>
<g>
<title>626  ms ±  21 ms</title>
<rect y="138" rx="5" height="22" width="816.1244610191918" fill="hsl(60, 100%, 80%)" stroke="hsl(60, 100%, 55%)" />
<g stroke="hsl(60, 100%, 40%)"><line x1="788.9052803184958" x2="843.3436417198878" y1="149" y2="149" />
<line x1="788.9052803184958" x2="788.9052803184958" y1="143" y2="155" />
<line x1="843.3436417198878" x2="843.3436417198878" y1="143" y2="155" />
</g>
</g>
<text fill="hsl(90, 100%, 40%)" y="187">Full Decode Persons Array JSON.Ordered Keys.Aeson Decode Strict 422  ms</text>
<g>
<title>422  ms ± 5.9 ms</title>
<rect y="193" rx="5" height="22" width="549.1985334857167" fill="hsl(90, 100%, 80%)" stroke="hsl(90, 100%, 55%)" />
<g stroke="hsl(90, 100%, 40%)"><line x1="541.4941273302833" x2="556.90293964115" y1="204" y2="204" />
<line x1="541.4941273302833" x2="541.4941273302833" y1="198" y2="210" />
<line x1="556.90293964115" x2="556.90293964115" y1="198" y2="210" />
</g>
</g>
<text fill="hsl(120, 100%, 40%)" y="242">Full Decode Persons Array JSON.Unordered Keys.Hermes Decode 267  ms</text>
<g>
<title>267  ms ± 6.2 ms</title>
<rect y="248" rx="5" height="22" width="347.3599407551121" fill="hsl(120, 100%, 80%)" stroke="hsl(120, 100%, 55%)" />
<g stroke="hsl(120, 100%, 40%)"><line x1="339.25955039954005" x2="355.4603311106842" y1="259" y2="259" />
<line x1="339.25955039954005" x2="339.25955039954005" y1="253" y2="265" />
<line x1="355.4603311106842" x2="355.4603311106842" y1="253" y2="265" />
</g>
</g>
<text fill="hsl(150, 100%, 40%)" y="297">Full Decode Persons Array JSON.Unordered Keys.Hermes DecodeWith 256  ms</text>
<g>
<title>256  ms ± 7.6 ms</title>
<rect y="303" rx="5" height="22" width="333.63927090535657" fill="hsl(150, 100%, 80%)" stroke="hsl(150, 100%, 55%)" />
<g stroke="hsl(150, 100%, 40%)"><line x1="323.77797324165823" x2="343.5005685690549" y1="314" y2="314" />
<line x1="323.77797324165823" x2="323.77797324165823" y1="308" y2="320" />
<line x1="343.5005685690549" x2="343.5005685690549" y1="308" y2="320" />
</g>
</g>
<g fill="hsl(180, 100%, 40%)">
<text y="352">Full Decode Persons Array JSON.Unordered Keys.Aeson Decode Lazy</text>
<text y="352" x="867.7745754062187" text-anchor="end">666  ms</text>
</g>
<g>
<title>666  ms ±  55 ms</title>
<rect y="358" rx="5" height="22" width="867.7745754062187" fill="hsl(180, 100%, 80%)" stroke="hsl(180, 100%, 55%)" />
<g stroke="hsl(180, 100%, 40%)"><line x1="795.5491508124373" x2="940.0" y1="369" y2="369" />
<line x1="795.5491508124373" x2="795.5491508124373" y1="363" y2="375" />
<line x1="940.0" x2="940.0" y1="363" y2="375" />
</g>
</g>
<g fill="hsl(210, 100%, 40%)">
<text y="407">Full Decode Persons Array JSON.Unordered Keys.Aeson Decode Strict</text>
<text y="407" x="620.54380939428" text-anchor="end">476  ms</text>
</g>
<g>
<title>476  ms ±  41 ms</title>
<rect y="413" rx="5" height="22" width="620.54380939428" fill="hsl(210, 100%, 80%)" stroke="hsl(210, 100%, 55%)" />
<g stroke="hsl(210, 100%, 40%)"><line x1="567.4088354186478" x2="673.6787833699121" y1="424" y2="424" />
<line x1="567.4088354186478" x2="567.4088354186478" y1="418" y2="430" />
<line x1="673.6787833699121" x2="673.6787833699121" y1="418" y2="430" />
</g>
</g>
<text fill="hsl(240, 100%, 40%)" y="462">Partial Decode Twitter JSON.Hermes Decode 884  μs</text>
<g>
<title>884  μs ±  85 μs</title>
<rect y="468" rx="5" height="22" width="1.1515090494721198" fill="hsl(240, 100%, 80%)" stroke="hsl(240, 100%, 55%)" />
<g stroke="hsl(240, 100%, 40%)"><line x1="1.0406261023920498" x2="1.26239199655219" y1="479" y2="479" />
<line x1="1.0406261023920498" x2="1.0406261023920498" y1="473" y2="485" />
<line x1="1.26239199655219" x2="1.26239199655219" y1="473" y2="485" />
</g>
</g>
<text fill="hsl(270, 100%, 40%)" y="517">Partial Decode Twitter JSON.Hermes DecodeWith 820  μs</text>
<g>
<title>820  μs ±  78 μs</title>
<rect y="523" rx="5" height="22" width="1.0689059526196758" fill="hsl(270, 100%, 80%)" stroke="hsl(270, 100%, 55%)" />
<g stroke="hsl(270, 100%, 40%)"><line x1="0.9677735064990637" x2="1.1700383987402878" y1="534" y2="534" />
<line x1="0.9677735064990637" x2="0.9677735064990637" y1="528" y2="540" />
<line x1="1.1700383987402878" x2="1.1700383987402878" y1="528" y2="540" />
</g>
</g>
<text fill="hsl(300, 100%, 40%)" y="572">Partial Decode Twitter JSON.Aeson Decode Lazy 14.0 ms</text>
<g>
<title>14.0 ms ± 709 μs</title>
<rect y="578" rx="5" height="22" width="18.208374287301016" fill="hsl(300, 100%, 80%)" stroke="hsl(300, 100%, 55%)" />
<g stroke="hsl(300, 100%, 40%)"><line x1="17.284957828172125" x2="19.131790746429907" y1="589" y2="589" />
<line x1="17.284957828172125" x2="17.284957828172125" y1="583" y2="595" />
<line x1="19.131790746429907" x2="19.131790746429907" y1="583" y2="595" />
</g>
</g>
<text fill="hsl(330, 100%, 40%)" y="627">Partial Decode Twitter JSON.Aeson Decode Strict 16.2 ms</text>
<g>
<title>16.2 ms ± 1.6 ms</title>
<rect y="633" rx="5" height="22" width="21.064968354726197" fill="hsl(330, 100%, 80%)" stroke="hsl(330, 100%, 55%)" />
<g stroke="hsl(330, 100%, 40%)"><line x1="18.975437957745818" x2="23.154498751706576" y1="644" y2="644" />
<line x1="18.975437957745818" x2="18.975437957745818" y1="638" y2="650" />
<line x1="23.154498751706576" x2="23.154498751706576" y1="638" y2="650" />
</g>
</g>
</g>
</svg>
