<svg xmlns="http://www.w3.org/2000/svg" height="997" width="960.0" font-size="16" font-family="sans-serif" stroke-width="2">
<g transform="translate(10.0 0)">
<text fill="hsl(0, 100%, 40%)" y="22">Small Map.Hermes Decode 1.43 μs</text>
<g>
<title>1.43 μs ±  92 ns</title>
<rect y="28" rx="5" height="22" width="0.0019375907858193001" fill="hsl(0, 100%, 80%)" stroke="hsl(0, 100%, 55%)" />
<g stroke="hsl(0, 100%, 40%)"><line x1="0.001813154582608624" x2="0.002062026989029976" y1="39" y2="39" />
<line x1="0.001813154582608624" x2="0.001813154582608624" y1="33" y2="45" />
<line x1="0.002062026989029976" x2="0.002062026989029976" y1="33" y2="45" />
</g>
</g>
<text fill="hsl(20, 100%, 40%)" y="77">Small Map.Hermes DecodeWith 1.11 μs</text>
<g>
<title>1.11 μs ±  84 ns</title>
<rect y="83" rx="5" height="22" width="0.0015012536183485975" fill="hsl(20, 100%, 80%)" stroke="hsl(20, 100%, 55%)" />
<g stroke="hsl(20, 100%, 40%)"><line x1="0.001387391293954791" x2="0.001615115942742404" y1="94" y2="94" />
<line x1="0.001387391293954791" x2="0.001387391293954791" y1="88" y2="100" />
<line x1="0.001615115942742404" x2="0.001615115942742404" y1="88" y2="100" />
</g>
</g>
<text fill="hsl(40, 100%, 40%)" y="132">Small Map.Aeson Lazy 3.02 μs</text>
<g>
<title>3.02 μs ±  65 ns</title>
<rect y="138" rx="5" height="22" width="0.004094984620620445" fill="hsl(40, 100%, 80%)" stroke="hsl(40, 100%, 55%)" />
<g stroke="hsl(40, 100%, 40%)"><line x1="0.004006631338406992" x2="0.004183337902833898" y1="149" y2="149" />
<line x1="0.004006631338406992" x2="0.004006631338406992" y1="143" y2="155" />
<line x1="0.004183337902833898" x2="0.004183337902833898" y1="143" y2="155" />
</g>
</g>
<text fill="hsl(60, 100%, 40%)" y="187">Small Map.Aeson Strict 3.08 μs</text>
<g>
<title>3.08 μs ± 218 ns</title>
<rect y="193" rx="5" height="22" width="0.004176946411869997" fill="hsl(60, 100%, 80%)" stroke="hsl(60, 100%, 55%)" />
<g stroke="hsl(60, 100%, 40%)"><line x1="0.0038813114939519433" x2="0.004472581329788051" y1="204" y2="204" />
<line x1="0.0038813114939519433" x2="0.0038813114939519433" y1="198" y2="210" />
<line x1="0.004472581329788051" x2="0.004472581329788051" y1="198" y2="210" />
</g>
</g>
<text fill="hsl(80, 100%, 40%)" y="242">Small Map.Waargonaut Attoparsec 64.8 μs</text>
<g>
<title>64.8 μs ± 5.1 μs</title>
<rect y="248" rx="5" height="22" width="0.08783654589024616" fill="hsl(80, 100%, 80%)" stroke="hsl(80, 100%, 55%)" />
<g stroke="hsl(80, 100%, 40%)"><line x1="0.08093139101832376" x2="0.09474170076216855" y1="259" y2="259" />
<line x1="0.08093139101832376" x2="0.08093139101832376" y1="253" y2="265" />
<line x1="0.09474170076216855" x2="0.09474170076216855" y1="253" y2="265" />
</g>
</g>
<text fill="hsl(100, 100%, 40%)" y="297">Full Persons Array.Ordered Keys.Hermes Decode 183  ms</text>
<g>
<title>183  ms ±  11 ms</title>
<rect y="303" rx="5" height="22" width="248.414495532378" fill="hsl(100, 100%, 80%)" stroke="hsl(100, 100%, 55%)" />
<g stroke="hsl(100, 100%, 40%)"><line x1="233.57525948445354" x2="263.2537315803025" y1="314" y2="314" />
<line x1="233.57525948445354" x2="233.57525948445354" y1="308" y2="320" />
<line x1="263.2537315803025" x2="263.2537315803025" y1="308" y2="320" />
</g>
</g>
<text fill="hsl(120, 100%, 40%)" y="352">Full Persons Array.Ordered Keys.Hermes DecodeWith 164  ms</text>
<g>
<title>164  ms ± 8.1 ms</title>
<rect y="358" rx="5" height="22" width="221.91562106321996" fill="hsl(120, 100%, 80%)" stroke="hsl(120, 100%, 55%)" />
<g stroke="hsl(120, 100%, 40%)"><line x1="210.9599317773551" x2="232.8713103490848" y1="369" y2="369" />
<line x1="210.9599317773551" x2="210.9599317773551" y1="363" y2="375" />
<line x1="232.8713103490848" x2="232.8713103490848" y1="363" y2="375" />
</g>
</g>
<g fill="hsl(140, 100%, 40%)">
<text y="407">Full Persons Array.Ordered Keys.Aeson Lazy</text>
<text y="407" x="753.9369257519977" text-anchor="end">556  ms</text>
</g>
<g>
<title>556  ms ±  57 ms</title>
<rect y="413" rx="5" height="22" width="753.9369257519977" fill="hsl(140, 100%, 80%)" stroke="hsl(140, 100%, 55%)" />
<g stroke="hsl(140, 100%, 40%)"><line x1="676.3584405896464" x2="831.515410914349" y1="424" y2="424" />
<line x1="676.3584405896464" x2="676.3584405896464" y1="418" y2="430" />
<line x1="831.515410914349" x2="831.515410914349" y1="418" y2="430" />
</g>
</g>
<g fill="hsl(160, 100%, 40%)">
<text y="462">Full Persons Array.Ordered Keys.Aeson Strict</text>
<text y="462" x="540.630558108987" text-anchor="end">399  ms</text>
</g>
<g>
<title>399  ms ±  31 ms</title>
<rect y="468" rx="5" height="22" width="540.630558108987" fill="hsl(160, 100%, 80%)" stroke="hsl(160, 100%, 55%)" />
<g stroke="hsl(160, 100%, 40%)"><line x1="498.49515712249894" x2="582.7659590954751" y1="479" y2="479" />
<line x1="498.49515712249894" x2="498.49515712249894" y1="473" y2="485" />
<line x1="582.7659590954751" x2="582.7659590954751" y1="473" y2="485" />
</g>
</g>
<text fill="hsl(180, 100%, 40%)" y="517">Full Persons Array.Unordered Keys.Hermes Decode 183  ms</text>
<g>
<title>183  ms ± 8.3 ms</title>
<rect y="523" rx="5" height="22" width="248.67056649780164" fill="hsl(180, 100%, 80%)" stroke="hsl(180, 100%, 55%)" />
<g stroke="hsl(180, 100%, 40%)"><line x1="237.39462767025327" x2="259.94650532535" y1="534" y2="534" />
<line x1="237.39462767025327" x2="237.39462767025327" y1="528" y2="540" />
<line x1="259.94650532535" x2="259.94650532535" y1="528" y2="540" />
</g>
</g>
<text fill="hsl(200, 100%, 40%)" y="572">Full Persons Array.Unordered Keys.Hermes DecodeWith 199  ms</text>
<g>
<title>199  ms ± 5.5 ms</title>
<rect y="578" rx="5" height="22" width="269.7828369907445" fill="hsl(200, 100%, 80%)" stroke="hsl(200, 100%, 55%)" />
<g stroke="hsl(200, 100%, 40%)"><line x1="262.2776138860897" x2="277.2880600953993" y1="589" y2="589" />
<line x1="262.2776138860897" x2="262.2776138860897" y1="583" y2="595" />
<line x1="277.2880600953993" x2="277.2880600953993" y1="583" y2="595" />
</g>
</g>
<g fill="hsl(220, 100%, 40%)">
<text y="627">Full Persons Array.Unordered Keys.Aeson Lazy</text>
<text y="627" x="808.4499058326037" text-anchor="end">597  ms</text>
</g>
<g>
<title>597  ms ±  97 ms</title>
<rect y="633" rx="5" height="22" width="808.4499058326037" fill="hsl(220, 100%, 80%)" stroke="hsl(220, 100%, 55%)" />
<g stroke="hsl(220, 100%, 40%)"><line x1="676.8998116652074" x2="940.0" y1="644" y2="644" />
<line x1="676.8998116652074" x2="676.8998116652074" y1="638" y2="650" />
<line x1="940.0" x2="940.0" y1="638" y2="650" />
</g>
</g>
<g fill="hsl(240, 100%, 40%)">
<text y="682">Full Persons Array.Unordered Keys.Aeson Strict</text>
<text y="682" x="625.8262890135272" text-anchor="end">462  ms</text>
</g>
<g>
<title>462  ms ±  44 ms</title>
<rect y="688" rx="5" height="22" width="625.8262890135272" fill="hsl(240, 100%, 80%)" stroke="hsl(240, 100%, 55%)" />
<g stroke="hsl(240, 100%, 40%)"><line x1="565.6707882164957" x2="685.9817898105588" y1="699" y2="699" />
<line x1="565.6707882164957" x2="565.6707882164957" y1="693" y2="705" />
<line x1="685.9817898105588" x2="685.9817898105588" y1="693" y2="705" />
</g>
</g>
<text fill="hsl(260, 100%, 40%)" y="737">Partial Twitter.Hermes Decode 635  μs</text>
<g>
<title>635  μs ±  26 μs</title>
<rect y="743" rx="5" height="22" width="0.8604846123975166" fill="hsl(260, 100%, 80%)" stroke="hsl(260, 100%, 55%)" />
<g stroke="hsl(260, 100%, 40%)"><line x1="0.8255883565381434" x2="0.8953808682568898" y1="754" y2="754" />
<line x1="0.8255883565381434" x2="0.8255883565381434" y1="748" y2="760" />
<line x1="0.8953808682568898" x2="0.8953808682568898" y1="748" y2="760" />
</g>
</g>
<text fill="hsl(280, 100%, 40%)" y="792">Partial Twitter.Hermes DecodeWith 642  μs</text>
<g>
<title>642  μs ±  62 μs</title>
<rect y="798" rx="5" height="22" width="0.8697754834306178" fill="hsl(280, 100%, 80%)" stroke="hsl(280, 100%, 55%)" />
<g stroke="hsl(280, 100%, 40%)"><line x1="0.7852576297750306" x2="0.9542933370862051" y1="809" y2="809" />
<line x1="0.7852576297750306" x2="0.7852576297750306" y1="803" y2="815" />
<line x1="0.9542933370862051" x2="0.9542933370862051" y1="803" y2="815" />
</g>
</g>
<text fill="hsl(300, 100%, 40%)" y="847">Partial Twitter.Aeson Lazy 13.8 ms</text>
<g>
<title>13.8 ms ± 370 μs</title>
<rect y="853" rx="5" height="22" width="18.670806395009382" fill="hsl(300, 100%, 80%)" stroke="hsl(300, 100%, 55%)" />
<g stroke="hsl(300, 100%, 40%)"><line x1="18.169134984058953" x2="19.17247780595981" y1="864" y2="864" />
<line x1="18.169134984058953" x2="18.169134984058953" y1="858" y2="870" />
<line x1="19.17247780595981" x2="19.17247780595981" y1="858" y2="870" />
</g>
</g>
<text fill="hsl(320, 100%, 40%)" y="902">Partial Twitter.Aeson Strict 17.3 ms</text>
<g>
<title>17.3 ms ± 846 μs</title>
<rect y="908" rx="5" height="22" width="23.46376107383518" fill="hsl(320, 100%, 80%)" stroke="hsl(320, 100%, 55%)" />
<g stroke="hsl(320, 100%, 40%)"><line x1="22.316815276521435" x2="24.610706871148924" y1="919" y2="919" />
<line x1="22.316815276521435" x2="22.316815276521435" y1="913" y2="925" />
<line x1="24.610706871148924" x2="24.610706871148924" y1="913" y2="925" />
</g>
</g>
<text fill="hsl(340, 100%, 40%)" y="957">Partial Twitter.Waargonaut Attoparsec 8.33 ms</text>
<g>
<title>8.33 ms ± 584 μs</title>
<rect y="963" rx="5" height="22" width="11.288581713035889" fill="hsl(340, 100%, 80%)" stroke="hsl(340, 100%, 55%)" />
<g stroke="hsl(340, 100%, 40%)"><line x1="10.497338599698464" x2="12.079824826373313" y1="974" y2="974" />
<line x1="10.497338599698464" x2="10.497338599698464" y1="968" y2="980" />
<line x1="12.079824826373313" x2="12.079824826373313" y1="968" y2="980" />
</g>
</g>
</g>
</svg>
