<svg xmlns="http://www.w3.org/2000/svg" height="777" width="960.0" font-size="16" font-family="sans-serif" stroke-width="2">
<g transform="translate(10.0 0)">
<text fill="hsl(0, 100%, 40%)" y="22">1 Million 3-Arrays.Hermes [[Double]] 526  ms</text>
<g>
<title>526  ms ±  21 ms</title>
<rect y="28" rx="5" height="22" width="246.01590030830567" fill="hsl(0, 100%, 80%)" stroke="hsl(0, 100%, 55%)" />
<g stroke="hsl(0, 100%, 40%)"><line x1="236.37317483261558" x2="255.65862578399577" y1="39" y2="39" />
<line x1="236.37317483261558" x2="236.37317483261558" y1="33" y2="45" />
<line x1="255.65862578399577" x2="255.65862578399577" y1="33" y2="45" />
</g>
</g>
<g fill="hsl(25, 100%, 40%)">
<text y="77">1 Million 3-Arrays.Aeson [[Double]]</text>
<text y="77" x="892.0218533086023" text-anchor="end">1.908 s</text>
</g>
<g>
<title>1.908 s ± 103 ms</title>
<rect y="83" rx="5" height="22" width="892.0218533086023" fill="hsl(25, 100%, 80%)" stroke="hsl(25, 100%, 55%)" />
<g stroke="hsl(25, 100%, 40%)"><line x1="844.0437066172046" x2="940.0" y1="94" y2="94" />
<line x1="844.0437066172046" x2="844.0437066172046" y1="88" y2="100" />
<line x1="940.0" x2="940.0" y1="88" y2="100" />
</g>
</g>
<text fill="hsl(51, 100%, 40%)" y="132">Small Object to Map.Hermes Decode 1.45 μs</text>
<g>
<title>1.45 μs ±  89 ns</title>
<rect y="138" rx="5" height="22" width="0.0006780569987548291" fill="hsl(51, 100%, 80%)" stroke="hsl(51, 100%, 55%)" />
<g stroke="hsl(51, 100%, 40%)"><line x1="0.000636499416260145" x2="0.0007196145812495132" y1="149" y2="149" />
<line x1="0.000636499416260145" x2="0.000636499416260145" y1="143" y2="155" />
<line x1="0.0007196145812495132" x2="0.0007196145812495132" y1="143" y2="155" />
</g>
</g>
<text fill="hsl(77, 100%, 40%)" y="187">Small Object to Map.Aeson Lazy 2.96 μs</text>
<g>
<title>2.96 μs ± 197 ns</title>
<rect y="193" rx="5" height="22" width="0.001382751027499162" fill="hsl(77, 100%, 80%)" stroke="hsl(77, 100%, 55%)" />
<g stroke="hsl(77, 100%, 40%)"><line x1="0.0012907259901444401" x2="0.0014747760648538839" y1="204" y2="204" />
<line x1="0.0012907259901444401" x2="0.0012907259901444401" y1="198" y2="210" />
<line x1="0.0014747760648538839" x2="0.0014747760648538839" y1="198" y2="210" />
</g>
</g>
<text fill="hsl(102, 100%, 40%)" y="242">Small Object to Map.Aeson Strict 2.95 μs</text>
<g>
<title>2.95 μs ± 172 ns</title>
<rect y="248" rx="5" height="22" width="0.0013813299556970045" fill="hsl(102, 100%, 80%)" stroke="hsl(102, 100%, 55%)" />
<g stroke="hsl(102, 100%, 40%)"><line x1="0.00130105786953525" x2="0.001461602041858759" y1="259" y2="259" />
<line x1="0.00130105786953525" x2="0.00130105786953525" y1="253" y2="265" />
<line x1="0.001461602041858759" x2="0.001461602041858759" y1="253" y2="265" />
</g>
</g>
<text fill="hsl(128, 100%, 40%)" y="297">Full Persons Array.Ordered Keys.Hermes Decode 108  ms</text>
<g>
<title>108  ms ± 2.4 ms</title>
<rect y="303" rx="5" height="22" width="50.36680145253052" fill="hsl(128, 100%, 80%)" stroke="hsl(128, 100%, 55%)" />
<g stroke="hsl(128, 100%, 40%)"><line x1="49.24506009512081" x2="51.48854280994022" y1="314" y2="314" />
<line x1="49.24506009512081" x2="49.24506009512081" y1="308" y2="320" />
<line x1="51.48854280994022" x2="51.48854280994022" y1="308" y2="320" />
</g>
</g>
<text fill="hsl(154, 100%, 40%)" y="352">Full Persons Array.Ordered Keys.Aeson Lazy 450  ms</text>
<g>
<title>450  ms ±  45 ms</title>
<rect y="358" rx="5" height="22" width="210.64209483316844" fill="hsl(154, 100%, 80%)" stroke="hsl(154, 100%, 55%)" />
<g stroke="hsl(154, 100%, 40%)"><line x1="189.8139429153677" x2="231.47024675096918" y1="369" y2="369" />
<line x1="189.8139429153677" x2="189.8139429153677" y1="363" y2="375" />
<line x1="231.47024675096918" x2="231.47024675096918" y1="363" y2="375" />
</g>
</g>
<text fill="hsl(180, 100%, 40%)" y="407">Full Persons Array.Ordered Keys.Aeson Strict 356  ms</text>
<g>
<title>356  ms ±  33 ms</title>
<rect y="413" rx="5" height="22" width="166.41553888863496" fill="hsl(180, 100%, 80%)" stroke="hsl(180, 100%, 55%)" />
<g stroke="hsl(180, 100%, 40%)"><line x1="151.0089759478106" x2="181.8221018294593" y1="424" y2="424" />
<line x1="151.0089759478106" x2="151.0089759478106" y1="418" y2="430" />
<line x1="181.8221018294593" x2="181.8221018294593" y1="418" y2="430" />
</g>
</g>
<text fill="hsl(205, 100%, 40%)" y="462">Full Persons Array.Unordered Keys.Hermes Decode 117  ms</text>
<g>
<title>117  ms ± 2.7 ms</title>
<rect y="468" rx="5" height="22" width="54.86539993773543" fill="hsl(205, 100%, 80%)" stroke="hsl(205, 100%, 55%)" />
<g stroke="hsl(205, 100%, 40%)"><line x1="53.59288873064301" x2="56.137911144827854" y1="479" y2="479" />
<line x1="53.59288873064301" x2="53.59288873064301" y1="473" y2="485" />
<line x1="56.137911144827854" x2="56.137911144827854" y1="473" y2="485" />
</g>
</g>
<text fill="hsl(231, 100%, 40%)" y="517">Full Persons Array.Unordered Keys.Aeson Lazy 451  ms</text>
<g>
<title>451  ms ±  44 ms</title>
<rect y="523" rx="5" height="22" width="210.87438138755923" fill="hsl(231, 100%, 80%)" stroke="hsl(231, 100%, 55%)" />
<g stroke="hsl(231, 100%, 40%)"><line x1="190.2871467089794" x2="231.46161606613904" y1="534" y2="534" />
<line x1="190.2871467089794" x2="190.2871467089794" y1="528" y2="540" />
<line x1="231.46161606613904" x2="231.46161606613904" y1="528" y2="540" />
</g>
</g>
<text fill="hsl(257, 100%, 40%)" y="572">Full Persons Array.Unordered Keys.Aeson Strict 355  ms</text>
<g>
<title>355  ms ±  34 ms</title>
<rect y="578" rx="5" height="22" width="166.2055396406721" fill="hsl(257, 100%, 80%)" stroke="hsl(257, 100%, 55%)" />
<g stroke="hsl(257, 100%, 40%)"><line x1="150.15770738851376" x2="182.25337189283044" y1="589" y2="589" />
<line x1="150.15770738851376" x2="150.15770738851376" y1="583" y2="595" />
<line x1="182.25337189283044" x2="182.25337189283044" y1="583" y2="595" />
</g>
</g>
<text fill="hsl(282, 100%, 40%)" y="627">Partial Twitter.Hermes Decode 459  μs</text>
<g>
<title>459  μs ±  23 μs</title>
<rect y="633" rx="5" height="22" width="0.21457592964409505" fill="hsl(282, 100%, 80%)" stroke="hsl(282, 100%, 55%)" />
<g stroke="hsl(282, 100%, 40%)"><line x1="0.20404250215065986" x2="0.22510935713753025" y1="644" y2="644" />
<line x1="0.20404250215065986" x2="0.20404250215065986" y1="638" y2="650" />
<line x1="0.22510935713753025" x2="0.22510935713753025" y1="638" y2="650" />
</g>
</g>
<text fill="hsl(308, 100%, 40%)" y="682">Partial Twitter.Aeson Lazy 16.6 ms</text>
<g>
<title>16.6 ms ± 1.0 ms</title>
<rect y="688" rx="5" height="22" width="7.765762851461877" fill="hsl(308, 100%, 80%)" stroke="hsl(308, 100%, 55%)" />
<g stroke="hsl(308, 100%, 40%)"><line x1="7.2763806272027685" x2="8.255145075720984" y1="699" y2="699" />
<line x1="7.2763806272027685" x2="7.2763806272027685" y1="693" y2="705" />
<line x1="8.255145075720984" x2="8.255145075720984" y1="693" y2="705" />
</g>
</g>
<text fill="hsl(334, 100%, 40%)" y="737">Partial Twitter.Aeson Strict 14.0 ms</text>
<g>
<title>14.0 ms ± 484 μs</title>
<rect y="743" rx="5" height="22" width="6.535124993320605" fill="hsl(334, 100%, 80%)" stroke="hsl(334, 100%, 55%)" />
<g stroke="hsl(334, 100%, 40%)"><line x1="6.308675043151428" x2="6.761574943489782" y1="754" y2="754" />
<line x1="6.308675043151428" x2="6.308675043151428" y1="748" y2="760" />
<line x1="6.761574943489782" x2="6.761574943489782" y1="748" y2="760" />
</g>
</g>
</g>
</svg>
