<svg xmlns="http://www.w3.org/2000/svg" height="777" width="960.0" font-size="16" font-family="sans-serif" stroke-width="2">
<g transform="translate(10.0 0)">
<text fill="hsl(0, 100%, 40%)" y="22">1 Million 3-Arrays.Hermes [[Double]] 477  ms</text>
<g>
<title>477  ms ± 7.3 ms</title>
<rect y="28" rx="5" height="22" width="177.61498637867456" fill="hsl(0, 100%, 80%)" stroke="hsl(0, 100%, 55%)" />
<g stroke="hsl(0, 100%, 40%)"><line x1="174.90834955846842" x2="180.3216231988807" y1="39" y2="39" />
<line x1="174.90834955846842" x2="174.90834955846842" y1="33" y2="45" />
<line x1="180.3216231988807" x2="180.3216231988807" y1="33" y2="45" />
</g>
</g>
<g fill="hsl(25, 100%, 40%)">
<text y="77">1 Million 3-Arrays.Aeson [[Double]]</text>
<text y="77" x="908.7922641364934" text-anchor="end">2.438 s</text>
</g>
<g>
<title>2.438 s ±  84 ms</title>
<rect y="83" rx="5" height="22" width="908.7922641364934" fill="hsl(25, 100%, 80%)" stroke="hsl(25, 100%, 55%)" />
<g stroke="hsl(25, 100%, 40%)"><line x1="877.5845282729867" x2="940.0" y1="94" y2="94" />
<line x1="877.5845282729867" x2="877.5845282729867" y1="88" y2="100" />
<line x1="940.0" x2="940.0" y1="88" y2="100" />
</g>
</g>
<text fill="hsl(51, 100%, 40%)" y="132">Small Object to Map.Hermes Decode 1.66 μs</text>
<g>
<title>1.66 μs ± 110 ns</title>
<rect y="138" rx="5" height="22" width="0.0006200821340395622" fill="hsl(51, 100%, 80%)" stroke="hsl(51, 100%, 55%)" />
<g stroke="hsl(51, 100%, 40%)"><line x1="0.0005789911955593225" x2="0.0006611730725198019" y1="149" y2="149" />
<line x1="0.0005789911955593225" x2="0.0005789911955593225" y1="143" y2="155" />
<line x1="0.0006611730725198019" x2="0.0006611730725198019" y1="143" y2="155" />
</g>
</g>
<text fill="hsl(77, 100%, 40%)" y="187">Small Object to Map.Aeson Lazy 3.54 μs</text>
<g>
<title>3.54 μs ± 184 ns</title>
<rect y="193" rx="5" height="22" width="0.0013183854603968808" fill="hsl(77, 100%, 80%)" stroke="hsl(77, 100%, 55%)" />
<g stroke="hsl(77, 100%, 40%)"><line x1="0.0012496863845689083" x2="0.0013870845362248534" y1="204" y2="204" />
<line x1="0.0012496863845689083" x2="0.0012496863845689083" y1="198" y2="210" />
<line x1="0.0013870845362248534" x2="0.0013870845362248534" y1="198" y2="210" />
</g>
</g>
<text fill="hsl(102, 100%, 40%)" y="242">Small Object to Map.Aeson Strict 3.48 μs</text>
<g>
<title>3.48 μs ± 177 ns</title>
<rect y="248" rx="5" height="22" width="0.0012975183509152375" fill="hsl(102, 100%, 80%)" stroke="hsl(102, 100%, 55%)" />
<g stroke="hsl(102, 100%, 40%)"><line x1="0.0012315079340702896" x2="0.0013635287677601854" y1="259" y2="259" />
<line x1="0.0012315079340702896" x2="0.0012315079340702896" y1="253" y2="265" />
<line x1="0.0013635287677601854" x2="0.0013635287677601854" y1="253" y2="265" />
</g>
</g>
<text fill="hsl(128, 100%, 40%)" y="297">Full Persons Array.Ordered Keys.Hermes Decode 76.6 ms</text>
<g>
<title>76.6 ms ± 5.8 ms</title>
<rect y="303" rx="5" height="22" width="28.53663449524672" fill="hsl(128, 100%, 80%)" stroke="hsl(128, 100%, 55%)" />
<g stroke="hsl(128, 100%, 40%)"><line x1="26.391800756740835" x2="30.681468233752604" y1="314" y2="314" />
<line x1="26.391800756740835" x2="26.391800756740835" y1="308" y2="320" />
<line x1="30.681468233752604" x2="30.681468233752604" y1="308" y2="320" />
</g>
</g>
<text fill="hsl(154, 100%, 40%)" y="352">Full Persons Array.Ordered Keys.Aeson Lazy 492  ms</text>
<g>
<title>492  ms ±  19 ms</title>
<rect y="358" rx="5" height="22" width="183.39894795252957" fill="hsl(154, 100%, 80%)" stroke="hsl(154, 100%, 55%)" />
<g stroke="hsl(154, 100%, 40%)"><line x1="176.23394378767338" x2="190.56395211738575" y1="369" y2="369" />
<line x1="176.23394378767338" x2="176.23394378767338" y1="363" y2="375" />
<line x1="190.56395211738575" x2="190.56395211738575" y1="363" y2="375" />
</g>
</g>
<text fill="hsl(180, 100%, 40%)" y="407">Full Persons Array.Ordered Keys.Aeson Strict 397  ms</text>
<g>
<title>397  ms ±  16 ms</title>
<rect y="413" rx="5" height="22" width="148.0628806802449" fill="hsl(180, 100%, 80%)" stroke="hsl(180, 100%, 55%)" />
<g stroke="hsl(180, 100%, 40%)"><line x1="142.2609112534281" x2="153.86485010706167" y1="424" y2="424" />
<line x1="142.2609112534281" x2="142.2609112534281" y1="418" y2="430" />
<line x1="153.86485010706167" x2="153.86485010706167" y1="418" y2="430" />
</g>
</g>
<text fill="hsl(205, 100%, 40%)" y="462">Full Persons Array.Unordered Keys.Hermes Decode 108  ms</text>
<g>
<title>108  ms ± 6.6 ms</title>
<rect y="468" rx="5" height="22" width="40.09288038776871" fill="hsl(205, 100%, 80%)" stroke="hsl(205, 100%, 55%)" />
<g stroke="hsl(205, 100%, 40%)"><line x1="37.64197411147882" x2="42.5437866640586" y1="479" y2="479" />
<line x1="37.64197411147882" x2="37.64197411147882" y1="473" y2="485" />
<line x1="42.5437866640586" x2="42.5437866640586" y1="473" y2="485" />
</g>
</g>
<text fill="hsl(231, 100%, 40%)" y="517">Full Persons Array.Unordered Keys.Aeson Lazy 489  ms</text>
<g>
<title>489  ms ±  25 ms</title>
<rect y="523" rx="5" height="22" width="182.410797646678" fill="hsl(231, 100%, 80%)" stroke="hsl(231, 100%, 55%)" />
<g stroke="hsl(231, 100%, 40%)"><line x1="172.94099406153293" x2="191.88060123182305" y1="534" y2="534" />
<line x1="172.94099406153293" x2="172.94099406153293" y1="528" y2="540" />
<line x1="191.88060123182305" x2="191.88060123182305" y1="528" y2="540" />
</g>
</g>
<text fill="hsl(257, 100%, 40%)" y="572">Full Persons Array.Unordered Keys.Aeson Strict 398  ms</text>
<g>
<title>398  ms ±  16 ms</title>
<rect y="578" rx="5" height="22" width="148.2485408942364" fill="hsl(257, 100%, 80%)" stroke="hsl(257, 100%, 55%)" />
<g stroke="hsl(257, 100%, 40%)"><line x1="142.16420800607656" x2="154.33287378239626" y1="589" y2="589" />
<line x1="142.16420800607656" x2="142.16420800607656" y1="583" y2="595" />
<line x1="154.33287378239626" x2="154.33287378239626" y1="583" y2="595" />
</g>
</g>
<text fill="hsl(282, 100%, 40%)" y="627">Partial Twitter.Hermes Decode 478  μs</text>
<g>
<title>478  μs ±  26 μs</title>
<rect y="633" rx="5" height="22" width="0.17822852948833692" fill="hsl(282, 100%, 80%)" stroke="hsl(282, 100%, 55%)" />
<g stroke="hsl(282, 100%, 40%)"><line x1="0.16851963729297076" x2="0.1879374216837031" y1="644" y2="644" />
<line x1="0.16851963729297076" x2="0.16851963729297076" y1="638" y2="650" />
<line x1="0.1879374216837031" x2="0.1879374216837031" y1="638" y2="650" />
</g>
</g>
<text fill="hsl(308, 100%, 40%)" y="682">Partial Twitter.Aeson Lazy 13.5 ms</text>
<g>
<title>13.5 ms ± 894 μs</title>
<rect y="688" rx="5" height="22" width="5.023958536654492" fill="hsl(308, 100%, 80%)" stroke="hsl(308, 100%, 55%)" />
<g stroke="hsl(308, 100%, 40%)"><line x1="4.690681797687487" x2="5.3572352756214965" y1="699" y2="699" />
<line x1="4.690681797687487" x2="4.690681797687487" y1="693" y2="705" />
<line x1="5.3572352756214965" x2="5.3572352756214965" y1="693" y2="705" />
</g>
</g>
<text fill="hsl(334, 100%, 40%)" y="737">Partial Twitter.Aeson Strict 11.9 ms</text>
<g>
<title>11.9 ms ± 469 μs</title>
<rect y="743" rx="5" height="22" width="4.443831779600516" fill="hsl(334, 100%, 80%)" stroke="hsl(334, 100%, 55%)" />
<g stroke="hsl(334, 100%, 40%)"><line x1="4.269157265207165" x2="4.618506293993867" y1="754" y2="754" />
<line x1="4.269157265207165" x2="4.269157265207165" y1="748" y2="760" />
<line x1="4.618506293993867" x2="4.618506293993867" y1="748" y2="760" />
</g>
</g>
</g>
</svg>
