<svg xmlns="http://www.w3.org/2000/svg" height="667" width="960.0" font-size="16" font-family="sans-serif" stroke-width="2">
<g transform="translate(10.0 0)">
<text fill="hsl(0, 100%, 40%)" y="22">Small Map.Hermes Decode 2.17 μs</text>
<g>
<title>2.17 μs ± 137 ns</title>
<rect y="28" rx="5" height="22" width="0.004090922413442944" fill="hsl(0, 100%, 80%)" stroke="hsl(0, 100%, 55%)" />
<g stroke="hsl(0, 100%, 40%)"><line x1="0.003832565291367034" x2="0.004349279535518854" y1="39" y2="39" />
<line x1="0.003832565291367034" x2="0.003832565291367034" y1="33" y2="45" />
<line x1="0.004349279535518854" x2="0.004349279535518854" y1="33" y2="45" />
</g>
</g>
<text fill="hsl(30, 100%, 40%)" y="77">Small Map.Aeson Lazy 3.05 μs</text>
<g>
<title>3.05 μs ±  95 ns</title>
<rect y="83" rx="5" height="22" width="0.005739765466623839" fill="hsl(30, 100%, 80%)" stroke="hsl(30, 100%, 55%)" />
<g stroke="hsl(30, 100%, 40%)"><line x1="0.005561693316342255" x2="0.005917837616905424" y1="94" y2="94" />
<line x1="0.005561693316342255" x2="0.005561693316342255" y1="88" y2="100" />
<line x1="0.005917837616905424" x2="0.005917837616905424" y1="88" y2="100" />
</g>
</g>
<text fill="hsl(60, 100%, 40%)" y="132">Small Map.Aeson Strict 3.07 μs</text>
<g>
<title>3.07 μs ± 216 ns</title>
<rect y="138" rx="5" height="22" width="0.005771951377060123" fill="hsl(60, 100%, 80%)" stroke="hsl(60, 100%, 55%)" />
<g stroke="hsl(60, 100%, 40%)"><line x1="0.0053644527101290055" x2="0.00617945004399124" y1="149" y2="149" />
<line x1="0.0053644527101290055" x2="0.0053644527101290055" y1="143" y2="155" />
<line x1="0.00617945004399124" x2="0.00617945004399124" y1="143" y2="155" />
</g>
</g>
<text fill="hsl(90, 100%, 40%)" y="187">Full Persons Array.Ordered Keys.Hermes Decode 141  ms</text>
<g>
<title>141  ms ± 2.8 ms</title>
<rect y="193" rx="5" height="22" width="265.3216728003324" fill="hsl(90, 100%, 80%)" stroke="hsl(90, 100%, 55%)" />
<g stroke="hsl(90, 100%, 40%)"><line x1="260.01767298700486" x2="270.62567261365996" y1="204" y2="204" />
<line x1="260.01767298700486" x2="260.01767298700486" y1="198" y2="210" />
<line x1="270.62567261365996" x2="270.62567261365996" y1="198" y2="210" />
</g>
</g>
<g fill="hsl(120, 100%, 40%)">
<text y="242">Full Persons Array.Ordered Keys.Aeson Lazy</text>
<text y="242" x="900.1198720945569" text-anchor="end">478  ms</text>
</g>
<g>
<title>478  ms ±  21 ms</title>
<rect y="248" rx="5" height="22" width="900.1198720945569" fill="hsl(120, 100%, 80%)" stroke="hsl(120, 100%, 55%)" />
<g stroke="hsl(120, 100%, 40%)"><line x1="860.2397441891137" x2="940.0" y1="259" y2="259" />
<line x1="860.2397441891137" x2="860.2397441891137" y1="253" y2="265" />
<line x1="940.0" x2="940.0" y1="253" y2="265" />
</g>
</g>
<g fill="hsl(150, 100%, 40%)">
<text y="297">Full Persons Array.Ordered Keys.Aeson Strict</text>
<text y="297" x="715.0416033476545" text-anchor="end">380  ms</text>
</g>
<g>
<title>380  ms ±  29 ms</title>
<rect y="303" rx="5" height="22" width="715.0416033476545" fill="hsl(150, 100%, 80%)" stroke="hsl(150, 100%, 55%)" />
<g stroke="hsl(150, 100%, 40%)"><line x1="660.8041627262692" x2="769.2790439690398" y1="314" y2="314" />
<line x1="660.8041627262692" x2="660.8041627262692" y1="308" y2="320" />
<line x1="769.2790439690398" x2="769.2790439690398" y1="308" y2="320" />
</g>
</g>
<text fill="hsl(180, 100%, 40%)" y="352">Full Persons Array.Unordered Keys.Hermes Decode 153  ms</text>
<g>
<title>153  ms ±  11 ms</title>
<rect y="358" rx="5" height="22" width="287.5676945590533" fill="hsl(180, 100%, 80%)" stroke="hsl(180, 100%, 55%)" />
<g stroke="hsl(180, 100%, 40%)"><line x1="267.7150052878912" x2="307.42038383021537" y1="369" y2="369" />
<line x1="267.7150052878912" x2="267.7150052878912" y1="363" y2="375" />
<line x1="307.42038383021537" x2="307.42038383021537" y1="363" y2="375" />
</g>
</g>
<g fill="hsl(210, 100%, 40%)">
<text y="407">Full Persons Array.Unordered Keys.Aeson Lazy</text>
<text y="407" x="900.5952221249798" text-anchor="end">478  ms</text>
</g>
<g>
<title>478  ms ± 4.2 ms</title>
<rect y="413" rx="5" height="22" width="900.5952221249798" fill="hsl(210, 100%, 80%)" stroke="hsl(210, 100%, 55%)" />
<g stroke="hsl(210, 100%, 40%)"><line x1="892.7392826430319" x2="908.4511616069278" y1="424" y2="424" />
<line x1="892.7392826430319" x2="892.7392826430319" y1="418" y2="430" />
<line x1="908.4511616069278" x2="908.4511616069278" y1="418" y2="430" />
</g>
</g>
<g fill="hsl(240, 100%, 40%)">
<text y="462">Full Persons Array.Unordered Keys.Aeson Strict</text>
<text y="462" x="717.4089741169079" text-anchor="end">381  ms</text>
</g>
<g>
<title>381  ms ±  32 ms</title>
<rect y="468" rx="5" height="22" width="717.4089741169079" fill="hsl(240, 100%, 80%)" stroke="hsl(240, 100%, 55%)" />
<g stroke="hsl(240, 100%, 40%)"><line x1="657.4079780791407" x2="777.4099701546751" y1="479" y2="479" />
<line x1="657.4079780791407" x2="657.4079780791407" y1="473" y2="485" />
<line x1="777.4099701546751" x2="777.4099701546751" y1="473" y2="485" />
</g>
</g>
<text fill="hsl(270, 100%, 40%)" y="517">Partial Twitter.Hermes Decode 726  μs</text>
<g>
<title>726  μs ±  54 μs</title>
<rect y="523" rx="5" height="22" width="1.3671860205411077" fill="hsl(270, 100%, 80%)" stroke="hsl(270, 100%, 55%)" />
<g stroke="hsl(270, 100%, 40%)"><line x1="1.2652278116487568" x2="1.4691442294334587" y1="534" y2="534" />
<line x1="1.2652278116487568" x2="1.2652278116487568" y1="528" y2="540" />
<line x1="1.4691442294334587" x2="1.4691442294334587" y1="528" y2="540" />
</g>
</g>
<text fill="hsl(300, 100%, 40%)" y="572">Partial Twitter.Aeson Lazy 11.5 ms</text>
<g>
<title>11.5 ms ± 439 μs</title>
<rect y="578" rx="5" height="22" width="21.633320920781717" fill="hsl(300, 100%, 80%)" stroke="hsl(300, 100%, 55%)" />
<g stroke="hsl(300, 100%, 40%)"><line x1="20.807327260734397" x2="22.459314580829037" y1="589" y2="589" />
<line x1="20.807327260734397" x2="20.807327260734397" y1="583" y2="595" />
<line x1="22.459314580829037" x2="22.459314580829037" y1="583" y2="595" />
</g>
</g>
<text fill="hsl(330, 100%, 40%)" y="627">Partial Twitter.Aeson Strict 14.4 ms</text>
<g>
<title>14.4 ms ± 1.3 ms</title>
<rect y="633" rx="5" height="22" width="27.05388810421406" fill="hsl(330, 100%, 80%)" stroke="hsl(330, 100%, 55%)" />
<g stroke="hsl(330, 100%, 40%)"><line x1="24.536940136533364" x2="29.570836071894757" y1="644" y2="644" />
<line x1="24.536940136533364" x2="24.536940136533364" y1="638" y2="650" />
<line x1="29.570836071894757" x2="29.570836071894757" y1="638" y2="650" />
</g>
</g>
</g>
</svg>
