<svg xmlns="http://www.w3.org/2000/svg" height="777" width="960.0" font-size="16" font-family="sans-serif" stroke-width="2">
<g transform="translate(10.0 0)">
<text fill="hsl(0, 100%, 40%)" y="22">1 Million 3-Arrays.Hermes [[Double]] 134  ms</text>
<g>
<title>134  ms ± 1.5 ms</title>
<rect y="28" rx="5" height="22" width="59.915623786487444" fill="hsl(0, 100%, 80%)" stroke="hsl(0, 100%, 55%)" />
<g stroke="hsl(0, 100%, 40%)"><line x1="59.22295994285394" x2="60.60828763012095" y1="39" y2="39" />
<line x1="59.22295994285394" x2="59.22295994285394" y1="33" y2="45" />
<line x1="60.60828763012095" x2="60.60828763012095" y1="33" y2="45" />
</g>
</g>
<g fill="hsl(25, 100%, 40%)">
<text y="77">1 Million 3-Arrays.Aeson [[Double]]</text>
<text y="77" x="894.3295753370364" text-anchor="end">1.993 s</text>
</g>
<g>
<title>1.993 s ± 102 ms</title>
<rect y="83" rx="5" height="22" width="894.3295753370364" fill="hsl(25, 100%, 80%)" stroke="hsl(25, 100%, 55%)" />
<g stroke="hsl(25, 100%, 40%)"><line x1="848.6591506740729" x2="940.0" y1="94" y2="94" />
<line x1="848.6591506740729" x2="848.6591506740729" y1="88" y2="100" />
<line x1="940.0" x2="940.0" y1="88" y2="100" />
</g>
</g>
<text fill="hsl(51, 100%, 40%)" y="132">Small Object to Map.Hermes Decode 1.56 μs</text>
<g>
<title>1.56 μs ±  91 ns</title>
<rect y="138" rx="5" height="22" width="0.0006998121426519041" fill="hsl(51, 100%, 80%)" stroke="hsl(51, 100%, 55%)" />
<g stroke="hsl(51, 100%, 40%)"><line x1="0.0006589681811400803" x2="0.000740656104163728" y1="149" y2="149" />
<line x1="0.0006589681811400803" x2="0.0006589681811400803" y1="143" y2="155" />
<line x1="0.000740656104163728" x2="0.000740656104163728" y1="143" y2="155" />
</g>
</g>
<text fill="hsl(77, 100%, 40%)" y="187">Small Object to Map.Aeson Lazy 3.16 μs</text>
<g>
<title>3.16 μs ± 199 ns</title>
<rect y="193" rx="5" height="22" width="0.001419972229480617" fill="hsl(77, 100%, 80%)" stroke="hsl(77, 100%, 55%)" />
<g stroke="hsl(77, 100%, 40%)"><line x1="0.001330579117751753" x2="0.0015093653412094812" y1="204" y2="204" />
<line x1="0.001330579117751753" x2="0.001330579117751753" y1="198" y2="210" />
<line x1="0.0015093653412094812" x2="0.0015093653412094812" y1="198" y2="210" />
</g>
</g>
<text fill="hsl(102, 100%, 40%)" y="242">Small Object to Map.Aeson Strict 3.16 μs</text>
<g>
<title>3.16 μs ± 222 ns</title>
<rect y="248" rx="5" height="22" width="0.0014168878207245223" fill="hsl(102, 100%, 80%)" stroke="hsl(102, 100%, 55%)" />
<g stroke="hsl(102, 100%, 40%)"><line x1="0.0013173135576026135" x2="0.0015164620838464312" y1="259" y2="259" />
<line x1="0.0013173135576026135" x2="0.0013173135576026135" y1="253" y2="265" />
<line x1="0.0015164620838464312" x2="0.0015164620838464312" y1="253" y2="265" />
</g>
</g>
<text fill="hsl(128, 100%, 40%)" y="297">Full Persons Array.Ordered Keys.Hermes Decode 113  ms</text>
<g>
<title>113  ms ± 3.2 ms</title>
<rect y="303" rx="5" height="22" width="50.89866829930407" fill="hsl(128, 100%, 80%)" stroke="hsl(128, 100%, 55%)" />
<g stroke="hsl(128, 100%, 40%)"><line x1="49.47770143280515" x2="52.31963516580299" y1="314" y2="314" />
<line x1="49.47770143280515" x2="49.47770143280515" y1="308" y2="320" />
<line x1="52.31963516580299" x2="52.31963516580299" y1="308" y2="320" />
</g>
</g>
<text fill="hsl(154, 100%, 40%)" y="352">Full Persons Array.Ordered Keys.Aeson Lazy 471  ms</text>
<g>
<title>471  ms ±  45 ms</title>
<rect y="358" rx="5" height="22" width="211.12940717226886" fill="hsl(154, 100%, 80%)" stroke="hsl(154, 100%, 55%)" />
<g stroke="hsl(154, 100%, 40%)"><line x1="190.8431050211144" x2="231.4157093234233" y1="369" y2="369" />
<line x1="190.8431050211144" x2="190.8431050211144" y1="363" y2="375" />
<line x1="231.4157093234233" x2="231.4157093234233" y1="363" y2="375" />
</g>
</g>
<text fill="hsl(180, 100%, 40%)" y="407">Full Persons Array.Ordered Keys.Aeson Strict 368  ms</text>
<g>
<title>368  ms ±  35 ms</title>
<rect y="413" rx="5" height="22" width="165.09900067070168" fill="hsl(180, 100%, 80%)" stroke="hsl(180, 100%, 55%)" />
<g stroke="hsl(180, 100%, 40%)"><line x1="149.52014963588744" x2="180.67785170551593" y1="424" y2="424" />
<line x1="149.52014963588744" x2="149.52014963588744" y1="418" y2="430" />
<line x1="180.67785170551593" x2="180.67785170551593" y1="418" y2="430" />
</g>
</g>
<text fill="hsl(205, 100%, 40%)" y="462">Full Persons Array.Unordered Keys.Hermes Decode 121  ms</text>
<g>
<title>121  ms ± 2.7 ms</title>
<rect y="468" rx="5" height="22" width="54.32517415219681" fill="hsl(205, 100%, 80%)" stroke="hsl(205, 100%, 55%)" />
<g stroke="hsl(205, 100%, 40%)"><line x1="53.11680845669305" x2="55.53353984770057" y1="479" y2="479" />
<line x1="53.11680845669305" x2="53.11680845669305" y1="473" y2="485" />
<line x1="55.53353984770057" x2="55.53353984770057" y1="473" y2="485" />
</g>
</g>
<text fill="hsl(231, 100%, 40%)" y="517">Full Persons Array.Unordered Keys.Aeson Lazy 471  ms</text>
<g>
<title>471  ms ±  43 ms</title>
<rect y="523" rx="5" height="22" width="211.20086216316474" fill="hsl(231, 100%, 80%)" stroke="hsl(231, 100%, 55%)" />
<g stroke="hsl(231, 100%, 40%)"><line x1="192.00164658651076" x2="230.40007773981873" y1="534" y2="534" />
<line x1="192.00164658651076" x2="192.00164658651076" y1="528" y2="540" />
<line x1="230.40007773981873" x2="230.40007773981873" y1="528" y2="540" />
</g>
</g>
<text fill="hsl(257, 100%, 40%)" y="572">Full Persons Array.Unordered Keys.Aeson Strict 368  ms</text>
<g>
<title>368  ms ±  34 ms</title>
<rect y="578" rx="5" height="22" width="165.16951014717645" fill="hsl(257, 100%, 80%)" stroke="hsl(257, 100%, 55%)" />
<g stroke="hsl(257, 100%, 40%)"><line x1="149.8254438922713" x2="180.5135764020816" y1="589" y2="589" />
<line x1="149.8254438922713" x2="149.8254438922713" y1="583" y2="595" />
<line x1="180.5135764020816" x2="180.5135764020816" y1="583" y2="595" />
</g>
</g>
<text fill="hsl(282, 100%, 40%)" y="627">Partial Twitter.Hermes Decode 470  μs</text>
<g>
<title>470  μs ±  27 μs</title>
<rect y="633" rx="5" height="22" width="0.2109936775720131" fill="hsl(282, 100%, 80%)" stroke="hsl(282, 100%, 55%)" />
<g stroke="hsl(282, 100%, 40%)"><line x1="0.19893798819946865" x2="0.22304936694455754" y1="644" y2="644" />
<line x1="0.19893798819946865" x2="0.19893798819946865" y1="638" y2="650" />
<line x1="0.22304936694455754" x2="0.22304936694455754" y1="638" y2="650" />
</g>
</g>
<text fill="hsl(308, 100%, 40%)" y="682">Partial Twitter.Aeson Lazy 17.6 ms</text>
<g>
<title>17.6 ms ± 751 μs</title>
<rect y="688" rx="5" height="22" width="7.895180566839469" fill="hsl(308, 100%, 80%)" stroke="hsl(308, 100%, 55%)" />
<g stroke="hsl(308, 100%, 40%)"><line x1="7.558391797637355" x2="8.231969336041582" y1="699" y2="699" />
<line x1="7.558391797637355" x2="7.558391797637355" y1="693" y2="705" />
<line x1="8.231969336041582" x2="8.231969336041582" y1="693" y2="705" />
</g>
</g>
<text fill="hsl(334, 100%, 40%)" y="737">Partial Twitter.Aeson Strict 14.7 ms</text>
<g>
<title>14.7 ms ± 1.0 ms</title>
<rect y="743" rx="5" height="22" width="6.58117561421567" fill="hsl(334, 100%, 80%)" stroke="hsl(334, 100%, 55%)" />
<g stroke="hsl(334, 100%, 40%)"><line x1="6.126032353751926" x2="7.036318874679415" y1="754" y2="754" />
<line x1="6.126032353751926" x2="6.126032353751926" y1="748" y2="760" />
<line x1="7.036318874679415" x2="7.036318874679415" y1="748" y2="760" />
</g>
</g>
</g>
</svg>
