<svg xmlns="http://www.w3.org/2000/svg" height="667" width="960.0" font-size="16" font-family="sans-serif" stroke-width="2">
<g transform="translate(10.0 0)">
<text fill="hsl(0, 100%, 40%)" y="22">Small Map.Hermes Decode 2.07 μs</text>
<g>
<title>2.07 μs ± 116 ns</title>
<rect y="28" rx="5" height="22" width="0.0037790817913653475" fill="hsl(0, 100%, 80%)" stroke="hsl(0, 100%, 55%)" />
<g stroke="hsl(0, 100%, 40%)"><line x1="0.0035674864662207386" x2="0.003990677116509956" y1="39" y2="39" />
<line x1="0.0035674864662207386" x2="0.0035674864662207386" y1="33" y2="45" />
<line x1="0.003990677116509956" x2="0.003990677116509956" y1="33" y2="45" />
</g>
</g>
<text fill="hsl(30, 100%, 40%)" y="77">Small Map.Aeson Lazy 3.12 μs</text>
<g>
<title>3.12 μs ± 287 ns</title>
<rect y="83" rx="5" height="22" width="0.005684267087681086" fill="hsl(30, 100%, 80%)" stroke="hsl(30, 100%, 55%)" />
<g stroke="hsl(30, 100%, 40%)"><line x1="0.005160939152053684" x2="0.006207595023308489" y1="94" y2="94" />
<line x1="0.005160939152053684" x2="0.005160939152053684" y1="88" y2="100" />
<line x1="0.006207595023308489" x2="0.006207595023308489" y1="88" y2="100" />
</g>
</g>
<text fill="hsl(60, 100%, 40%)" y="132">Small Map.Aeson Strict 3.10 μs</text>
<g>
<title>3.10 μs ± 248 ns</title>
<rect y="138" rx="5" height="22" width="0.005646158862200508" fill="hsl(60, 100%, 80%)" stroke="hsl(60, 100%, 55%)" />
<g stroke="hsl(60, 100%, 40%)"><line x1="0.005193911851762932" x2="0.0060984058726380845" y1="149" y2="149" />
<line x1="0.005193911851762932" x2="0.005193911851762932" y1="143" y2="155" />
<line x1="0.0060984058726380845" x2="0.0060984058726380845" y1="143" y2="155" />
</g>
</g>
<text fill="hsl(90, 100%, 40%)" y="187">Full Persons Array.Ordered Keys.Hermes Decode 140  ms</text>
<g>
<title>140  ms ± 6.3 ms</title>
<rect y="193" rx="5" height="22" width="254.95532662176166" fill="hsl(90, 100%, 80%)" stroke="hsl(90, 100%, 55%)" />
<g stroke="hsl(90, 100%, 40%)"><line x1="243.5225722957008" x2="266.3880809478225" y1="204" y2="204" />
<line x1="243.5225722957008" x2="243.5225722957008" y1="198" y2="210" />
<line x1="266.3880809478225" x2="266.3880809478225" y1="198" y2="210" />
</g>
</g>
<g fill="hsl(120, 100%, 40%)">
<text y="242">Full Persons Array.Ordered Keys.Aeson Lazy</text>
<text y="242" x="872.6998120705282" text-anchor="end">479  ms</text>
</g>
<g>
<title>479  ms ±  37 ms</title>
<rect y="248" rx="5" height="22" width="872.6998120705282" fill="hsl(120, 100%, 80%)" stroke="hsl(120, 100%, 55%)" />
<g stroke="hsl(120, 100%, 40%)"><line x1="805.3996241410564" x2="940.0" y1="259" y2="259" />
<line x1="805.3996241410564" x2="805.3996241410564" y1="253" y2="265" />
<line x1="940.0" x2="940.0" y1="253" y2="265" />
</g>
</g>
<g fill="hsl(150, 100%, 40%)">
<text y="297">Full Persons Array.Ordered Keys.Aeson Strict</text>
<text y="297" x="682.3296845545385" text-anchor="end">374  ms</text>
</g>
<g>
<title>374  ms ±  28 ms</title>
<rect y="303" rx="5" height="22" width="682.3296845545385" fill="hsl(150, 100%, 80%)" stroke="hsl(150, 100%, 55%)" />
<g stroke="hsl(150, 100%, 40%)"><line x1="631.8799659798851" x2="732.7794031291919" y1="314" y2="314" />
<line x1="631.8799659798851" x2="631.8799659798851" y1="308" y2="320" />
<line x1="732.7794031291919" x2="732.7794031291919" y1="308" y2="320" />
</g>
</g>
<text fill="hsl(180, 100%, 40%)" y="352">Full Persons Array.Unordered Keys.Hermes Decode 149  ms</text>
<g>
<title>149  ms ±  12 ms</title>
<rect y="358" rx="5" height="22" width="270.7204004470869" fill="hsl(180, 100%, 80%)" stroke="hsl(180, 100%, 55%)" />
<g stroke="hsl(180, 100%, 40%)"><line x1="248.54986314005671" x2="292.8909377541171" y1="369" y2="369" />
<line x1="248.54986314005671" x2="248.54986314005671" y1="363" y2="375" />
<line x1="292.8909377541171" x2="292.8909377541171" y1="363" y2="375" />
</g>
</g>
<g fill="hsl(210, 100%, 40%)">
<text y="407">Full Persons Array.Unordered Keys.Aeson Lazy</text>
<text y="407" x="856.3983770449698" text-anchor="end">470  ms</text>
</g>
<g>
<title>470  ms ±  11 ms</title>
<rect y="413" rx="5" height="22" width="856.3983770449698" fill="hsl(210, 100%, 80%)" stroke="hsl(210, 100%, 55%)" />
<g stroke="hsl(210, 100%, 40%)"><line x1="836.484821175185" x2="876.3119329147547" y1="424" y2="424" />
<line x1="836.484821175185" x2="836.484821175185" y1="418" y2="430" />
<line x1="876.3119329147547" x2="876.3119329147547" y1="418" y2="430" />
</g>
</g>
<g fill="hsl(240, 100%, 40%)">
<text y="462">Full Persons Array.Unordered Keys.Aeson Strict</text>
<text y="462" x="680.4792558449991" text-anchor="end">373  ms</text>
</g>
<g>
<title>373  ms ±  27 ms</title>
<rect y="468" rx="5" height="22" width="680.4792558449991" fill="hsl(240, 100%, 80%)" stroke="hsl(240, 100%, 55%)" />
<g stroke="hsl(240, 100%, 40%)"><line x1="631.0495030742721" x2="729.9090086157261" y1="479" y2="479" />
<line x1="631.0495030742721" x2="631.0495030742721" y1="473" y2="485" />
<line x1="729.9090086157261" x2="729.9090086157261" y1="473" y2="485" />
</g>
</g>
<text fill="hsl(270, 100%, 40%)" y="517">Partial Twitter.Hermes Decode 699  μs</text>
<g>
<title>699  μs ±  46 μs</title>
<rect y="523" rx="5" height="22" width="1.2741549902887552" fill="hsl(270, 100%, 80%)" stroke="hsl(270, 100%, 55%)" />
<g stroke="hsl(270, 100%, 40%)"><line x1="1.1905490899765434" x2="1.357760890600967" y1="534" y2="534" />
<line x1="1.1905490899765434" x2="1.1905490899765434" y1="528" y2="540" />
<line x1="1.357760890600967" x2="1.357760890600967" y1="528" y2="540" />
</g>
</g>
<text fill="hsl(300, 100%, 40%)" y="572">Partial Twitter.Aeson Lazy 11.5 ms</text>
<g>
<title>11.5 ms ± 883 μs</title>
<rect y="578" rx="5" height="22" width="20.869092289519063" fill="hsl(300, 100%, 80%)" stroke="hsl(300, 100%, 55%)" />
<g stroke="hsl(300, 100%, 40%)"><line x1="19.26016821450608" x2="22.478016364532046" y1="589" y2="589" />
<line x1="19.26016821450608" x2="19.26016821450608" y1="583" y2="595" />
<line x1="22.478016364532046" x2="22.478016364532046" y1="583" y2="595" />
</g>
</g>
<text fill="hsl(330, 100%, 40%)" y="627">Partial Twitter.Aeson Strict 13.9 ms</text>
<g>
<title>13.9 ms ± 832 μs</title>
<rect y="633" rx="5" height="22" width="25.286179418650153" fill="hsl(330, 100%, 80%)" stroke="hsl(330, 100%, 55%)" />
<g stroke="hsl(330, 100%, 40%)"><line x1="23.770009958955693" x2="26.802348878344613" y1="644" y2="644" />
<line x1="23.770009958955693" x2="23.770009958955693" y1="638" y2="650" />
<line x1="26.802348878344613" x2="26.802348878344613" y1="638" y2="650" />
</g>
</g>
</g>
</svg>
