<svg xmlns="http://www.w3.org/2000/svg" height="777" width="960.0" font-size="16" font-family="sans-serif" stroke-width="2">
<g transform="translate(10.0 0)">
<text fill="hsl(0, 100%, 40%)" y="22">1 Million 3-Arrays.Hermes [[Double]] 551  ms</text>
<g>
<title>551  ms ±  26 ms</title>
<rect y="28" rx="5" height="22" width="251.9913102863719" fill="hsl(0, 100%, 80%)" stroke="hsl(0, 100%, 55%)" />
<g stroke="hsl(0, 100%, 40%)"><line x1="240.15492985069326" x2="263.82769072205053" y1="39" y2="39" />
<line x1="240.15492985069326" x2="240.15492985069326" y1="33" y2="45" />
<line x1="263.82769072205053" x2="263.82769072205053" y1="33" y2="45" />
</g>
</g>
<g fill="hsl(25, 100%, 40%)">
<text y="77">1 Million 3-Arrays.Aeson [[Double]]</text>
<text y="77" x="886.3194056144807" text-anchor="end">1.939 s</text>
</g>
<g>
<title>1.939 s ± 117 ms</title>
<rect y="83" rx="5" height="22" width="886.3194056144807" fill="hsl(25, 100%, 80%)" stroke="hsl(25, 100%, 55%)" />
<g stroke="hsl(25, 100%, 40%)"><line x1="832.6388112289615" x2="940.0" y1="94" y2="94" />
<line x1="832.6388112289615" x2="832.6388112289615" y1="88" y2="100" />
<line x1="940.0" x2="940.0" y1="88" y2="100" />
</g>
</g>
<text fill="hsl(51, 100%, 40%)" y="132">Small Object to Map.Hermes Decode 1.60 μs</text>
<g>
<title>1.60 μs ± 103 ns</title>
<rect y="138" rx="5" height="22" width="0.000729719859270443" fill="hsl(51, 100%, 80%)" stroke="hsl(51, 100%, 55%)" />
<g stroke="hsl(51, 100%, 40%)"><line x1="0.0006824422577643348" x2="0.0007769974607765511" y1="149" y2="149" />
<line x1="0.0006824422577643348" x2="0.0006824422577643348" y1="143" y2="155" />
<line x1="0.0007769974607765511" x2="0.0007769974607765511" y1="143" y2="155" />
</g>
</g>
<text fill="hsl(77, 100%, 40%)" y="187">Small Object to Map.Aeson Lazy 2.98 μs</text>
<g>
<title>2.98 μs ± 232 ns</title>
<rect y="193" rx="5" height="22" width="0.0013621105792886864" fill="hsl(77, 100%, 80%)" stroke="hsl(77, 100%, 55%)" />
<g stroke="hsl(77, 100%, 40%)"><line x1="0.0012560646608301587" x2="0.001468156497747214" y1="204" y2="204" />
<line x1="0.0012560646608301587" x2="0.0012560646608301587" y1="198" y2="210" />
<line x1="0.001468156497747214" x2="0.001468156497747214" y1="198" y2="210" />
</g>
</g>
<text fill="hsl(102, 100%, 40%)" y="242">Small Object to Map.Aeson Strict 2.96 μs</text>
<g>
<title>2.96 μs ± 172 ns</title>
<rect y="248" rx="5" height="22" width="0.0013546175685916586" fill="hsl(102, 100%, 80%)" stroke="hsl(102, 100%, 55%)" />
<g stroke="hsl(102, 100%, 40%)"><line x1="0.0012758154708579232" x2="0.001433419666325394" y1="259" y2="259" />
<line x1="0.0012758154708579232" x2="0.0012758154708579232" y1="253" y2="265" />
<line x1="0.001433419666325394" x2="0.001433419666325394" y1="253" y2="265" />
</g>
</g>
<text fill="hsl(128, 100%, 40%)" y="297">Full Persons Array.Ordered Keys.Hermes Decode 111  ms</text>
<g>
<title>111  ms ± 2.5 ms</title>
<rect y="303" rx="5" height="22" width="50.583086695236695" fill="hsl(128, 100%, 80%)" stroke="hsl(128, 100%, 55%)" />
<g stroke="hsl(128, 100%, 40%)"><line x1="49.44189681774687" x2="51.72427657272652" y1="314" y2="314" />
<line x1="49.44189681774687" x2="49.44189681774687" y1="308" y2="320" />
<line x1="51.72427657272652" x2="51.72427657272652" y1="308" y2="320" />
</g>
</g>
<text fill="hsl(154, 100%, 40%)" y="352">Full Persons Array.Ordered Keys.Aeson Lazy 462  ms</text>
<g>
<title>462  ms ±  45 ms</title>
<rect y="358" rx="5" height="22" width="211.31890262372926" fill="hsl(154, 100%, 80%)" stroke="hsl(154, 100%, 55%)" />
<g stroke="hsl(154, 100%, 40%)"><line x1="190.84159312855502" x2="231.7962121189035" y1="369" y2="369" />
<line x1="190.84159312855502" x2="190.84159312855502" y1="363" y2="375" />
<line x1="231.7962121189035" x2="231.7962121189035" y1="363" y2="375" />
</g>
</g>
<text fill="hsl(180, 100%, 40%)" y="407">Full Persons Array.Ordered Keys.Aeson Strict 362  ms</text>
<g>
<title>362  ms ±  34 ms</title>
<rect y="413" rx="5" height="22" width="165.43821133961035" fill="hsl(180, 100%, 80%)" stroke="hsl(180, 100%, 55%)" />
<g stroke="hsl(180, 100%, 40%)"><line x1="149.680179978252" x2="181.1962427009687" y1="424" y2="424" />
<line x1="149.680179978252" x2="149.680179978252" y1="418" y2="430" />
<line x1="181.1962427009687" x2="181.1962427009687" y1="418" y2="430" />
</g>
</g>
<text fill="hsl(205, 100%, 40%)" y="462">Full Persons Array.Unordered Keys.Hermes Decode 119  ms</text>
<g>
<title>119  ms ± 3.5 ms</title>
<rect y="468" rx="5" height="22" width="54.58422489918707" fill="hsl(205, 100%, 80%)" stroke="hsl(205, 100%, 55%)" />
<g stroke="hsl(205, 100%, 40%)"><line x1="52.98802351557363" x2="56.18042628280051" y1="479" y2="479" />
<line x1="52.98802351557363" x2="52.98802351557363" y1="473" y2="485" />
<line x1="56.18042628280051" x2="56.18042628280051" y1="473" y2="485" />
</g>
</g>
<text fill="hsl(231, 100%, 40%)" y="517">Full Persons Array.Unordered Keys.Aeson Lazy 454  ms</text>
<g>
<title>454  ms ± 7.8 ms</title>
<rect y="523" rx="5" height="22" width="207.41112497421233" fill="hsl(231, 100%, 80%)" stroke="hsl(231, 100%, 55%)" />
<g stroke="hsl(231, 100%, 40%)"><line x1="203.85508332495175" x2="210.9671666234729" y1="534" y2="534" />
<line x1="203.85508332495175" x2="203.85508332495175" y1="528" y2="540" />
<line x1="210.9671666234729" x2="210.9671666234729" y1="528" y2="540" />
</g>
</g>
<text fill="hsl(257, 100%, 40%)" y="572">Full Persons Array.Unordered Keys.Aeson Strict 361  ms</text>
<g>
<title>361  ms ±  33 ms</title>
<rect y="578" rx="5" height="22" width="165.14554945489124" fill="hsl(257, 100%, 80%)" stroke="hsl(257, 100%, 55%)" />
<g stroke="hsl(257, 100%, 40%)"><line x1="150.1580610892493" x2="180.1330378205332" y1="589" y2="589" />
<line x1="150.1580610892493" x2="150.1580610892493" y1="583" y2="595" />
<line x1="180.1330378205332" x2="180.1330378205332" y1="583" y2="595" />
</g>
</g>
<text fill="hsl(282, 100%, 40%)" y="627">Partial Twitter.Hermes Decode 466  μs</text>
<g>
<title>466  μs ±  43 μs</title>
<rect y="633" rx="5" height="22" width="0.2130397171701952" fill="hsl(282, 100%, 80%)" stroke="hsl(282, 100%, 55%)" />
<g stroke="hsl(282, 100%, 40%)"><line x1="0.19339676334228517" x2="0.23268267099810525" y1="644" y2="644" />
<line x1="0.19339676334228517" x2="0.19339676334228517" y1="638" y2="650" />
<line x1="0.23268267099810525" x2="0.23268267099810525" y1="638" y2="650" />
</g>
</g>
<text fill="hsl(308, 100%, 40%)" y="682">Partial Twitter.Aeson Lazy 17.1 ms</text>
<g>
<title>17.1 ms ± 1.0 ms</title>
<rect y="688" rx="5" height="22" width="7.814891094904002" fill="hsl(308, 100%, 80%)" stroke="hsl(308, 100%, 55%)" />
<g stroke="hsl(308, 100%, 40%)"><line x1="7.340739199239337" x2="8.289042990568667" y1="699" y2="699" />
<line x1="7.340739199239337" x2="7.340739199239337" y1="693" y2="705" />
<line x1="8.289042990568667" x2="8.289042990568667" y1="693" y2="705" />
</g>
</g>
<text fill="hsl(334, 100%, 40%)" y="737">Partial Twitter.Aeson Strict 14.3 ms</text>
<g>
<title>14.3 ms ± 789 μs</title>
<rect y="743" rx="5" height="22" width="6.553884914433151" fill="hsl(334, 100%, 80%)" stroke="hsl(334, 100%, 55%)" />
<g stroke="hsl(334, 100%, 40%)"><line x1="6.193318868040686" x2="6.914450960825615" y1="754" y2="754" />
<line x1="6.193318868040686" x2="6.193318868040686" y1="748" y2="760" />
<line x1="6.914450960825615" x2="6.914450960825615" y1="748" y2="760" />
</g>
</g>
</g>
</svg>
