<svg xmlns="http://www.w3.org/2000/svg" height="942" width="960.0" font-size="16" font-family="sans-serif" stroke-width="2">
<g transform="translate(10.0 0)">
<text fill="hsl(0, 100%, 40%)" y="22">Small Map Decode.Hermes Decode 2.03 μs</text>
<g>
<title>2.03 μs ±  95 ns</title>
<rect y="28" rx="5" height="22" width="0.002903068883172623" fill="hsl(0, 100%, 80%)" stroke="hsl(0, 100%, 55%)" />
<g stroke="hsl(0, 100%, 40%)"><line x1="0.002767440967401932" x2="0.0030386967989433143" y1="39" y2="39" />
<line x1="0.002767440967401932" x2="0.002767440967401932" y1="33" y2="45" />
<line x1="0.0030386967989433143" x2="0.0030386967989433143" y1="33" y2="45" />
</g>
</g>
<text fill="hsl(21, 100%, 40%)" y="77">Small Map Decode.Aeson Decode Lazy 3.06 μs</text>
<g>
<title>3.06 μs ± 227 ns</title>
<rect y="83" rx="5" height="22" width="0.004367378117116246" fill="hsl(21, 100%, 80%)" stroke="hsl(21, 100%, 55%)" />
<g stroke="hsl(21, 100%, 40%)"><line x1="0.004043227855815461" x2="0.004691528378417032" y1="94" y2="94" />
<line x1="0.004043227855815461" x2="0.004043227855815461" y1="88" y2="100" />
<line x1="0.004691528378417032" x2="0.004691528378417032" y1="88" y2="100" />
</g>
</g>
<text fill="hsl(42, 100%, 40%)" y="132">Small Map Decode.Aeson Decode Strict 3.03 μs</text>
<g>
<title>3.03 μs ±  81 ns</title>
<rect y="138" rx="5" height="22" width="0.004332720730790347" fill="hsl(42, 100%, 80%)" stroke="hsl(42, 100%, 55%)" />
<g stroke="hsl(42, 100%, 40%)"><line x1="0.0042176068088559775" x2="0.004447834652724716" y1="149" y2="149" />
<line x1="0.0042176068088559775" x2="0.0042176068088559775" y1="143" y2="155" />
<line x1="0.004447834652724716" x2="0.004447834652724716" y1="143" y2="155" />
</g>
</g>
<text fill="hsl(63, 100%, 40%)" y="187">Small Map Decode.Waargonaut Decode Attoparsec 65.1 μs</text>
<g>
<title>65.1 μs ± 3.5 μs</title>
<rect y="193" rx="5" height="22" width="0.09311049379556507" fill="hsl(63, 100%, 80%)" stroke="hsl(63, 100%, 55%)" />
<g stroke="hsl(63, 100%, 40%)"><line x1="0.08805009516384914" x2="0.09817089242728101" y1="204" y2="204" />
<line x1="0.08805009516384914" x2="0.08805009516384914" y1="198" y2="210" />
<line x1="0.09817089242728101" x2="0.09817089242728101" y1="198" y2="210" />
</g>
</g>
<text fill="hsl(84, 100%, 40%)" y="242">Full Decode Persons Array JSON.Ordered Keys.Hermes Decode 222  ms</text>
<g>
<title>222  ms ± 7.8 ms</title>
<rect y="248" rx="5" height="22" width="317.546644882748" fill="hsl(84, 100%, 80%)" stroke="hsl(84, 100%, 55%)" />
<g stroke="hsl(84, 100%, 40%)"><line x1="306.3421804122214" x2="328.7511093532746" y1="259" y2="259" />
<line x1="306.3421804122214" x2="306.3421804122214" y1="253" y2="265" />
<line x1="328.7511093532746" x2="328.7511093532746" y1="253" y2="265" />
</g>
</g>
<text fill="hsl(105, 100%, 40%)" y="297">Full Decode Persons Array JSON.Ordered Keys.Hermes DecodeWith 206  ms</text>
<g>
<title>206  ms ± 5.0 ms</title>
<rect y="303" rx="5" height="22" width="294.10144996219475" fill="hsl(105, 100%, 80%)" stroke="hsl(105, 100%, 55%)" />
<g stroke="hsl(105, 100%, 40%)"><line x1="286.93269037767874" x2="301.27020954671076" y1="314" y2="314" />
<line x1="286.93269037767874" x2="286.93269037767874" y1="308" y2="320" />
<line x1="301.27020954671076" x2="301.27020954671076" y1="308" y2="320" />
</g>
</g>
<g fill="hsl(127, 100%, 40%)">
<text y="352">Full Decode Persons Array JSON.Ordered Keys.Aeson Decode Lazy</text>
<text y="352" x="797.9793678080994" text-anchor="end">558  ms</text>
</g>
<g>
<title>558  ms ±  99 ms</title>
<rect y="358" rx="5" height="22" width="797.9793678080994" fill="hsl(127, 100%, 80%)" stroke="hsl(127, 100%, 55%)" />
<g stroke="hsl(127, 100%, 40%)"><line x1="655.9587356161987" x2="940.0" y1="369" y2="369" />
<line x1="655.9587356161987" x2="655.9587356161987" y1="363" y2="375" />
<line x1="940.0" x2="940.0" y1="363" y2="375" />
</g>
</g>
<g fill="hsl(148, 100%, 40%)">
<text y="407">Full Decode Persons Array JSON.Ordered Keys.Aeson Decode Strict</text>
<text y="407" x="608.2930742478362" text-anchor="end">426  ms</text>
</g>
<g>
<title>426  ms ±  34 ms</title>
<rect y="413" rx="5" height="22" width="608.2930742478362" fill="hsl(148, 100%, 80%)" stroke="hsl(148, 100%, 55%)" />
<g stroke="hsl(148, 100%, 40%)"><line x1="559.7886739368525" x2="656.7974745588199" y1="424" y2="424" />
<line x1="559.7886739368525" x2="559.7886739368525" y1="418" y2="430" />
<line x1="656.7974745588199" x2="656.7974745588199" y1="418" y2="430" />
</g>
</g>
<text fill="hsl(169, 100%, 40%)" y="462">Full Decode Persons Array JSON.Unordered Keys.Hermes Decode 232  ms</text>
<g>
<title>232  ms ± 9.4 ms</title>
<rect y="468" rx="5" height="22" width="332.0566066621849" fill="hsl(169, 100%, 80%)" stroke="hsl(169, 100%, 55%)" />
<g stroke="hsl(169, 100%, 40%)"><line x1="318.680243256612" x2="345.43297006775776" y1="479" y2="479" />
<line x1="318.680243256612" x2="318.680243256612" y1="473" y2="485" />
<line x1="345.43297006775776" x2="345.43297006775776" y1="473" y2="485" />
</g>
</g>
<text fill="hsl(190, 100%, 40%)" y="517">Full Decode Persons Array JSON.Unordered Keys.Hermes DecodeWith 223  ms</text>
<g>
<title>223  ms ±  15 ms</title>
<rect y="523" rx="5" height="22" width="318.19453918481946" fill="hsl(190, 100%, 80%)" stroke="hsl(190, 100%, 55%)" />
<g stroke="hsl(190, 100%, 40%)"><line x1="296.67602488880647" x2="339.71305348083246" y1="534" y2="534" />
<line x1="296.67602488880647" x2="296.67602488880647" y1="528" y2="540" />
<line x1="339.71305348083246" x2="339.71305348083246" y1="528" y2="540" />
</g>
</g>
<g fill="hsl(211, 100%, 40%)">
<text y="572">Full Decode Persons Array JSON.Unordered Keys.Aeson Decode Lazy</text>
<text y="572" x="853.6633183788133" text-anchor="end">597  ms</text>
</g>
<g>
<title>597  ms ±  39 ms</title>
<rect y="578" rx="5" height="22" width="853.6633183788133" fill="hsl(211, 100%, 80%)" stroke="hsl(211, 100%, 55%)" />
<g stroke="hsl(211, 100%, 40%)"><line x1="797.5389535605141" x2="909.7876831971125" y1="589" y2="589" />
<line x1="797.5389535605141" x2="797.5389535605141" y1="583" y2="595" />
<line x1="909.7876831971125" x2="909.7876831971125" y1="583" y2="595" />
</g>
</g>
<g fill="hsl(232, 100%, 40%)">
<text y="627">Full Decode Persons Array JSON.Unordered Keys.Aeson Decode Strict</text>
<text y="627" x="694.9946631880559" text-anchor="end">486  ms</text>
</g>
<g>
<title>486  ms ±  57 ms</title>
<rect y="633" rx="5" height="22" width="694.9946631880559" fill="hsl(232, 100%, 80%)" stroke="hsl(232, 100%, 55%)" />
<g stroke="hsl(232, 100%, 40%)"><line x1="613.8187577461104" x2="776.1705686300015" y1="644" y2="644" />
<line x1="613.8187577461104" x2="613.8187577461104" y1="638" y2="650" />
<line x1="776.1705686300015" x2="776.1705686300015" y1="638" y2="650" />
</g>
</g>
<text fill="hsl(254, 100%, 40%)" y="682">Partial Decode Twitter JSON.Hermes Decode 1.01 ms</text>
<g>
<title>1.01 ms ±  58 μs</title>
<rect y="688" rx="5" height="22" width="1.447897711554011" fill="hsl(254, 100%, 80%)" stroke="hsl(254, 100%, 55%)" />
<g stroke="hsl(254, 100%, 40%)"><line x1="1.3648787505632793" x2="1.5309166725447427" y1="699" y2="699" />
<line x1="1.3648787505632793" x2="1.3648787505632793" y1="693" y2="705" />
<line x1="1.5309166725447427" x2="1.5309166725447427" y1="693" y2="705" />
</g>
</g>
<text fill="hsl(275, 100%, 40%)" y="737">Partial Decode Twitter JSON.Hermes DecodeWith 921  μs</text>
<g>
<title>921  μs ±  84 μs</title>
<rect y="743" rx="5" height="22" width="1.3168640813703023" fill="hsl(275, 100%, 80%)" stroke="hsl(275, 100%, 55%)" />
<g stroke="hsl(275, 100%, 40%)"><line x1="1.1974967274639283" x2="1.4362314352766763" y1="754" y2="754" />
<line x1="1.1974967274639283" x2="1.1974967274639283" y1="748" y2="760" />
<line x1="1.4362314352766763" x2="1.4362314352766763" y1="748" y2="760" />
</g>
</g>
<text fill="hsl(296, 100%, 40%)" y="792">Partial Decode Twitter JSON.Aeson Decode Lazy 13.9 ms</text>
<g>
<title>13.9 ms ± 350 μs</title>
<rect y="798" rx="5" height="22" width="19.87890566504996" fill="hsl(296, 100%, 80%)" stroke="hsl(296, 100%, 55%)" />
<g stroke="hsl(296, 100%, 40%)"><line x1="19.379109128415525" x2="20.378702201684394" y1="809" y2="809" />
<line x1="19.379109128415525" x2="19.379109128415525" y1="803" y2="815" />
<line x1="20.378702201684394" x2="20.378702201684394" y1="803" y2="815" />
</g>
</g>
<text fill="hsl(317, 100%, 40%)" y="847">Partial Decode Twitter JSON.Aeson Decode Strict 16.9 ms</text>
<g>
<title>16.9 ms ± 594 μs</title>
<rect y="853" rx="5" height="22" width="24.091749030771954" fill="hsl(317, 100%, 80%)" stroke="hsl(317, 100%, 55%)" />
<g stroke="hsl(317, 100%, 40%)"><line x1="23.242704776431918" x2="24.94079328511199" y1="864" y2="864" />
<line x1="23.242704776431918" x2="23.242704776431918" y1="858" y2="870" />
<line x1="24.94079328511199" x2="24.94079328511199" y1="858" y2="870" />
</g>
</g>
<text fill="hsl(338, 100%, 40%)" y="902">Partial Decode Twitter JSON.Waargonaut Decode Attoparsec 8.33 ms</text>
<g>
<title>8.33 ms ± 291 μs</title>
<rect y="908" rx="5" height="22" width="11.90636769025086" fill="hsl(338, 100%, 80%)" stroke="hsl(338, 100%, 55%)" />
<g stroke="hsl(338, 100%, 40%)"><line x1="11.489786478352507" x2="12.322948902149214" y1="919" y2="919" />
<line x1="11.489786478352507" x2="11.489786478352507" y1="913" y2="925" />
<line x1="12.322948902149214" x2="12.322948902149214" y1="913" y2="925" />
</g>
</g>
</g>
</svg>
