<svg xmlns="http://www.w3.org/2000/svg" height="997" width="960.0" font-size="16" font-family="sans-serif" stroke-width="2">
<g transform="translate(10.0 0)">
<text fill="hsl(0, 100%, 40%)" y="22">Small Map Decode.Hermes Decode 1.28 μs</text>
<g>
<title>1.28 μs ±  87 ns</title>
<rect y="28" rx="5" height="22" width="0.001634614038706393" fill="hsl(0, 100%, 80%)" stroke="hsl(0, 100%, 55%)" />
<g stroke="hsl(0, 100%, 40%)"><line x1="0.0015229702585396487" x2="0.0017462578188731375" y1="39" y2="39" />
<line x1="0.0015229702585396487" x2="0.0015229702585396487" y1="33" y2="45" />
<line x1="0.0017462578188731375" x2="0.0017462578188731375" y1="33" y2="45" />
</g>
</g>
<text fill="hsl(20, 100%, 40%)" y="77">Small Map Decode.Hermes DecodeWith 1.01 μs</text>
<g>
<title>1.01 μs ±  81 ns</title>
<rect y="83" rx="5" height="22" width="0.0012881871354561997" fill="hsl(20, 100%, 80%)" stroke="hsl(20, 100%, 55%)" />
<g stroke="hsl(20, 100%, 40%)"><line x1="0.0011847091688290824" x2="0.001391665102083317" y1="94" y2="94" />
<line x1="0.0011847091688290824" x2="0.0011847091688290824" y1="88" y2="100" />
<line x1="0.001391665102083317" x2="0.001391665102083317" y1="88" y2="100" />
</g>
</g>
<text fill="hsl(40, 100%, 40%)" y="132">Small Map Decode.Aeson Decode Lazy 2.97 μs</text>
<g>
<title>2.97 μs ± 173 ns</title>
<rect y="138" rx="5" height="22" width="0.0037929909789294414" fill="hsl(40, 100%, 80%)" stroke="hsl(40, 100%, 55%)" />
<g stroke="hsl(40, 100%, 40%)"><line x1="0.0035720818108890477" x2="0.004013900146969835" y1="149" y2="149" />
<line x1="0.0035720818108890477" x2="0.0035720818108890477" y1="143" y2="155" />
<line x1="0.004013900146969835" x2="0.004013900146969835" y1="143" y2="155" />
</g>
</g>
<text fill="hsl(60, 100%, 40%)" y="187">Small Map Decode.Aeson Decode Strict 2.97 μs</text>
<g>
<title>2.97 μs ± 168 ns</title>
<rect y="193" rx="5" height="22" width="0.003793755644838727" fill="hsl(60, 100%, 80%)" stroke="hsl(60, 100%, 55%)" />
<g stroke="hsl(60, 100%, 40%)"><line x1="0.0035790686579263986" x2="0.004008442631751055" y1="204" y2="204" />
<line x1="0.0035790686579263986" x2="0.0035790686579263986" y1="198" y2="210" />
<line x1="0.004008442631751055" x2="0.004008442631751055" y1="198" y2="210" />
</g>
</g>
<text fill="hsl(80, 100%, 40%)" y="242">Small Map Decode.Waargonaut Decode Attoparsec 63.2 μs</text>
<g>
<title>63.2 μs ± 5.4 μs</title>
<rect y="248" rx="5" height="22" width="0.08079382635825323" fill="hsl(80, 100%, 80%)" stroke="hsl(80, 100%, 55%)" />
<g stroke="hsl(80, 100%, 40%)"><line x1="0.07393435629395864" x2="0.08765329642254782" y1="259" y2="259" />
<line x1="0.07393435629395864" x2="0.07393435629395864" y1="253" y2="265" />
<line x1="0.08765329642254782" x2="0.08765329642254782" y1="253" y2="265" />
</g>
</g>
<text fill="hsl(100, 100%, 40%)" y="297">Full Decode Persons Array.Ordered Keys.Hermes Decode 169  ms</text>
<g>
<title>169  ms ± 2.5 ms</title>
<rect y="303" rx="5" height="22" width="216.0704369707089" fill="hsl(100, 100%, 80%)" stroke="hsl(100, 100%, 55%)" />
<g stroke="hsl(100, 100%, 40%)"><line x1="212.89809415085" x2="219.2427797905678" y1="314" y2="314" />
<line x1="212.89809415085" x2="212.89809415085" y1="308" y2="320" />
<line x1="219.2427797905678" x2="219.2427797905678" y1="308" y2="320" />
</g>
</g>
<text fill="hsl(120, 100%, 40%)" y="352">Full Decode Persons Array.Ordered Keys.Hermes DecodeWith 167  ms</text>
<g>
<title>167  ms ± 8.3 ms</title>
<rect y="358" rx="5" height="22" width="213.21141826793112" fill="hsl(120, 100%, 80%)" stroke="hsl(120, 100%, 55%)" />
<g stroke="hsl(120, 100%, 40%)"><line x1="202.64854512715883" x2="223.77429140870342" y1="369" y2="369" />
<line x1="202.64854512715883" x2="202.64854512715883" y1="363" y2="375" />
<line x1="223.77429140870342" x2="223.77429140870342" y1="363" y2="375" />
</g>
</g>
<g fill="hsl(140, 100%, 40%)">
<text y="407">Full Decode Persons Array.Ordered Keys.Aeson Decode Lazy</text>
<text y="407" x="839.0172634738584" text-anchor="end">656  ms</text>
</g>
<g>
<title>656  ms ±  28 ms</title>
<rect y="413" rx="5" height="22" width="839.0172634738584" fill="hsl(140, 100%, 80%)" stroke="hsl(140, 100%, 55%)" />
<g stroke="hsl(140, 100%, 40%)"><line x1="803.5446839739215" x2="874.4898429737954" y1="424" y2="424" />
<line x1="803.5446839739215" x2="803.5446839739215" y1="418" y2="430" />
<line x1="874.4898429737954" x2="874.4898429737954" y1="418" y2="430" />
</g>
</g>
<text fill="hsl(160, 100%, 40%)" y="462">Full Decode Persons Array.Ordered Keys.Aeson Decode Strict 405  ms</text>
<g>
<title>405  ms ±  14 ms</title>
<rect y="468" rx="5" height="22" width="517.7612798946021" fill="hsl(160, 100%, 80%)" stroke="hsl(160, 100%, 55%)" />
<g stroke="hsl(160, 100%, 40%)"><line x1="500.10002460326604" x2="535.4225351859382" y1="479" y2="479" />
<line x1="500.10002460326604" x2="500.10002460326604" y1="473" y2="485" />
<line x1="535.4225351859382" x2="535.4225351859382" y1="473" y2="485" />
</g>
</g>
<text fill="hsl(180, 100%, 40%)" y="517">Full Decode Persons Array.Unordered Keys.Hermes Decode 185  ms</text>
<g>
<title>185  ms ± 4.6 ms</title>
<rect y="523" rx="5" height="22" width="236.5764633515634" fill="hsl(180, 100%, 80%)" stroke="hsl(180, 100%, 55%)" />
<g stroke="hsl(180, 100%, 40%)"><line x1="230.7236343426502" x2="242.4292923604766" y1="534" y2="534" />
<line x1="230.7236343426502" x2="230.7236343426502" y1="528" y2="540" />
<line x1="242.4292923604766" x2="242.4292923604766" y1="528" y2="540" />
</g>
</g>
<text fill="hsl(200, 100%, 40%)" y="572">Full Decode Persons Array.Unordered Keys.Hermes DecodeWith 182  ms</text>
<g>
<title>182  ms ± 6.6 ms</title>
<rect y="578" rx="5" height="22" width="233.34532663330063" fill="hsl(200, 100%, 80%)" stroke="hsl(200, 100%, 55%)" />
<g stroke="hsl(200, 100%, 40%)"><line x1="224.95695195828176" x2="241.7337013083195" y1="589" y2="589" />
<line x1="224.95695195828176" x2="224.95695195828176" y1="583" y2="595" />
<line x1="241.7337013083195" x2="241.7337013083195" y1="583" y2="595" />
</g>
</g>
<g fill="hsl(220, 100%, 40%)">
<text y="627">Full Decode Persons Array.Unordered Keys.Aeson Decode Lazy</text>
<text y="627" x="890.2774216902202" text-anchor="end">696  ms</text>
</g>
<g>
<title>696  ms ±  39 ms</title>
<rect y="633" rx="5" height="22" width="890.2774216902202" fill="hsl(220, 100%, 80%)" stroke="hsl(220, 100%, 55%)" />
<g stroke="hsl(220, 100%, 40%)"><line x1="840.5548433804404" x2="940.0" y1="644" y2="644" />
<line x1="840.5548433804404" x2="840.5548433804404" y1="638" y2="650" />
<line x1="940.0" x2="940.0" y1="638" y2="650" />
</g>
</g>
<g fill="hsl(240, 100%, 40%)">
<text y="682">Full Decode Persons Array.Unordered Keys.Aeson Decode Strict</text>
<text y="682" x="641.6917863763425" text-anchor="end">502  ms</text>
</g>
<g>
<title>502  ms ± 6.8 ms</title>
<rect y="688" rx="5" height="22" width="641.6917863763425" fill="hsl(240, 100%, 80%)" stroke="hsl(240, 100%, 55%)" />
<g stroke="hsl(240, 100%, 40%)"><line x1="633.0050111621657" x2="650.3785615905193" y1="699" y2="699" />
<line x1="633.0050111621657" x2="633.0050111621657" y1="693" y2="705" />
<line x1="650.3785615905193" x2="650.3785615905193" y1="693" y2="705" />
</g>
</g>
<text fill="hsl(260, 100%, 40%)" y="737">Partial Decode Twitter.Hermes Decode 591  μs</text>
<g>
<title>591  μs ±  46 μs</title>
<rect y="743" rx="5" height="22" width="0.7551771981486542" fill="hsl(260, 100%, 80%)" stroke="hsl(260, 100%, 55%)" />
<g stroke="hsl(260, 100%, 40%)"><line x1="0.6958146466067725" x2="0.814539749690536" y1="754" y2="754" />
<line x1="0.6958146466067725" x2="0.6958146466067725" y1="748" y2="760" />
<line x1="0.814539749690536" x2="0.814539749690536" y1="748" y2="760" />
</g>
</g>
<text fill="hsl(280, 100%, 40%)" y="792">Partial Decode Twitter.Hermes DecodeWith 589  μs</text>
<g>
<title>589  μs ±  42 μs</title>
<rect y="798" rx="5" height="22" width="0.7537511026213646" fill="hsl(280, 100%, 80%)" stroke="hsl(280, 100%, 55%)" />
<g stroke="hsl(280, 100%, 40%)"><line x1="0.6995758962782335" x2="0.8079263089644957" y1="809" y2="809" />
<line x1="0.6995758962782335" x2="0.6995758962782335" y1="803" y2="815" />
<line x1="0.8079263089644957" x2="0.8079263089644957" y1="803" y2="815" />
</g>
</g>
<text fill="hsl(300, 100%, 40%)" y="847">Partial Decode Twitter.Aeson Decode Lazy 14.9 ms</text>
<g>
<title>14.9 ms ± 1.0 ms</title>
<rect y="853" rx="5" height="22" width="19.086941356654528" fill="hsl(300, 100%, 80%)" stroke="hsl(300, 100%, 55%)" />
<g stroke="hsl(300, 100%, 40%)"><line x1="17.812155873565374" x2="20.36172683974368" y1="864" y2="864" />
<line x1="17.812155873565374" x2="17.812155873565374" y1="858" y2="870" />
<line x1="20.36172683974368" x2="20.36172683974368" y1="858" y2="870" />
</g>
</g>
<text fill="hsl(320, 100%, 40%)" y="902">Partial Decode Twitter.Aeson Decode Strict 17.1 ms</text>
<g>
<title>17.1 ms ± 838 μs</title>
<rect y="908" rx="5" height="22" width="21.83592207767507" fill="hsl(320, 100%, 80%)" stroke="hsl(320, 100%, 55%)" />
<g stroke="hsl(320, 100%, 40%)"><line x1="20.764950684408028" x2="22.906893470942116" y1="919" y2="919" />
<line x1="20.764950684408028" x2="20.764950684408028" y1="913" y2="925" />
<line x1="22.906893470942116" x2="22.906893470942116" y1="913" y2="925" />
</g>
</g>
<text fill="hsl(340, 100%, 40%)" y="957">Partial Decode Twitter.Waargonaut Decode Attoparsec 7.63 ms</text>
<g>
<title>7.63 ms ± 353 μs</title>
<rect y="963" rx="5" height="22" width="9.754822417595463" fill="hsl(340, 100%, 80%)" stroke="hsl(340, 100%, 55%)" />
<g stroke="hsl(340, 100%, 40%)"><line x1="9.303069230017089" x2="10.206575605173837" y1="974" y2="974" />
<line x1="9.303069230017089" x2="9.303069230017089" y1="968" y2="980" />
<line x1="10.206575605173837" x2="10.206575605173837" y1="968" y2="980" />
</g>
</g>
</g>
</svg>
