<svg xmlns="http://www.w3.org/2000/svg" height="777" width="960.0" font-size="16" font-family="sans-serif" stroke-width="2">
<g transform="translate(10.0 0)">
<text fill="hsl(0, 100%, 40%)" y="22">1 Million 3-Arrays.Hermes [[Double]] 515  ms</text>
<g>
<title>515  ms ±  19 ms</title>
<rect y="28" rx="5" height="22" width="243.41603779445157" fill="hsl(0, 100%, 80%)" stroke="hsl(0, 100%, 55%)" />
<g stroke="hsl(0, 100%, 40%)"><line x1="234.28068553890856" x2="252.55139004999458" y1="39" y2="39" />
<line x1="234.28068553890856" x2="234.28068553890856" y1="33" y2="45" />
<line x1="252.55139004999458" x2="252.55139004999458" y1="33" y2="45" />
</g>
</g>
<g fill="hsl(25, 100%, 40%)">
<text y="77">1 Million 3-Arrays.Aeson [[Double]]</text>
<text y="77" x="888.0905731111028" text-anchor="end">1.879 s</text>
</g>
<g>
<title>1.879 s ± 110 ms</title>
<rect y="83" rx="5" height="22" width="888.0905731111028" fill="hsl(25, 100%, 80%)" stroke="hsl(25, 100%, 55%)" />
<g stroke="hsl(25, 100%, 40%)"><line x1="836.1811462222056" x2="940.0" y1="94" y2="94" />
<line x1="836.1811462222056" x2="836.1811462222056" y1="88" y2="100" />
<line x1="940.0" x2="940.0" y1="88" y2="100" />
</g>
</g>
<text fill="hsl(51, 100%, 40%)" y="132">Small Object to Map.Hermes Decode 1.45 μs</text>
<g>
<title>1.45 μs ± 100 ns</title>
<rect y="138" rx="5" height="22" width="0.0006869857281297045" fill="hsl(51, 100%, 80%)" stroke="hsl(51, 100%, 55%)" />
<g stroke="hsl(51, 100%, 40%)"><line x1="0.0006398894981475896" x2="0.0007340819581118194" y1="149" y2="149" />
<line x1="0.0006398894981475896" x2="0.0006398894981475896" y1="143" y2="155" />
<line x1="0.0007340819581118194" x2="0.0007340819581118194" y1="143" y2="155" />
</g>
</g>
<text fill="hsl(77, 100%, 40%)" y="187">Small Object to Map.Aeson Lazy 2.94 μs</text>
<g>
<title>2.94 μs ± 184 ns</title>
<rect y="193" rx="5" height="22" width="0.0013877926006497295" fill="hsl(77, 100%, 80%)" stroke="hsl(77, 100%, 55%)" />
<g stroke="hsl(77, 100%, 40%)"><line x1="0.001300775340918768" x2="0.001474809860380691" y1="204" y2="204" />
<line x1="0.001300775340918768" x2="0.001300775340918768" y1="198" y2="210" />
<line x1="0.001474809860380691" x2="0.001474809860380691" y1="198" y2="210" />
</g>
</g>
<text fill="hsl(102, 100%, 40%)" y="242">Small Object to Map.Aeson Strict 2.95 μs</text>
<g>
<title>2.95 μs ± 168 ns</title>
<rect y="248" rx="5" height="22" width="0.001396196903609995" fill="hsl(102, 100%, 80%)" stroke="hsl(102, 100%, 55%)" />
<g stroke="hsl(102, 100%, 40%)"><line x1="0.0013169086727920557" x2="0.0014754851344279342" y1="259" y2="259" />
<line x1="0.0013169086727920557" x2="0.0013169086727920557" y1="253" y2="265" />
<line x1="0.0014754851344279342" x2="0.0014754851344279342" y1="253" y2="265" />
</g>
</g>
<text fill="hsl(128, 100%, 40%)" y="297">Full Persons Array.Ordered Keys.Hermes Decode 106  ms</text>
<g>
<title>106  ms ± 1.6 ms</title>
<rect y="303" rx="5" height="22" width="50.267251318019284" fill="hsl(128, 100%, 80%)" stroke="hsl(128, 100%, 55%)" />
<g stroke="hsl(128, 100%, 40%)"><line x1="49.49492932968039" x2="51.03957330635818" y1="314" y2="314" />
<line x1="49.49492932968039" x2="49.49492932968039" y1="308" y2="320" />
<line x1="51.03957330635818" x2="51.03957330635818" y1="308" y2="320" />
</g>
</g>
<text fill="hsl(154, 100%, 40%)" y="352">Full Persons Array.Ordered Keys.Aeson Lazy 450  ms</text>
<g>
<title>450  ms ±  41 ms</title>
<rect y="358" rx="5" height="22" width="212.42248252741" fill="hsl(154, 100%, 80%)" stroke="hsl(154, 100%, 55%)" />
<g stroke="hsl(154, 100%, 40%)"><line x1="193.0347602518082" x2="231.81020480301183" y1="369" y2="369" />
<line x1="193.0347602518082" x2="193.0347602518082" y1="363" y2="375" />
<line x1="231.81020480301183" x2="231.81020480301183" y1="363" y2="375" />
</g>
</g>
<text fill="hsl(180, 100%, 40%)" y="407">Full Persons Array.Ordered Keys.Aeson Strict 354  ms</text>
<g>
<title>354  ms ±  33 ms</title>
<rect y="413" rx="5" height="22" width="167.16774972826082" fill="hsl(180, 100%, 80%)" stroke="hsl(180, 100%, 55%)" />
<g stroke="hsl(180, 100%, 40%)"><line x1="151.54572490506715" x2="182.78977455145449" y1="424" y2="424" />
<line x1="151.54572490506715" x2="151.54572490506715" y1="418" y2="430" />
<line x1="182.78977455145449" x2="182.78977455145449" y1="418" y2="430" />
</g>
</g>
<text fill="hsl(205, 100%, 40%)" y="462">Full Persons Array.Unordered Keys.Hermes Decode 114  ms</text>
<g>
<title>114  ms ± 3.8 ms</title>
<rect y="468" rx="5" height="22" width="53.73200268797245" fill="hsl(205, 100%, 80%)" stroke="hsl(205, 100%, 55%)" />
<g stroke="hsl(205, 100%, 40%)"><line x1="51.92168629028138" x2="55.542319085663514" y1="479" y2="479" />
<line x1="51.92168629028138" x2="51.92168629028138" y1="473" y2="485" />
<line x1="55.542319085663514" x2="55.542319085663514" y1="473" y2="485" />
</g>
</g>
<text fill="hsl(231, 100%, 40%)" y="517">Full Persons Array.Unordered Keys.Aeson Lazy 440  ms</text>
<g>
<title>440  ms ± 7.8 ms</title>
<rect y="523" rx="5" height="22" width="207.90873654143587" fill="hsl(231, 100%, 80%)" stroke="hsl(231, 100%, 55%)" />
<g stroke="hsl(231, 100%, 40%)"><line x1="204.2058844364895" x2="211.61158864638224" y1="534" y2="534" />
<line x1="204.2058844364895" x2="204.2058844364895" y1="528" y2="540" />
<line x1="211.61158864638224" x2="211.61158864638224" y1="528" y2="540" />
</g>
</g>
<text fill="hsl(257, 100%, 40%)" y="572">Full Persons Array.Unordered Keys.Aeson Strict 354  ms</text>
<g>
<title>354  ms ±  34 ms</title>
<rect y="578" rx="5" height="22" width="167.08542857659612" fill="hsl(257, 100%, 80%)" stroke="hsl(257, 100%, 55%)" />
<g stroke="hsl(257, 100%, 40%)"><line x1="150.92247210101553" x2="183.2483850521767" y1="589" y2="589" />
<line x1="150.92247210101553" x2="150.92247210101553" y1="583" y2="595" />
<line x1="183.2483850521767" x2="183.2483850521767" y1="583" y2="595" />
</g>
</g>
<text fill="hsl(282, 100%, 40%)" y="627">Partial Twitter.Hermes Decode 449  μs</text>
<g>
<title>449  μs ±  22 μs</title>
<rect y="633" rx="5" height="22" width="0.21209892362090574" fill="hsl(282, 100%, 80%)" stroke="hsl(282, 100%, 55%)" />
<g stroke="hsl(282, 100%, 40%)"><line x1="0.20155642516762826" x2="0.22264142207418322" y1="644" y2="644" />
<line x1="0.20155642516762826" x2="0.20155642516762826" y1="638" y2="650" />
<line x1="0.22264142207418322" x2="0.22264142207418322" y1="638" y2="650" />
</g>
</g>
<text fill="hsl(308, 100%, 40%)" y="682">Partial Twitter.Aeson Lazy 16.6 ms</text>
<g>
<title>16.6 ms ± 1.1 ms</title>
<rect y="688" rx="5" height="22" width="7.8655193532053325" fill="hsl(308, 100%, 80%)" stroke="hsl(308, 100%, 55%)" />
<g stroke="hsl(308, 100%, 40%)"><line x1="7.354705512122844" x2="8.37633319428782" y1="699" y2="699" />
<line x1="7.354705512122844" x2="7.354705512122844" y1="693" y2="705" />
<line x1="8.37633319428782" x2="8.37633319428782" y1="693" y2="705" />
</g>
</g>
<text fill="hsl(334, 100%, 40%)" y="737">Partial Twitter.Aeson Strict 14.0 ms</text>
<g>
<title>14.0 ms ± 793 μs</title>
<rect y="743" rx="5" height="22" width="6.6278749765702685" fill="hsl(334, 100%, 80%)" stroke="hsl(334, 100%, 55%)" />
<g stroke="hsl(334, 100%, 40%)"><line x1="6.252988798782807" x2="7.00276115435773" y1="754" y2="754" />
<line x1="6.252988798782807" x2="6.252988798782807" y1="748" y2="760" />
<line x1="7.00276115435773" x2="7.00276115435773" y1="748" y2="760" />
</g>
</g>
</g>
</svg>
