<svg xmlns="http://www.w3.org/2000/svg" height="777" width="960.0" font-size="16" font-family="sans-serif" stroke-width="2">
<g transform="translate(10.0 0)">
<text fill="hsl(0, 100%, 40%)" y="22">Small Map.Hermes Decode 1.50 μs</text>
<g>
<title>1.50 μs ±  91 ns</title>
<rect y="28" rx="5" height="22" width="0.0019631879510758963" fill="hsl(0, 100%, 80%)" stroke="hsl(0, 100%, 55%)" />
<g stroke="hsl(0, 100%, 40%)"><line x1="0.0018436050685712512" x2="0.0020827708335805412" y1="39" y2="39" />
<line x1="0.0018436050685712512" x2="0.0018436050685712512" y1="33" y2="45" />
<line x1="0.0020827708335805412" x2="0.0020827708335805412" y1="33" y2="45" />
</g>
</g>
<text fill="hsl(25, 100%, 40%)" y="77">Small Map.Aeson Lazy 3.02 μs</text>
<g>
<title>3.02 μs ± 216 ns</title>
<rect y="83" rx="5" height="22" width="0.003967298329710084" fill="hsl(25, 100%, 80%)" stroke="hsl(25, 100%, 55%)" />
<g stroke="hsl(25, 100%, 40%)"><line x1="0.0036842618127674288" x2="0.00425033484665274" y1="94" y2="94" />
<line x1="0.0036842618127674288" x2="0.0036842618127674288" y1="88" y2="100" />
<line x1="0.00425033484665274" x2="0.00425033484665274" y1="88" y2="100" />
</g>
</g>
<text fill="hsl(51, 100%, 40%)" y="132">Small Map.Aeson Strict 3.03 μs</text>
<g>
<title>3.03 μs ± 182 ns</title>
<rect y="138" rx="5" height="22" width="0.003974250761877462" fill="hsl(51, 100%, 80%)" stroke="hsl(51, 100%, 55%)" />
<g stroke="hsl(51, 100%, 40%)"><line x1="0.003735722401515096" x2="0.0042127791222398275" y1="149" y2="149" />
<line x1="0.003735722401515096" x2="0.003735722401515096" y1="143" y2="155" />
<line x1="0.0042127791222398275" x2="0.0042127791222398275" y1="143" y2="155" />
</g>
</g>
<text fill="hsl(77, 100%, 40%)" y="187">Small Map.Waargonaut Attoparsec 63.4 μs</text>
<g>
<title>63.4 μs ± 5.3 μs</title>
<rect y="193" rx="5" height="22" width="0.08309498924370949" fill="hsl(77, 100%, 80%)" stroke="hsl(77, 100%, 55%)" />
<g stroke="hsl(77, 100%, 40%)"><line x1="0.07608865572616907" x2="0.09010132276124991" y1="204" y2="204" />
<line x1="0.07608865572616907" x2="0.07608865572616907" y1="198" y2="210" />
<line x1="0.09010132276124991" x2="0.09010132276124991" y1="198" y2="210" />
</g>
</g>
<text fill="hsl(102, 100%, 40%)" y="242">Full Persons Array.Ordered Keys.Hermes Decode 164  ms</text>
<g>
<title>164  ms ±  11 ms</title>
<rect y="248" rx="5" height="22" width="214.58826572841693" fill="hsl(102, 100%, 80%)" stroke="hsl(102, 100%, 55%)" />
<g stroke="hsl(102, 100%, 40%)"><line x1="200.0409218909463" x2="229.13560956588756" y1="259" y2="259" />
<line x1="200.0409218909463" x2="200.0409218909463" y1="253" y2="265" />
<line x1="229.13560956588756" x2="229.13560956588756" y1="253" y2="265" />
</g>
</g>
<g fill="hsl(128, 100%, 40%)">
<text y="297">Full Persons Array.Ordered Keys.Aeson Lazy</text>
<text y="297" x="819.0057486678973" text-anchor="end">624  ms</text>
</g>
<g>
<title>624  ms ±  68 ms</title>
<rect y="303" rx="5" height="22" width="819.0057486678973" fill="hsl(128, 100%, 80%)" stroke="hsl(128, 100%, 55%)" />
<g stroke="hsl(128, 100%, 40%)"><line x1="730.3291371058888" x2="907.6823602299057" y1="314" y2="314" />
<line x1="730.3291371058888" x2="730.3291371058888" y1="308" y2="320" />
<line x1="907.6823602299057" x2="907.6823602299057" y1="308" y2="320" />
</g>
</g>
<g fill="hsl(154, 100%, 40%)">
<text y="352">Full Persons Array.Ordered Keys.Aeson Strict</text>
<text y="352" x="570.4801782754533" text-anchor="end">435  ms</text>
</g>
<g>
<title>435  ms ± 4.6 ms</title>
<rect y="358" rx="5" height="22" width="570.4801782754533" fill="hsl(154, 100%, 80%)" stroke="hsl(154, 100%, 55%)" />
<g stroke="hsl(154, 100%, 40%)"><line x1="564.4539484708941" x2="576.5064080800125" y1="369" y2="369" />
<line x1="564.4539484708941" x2="564.4539484708941" y1="363" y2="375" />
<line x1="576.5064080800125" x2="576.5064080800125" y1="363" y2="375" />
</g>
</g>
<text fill="hsl(180, 100%, 40%)" y="407">Full Persons Array.Unordered Keys.Hermes Decode 173  ms</text>
<g>
<title>173  ms ±  12 ms</title>
<rect y="413" rx="5" height="22" width="227.44507996437744" fill="hsl(180, 100%, 80%)" stroke="hsl(180, 100%, 55%)" />
<g stroke="hsl(180, 100%, 40%)"><line x1="212.08282312816425" x2="242.80733680059063" y1="424" y2="424" />
<line x1="212.08282312816425" x2="212.08282312816425" y1="418" y2="430" />
<line x1="242.80733680059063" x2="242.80733680059063" y1="418" y2="430" />
</g>
</g>
<g fill="hsl(205, 100%, 40%)">
<text y="462">Full Persons Array.Unordered Keys.Aeson Lazy</text>
<text y="462" x="900.4709069512837" text-anchor="end">687  ms</text>
</g>
<g>
<title>687  ms ±  30 ms</title>
<rect y="468" rx="5" height="22" width="900.4709069512837" fill="hsl(205, 100%, 80%)" stroke="hsl(205, 100%, 55%)" />
<g stroke="hsl(205, 100%, 40%)"><line x1="860.9418139025674" x2="940.0" y1="479" y2="479" />
<line x1="860.9418139025674" x2="860.9418139025674" y1="473" y2="485" />
<line x1="940.0" x2="940.0" y1="473" y2="485" />
</g>
</g>
<g fill="hsl(231, 100%, 40%)">
<text y="517">Full Persons Array.Unordered Keys.Aeson Strict</text>
<text y="517" x="650.2365501799798" text-anchor="end">496  ms</text>
</g>
<g>
<title>496  ms ±  25 ms</title>
<rect y="523" rx="5" height="22" width="650.2365501799798" fill="hsl(231, 100%, 80%)" stroke="hsl(231, 100%, 55%)" />
<g stroke="hsl(231, 100%, 40%)"><line x1="617.2075708765525" x2="683.265529483407" y1="534" y2="534" />
<line x1="617.2075708765525" x2="617.2075708765525" y1="528" y2="540" />
<line x1="683.265529483407" x2="683.265529483407" y1="528" y2="540" />
</g>
</g>
<text fill="hsl(257, 100%, 40%)" y="572">Partial Twitter.Hermes Decode 594  μs</text>
<g>
<title>594  μs ±  24 μs</title>
<rect y="578" rx="5" height="22" width="0.7795761415476123" fill="hsl(257, 100%, 80%)" stroke="hsl(257, 100%, 55%)" />
<g stroke="hsl(257, 100%, 40%)"><line x1="0.747520075581582" x2="0.8116322075136427" y1="589" y2="589" />
<line x1="0.747520075581582" x2="0.747520075581582" y1="583" y2="595" />
<line x1="0.8116322075136427" x2="0.8116322075136427" y1="583" y2="595" />
</g>
</g>
<text fill="hsl(282, 100%, 40%)" y="627">Partial Twitter.Aeson Lazy 15.7 ms</text>
<g>
<title>15.7 ms ± 699 μs</title>
<rect y="633" rx="5" height="22" width="20.63336477376058" fill="hsl(282, 100%, 80%)" stroke="hsl(282, 100%, 55%)" />
<g stroke="hsl(282, 100%, 40%)"><line x1="19.717202339412374" x2="21.549527208108785" y1="644" y2="644" />
<line x1="19.717202339412374" x2="19.717202339412374" y1="638" y2="650" />
<line x1="21.549527208108785" x2="21.549527208108785" y1="638" y2="650" />
</g>
</g>
<text fill="hsl(308, 100%, 40%)" y="682">Partial Twitter.Aeson Strict 17.2 ms</text>
<g>
<title>17.2 ms ± 1.2 ms</title>
<rect y="688" rx="5" height="22" width="22.587900120696006" fill="hsl(308, 100%, 80%)" stroke="hsl(308, 100%, 55%)" />
<g stroke="hsl(308, 100%, 40%)"><line x1="21.03510215600274" x2="24.14069808538927" y1="699" y2="699" />
<line x1="21.03510215600274" x2="21.03510215600274" y1="693" y2="705" />
<line x1="24.14069808538927" x2="24.14069808538927" y1="693" y2="705" />
</g>
</g>
<text fill="hsl(334, 100%, 40%)" y="737">Partial Twitter.Waargonaut Attoparsec 7.46 ms</text>
<g>
<title>7.46 ms ± 428 μs</title>
<rect y="743" rx="5" height="22" width="9.777650556586337" fill="hsl(334, 100%, 80%)" stroke="hsl(334, 100%, 55%)" />
<g stroke="hsl(334, 100%, 40%)"><line x1="9.215819652602265" x2="10.33948146057041" y1="754" y2="754" />
<line x1="9.215819652602265" x2="9.215819652602265" y1="748" y2="760" />
<line x1="10.33948146057041" x2="10.33948146057041" y1="748" y2="760" />
</g>
</g>
</g>
</svg>
