<svg xmlns="http://www.w3.org/2000/svg" height="667" width="960.0" font-size="16" font-family="sans-serif" stroke-width="2">
<g transform="translate(10.0 0)">
<text fill="hsl(0, 100%, 40%)" y="22">Small Map.Hermes Decode 1.90 μs</text>
<g>
<title>1.90 μs ± 176 ns</title>
<rect y="28" rx="5" height="22" width="0.0034759773915011404" fill="hsl(0, 100%, 80%)" stroke="hsl(0, 100%, 55%)" />
<g stroke="hsl(0, 100%, 40%)"><line x1="0.003154219139488742" x2="0.003797735643513539" y1="39" y2="39" />
<line x1="0.003154219139488742" x2="0.003154219139488742" y1="33" y2="45" />
<line x1="0.003797735643513539" x2="0.003797735643513539" y1="33" y2="45" />
</g>
</g>
<text fill="hsl(30, 100%, 40%)" y="77">Small Map.Aeson Lazy 3.12 μs</text>
<g>
<title>3.12 μs ± 166 ns</title>
<rect y="83" rx="5" height="22" width="0.005705291973161038" fill="hsl(30, 100%, 80%)" stroke="hsl(30, 100%, 55%)" />
<g stroke="hsl(30, 100%, 40%)"><line x1="0.005402318893334197" x2="0.006008265052987879" y1="94" y2="94" />
<line x1="0.005402318893334197" x2="0.005402318893334197" y1="88" y2="100" />
<line x1="0.006008265052987879" x2="0.006008265052987879" y1="88" y2="100" />
</g>
</g>
<text fill="hsl(60, 100%, 40%)" y="132">Small Map.Aeson Strict 3.06 μs</text>
<g>
<title>3.06 μs ± 184 ns</title>
<rect y="138" rx="5" height="22" width="0.005598720136214644" fill="hsl(60, 100%, 80%)" stroke="hsl(60, 100%, 55%)" />
<g stroke="hsl(60, 100%, 40%)"><line x1="0.005261559944935622" x2="0.005935880327493667" y1="149" y2="149" />
<line x1="0.005261559944935622" x2="0.005261559944935622" y1="143" y2="155" />
<line x1="0.005935880327493667" x2="0.005935880327493667" y1="143" y2="155" />
</g>
</g>
<text fill="hsl(90, 100%, 40%)" y="187">Full Persons Array.Ordered Keys.Hermes Decode 139  ms</text>
<g>
<title>139  ms ± 4.2 ms</title>
<rect y="193" rx="5" height="22" width="254.422541712894" fill="hsl(90, 100%, 80%)" stroke="hsl(90, 100%, 55%)" />
<g stroke="hsl(90, 100%, 40%)"><line x1="246.82525721784512" x2="262.01982620794286" y1="204" y2="204" />
<line x1="246.82525721784512" x2="246.82525721784512" y1="198" y2="210" />
<line x1="262.01982620794286" x2="262.01982620794286" y1="198" y2="210" />
</g>
</g>
<g fill="hsl(120, 100%, 40%)">
<text y="242">Full Persons Array.Ordered Keys.Aeson Lazy</text>
<text y="242" x="866.0568531502596" text-anchor="end">474  ms</text>
</g>
<g>
<title>474  ms ±  40 ms</title>
<rect y="248" rx="5" height="22" width="866.0568531502596" fill="hsl(120, 100%, 80%)" stroke="hsl(120, 100%, 55%)" />
<g stroke="hsl(120, 100%, 40%)"><line x1="792.1137063005192" x2="940.0" y1="259" y2="259" />
<line x1="792.1137063005192" x2="792.1137063005192" y1="253" y2="265" />
<line x1="940.0" x2="940.0" y1="253" y2="265" />
</g>
</g>
<g fill="hsl(150, 100%, 40%)">
<text y="297">Full Persons Array.Ordered Keys.Aeson Strict</text>
<text y="297" x="682.9201901282494" text-anchor="end">373  ms</text>
</g>
<g>
<title>373  ms ±  34 ms</title>
<rect y="303" rx="5" height="22" width="682.9201901282494" fill="hsl(150, 100%, 80%)" stroke="hsl(150, 100%, 55%)" />
<g stroke="hsl(150, 100%, 40%)"><line x1="621.1651999442096" x2="744.6751803122892" y1="314" y2="314" />
<line x1="621.1651999442096" x2="621.1651999442096" y1="308" y2="320" />
<line x1="744.6751803122892" x2="744.6751803122892" y1="308" y2="320" />
</g>
</g>
<text fill="hsl(180, 100%, 40%)" y="352">Full Persons Array.Unordered Keys.Hermes Decode 144  ms</text>
<g>
<title>144  ms ± 4.2 ms</title>
<rect y="358" rx="5" height="22" width="263.65714600718735" fill="hsl(180, 100%, 80%)" stroke="hsl(180, 100%, 55%)" />
<g stroke="hsl(180, 100%, 40%)"><line x1="256.0475765435313" x2="271.2667154708434" y1="369" y2="369" />
<line x1="256.0475765435313" x2="256.0475765435313" y1="363" y2="375" />
<line x1="271.2667154708434" x2="271.2667154708434" y1="363" y2="375" />
</g>
</g>
<g fill="hsl(210, 100%, 40%)">
<text y="407">Full Persons Array.Unordered Keys.Aeson Lazy</text>
<text y="407" x="847.4710832266203" text-anchor="end">463  ms</text>
</g>
<g>
<title>463  ms ± 7.7 ms</title>
<rect y="413" rx="5" height="22" width="847.4710832266203" fill="hsl(210, 100%, 80%)" stroke="hsl(210, 100%, 55%)" />
<g stroke="hsl(210, 100%, 40%)"><line x1="833.3198491077344" x2="861.6223173455062" y1="424" y2="424" />
<line x1="833.3198491077344" x2="833.3198491077344" y1="418" y2="430" />
<line x1="861.6223173455062" x2="861.6223173455062" y1="418" y2="430" />
</g>
</g>
<g fill="hsl(240, 100%, 40%)">
<text y="462">Full Persons Array.Unordered Keys.Aeson Strict</text>
<text y="462" x="667.4297244575585" text-anchor="end">365  ms</text>
</g>
<g>
<title>365  ms ±  35 ms</title>
<rect y="468" rx="5" height="22" width="667.4297244575585" fill="hsl(240, 100%, 80%)" stroke="hsl(240, 100%, 55%)" />
<g stroke="hsl(240, 100%, 40%)"><line x1="603.5646117849385" x2="731.2948371301784" y1="479" y2="479" />
<line x1="603.5646117849385" x2="603.5646117849385" y1="473" y2="485" />
<line x1="731.2948371301784" x2="731.2948371301784" y1="473" y2="485" />
</g>
</g>
<text fill="hsl(270, 100%, 40%)" y="517">Partial Twitter.Hermes Decode 539  μs</text>
<g>
<title>539  μs ±  45 μs</title>
<rect y="523" rx="5" height="22" width="0.9865581256978382" fill="hsl(270, 100%, 80%)" stroke="hsl(270, 100%, 55%)" />
<g stroke="hsl(270, 100%, 40%)"><line x1="0.9048072691634984" x2="1.0683089822321779" y1="534" y2="534" />
<line x1="0.9048072691634984" x2="0.9048072691634984" y1="528" y2="540" />
<line x1="1.0683089822321779" x2="1.0683089822321779" y1="528" y2="540" />
</g>
</g>
<text fill="hsl(300, 100%, 40%)" y="572">Partial Twitter.Aeson Lazy 17.5 ms</text>
<g>
<title>17.5 ms ± 1.1 ms</title>
<rect y="578" rx="5" height="22" width="32.025972122755164" fill="hsl(300, 100%, 80%)" stroke="hsl(300, 100%, 55%)" />
<g stroke="hsl(300, 100%, 40%)"><line x1="30.06007389455188" x2="33.99187035095844" y1="589" y2="589" />
<line x1="30.06007389455188" x2="30.06007389455188" y1="583" y2="595" />
<line x1="33.99187035095844" x2="33.99187035095844" y1="583" y2="595" />
</g>
</g>
<text fill="hsl(330, 100%, 40%)" y="627">Partial Twitter.Aeson Strict 14.7 ms</text>
<g>
<title>14.7 ms ± 1.1 ms</title>
<rect y="633" rx="5" height="22" width="26.80894786726092" fill="hsl(330, 100%, 80%)" stroke="hsl(330, 100%, 55%)" />
<g stroke="hsl(330, 100%, 40%)"><line x1="24.812347034401462" x2="28.805548700120376" y1="644" y2="644" />
<line x1="24.812347034401462" x2="24.812347034401462" y1="638" y2="650" />
<line x1="28.805548700120376" x2="28.805548700120376" y1="638" y2="650" />
</g>
</g>
</g>
</svg>
