<svg xmlns="http://www.w3.org/2000/svg" height="997" width="960.0" font-size="16" font-family="sans-serif" stroke-width="2">
<g transform="translate(10.0 0)">
<text fill="hsl(0, 100%, 40%)" y="22">Small Map.Hermes Decode 1.34 μs</text>
<g>
<title>1.34 μs ± 107 ns</title>
<rect y="28" rx="5" height="22" width="0.0018731401869446253" fill="hsl(0, 100%, 80%)" stroke="hsl(0, 100%, 55%)" />
<g stroke="hsl(0, 100%, 40%)"><line x1="0.0017235691391760681" x2="0.0020227112347131824" y1="39" y2="39" />
<line x1="0.0017235691391760681" x2="0.0017235691391760681" y1="33" y2="45" />
<line x1="0.0020227112347131824" x2="0.0020227112347131824" y1="33" y2="45" />
</g>
</g>
<text fill="hsl(20, 100%, 40%)" y="77">Small Map.Hermes DecodeWith 1.05 μs</text>
<g>
<title>1.05 μs ±  96 ns</title>
<rect y="83" rx="5" height="22" width="0.0014756887259806204" fill="hsl(20, 100%, 80%)" stroke="hsl(20, 100%, 55%)" />
<g stroke="hsl(20, 100%, 40%)"><line x1="0.0013407202296760224" x2="0.0016106572222852184" y1="94" y2="94" />
<line x1="0.0013407202296760224" x2="0.0013407202296760224" y1="88" y2="100" />
<line x1="0.0016106572222852184" x2="0.0016106572222852184" y1="88" y2="100" />
</g>
</g>
<text fill="hsl(40, 100%, 40%)" y="132">Small Map.Aeson Lazy 2.99 μs</text>
<g>
<title>2.99 μs ±  46 ns</title>
<rect y="138" rx="5" height="22" width="0.00418332128579921" fill="hsl(40, 100%, 80%)" stroke="hsl(40, 100%, 55%)" />
<g stroke="hsl(40, 100%, 40%)"><line x1="0.0041186664571676145" x2="0.004247976114430806" y1="149" y2="149" />
<line x1="0.0041186664571676145" x2="0.0041186664571676145" y1="143" y2="155" />
<line x1="0.004247976114430806" x2="0.004247976114430806" y1="143" y2="155" />
</g>
</g>
<text fill="hsl(60, 100%, 40%)" y="187">Small Map.Aeson Strict 3.00 μs</text>
<g>
<title>3.00 μs ± 214 ns</title>
<rect y="193" rx="5" height="22" width="0.004199445753855287" fill="hsl(60, 100%, 80%)" stroke="hsl(60, 100%, 55%)" />
<g stroke="hsl(60, 100%, 40%)"><line x1="0.003900188743805692" x2="0.0044987027639048814" y1="204" y2="204" />
<line x1="0.003900188743805692" x2="0.003900188743805692" y1="198" y2="210" />
<line x1="0.0044987027639048814" x2="0.0044987027639048814" y1="198" y2="210" />
</g>
</g>
<text fill="hsl(80, 100%, 40%)" y="242">Small Map.Waargonaut Attoparsec 65.2 μs</text>
<g>
<title>65.2 μs ± 5.3 μs</title>
<rect y="248" rx="5" height="22" width="0.09132346696882733" fill="hsl(80, 100%, 80%)" stroke="hsl(80, 100%, 55%)" />
<g stroke="hsl(80, 100%, 40%)"><line x1="0.08384467354020256" x2="0.0988022603974521" y1="259" y2="259" />
<line x1="0.08384467354020256" x2="0.08384467354020256" y1="253" y2="265" />
<line x1="0.0988022603974521" x2="0.0988022603974521" y1="253" y2="265" />
</g>
</g>
<text fill="hsl(100, 100%, 40%)" y="297">Full Persons Array.Ordered Keys.Hermes Decode 173  ms</text>
<g>
<title>173  ms ±  17 ms</title>
<rect y="303" rx="5" height="22" width="242.33345632478753" fill="hsl(100, 100%, 80%)" stroke="hsl(100, 100%, 55%)" />
<g stroke="hsl(100, 100%, 40%)"><line x1="218.50130631753797" x2="266.1656063320371" y1="314" y2="314" />
<line x1="218.50130631753797" x2="218.50130631753797" y1="308" y2="320" />
<line x1="266.1656063320371" x2="266.1656063320371" y1="308" y2="320" />
</g>
</g>
<text fill="hsl(120, 100%, 40%)" y="352">Full Persons Array.Ordered Keys.Hermes DecodeWith 171  ms</text>
<g>
<title>171  ms ± 9.5 ms</title>
<rect y="358" rx="5" height="22" width="239.04238092332122" fill="hsl(120, 100%, 80%)" stroke="hsl(120, 100%, 55%)" />
<g stroke="hsl(120, 100%, 40%)"><line x1="225.73705970320336" x2="252.34770214343908" y1="369" y2="369" />
<line x1="225.73705970320336" x2="225.73705970320336" y1="363" y2="375" />
<line x1="252.34770214343908" x2="252.34770214343908" y1="363" y2="375" />
</g>
</g>
<g fill="hsl(140, 100%, 40%)">
<text y="407">Full Persons Array.Ordered Keys.Aeson Lazy</text>
<text y="407" x="849.3495566794256" text-anchor="end">606  ms</text>
</g>
<g>
<title>606  ms ±  35 ms</title>
<rect y="413" rx="5" height="22" width="849.3495566794256" fill="hsl(140, 100%, 80%)" stroke="hsl(140, 100%, 55%)" />
<g stroke="hsl(140, 100%, 40%)"><line x1="800.4193082787021" x2="898.2798050801491" y1="424" y2="424" />
<line x1="800.4193082787021" x2="800.4193082787021" y1="418" y2="430" />
<line x1="898.2798050801491" x2="898.2798050801491" y1="418" y2="430" />
</g>
</g>
<g fill="hsl(160, 100%, 40%)">
<text y="462">Full Persons Array.Ordered Keys.Aeson Strict</text>
<text y="462" x="586.962698950716" text-anchor="end">419  ms</text>
</g>
<g>
<title>419  ms ±  24 ms</title>
<rect y="468" rx="5" height="22" width="586.962698950716" fill="hsl(160, 100%, 80%)" stroke="hsl(160, 100%, 55%)" />
<g stroke="hsl(160, 100%, 40%)"><line x1="552.9199761478943" x2="621.0054217535377" y1="479" y2="479" />
<line x1="552.9199761478943" x2="552.9199761478943" y1="473" y2="485" />
<line x1="621.0054217535377" x2="621.0054217535377" y1="473" y2="485" />
</g>
</g>
<text fill="hsl(180, 100%, 40%)" y="517">Full Persons Array.Unordered Keys.Hermes Decode 180  ms</text>
<g>
<title>180  ms ±  15 ms</title>
<rect y="523" rx="5" height="22" width="252.50521193417666" fill="hsl(180, 100%, 80%)" stroke="hsl(180, 100%, 55%)" />
<g stroke="hsl(180, 100%, 40%)"><line x1="231.5329444440515" x2="273.4774794243018" y1="534" y2="534" />
<line x1="231.5329444440515" x2="231.5329444440515" y1="528" y2="540" />
<line x1="273.4774794243018" x2="273.4774794243018" y1="528" y2="540" />
</g>
</g>
<text fill="hsl(200, 100%, 40%)" y="572">Full Persons Array.Unordered Keys.Hermes DecodeWith 180  ms</text>
<g>
<title>180  ms ±  12 ms</title>
<rect y="578" rx="5" height="22" width="251.7293803368516" fill="hsl(200, 100%, 80%)" stroke="hsl(200, 100%, 55%)" />
<g stroke="hsl(200, 100%, 40%)"><line x1="234.53396714878" x2="268.9247935249232" y1="589" y2="589" />
<line x1="234.53396714878" x2="234.53396714878" y1="583" y2="595" />
<line x1="268.9247935249232" x2="268.9247935249232" y1="583" y2="595" />
</g>
</g>
<g fill="hsl(220, 100%, 40%)">
<text y="627">Full Persons Array.Unordered Keys.Aeson Lazy</text>
<text y="627" x="921.6043353523879" text-anchor="end">658  ms</text>
</g>
<g>
<title>658  ms ±  13 ms</title>
<rect y="633" rx="5" height="22" width="921.6043353523879" fill="hsl(220, 100%, 80%)" stroke="hsl(220, 100%, 55%)" />
<g stroke="hsl(220, 100%, 40%)"><line x1="903.2086707047758" x2="940.0" y1="644" y2="644" />
<line x1="903.2086707047758" x2="903.2086707047758" y1="638" y2="650" />
<line x1="940.0" x2="940.0" y1="638" y2="650" />
</g>
</g>
<g fill="hsl(240, 100%, 40%)">
<text y="682">Full Persons Array.Unordered Keys.Aeson Strict</text>
<text y="682" x="710.0152582065614" text-anchor="end">507  ms</text>
</g>
<g>
<title>507  ms ±  32 ms</title>
<rect y="688" rx="5" height="22" width="710.0152582065614" fill="hsl(240, 100%, 80%)" stroke="hsl(240, 100%, 55%)" />
<g stroke="hsl(240, 100%, 40%)"><line x1="664.8179401852381" x2="755.2125762278847" y1="699" y2="699" />
<line x1="664.8179401852381" x2="664.8179401852381" y1="693" y2="705" />
<line x1="755.2125762278847" x2="755.2125762278847" y1="693" y2="705" />
</g>
</g>
<text fill="hsl(260, 100%, 40%)" y="737">Partial Twitter.Hermes Decode 613  μs</text>
<g>
<title>613  μs ±  51 μs</title>
<rect y="743" rx="5" height="22" width="0.8584714524619569" fill="hsl(260, 100%, 80%)" stroke="hsl(260, 100%, 55%)" />
<g stroke="hsl(260, 100%, 40%)"><line x1="0.786367240108553" x2="0.9305756648153608" y1="754" y2="754" />
<line x1="0.786367240108553" x2="0.786367240108553" y1="748" y2="760" />
<line x1="0.9305756648153608" x2="0.9305756648153608" y1="748" y2="760" />
</g>
</g>
<text fill="hsl(280, 100%, 40%)" y="792">Partial Twitter.Hermes DecodeWith 609  μs</text>
<g>
<title>609  μs ±  60 μs</title>
<rect y="798" rx="5" height="22" width="0.8541448650112141" fill="hsl(280, 100%, 80%)" stroke="hsl(280, 100%, 55%)" />
<g stroke="hsl(280, 100%, 40%)"><line x1="0.7701330819461248" x2="0.9381566480763034" y1="809" y2="809" />
<line x1="0.7701330819461248" x2="0.7701330819461248" y1="803" y2="815" />
<line x1="0.9381566480763034" x2="0.9381566480763034" y1="803" y2="815" />
</g>
</g>
<text fill="hsl(300, 100%, 40%)" y="847">Partial Twitter.Aeson Lazy 13.9 ms</text>
<g>
<title>13.9 ms ± 655 μs</title>
<rect y="853" rx="5" height="22" width="19.482068940283746" fill="hsl(300, 100%, 80%)" stroke="hsl(300, 100%, 55%)" />
<g stroke="hsl(300, 100%, 40%)"><line x1="18.563979477186717" x2="20.400158403380775" y1="864" y2="864" />
<line x1="18.563979477186717" x2="18.563979477186717" y1="858" y2="870" />
<line x1="20.400158403380775" x2="20.400158403380775" y1="858" y2="870" />
</g>
</g>
<text fill="hsl(320, 100%, 40%)" y="902">Partial Twitter.Aeson Strict 17.1 ms</text>
<g>
<title>17.1 ms ± 1.0 ms</title>
<rect y="908" rx="5" height="22" width="23.965997131305073" fill="hsl(320, 100%, 80%)" stroke="hsl(320, 100%, 55%)" />
<g stroke="hsl(320, 100%, 40%)"><line x1="22.51873981406498" x2="25.413254448545167" y1="919" y2="919" />
<line x1="22.51873981406498" x2="22.51873981406498" y1="913" y2="925" />
<line x1="25.413254448545167" x2="25.413254448545167" y1="913" y2="925" />
</g>
</g>
<text fill="hsl(340, 100%, 40%)" y="957">Partial Twitter.Waargonaut Attoparsec 7.99 ms</text>
<g>
<title>7.99 ms ± 794 μs</title>
<rect y="963" rx="5" height="22" width="11.198046750016546" fill="hsl(340, 100%, 80%)" stroke="hsl(340, 100%, 55%)" />
<g stroke="hsl(340, 100%, 40%)"><line x1="10.08580138147487" x2="12.310292118558223" y1="974" y2="974" />
<line x1="10.08580138147487" x2="10.08580138147487" y1="968" y2="980" />
<line x1="12.310292118558223" x2="12.310292118558223" y1="968" y2="980" />
</g>
</g>
</g>
</svg>
