<svg xmlns="http://www.w3.org/2000/svg" height="997" width="960.0" font-size="16" font-family="sans-serif" stroke-width="2">
<g transform="translate(10.0 0)">
<text fill="hsl(0, 100%, 40%)" y="22">Small Map Decode.Hermes Decode 1.75 μs</text>
<g>
<title>1.75 μs ±  51 ns</title>
<rect y="28" rx="5" height="22" width="0.0023916004993800605" fill="hsl(0, 100%, 80%)" stroke="hsl(0, 100%, 55%)" />
<g stroke="hsl(0, 100%, 40%)"><line x1="0.0023218033276230943" x2="0.0024613976711370267" y1="39" y2="39" />
<line x1="0.0023218033276230943" x2="0.0023218033276230943" y1="33" y2="45" />
<line x1="0.0024613976711370267" x2="0.0024613976711370267" y1="33" y2="45" />
</g>
</g>
<text fill="hsl(20, 100%, 40%)" y="77">Small Map Decode.Hermes DecodeWith 1.06 μs</text>
<g>
<title>1.06 μs ±  82 ns</title>
<rect y="83" rx="5" height="22" width="0.0014400473924394439" fill="hsl(20, 100%, 80%)" stroke="hsl(20, 100%, 55%)" />
<g stroke="hsl(20, 100%, 40%)"><line x1="0.0013279600624921005" x2="0.0015521347223867873" y1="94" y2="94" />
<line x1="0.0013279600624921005" x2="0.0013279600624921005" y1="88" y2="100" />
<line x1="0.0015521347223867873" x2="0.0015521347223867873" y1="88" y2="100" />
</g>
</g>
<text fill="hsl(40, 100%, 40%)" y="132">Small Map Decode.Aeson Decode Lazy 2.95 μs</text>
<g>
<title>2.95 μs ± 172 ns</title>
<rect y="138" rx="5" height="22" width="0.004023322817440251" fill="hsl(40, 100%, 80%)" stroke="hsl(40, 100%, 55%)" />
<g stroke="hsl(40, 100%, 40%)"><line x1="0.0037880989843221383" x2="0.004258546650558364" y1="149" y2="149" />
<line x1="0.0037880989843221383" x2="0.0037880989843221383" y1="143" y2="155" />
<line x1="0.004258546650558364" x2="0.004258546650558364" y1="143" y2="155" />
</g>
</g>
<text fill="hsl(60, 100%, 40%)" y="187">Small Map Decode.Aeson Decode Strict 2.98 μs</text>
<g>
<title>2.98 μs ± 170 ns</title>
<rect y="193" rx="5" height="22" width="0.00406912874563433" fill="hsl(60, 100%, 80%)" stroke="hsl(60, 100%, 55%)" />
<g stroke="hsl(60, 100%, 40%)"><line x1="0.0038376907067482874" x2="0.004300566784520374" y1="204" y2="204" />
<line x1="0.0038376907067482874" x2="0.0038376907067482874" y1="198" y2="210" />
<line x1="0.004300566784520374" x2="0.004300566784520374" y1="198" y2="210" />
</g>
</g>
<text fill="hsl(80, 100%, 40%)" y="242">Small Map Decode.Waargonaut Decode Attoparsec 62.9 μs</text>
<g>
<title>62.9 μs ± 6.1 μs</title>
<rect y="248" rx="5" height="22" width="0.08578298792880164" fill="hsl(80, 100%, 80%)" stroke="hsl(80, 100%, 55%)" />
<g stroke="hsl(80, 100%, 40%)"><line x1="0.07750349685602663" x2="0.09406247900157665" y1="259" y2="259" />
<line x1="0.07750349685602663" x2="0.07750349685602663" y1="253" y2="265" />
<line x1="0.09406247900157665" x2="0.09406247900157665" y1="253" y2="265" />
</g>
</g>
<text fill="hsl(100, 100%, 40%)" y="297">Full Decode Persons Array JSON.Ordered Keys.Hermes Decode 177  ms</text>
<g>
<title>177  ms ±  14 ms</title>
<rect y="303" rx="5" height="22" width="241.5635789622381" fill="hsl(100, 100%, 80%)" stroke="hsl(100, 100%, 55%)" />
<g stroke="hsl(100, 100%, 40%)"><line x1="222.55621084941123" x2="260.57094707506496" y1="314" y2="314" />
<line x1="222.55621084941123" x2="222.55621084941123" y1="308" y2="320" />
<line x1="260.57094707506496" x2="260.57094707506496" y1="308" y2="320" />
</g>
</g>
<text fill="hsl(120, 100%, 40%)" y="352">Full Decode Persons Array JSON.Ordered Keys.Hermes DecodeWith 166  ms</text>
<g>
<title>166  ms ± 7.5 ms</title>
<rect y="358" rx="5" height="22" width="226.03115365346173" fill="hsl(120, 100%, 80%)" stroke="hsl(120, 100%, 55%)" />
<g stroke="hsl(120, 100%, 40%)"><line x1="215.81980096577072" x2="236.24250634115273" y1="369" y2="369" />
<line x1="215.81980096577072" x2="215.81980096577072" y1="363" y2="375" />
<line x1="236.24250634115273" x2="236.24250634115273" y1="363" y2="375" />
</g>
</g>
<g fill="hsl(140, 100%, 40%)">
<text y="407">Full Decode Persons Array JSON.Ordered Keys.Aeson Decode Lazy</text>
<text y="407" x="862.3825194175051" text-anchor="end">632  ms</text>
</g>
<g>
<title>632  ms ±  31 ms</title>
<rect y="413" rx="5" height="22" width="862.3825194175051" fill="hsl(140, 100%, 80%)" stroke="hsl(140, 100%, 55%)" />
<g stroke="hsl(140, 100%, 40%)"><line x1="819.7356381513811" x2="905.0294006836292" y1="424" y2="424" />
<line x1="819.7356381513811" x2="819.7356381513811" y1="418" y2="430" />
<line x1="905.0294006836292" x2="905.0294006836292" y1="418" y2="430" />
</g>
</g>
<g fill="hsl(160, 100%, 40%)">
<text y="462">Full Decode Persons Array JSON.Ordered Keys.Aeson Decode Strict</text>
<text y="462" x="571.4345142654773" text-anchor="end">419  ms</text>
</g>
<g>
<title>419  ms ± 9.2 ms</title>
<rect y="468" rx="5" height="22" width="571.4345142654773" fill="hsl(160, 100%, 80%)" stroke="hsl(160, 100%, 55%)" />
<g stroke="hsl(160, 100%, 40%)"><line x1="558.9080880612794" x2="583.9609404696753" y1="479" y2="479" />
<line x1="558.9080880612794" x2="558.9080880612794" y1="473" y2="485" />
<line x1="583.9609404696753" x2="583.9609404696753" y1="473" y2="485" />
</g>
</g>
<text fill="hsl(180, 100%, 40%)" y="517">Full Decode Persons Array JSON.Unordered Keys.Hermes Decode 195  ms</text>
<g>
<title>195  ms ± 5.9 ms</title>
<rect y="523" rx="5" height="22" width="265.4052888352413" fill="hsl(180, 100%, 80%)" stroke="hsl(180, 100%, 55%)" />
<g stroke="hsl(180, 100%, 40%)"><line x1="257.4213816824016" x2="273.38919598808104" y1="534" y2="534" />
<line x1="257.4213816824016" x2="257.4213816824016" y1="528" y2="540" />
<line x1="273.38919598808104" x2="273.38919598808104" y1="528" y2="540" />
</g>
</g>
<text fill="hsl(200, 100%, 40%)" y="572">Full Decode Persons Array JSON.Unordered Keys.Hermes DecodeWith 182  ms</text>
<g>
<title>182  ms ± 3.7 ms</title>
<rect y="578" rx="5" height="22" width="248.40771670011935" fill="hsl(200, 100%, 80%)" stroke="hsl(200, 100%, 55%)" />
<g stroke="hsl(200, 100%, 40%)"><line x1="243.33725366084553" x2="253.47817973939317" y1="589" y2="589" />
<line x1="243.33725366084553" x2="243.33725366084553" y1="583" y2="595" />
<line x1="253.47817973939317" x2="253.47817973939317" y1="583" y2="595" />
</g>
</g>
<g fill="hsl(220, 100%, 40%)">
<text y="627">Full Decode Persons Array JSON.Unordered Keys.Aeson Decode Lazy</text>
<text y="627" x="903.8700570459777" text-anchor="end">663  ms</text>
</g>
<g>
<title>663  ms ±  26 ms</title>
<rect y="633" rx="5" height="22" width="903.8700570459777" fill="hsl(220, 100%, 80%)" stroke="hsl(220, 100%, 55%)" />
<g stroke="hsl(220, 100%, 40%)"><line x1="867.7401140919553" x2="940.0" y1="644" y2="644" />
<line x1="867.7401140919553" x2="867.7401140919553" y1="638" y2="650" />
<line x1="940.0" x2="940.0" y1="638" y2="650" />
</g>
</g>
<g fill="hsl(240, 100%, 40%)">
<text y="682">Full Decode Persons Array JSON.Unordered Keys.Aeson Decode Strict</text>
<text y="682" x="673.2494974186969" text-anchor="end">494  ms</text>
</g>
<g>
<title>494  ms ±  22 ms</title>
<rect y="688" rx="5" height="22" width="673.2494974186969" fill="hsl(240, 100%, 80%)" stroke="hsl(240, 100%, 55%)" />
<g stroke="hsl(240, 100%, 40%)"><line x1="643.7243220246729" x2="702.774672812721" y1="699" y2="699" />
<line x1="643.7243220246729" x2="643.7243220246729" y1="693" y2="705" />
<line x1="702.774672812721" x2="702.774672812721" y1="693" y2="705" />
</g>
</g>
<text fill="hsl(260, 100%, 40%)" y="737">Partial Decode Twitter JSON.Hermes Decode 747  μs</text>
<g>
<title>747  μs ±  43 μs</title>
<rect y="743" rx="5" height="22" width="1.0193281858983436" fill="hsl(260, 100%, 80%)" stroke="hsl(260, 100%, 55%)" />
<g stroke="hsl(260, 100%, 40%)"><line x1="0.9602837389472998" x2="1.0783726328493874" y1="754" y2="754" />
<line x1="0.9602837389472998" x2="0.9602837389472998" y1="748" y2="760" />
<line x1="1.0783726328493874" x2="1.0783726328493874" y1="748" y2="760" />
</g>
</g>
<text fill="hsl(280, 100%, 40%)" y="792">Partial Decode Twitter JSON.Hermes DecodeWith 662  μs</text>
<g>
<title>662  μs ±  45 μs</title>
<rect y="798" rx="5" height="22" width="0.9021557405897499" fill="hsl(280, 100%, 80%)" stroke="hsl(280, 100%, 55%)" />
<g stroke="hsl(280, 100%, 40%)"><line x1="0.8403553472659749" x2="0.9639561339135249" y1="809" y2="809" />
<line x1="0.8403553472659749" x2="0.8403553472659749" y1="803" y2="815" />
<line x1="0.9639561339135249" x2="0.9639561339135249" y1="803" y2="815" />
</g>
</g>
<text fill="hsl(300, 100%, 40%)" y="847">Partial Decode Twitter JSON.Aeson Decode Lazy 15.1 ms</text>
<g>
<title>15.1 ms ± 1.3 ms</title>
<rect y="853" rx="5" height="22" width="20.53557099698102" fill="hsl(300, 100%, 80%)" stroke="hsl(300, 100%, 55%)" />
<g stroke="hsl(300, 100%, 40%)"><line x1="18.821913263494526" x2="22.24922873046751" y1="864" y2="864" />
<line x1="18.821913263494526" x2="18.821913263494526" y1="858" y2="870" />
<line x1="22.24922873046751" x2="22.24922873046751" y1="858" y2="870" />
</g>
</g>
<text fill="hsl(320, 100%, 40%)" y="902">Partial Decode Twitter JSON.Aeson Decode Strict 17.1 ms</text>
<g>
<title>17.1 ms ± 1.3 ms</title>
<rect y="908" rx="5" height="22" width="23.280991675276873" fill="hsl(320, 100%, 80%)" stroke="hsl(320, 100%, 55%)" />
<g stroke="hsl(320, 100%, 40%)"><line x1="21.56493813682284" x2="24.997045213730907" y1="919" y2="919" />
<line x1="21.56493813682284" x2="21.56493813682284" y1="913" y2="925" />
<line x1="24.997045213730907" x2="24.997045213730907" y1="913" y2="925" />
</g>
</g>
<text fill="hsl(340, 100%, 40%)" y="957">Partial Decode Twitter JSON.Waargonaut Decode Attoparsec 7.86 ms</text>
<g>
<title>7.86 ms ± 507 μs</title>
<rect y="963" rx="5" height="22" width="10.71475626276854" fill="hsl(340, 100%, 80%)" stroke="hsl(340, 100%, 55%)" />
<g stroke="hsl(340, 100%, 40%)"><line x1="10.023747428136824" x2="11.405765097400257" y1="974" y2="974" />
<line x1="10.023747428136824" x2="10.023747428136824" y1="968" y2="980" />
<line x1="11.405765097400257" x2="11.405765097400257" y1="968" y2="980" />
</g>
</g>
</g>
</svg>
