<svg xmlns="http://www.w3.org/2000/svg" height="667" width="960.0" font-size="16" font-family="sans-serif" stroke-width="2">
<g transform="translate(10.0 0)">
<text fill="hsl(0, 100%, 40%)" y="22">Small Map.Hermes Decode 1.48 μs</text>
<g>
<title>1.48 μs ± 106 ns</title>
<rect y="28" rx="5" height="22" width="0.0027552639046388673" fill="hsl(0, 100%, 80%)" stroke="hsl(0, 100%, 55%)" />
<g stroke="hsl(0, 100%, 40%)"><line x1="0.0025580256491445105" x2="0.002952502160133224" y1="39" y2="39" />
<line x1="0.0025580256491445105" x2="0.0025580256491445105" y1="33" y2="45" />
<line x1="0.002952502160133224" x2="0.002952502160133224" y1="33" y2="45" />
</g>
</g>
<text fill="hsl(30, 100%, 40%)" y="77">Small Map.Aeson Lazy 3.09 μs</text>
<g>
<title>3.09 μs ± 192 ns</title>
<rect y="83" rx="5" height="22" width="0.005753751639043586" fill="hsl(30, 100%, 80%)" stroke="hsl(30, 100%, 55%)" />
<g stroke="hsl(30, 100%, 40%)"><line x1="0.005396716487443128" x2="0.006110786790644044" y1="94" y2="94" />
<line x1="0.005396716487443128" x2="0.005396716487443128" y1="88" y2="100" />
<line x1="0.006110786790644044" x2="0.006110786790644044" y1="88" y2="100" />
</g>
</g>
<text fill="hsl(60, 100%, 40%)" y="132">Small Map.Aeson Strict 2.95 μs</text>
<g>
<title>2.95 μs ± 208 ns</title>
<rect y="138" rx="5" height="22" width="0.005475185322518543" fill="hsl(60, 100%, 80%)" stroke="hsl(60, 100%, 55%)" />
<g stroke="hsl(60, 100%, 40%)"><line x1="0.005088003741730401" x2="0.005862366903306685" y1="149" y2="149" />
<line x1="0.005088003741730401" x2="0.005088003741730401" y1="143" y2="155" />
<line x1="0.005862366903306685" x2="0.005862366903306685" y1="143" y2="155" />
</g>
</g>
<text fill="hsl(90, 100%, 40%)" y="187">Full Persons Array.Ordered Keys.Hermes Decode 107  ms</text>
<g>
<title>107  ms ±  10 ms</title>
<rect y="193" rx="5" height="22" width="198.44827843138333" fill="hsl(90, 100%, 80%)" stroke="hsl(90, 100%, 55%)" />
<g stroke="hsl(90, 100%, 40%)"><line x1="179.53626454911802" x2="217.36029231364864" y1="204" y2="204" />
<line x1="179.53626454911802" x2="179.53626454911802" y1="198" y2="210" />
<line x1="217.36029231364864" x2="217.36029231364864" y1="198" y2="210" />
</g>
</g>
<g fill="hsl(120, 100%, 40%)">
<text y="242">Full Persons Array.Ordered Keys.Aeson Lazy</text>
<text y="242" x="858.3839337864765" text-anchor="end">462  ms</text>
</g>
<g>
<title>462  ms ±  44 ms</title>
<rect y="248" rx="5" height="22" width="858.3839337864765" fill="hsl(120, 100%, 80%)" stroke="hsl(120, 100%, 55%)" />
<g stroke="hsl(120, 100%, 40%)"><line x1="776.767867572953" x2="940.0" y1="259" y2="259" />
<line x1="776.767867572953" x2="776.767867572953" y1="253" y2="265" />
<line x1="940.0" x2="940.0" y1="253" y2="265" />
</g>
</g>
<g fill="hsl(150, 100%, 40%)">
<text y="297">Full Persons Array.Ordered Keys.Aeson Strict</text>
<text y="297" x="684.7702989641546" text-anchor="end">368  ms</text>
</g>
<g>
<title>368  ms ±  23 ms</title>
<rect y="303" rx="5" height="22" width="684.7702989641546" fill="hsl(150, 100%, 80%)" stroke="hsl(150, 100%, 55%)" />
<g stroke="hsl(150, 100%, 40%)"><line x1="641.5981382706208" x2="727.9424596576883" y1="314" y2="314" />
<line x1="641.5981382706208" x2="641.5981382706208" y1="308" y2="320" />
<line x1="727.9424596576883" x2="727.9424596576883" y1="308" y2="320" />
</g>
</g>
<text fill="hsl(180, 100%, 40%)" y="352">Full Persons Array.Unordered Keys.Hermes Decode 116  ms</text>
<g>
<title>116  ms ± 1.4 ms</title>
<rect y="358" rx="5" height="22" width="215.00715538323456" fill="hsl(180, 100%, 80%)" stroke="hsl(180, 100%, 55%)" />
<g stroke="hsl(180, 100%, 40%)"><line x1="212.48207813778794" x2="217.5322326286812" y1="369" y2="369" />
<line x1="212.48207813778794" x2="212.48207813778794" y1="363" y2="375" />
<line x1="217.5322326286812" x2="217.5322326286812" y1="363" y2="375" />
</g>
</g>
<g fill="hsl(210, 100%, 40%)">
<text y="407">Full Persons Array.Unordered Keys.Aeson Lazy</text>
<text y="407" x="855.9521386874316" text-anchor="end">460  ms</text>
</g>
<g>
<title>460  ms ±  45 ms</title>
<rect y="413" rx="5" height="22" width="855.9521386874316" fill="hsl(210, 100%, 80%)" stroke="hsl(210, 100%, 55%)" />
<g stroke="hsl(210, 100%, 40%)"><line x1="772.4446267382391" x2="939.459650636624" y1="424" y2="424" />
<line x1="772.4446267382391" x2="772.4446267382391" y1="418" y2="430" />
<line x1="939.459650636624" x2="939.459650636624" y1="418" y2="430" />
</g>
</g>
<g fill="hsl(240, 100%, 40%)">
<text y="462">Full Persons Array.Unordered Keys.Aeson Strict</text>
<text y="462" x="674.2359181816014" text-anchor="end">363  ms</text>
</g>
<g>
<title>363  ms ±  18 ms</title>
<rect y="468" rx="5" height="22" width="674.2359181816014" fill="hsl(240, 100%, 80%)" stroke="hsl(240, 100%, 55%)" />
<g stroke="hsl(240, 100%, 40%)"><line x1="641.6620617956792" x2="706.8097745675236" y1="479" y2="479" />
<line x1="641.6620617956792" x2="641.6620617956792" y1="473" y2="485" />
<line x1="706.8097745675236" x2="706.8097745675236" y1="473" y2="485" />
</g>
</g>
<text fill="hsl(270, 100%, 40%)" y="517">Partial Twitter.Hermes Decode 459  μs</text>
<g>
<title>459  μs ±  24 μs</title>
<rect y="523" rx="5" height="22" width="0.8530882338635764" fill="hsl(270, 100%, 80%)" stroke="hsl(270, 100%, 55%)" />
<g stroke="hsl(270, 100%, 40%)"><line x1="0.8085198280583101" x2="0.8976566396688426" y1="534" y2="534" />
<line x1="0.8085198280583101" x2="0.8085198280583101" y1="528" y2="540" />
<line x1="0.8976566396688426" x2="0.8976566396688426" y1="528" y2="540" />
</g>
</g>
<text fill="hsl(300, 100%, 40%)" y="572">Partial Twitter.Aeson Lazy 17.6 ms</text>
<g>
<title>17.6 ms ± 1.2 ms</title>
<rect y="578" rx="5" height="22" width="32.6328350377106" fill="hsl(300, 100%, 80%)" stroke="hsl(300, 100%, 55%)" />
<g stroke="hsl(300, 100%, 40%)"><line x1="30.32951439739707" x2="34.93615567802413" y1="589" y2="589" />
<line x1="30.32951439739707" x2="30.32951439739707" y1="583" y2="595" />
<line x1="34.93615567802413" x2="34.93615567802413" y1="583" y2="595" />
</g>
</g>
<text fill="hsl(330, 100%, 40%)" y="627">Partial Twitter.Aeson Strict 14.2 ms</text>
<g>
<title>14.2 ms ± 576 μs</title>
<rect y="633" rx="5" height="22" width="26.431947260962026" fill="hsl(330, 100%, 80%)" stroke="hsl(330, 100%, 55%)" />
<g stroke="hsl(330, 100%, 40%)"><line x1="25.361745102194075" x2="27.502149419729978" y1="644" y2="644" />
<line x1="25.361745102194075" x2="25.361745102194075" y1="638" y2="650" />
<line x1="27.502149419729978" x2="27.502149419729978" y1="638" y2="650" />
</g>
</g>
</g>
</svg>
