<svg xmlns="http://www.w3.org/2000/svg" height="997" width="960.0" font-size="16" font-family="sans-serif" stroke-width="2">
<g transform="translate(10.0 0)">
<text fill="hsl(0, 100%, 40%)" y="22">Small Map.Hermes Decode 1.43 μs</text>
<g>
<title>1.43 μs ±  93 ns</title>
<rect y="28" rx="5" height="22" width="0.001921118617091628" fill="hsl(0, 100%, 80%)" stroke="hsl(0, 100%, 55%)" />
<g stroke="hsl(0, 100%, 40%)"><line x1="0.0017961250250199186" x2="0.0020461122091633374" y1="39" y2="39" />
<line x1="0.0017961250250199186" x2="0.0017961250250199186" y1="33" y2="45" />
<line x1="0.0020461122091633374" x2="0.0020461122091633374" y1="33" y2="45" />
</g>
</g>
<text fill="hsl(20, 100%, 40%)" y="77">Small Map.Hermes DecodeWith 1.03 μs</text>
<g>
<title>1.03 μs ±  96 ns</title>
<rect y="83" rx="5" height="22" width="0.0013902611793400496" fill="hsl(20, 100%, 80%)" stroke="hsl(20, 100%, 55%)" />
<g stroke="hsl(20, 100%, 40%)"><line x1="0.001260236568225937" x2="0.001520285790454162" y1="94" y2="94" />
<line x1="0.001260236568225937" x2="0.001260236568225937" y1="88" y2="100" />
<line x1="0.001520285790454162" x2="0.001520285790454162" y1="88" y2="100" />
</g>
</g>
<text fill="hsl(40, 100%, 40%)" y="132">Small Map.Aeson Lazy 3.05 μs</text>
<g>
<title>3.05 μs ± 235 ns</title>
<rect y="138" rx="5" height="22" width="0.004105298057842544" fill="hsl(40, 100%, 80%)" stroke="hsl(40, 100%, 55%)" />
<g stroke="hsl(40, 100%, 40%)"><line x1="0.0037887590655304873" x2="0.0044218370501546015" y1="149" y2="149" />
<line x1="0.0037887590655304873" x2="0.0037887590655304873" y1="143" y2="155" />
<line x1="0.0044218370501546015" x2="0.0044218370501546015" y1="143" y2="155" />
</g>
</g>
<text fill="hsl(60, 100%, 40%)" y="187">Small Map.Aeson Strict 3.01 μs</text>
<g>
<title>3.01 μs ± 179 ns</title>
<rect y="193" rx="5" height="22" width="0.004060593166769615" fill="hsl(60, 100%, 80%)" stroke="hsl(60, 100%, 55%)" />
<g stroke="hsl(60, 100%, 40%)"><line x1="0.0038190530258522676" x2="0.004302133307686962" y1="204" y2="204" />
<line x1="0.0038190530258522676" x2="0.0038190530258522676" y1="198" y2="210" />
<line x1="0.004302133307686962" x2="0.004302133307686962" y1="198" y2="210" />
</g>
</g>
<text fill="hsl(80, 100%, 40%)" y="242">Small Map.Waargonaut Attoparsec 64.5 μs</text>
<g>
<title>64.5 μs ± 4.9 μs</title>
<rect y="248" rx="5" height="22" width="0.08690343010385232" fill="hsl(80, 100%, 80%)" stroke="hsl(80, 100%, 55%)" />
<g stroke="hsl(80, 100%, 40%)"><line x1="0.08030417286521867" x2="0.09350268734248597" y1="259" y2="259" />
<line x1="0.08030417286521867" x2="0.08030417286521867" y1="253" y2="265" />
<line x1="0.09350268734248597" x2="0.09350268734248597" y1="253" y2="265" />
</g>
</g>
<text fill="hsl(100, 100%, 40%)" y="297">Full Persons Array.Ordered Keys.Hermes Decode 154  ms</text>
<g>
<title>154  ms ± 1.5 ms</title>
<rect y="303" rx="5" height="22" width="207.48727170379144" fill="hsl(100, 100%, 80%)" stroke="hsl(100, 100%, 55%)" />
<g stroke="hsl(100, 100%, 40%)"><line x1="205.49647200086372" x2="209.47807140671915" y1="314" y2="314" />
<line x1="205.49647200086372" x2="205.49647200086372" y1="308" y2="320" />
<line x1="209.47807140671915" x2="209.47807140671915" y1="308" y2="320" />
</g>
</g>
<text fill="hsl(120, 100%, 40%)" y="352">Full Persons Array.Ordered Keys.Hermes DecodeWith 148  ms</text>
<g>
<title>148  ms ± 4.2 ms</title>
<rect y="358" rx="5" height="22" width="199.78665112885375" fill="hsl(120, 100%, 80%)" stroke="hsl(120, 100%, 55%)" />
<g stroke="hsl(120, 100%, 40%)"><line x1="194.13185409151086" x2="205.44144816619664" y1="369" y2="369" />
<line x1="194.13185409151086" x2="194.13185409151086" y1="363" y2="375" />
<line x1="205.44144816619664" x2="205.44144816619664" y1="363" y2="375" />
</g>
</g>
<g fill="hsl(140, 100%, 40%)">
<text y="407">Full Persons Array.Ordered Keys.Aeson Lazy</text>
<text y="407" x="845.9106904691319" text-anchor="end">627  ms</text>
</g>
<g>
<title>627  ms ±  32 ms</title>
<rect y="413" rx="5" height="22" width="845.9106904691319" fill="hsl(140, 100%, 80%)" stroke="hsl(140, 100%, 55%)" />
<g stroke="hsl(140, 100%, 40%)"><line x1="803.318078548666" x2="888.5033023895977" y1="424" y2="424" />
<line x1="803.318078548666" x2="803.318078548666" y1="418" y2="430" />
<line x1="888.5033023895977" x2="888.5033023895977" y1="418" y2="430" />
</g>
</g>
<g fill="hsl(160, 100%, 40%)">
<text y="462">Full Persons Array.Ordered Keys.Aeson Strict</text>
<text y="462" x="600.1668124346137" text-anchor="end">445  ms</text>
</g>
<g>
<title>445  ms ±  27 ms</title>
<rect y="468" rx="5" height="22" width="600.1668124346137" fill="hsl(160, 100%, 80%)" stroke="hsl(160, 100%, 55%)" />
<g stroke="hsl(160, 100%, 40%)"><line x1="563.5680409794982" x2="636.7655838897292" y1="479" y2="479" />
<line x1="563.5680409794982" x2="563.5680409794982" y1="473" y2="485" />
<line x1="636.7655838897292" x2="636.7655838897292" y1="473" y2="485" />
</g>
</g>
<text fill="hsl(180, 100%, 40%)" y="517">Full Persons Array.Unordered Keys.Hermes Decode 171  ms</text>
<g>
<title>171  ms ±  17 ms</title>
<rect y="523" rx="5" height="22" width="230.18570899356465" fill="hsl(180, 100%, 80%)" stroke="hsl(180, 100%, 55%)" />
<g stroke="hsl(180, 100%, 40%)"><line x1="207.24481678287307" x2="253.12660120425622" y1="534" y2="534" />
<line x1="207.24481678287307" x2="207.24481678287307" y1="528" y2="540" />
<line x1="253.12660120425622" x2="253.12660120425622" y1="528" y2="540" />
</g>
</g>
<text fill="hsl(200, 100%, 40%)" y="572">Full Persons Array.Unordered Keys.Hermes DecodeWith 165  ms</text>
<g>
<title>165  ms ± 9.2 ms</title>
<rect y="578" rx="5" height="22" width="222.86473050408478" fill="hsl(200, 100%, 80%)" stroke="hsl(200, 100%, 55%)" />
<g stroke="hsl(200, 100%, 40%)"><line x1="210.50639062856095" x2="235.2230703796086" y1="589" y2="589" />
<line x1="210.50639062856095" x2="210.50639062856095" y1="583" y2="595" />
<line x1="235.2230703796086" x2="235.2230703796086" y1="583" y2="595" />
</g>
</g>
<g fill="hsl(220, 100%, 40%)">
<text y="627">Full Persons Array.Unordered Keys.Aeson Lazy</text>
<text y="627" x="892.1655225745034" text-anchor="end">662  ms</text>
</g>
<g>
<title>662  ms ±  35 ms</title>
<rect y="633" rx="5" height="22" width="892.1655225745034" fill="hsl(220, 100%, 80%)" stroke="hsl(220, 100%, 55%)" />
<g stroke="hsl(220, 100%, 40%)"><line x1="844.3310451490067" x2="940.0" y1="644" y2="644" />
<line x1="844.3310451490067" x2="844.3310451490067" y1="638" y2="650" />
<line x1="940.0" x2="940.0" y1="638" y2="650" />
</g>
</g>
<g fill="hsl(240, 100%, 40%)">
<text y="682">Full Persons Array.Unordered Keys.Aeson Strict</text>
<text y="682" x="668.520126607803" text-anchor="end">496  ms</text>
</g>
<g>
<title>496  ms ±  20 ms</title>
<rect y="688" rx="5" height="22" width="668.520126607803" fill="hsl(240, 100%, 80%)" stroke="hsl(240, 100%, 55%)" />
<g stroke="hsl(240, 100%, 40%)"><line x1="641.1233437514001" x2="695.916909464206" y1="699" y2="699" />
<line x1="641.1233437514001" x2="641.1233437514001" y1="693" y2="705" />
<line x1="695.916909464206" x2="695.916909464206" y1="693" y2="705" />
</g>
</g>
<text fill="hsl(260, 100%, 40%)" y="737">Partial Twitter.Hermes Decode 588  μs</text>
<g>
<title>588  μs ±  52 μs</title>
<rect y="743" rx="5" height="22" width="0.7929186294721162" fill="hsl(260, 100%, 80%)" stroke="hsl(260, 100%, 55%)" />
<g stroke="hsl(260, 100%, 40%)"><line x1="0.7231675677152059" x2="0.8626696912290266" y1="754" y2="754" />
<line x1="0.7231675677152059" x2="0.7231675677152059" y1="748" y2="760" />
<line x1="0.8626696912290266" x2="0.8626696912290266" y1="748" y2="760" />
</g>
</g>
<text fill="hsl(280, 100%, 40%)" y="792">Partial Twitter.Hermes DecodeWith 582  μs</text>
<g>
<title>582  μs ±  27 μs</title>
<rect y="798" rx="5" height="22" width="0.7846792330641423" fill="hsl(280, 100%, 80%)" stroke="hsl(280, 100%, 55%)" />
<g stroke="hsl(280, 100%, 40%)"><line x1="0.7476102533754465" x2="0.8217482127528382" y1="809" y2="809" />
<line x1="0.7476102533754465" x2="0.7476102533754465" y1="803" y2="815" />
<line x1="0.8217482127528382" x2="0.8217482127528382" y1="803" y2="815" />
</g>
</g>
<text fill="hsl(300, 100%, 40%)" y="847">Partial Twitter.Aeson Lazy 14.5 ms</text>
<g>
<title>14.5 ms ± 689 μs</title>
<rect y="853" rx="5" height="22" width="19.57148297979537" fill="hsl(300, 100%, 80%)" stroke="hsl(300, 100%, 55%)" />
<g stroke="hsl(300, 100%, 40%)"><line x1="18.641991241070187" x2="20.500974718520553" y1="864" y2="864" />
<line x1="18.641991241070187" x2="18.641991241070187" y1="858" y2="870" />
<line x1="20.500974718520553" x2="20.500974718520553" y1="858" y2="870" />
</g>
</g>
<text fill="hsl(320, 100%, 40%)" y="902">Partial Twitter.Aeson Strict 16.2 ms</text>
<g>
<title>16.2 ms ± 532 μs</title>
<rect y="908" rx="5" height="22" width="21.827872844465578" fill="hsl(320, 100%, 80%)" stroke="hsl(320, 100%, 55%)" />
<g stroke="hsl(320, 100%, 40%)"><line x1="21.111037298174463" x2="22.544708390756693" y1="919" y2="919" />
<line x1="21.111037298174463" x2="21.111037298174463" y1="913" y2="925" />
<line x1="22.544708390756693" x2="22.544708390756693" y1="913" y2="925" />
</g>
</g>
<text fill="hsl(340, 100%, 40%)" y="957">Partial Twitter.Waargonaut Attoparsec 8.20 ms</text>
<g>
<title>8.20 ms ±  48 μs</title>
<rect y="963" rx="5" height="22" width="11.053555915969795" fill="hsl(340, 100%, 80%)" stroke="hsl(340, 100%, 55%)" />
<g stroke="hsl(340, 100%, 40%)"><line x1="10.9890043180279" x2="11.11810751391169" y1="974" y2="974" />
<line x1="10.9890043180279" x2="10.9890043180279" y1="968" y2="980" />
<line x1="11.11810751391169" x2="11.11810751391169" y1="968" y2="980" />
</g>
</g>
</g>
</svg>
