<svg xmlns="http://www.w3.org/2000/svg" height="997" width="960.0" font-size="16" font-family="sans-serif" stroke-width="2">
<g transform="translate(10.0 0)">
<text fill="hsl(0, 100%, 40%)" y="22">Small Map Decode.Hermes Decode 2.07 μs</text>
<g>
<title>2.07 μs ± 106 ns</title>
<rect y="28" rx="5" height="22" width="0.0028162482159552263" fill="hsl(0, 100%, 80%)" stroke="hsl(0, 100%, 55%)" />
<g stroke="hsl(0, 100%, 40%)"><line x1="0.0026724442235863" x2="0.0029600522083241525" y1="39" y2="39" />
<line x1="0.0026724442235863" x2="0.0026724442235863" y1="33" y2="45" />
<line x1="0.0029600522083241525" x2="0.0029600522083241525" y1="33" y2="45" />
</g>
</g>
<text fill="hsl(20, 100%, 40%)" y="77">Small Map Decode.Hermes DecodeWith 1.19 μs</text>
<g>
<title>1.19 μs ±  55 ns</title>
<rect y="83" rx="5" height="22" width="0.00161690325279499" fill="hsl(20, 100%, 80%)" stroke="hsl(20, 100%, 55%)" />
<g stroke="hsl(20, 100%, 40%)"><line x1="0.0015417809533756083" x2="0.0016920255522143719" y1="94" y2="94" />
<line x1="0.0015417809533756083" x2="0.0015417809533756083" y1="88" y2="100" />
<line x1="0.0016920255522143719" x2="0.0016920255522143719" y1="88" y2="100" />
</g>
</g>
<text fill="hsl(40, 100%, 40%)" y="132">Small Map Decode.Aeson Decode Lazy 3.14 μs</text>
<g>
<title>3.14 μs ± 176 ns</title>
<rect y="138" rx="5" height="22" width="0.004261799011381772" fill="hsl(40, 100%, 80%)" stroke="hsl(40, 100%, 55%)" />
<g stroke="hsl(40, 100%, 40%)"><line x1="0.004022543112330595" x2="0.0045010549104329495" y1="149" y2="149" />
<line x1="0.004022543112330595" x2="0.004022543112330595" y1="143" y2="155" />
<line x1="0.0045010549104329495" x2="0.0045010549104329495" y1="143" y2="155" />
</g>
</g>
<text fill="hsl(60, 100%, 40%)" y="187">Small Map Decode.Aeson Decode Strict 3.12 μs</text>
<g>
<title>3.12 μs ± 237 ns</title>
<rect y="193" rx="5" height="22" width="0.004241457180277016" fill="hsl(60, 100%, 80%)" stroke="hsl(60, 100%, 55%)" />
<g stroke="hsl(60, 100%, 40%)"><line x1="0.003919913094051319" x2="0.004563001266502713" y1="204" y2="204" />
<line x1="0.003919913094051319" x2="0.003919913094051319" y1="198" y2="210" />
<line x1="0.004563001266502713" x2="0.004563001266502713" y1="198" y2="210" />
</g>
</g>
<text fill="hsl(80, 100%, 40%)" y="242">Small Map Decode.Waargonaut Decode Attoparsec 63.5 μs</text>
<g>
<title>63.5 μs ± 4.3 μs</title>
<rect y="248" rx="5" height="22" width="0.0862456614182804" fill="hsl(80, 100%, 80%)" stroke="hsl(80, 100%, 55%)" />
<g stroke="hsl(80, 100%, 40%)"><line x1="0.08034278990228357" x2="0.09214853293427723" y1="259" y2="259" />
<line x1="0.08034278990228357" x2="0.08034278990228357" y1="253" y2="265" />
<line x1="0.09214853293427723" x2="0.09214853293427723" y1="253" y2="265" />
</g>
</g>
<text fill="hsl(100, 100%, 40%)" y="297">Full Decode Persons Array JSON.Ordered Keys.Hermes Decode 206  ms</text>
<g>
<title>206  ms ± 8.0 ms</title>
<rect y="303" rx="5" height="22" width="279.1310796179701" fill="hsl(100, 100%, 80%)" stroke="hsl(100, 100%, 55%)" />
<g stroke="hsl(100, 100%, 40%)"><line x1="268.2207407242404" x2="290.0414185116998" y1="314" y2="314" />
<line x1="268.2207407242404" x2="268.2207407242404" y1="308" y2="320" />
<line x1="290.0414185116998" x2="290.0414185116998" y1="308" y2="320" />
</g>
</g>
<text fill="hsl(120, 100%, 40%)" y="352">Full Decode Persons Array JSON.Ordered Keys.Hermes DecodeWith 179  ms</text>
<g>
<title>179  ms ± 9.5 ms</title>
<rect y="358" rx="5" height="22" width="243.76484417990758" fill="hsl(120, 100%, 80%)" stroke="hsl(120, 100%, 55%)" />
<g stroke="hsl(120, 100%, 40%)"><line x1="230.85613675300254" x2="256.6735516068126" y1="369" y2="369" />
<line x1="230.85613675300254" x2="230.85613675300254" y1="363" y2="375" />
<line x1="256.6735516068126" x2="256.6735516068126" y1="363" y2="375" />
</g>
</g>
<g fill="hsl(140, 100%, 40%)">
<text y="407">Full Decode Persons Array JSON.Ordered Keys.Aeson Decode Lazy</text>
<text y="407" x="798.822968756276" text-anchor="end">588  ms</text>
</g>
<g>
<title>588  ms ±  52 ms</title>
<rect y="413" rx="5" height="22" width="798.822968756276" fill="hsl(140, 100%, 80%)" stroke="hsl(140, 100%, 55%)" />
<g stroke="hsl(140, 100%, 40%)"><line x1="728.4774549170805" x2="869.1684825954716" y1="424" y2="424" />
<line x1="728.4774549170805" x2="728.4774549170805" y1="418" y2="430" />
<line x1="869.1684825954716" x2="869.1684825954716" y1="418" y2="430" />
</g>
</g>
<g fill="hsl(160, 100%, 40%)">
<text y="462">Full Decode Persons Array JSON.Ordered Keys.Aeson Decode Strict</text>
<text y="462" x="594.3018930486598" text-anchor="end">438  ms</text>
</g>
<g>
<title>438  ms ±  39 ms</title>
<rect y="468" rx="5" height="22" width="594.3018930486598" fill="hsl(160, 100%, 80%)" stroke="hsl(160, 100%, 55%)" />
<g stroke="hsl(160, 100%, 40%)"><line x1="541.6236604116311" x2="646.9801256856886" y1="479" y2="479" />
<line x1="541.6236604116311" x2="541.6236604116311" y1="473" y2="485" />
<line x1="646.9801256856886" x2="646.9801256856886" y1="473" y2="485" />
</g>
</g>
<text fill="hsl(180, 100%, 40%)" y="517">Full Decode Persons Array JSON.Unordered Keys.Hermes Decode 210  ms</text>
<g>
<title>210  ms ±  14 ms</title>
<rect y="523" rx="5" height="22" width="285.30515336468767" fill="hsl(180, 100%, 80%)" stroke="hsl(180, 100%, 55%)" />
<g stroke="hsl(180, 100%, 40%)"><line x1="266.11912298901524" x2="304.4911837403601" y1="534" y2="534" />
<line x1="266.11912298901524" x2="266.11912298901524" y1="528" y2="540" />
<line x1="304.4911837403601" x2="304.4911837403601" y1="528" y2="540" />
</g>
</g>
<text fill="hsl(200, 100%, 40%)" y="572">Full Decode Persons Array JSON.Unordered Keys.Hermes DecodeWith 203  ms</text>
<g>
<title>203  ms ± 2.2 ms</title>
<rect y="578" rx="5" height="22" width="276.0131272902742" fill="hsl(200, 100%, 80%)" stroke="hsl(200, 100%, 55%)" />
<g stroke="hsl(200, 100%, 40%)"><line x1="273.02801177290155" x2="278.9982428076469" y1="589" y2="589" />
<line x1="273.02801177290155" x2="273.02801177290155" y1="583" y2="595" />
<line x1="278.9982428076469" x2="278.9982428076469" y1="583" y2="595" />
</g>
</g>
<g fill="hsl(220, 100%, 40%)">
<text y="627">Full Decode Persons Array JSON.Unordered Keys.Aeson Decode Lazy</text>
<text y="627" x="919.3241883238936" text-anchor="end">677  ms</text>
</g>
<g>
<title>677  ms ±  15 ms</title>
<rect y="633" rx="5" height="22" width="919.3241883238936" fill="hsl(220, 100%, 80%)" stroke="hsl(220, 100%, 55%)" />
<g stroke="hsl(220, 100%, 40%)"><line x1="898.6483766477872" x2="940.0" y1="644" y2="644" />
<line x1="898.6483766477872" x2="898.6483766477872" y1="638" y2="650" />
<line x1="940.0" x2="940.0" y1="638" y2="650" />
</g>
</g>
<g fill="hsl(240, 100%, 40%)">
<text y="682">Full Decode Persons Array JSON.Unordered Keys.Aeson Decode Strict</text>
<text y="682" x="692.0289144933402" text-anchor="end">510  ms</text>
</g>
<g>
<title>510  ms ±  10 ms</title>
<rect y="688" rx="5" height="22" width="692.0289144933402" fill="hsl(240, 100%, 80%)" stroke="hsl(240, 100%, 55%)" />
<g stroke="hsl(240, 100%, 40%)"><line x1="678.3779780790132" x2="705.6798509076671" y1="699" y2="699" />
<line x1="678.3779780790132" x2="678.3779780790132" y1="693" y2="705" />
<line x1="705.6798509076671" x2="705.6798509076671" y1="693" y2="705" />
</g>
</g>
<text fill="hsl(260, 100%, 40%)" y="737">Partial Decode Twitter JSON.Hermes Decode 802  μs</text>
<g>
<title>802  μs ±  59 μs</title>
<rect y="743" rx="5" height="22" width="1.089958175531737" fill="hsl(260, 100%, 80%)" stroke="hsl(260, 100%, 55%)" />
<g stroke="hsl(260, 100%, 40%)"><line x1="1.0091705192770428" x2="1.170745831786431" y1="754" y2="754" />
<line x1="1.0091705192770428" x2="1.0091705192770428" y1="748" y2="760" />
<line x1="1.170745831786431" x2="1.170745831786431" y1="748" y2="760" />
</g>
</g>
<text fill="hsl(280, 100%, 40%)" y="792">Partial Decode Twitter JSON.Hermes DecodeWith 713  μs</text>
<g>
<title>713  μs ±  44 μs</title>
<rect y="798" rx="5" height="22" width="0.9686199421087685" fill="hsl(280, 100%, 80%)" stroke="hsl(280, 100%, 55%)" />
<g stroke="hsl(280, 100%, 40%)"><line x1="0.9091966033029548" x2="1.028043280914582" y1="809" y2="809" />
<line x1="0.9091966033029548" x2="0.9091966033029548" y1="803" y2="815" />
<line x1="1.028043280914582" x2="1.028043280914582" y1="803" y2="815" />
</g>
</g>
<text fill="hsl(300, 100%, 40%)" y="847">Partial Decode Twitter JSON.Aeson Decode Lazy 14.1 ms</text>
<g>
<title>14.1 ms ± 747 μs</title>
<rect y="853" rx="5" height="22" width="19.113389628887088" fill="hsl(300, 100%, 80%)" stroke="hsl(300, 100%, 55%)" />
<g stroke="hsl(300, 100%, 40%)"><line x1="18.09860030388105" x2="20.128178953893126" y1="864" y2="864" />
<line x1="18.09860030388105" x2="18.09860030388105" y1="858" y2="870" />
<line x1="20.128178953893126" x2="20.128178953893126" y1="858" y2="870" />
</g>
</g>
<text fill="hsl(320, 100%, 40%)" y="902">Partial Decode Twitter JSON.Aeson Decode Strict 17.6 ms</text>
<g>
<title>17.6 ms ± 677 μs</title>
<rect y="908" rx="5" height="22" width="23.879473424291753" fill="hsl(320, 100%, 80%)" stroke="hsl(320, 100%, 55%)" />
<g stroke="hsl(320, 100%, 40%)"><line x1="22.959577414423457" x2="24.79936943416005" y1="919" y2="919" />
<line x1="22.959577414423457" x2="22.959577414423457" y1="913" y2="925" />
<line x1="24.79936943416005" x2="24.79936943416005" y1="913" y2="925" />
</g>
</g>
<text fill="hsl(340, 100%, 40%)" y="957">Partial Decode Twitter JSON.Waargonaut Decode Attoparsec 8.45 ms</text>
<g>
<title>8.45 ms ± 817 μs</title>
<rect y="963" rx="5" height="22" width="11.474270673477042" fill="hsl(340, 100%, 80%)" stroke="hsl(340, 100%, 55%)" />
<g stroke="hsl(340, 100%, 40%)"><line x1="10.364596690529726" x2="12.583944656424357" y1="974" y2="974" />
<line x1="10.364596690529726" x2="10.364596690529726" y1="968" y2="980" />
<line x1="12.583944656424357" x2="12.583944656424357" y1="968" y2="980" />
</g>
</g>
</g>
</svg>
