<svg xmlns="http://www.w3.org/2000/svg" height="997" width="960.0" font-size="16" font-family="sans-serif" stroke-width="2">
<g transform="translate(10.0 0)">
<text fill="hsl(0, 100%, 40%)" y="22">Small Map.Hermes Decode 1.35 μs</text>
<g>
<title>1.35 μs ±  83 ns</title>
<rect y="28" rx="5" height="22" width="0.0018366057000992198" fill="hsl(0, 100%, 80%)" stroke="hsl(0, 100%, 55%)" />
<g stroke="hsl(0, 100%, 40%)"><line x1="0.0017237026964624074" x2="0.001949508703736032" y1="39" y2="39" />
<line x1="0.0017237026964624074" x2="0.0017237026964624074" y1="33" y2="45" />
<line x1="0.001949508703736032" x2="0.001949508703736032" y1="33" y2="45" />
</g>
</g>
<text fill="hsl(20, 100%, 40%)" y="77">Small Map.Hermes DecodeWith 1.02 μs</text>
<g>
<title>1.02 μs ±  63 ns</title>
<rect y="83" rx="5" height="22" width="0.0013863791487707347" fill="hsl(20, 100%, 80%)" stroke="hsl(20, 100%, 55%)" />
<g stroke="hsl(20, 100%, 40%)"><line x1="0.001300847889982443" x2="0.0014719104075590266" y1="94" y2="94" />
<line x1="0.001300847889982443" x2="0.001300847889982443" y1="88" y2="100" />
<line x1="0.0014719104075590266" x2="0.0014719104075590266" y1="88" y2="100" />
</g>
</g>
<text fill="hsl(40, 100%, 40%)" y="132">Small Map.Aeson Lazy 2.96 μs</text>
<g>
<title>2.96 μs ± 174 ns</title>
<rect y="138" rx="5" height="22" width="0.004035205175558625" fill="hsl(40, 100%, 80%)" stroke="hsl(40, 100%, 55%)" />
<g stroke="hsl(40, 100%, 40%)"><line x1="0.0037982446923115276" x2="0.004272165658805722" y1="149" y2="149" />
<line x1="0.0037982446923115276" x2="0.0037982446923115276" y1="143" y2="155" />
<line x1="0.004272165658805722" x2="0.004272165658805722" y1="143" y2="155" />
</g>
</g>
<text fill="hsl(60, 100%, 40%)" y="187">Small Map.Aeson Strict 3.01 μs</text>
<g>
<title>3.01 μs ± 170 ns</title>
<rect y="193" rx="5" height="22" width="0.004089881977929812" fill="hsl(60, 100%, 80%)" stroke="hsl(60, 100%, 55%)" />
<g stroke="hsl(60, 100%, 40%)"><line x1="0.0038591438304746515" x2="0.004320620125384972" y1="204" y2="204" />
<line x1="0.0038591438304746515" x2="0.0038591438304746515" y1="198" y2="210" />
<line x1="0.004320620125384972" x2="0.004320620125384972" y1="198" y2="210" />
</g>
</g>
<text fill="hsl(80, 100%, 40%)" y="242">Small Map.Waargonaut Attoparsec 63.3 μs</text>
<g>
<title>63.3 μs ± 5.3 μs</title>
<rect y="248" rx="5" height="22" width="0.08611774523889605" fill="hsl(80, 100%, 80%)" stroke="hsl(80, 100%, 55%)" />
<g stroke="hsl(80, 100%, 40%)"><line x1="0.07885047621139048" x2="0.09338501426640163" y1="259" y2="259" />
<line x1="0.07885047621139048" x2="0.07885047621139048" y1="253" y2="265" />
<line x1="0.09338501426640163" x2="0.09338501426640163" y1="253" y2="265" />
</g>
</g>
<text fill="hsl(100, 100%, 40%)" y="297">Full Persons Array.Ordered Keys.Hermes Decode 173  ms</text>
<g>
<title>173  ms ±  16 ms</title>
<rect y="303" rx="5" height="22" width="235.553560591259" fill="hsl(100, 100%, 80%)" stroke="hsl(100, 100%, 55%)" />
<g stroke="hsl(100, 100%, 40%)"><line x1="213.21610731415547" x2="257.8910138683625" y1="314" y2="314" />
<line x1="213.21610731415547" x2="213.21610731415547" y1="308" y2="320" />
<line x1="257.8910138683625" x2="257.8910138683625" y1="308" y2="320" />
</g>
</g>
<text fill="hsl(120, 100%, 40%)" y="352">Full Persons Array.Ordered Keys.Hermes DecodeWith 169  ms</text>
<g>
<title>169  ms ± 7.4 ms</title>
<rect y="358" rx="5" height="22" width="230.0286163557191" fill="hsl(120, 100%, 80%)" stroke="hsl(120, 100%, 55%)" />
<g stroke="hsl(120, 100%, 40%)"><line x1="219.9020930948034" x2="240.15513961663478" y1="369" y2="369" />
<line x1="219.9020930948034" x2="219.9020930948034" y1="363" y2="375" />
<line x1="240.15513961663478" x2="240.15513961663478" y1="363" y2="375" />
</g>
</g>
<g fill="hsl(140, 100%, 40%)">
<text y="407">Full Persons Array.Ordered Keys.Aeson Lazy</text>
<text y="407" x="829.1620227064036" text-anchor="end">609  ms</text>
</g>
<g>
<title>609  ms ±  28 ms</title>
<rect y="413" rx="5" height="22" width="829.1620227064036" fill="hsl(140, 100%, 80%)" stroke="hsl(140, 100%, 55%)" />
<g stroke="hsl(140, 100%, 40%)"><line x1="791.6300541650128" x2="866.6939912477944" y1="424" y2="424" />
<line x1="791.6300541650128" x2="791.6300541650128" y1="418" y2="430" />
<line x1="866.6939912477944" x2="866.6939912477944" y1="418" y2="430" />
</g>
</g>
<g fill="hsl(160, 100%, 40%)">
<text y="462">Full Persons Array.Ordered Keys.Aeson Strict</text>
<text y="462" x="590.0246637204855" text-anchor="end">434  ms</text>
</g>
<g>
<title>434  ms ±  22 ms</title>
<rect y="468" rx="5" height="22" width="590.0246637204855" fill="hsl(160, 100%, 80%)" stroke="hsl(160, 100%, 55%)" />
<g stroke="hsl(160, 100%, 40%)"><line x1="559.5840945726075" x2="620.4652328683635" y1="479" y2="479" />
<line x1="559.5840945726075" x2="559.5840945726075" y1="473" y2="485" />
<line x1="620.4652328683635" x2="620.4652328683635" y1="473" y2="485" />
</g>
</g>
<text fill="hsl(180, 100%, 40%)" y="517">Full Persons Array.Unordered Keys.Hermes Decode 188  ms</text>
<g>
<title>188  ms ± 6.7 ms</title>
<rect y="523" rx="5" height="22" width="255.45775395824666" fill="hsl(180, 100%, 80%)" stroke="hsl(180, 100%, 55%)" />
<g stroke="hsl(180, 100%, 40%)"><line x1="246.3552423604113" x2="264.560265556082" y1="534" y2="534" />
<line x1="246.3552423604113" x2="246.3552423604113" y1="528" y2="540" />
<line x1="264.560265556082" x2="264.560265556082" y1="528" y2="540" />
</g>
</g>
<text fill="hsl(200, 100%, 40%)" y="572">Full Persons Array.Unordered Keys.Hermes DecodeWith 187  ms</text>
<g>
<title>187  ms ±  13 ms</title>
<rect y="578" rx="5" height="22" width="254.2038005958048" fill="hsl(200, 100%, 80%)" stroke="hsl(200, 100%, 55%)" />
<g stroke="hsl(200, 100%, 40%)"><line x1="236.89881833701023" x2="271.50878285459936" y1="589" y2="589" />
<line x1="236.89881833701023" x2="236.89881833701023" y1="583" y2="595" />
<line x1="271.50878285459936" x2="271.50878285459936" y1="583" y2="595" />
</g>
</g>
<g fill="hsl(220, 100%, 40%)">
<text y="627">Full Persons Array.Unordered Keys.Aeson Lazy</text>
<text y="627" x="881.2470292352937" text-anchor="end">648  ms</text>
</g>
<g>
<title>648  ms ±  43 ms</title>
<rect y="633" rx="5" height="22" width="881.2470292352937" fill="hsl(220, 100%, 80%)" stroke="hsl(220, 100%, 55%)" />
<g stroke="hsl(220, 100%, 40%)"><line x1="822.4940584705873" x2="940.0" y1="644" y2="644" />
<line x1="822.4940584705873" x2="822.4940584705873" y1="638" y2="650" />
<line x1="940.0" x2="940.0" y1="638" y2="650" />
</g>
</g>
<g fill="hsl(240, 100%, 40%)">
<text y="682">Full Persons Array.Unordered Keys.Aeson Strict</text>
<text y="682" x="656.240992507081" text-anchor="end">482  ms</text>
</g>
<g>
<title>482  ms ±  39 ms</title>
<rect y="688" rx="5" height="22" width="656.240992507081" fill="hsl(240, 100%, 80%)" stroke="hsl(240, 100%, 55%)" />
<g stroke="hsl(240, 100%, 40%)"><line x1="603.3500096974212" x2="709.1319753167409" y1="699" y2="699" />
<line x1="603.3500096974212" x2="603.3500096974212" y1="693" y2="705" />
<line x1="709.1319753167409" x2="709.1319753167409" y1="693" y2="705" />
</g>
</g>
<text fill="hsl(260, 100%, 40%)" y="737">Partial Twitter.Hermes Decode 609  μs</text>
<g>
<title>609  μs ±  42 μs</title>
<rect y="743" rx="5" height="22" width="0.8293313704070296" fill="hsl(260, 100%, 80%)" stroke="hsl(260, 100%, 55%)" />
<g stroke="hsl(260, 100%, 40%)"><line x1="0.771566773367103" x2="0.8870959674469563" y1="754" y2="754" />
<line x1="0.771566773367103" x2="0.771566773367103" y1="748" y2="760" />
<line x1="0.8870959674469563" x2="0.8870959674469563" y1="748" y2="760" />
</g>
</g>
<text fill="hsl(280, 100%, 40%)" y="792">Partial Twitter.Hermes DecodeWith 607  μs</text>
<g>
<title>607  μs ±  46 μs</title>
<rect y="798" rx="5" height="22" width="0.8260848762343473" fill="hsl(280, 100%, 80%)" stroke="hsl(280, 100%, 55%)" />
<g stroke="hsl(280, 100%, 40%)"><line x1="0.7634109896292341" x2="0.8887587628394605" y1="809" y2="809" />
<line x1="0.7634109896292341" x2="0.7634109896292341" y1="803" y2="815" />
<line x1="0.8887587628394605" x2="0.8887587628394605" y1="803" y2="815" />
</g>
</g>
<text fill="hsl(300, 100%, 40%)" y="847">Partial Twitter.Aeson Lazy 14.1 ms</text>
<g>
<title>14.1 ms ± 625 μs</title>
<rect y="853" rx="5" height="22" width="19.19570231763679" fill="hsl(300, 100%, 80%)" stroke="hsl(300, 100%, 55%)" />
<g stroke="hsl(300, 100%, 40%)"><line x1="18.34539963824508" x2="20.0460049970285" y1="864" y2="864" />
<line x1="18.34539963824508" x2="18.34539963824508" y1="858" y2="870" />
<line x1="20.0460049970285" x2="20.0460049970285" y1="858" y2="870" />
</g>
</g>
<text fill="hsl(320, 100%, 40%)" y="902">Partial Twitter.Aeson Strict 16.9 ms</text>
<g>
<title>16.9 ms ± 1.4 ms</title>
<rect y="908" rx="5" height="22" width="23.05373770948814" fill="hsl(320, 100%, 80%)" stroke="hsl(320, 100%, 55%)" />
<g stroke="hsl(320, 100%, 40%)"><line x1="21.156283390277544" x2="24.951192028698735" y1="919" y2="919" />
<line x1="21.156283390277544" x2="21.156283390277544" y1="913" y2="925" />
<line x1="24.951192028698735" x2="24.951192028698735" y1="913" y2="925" />
</g>
</g>
<text fill="hsl(340, 100%, 40%)" y="957">Partial Twitter.Waargonaut Attoparsec 7.78 ms</text>
<g>
<title>7.78 ms ± 432 μs</title>
<rect y="963" rx="5" height="22" width="10.591754368015664" fill="hsl(340, 100%, 80%)" stroke="hsl(340, 100%, 55%)" />
<g stroke="hsl(340, 100%, 40%)"><line x1="10.003254205144486" x2="11.180254530886842" y1="974" y2="974" />
<line x1="10.003254205144486" x2="10.003254205144486" y1="968" y2="980" />
<line x1="11.180254530886842" x2="11.180254530886842" y1="968" y2="980" />
</g>
</g>
</g>
</svg>
