<svg xmlns="http://www.w3.org/2000/svg" height="777" width="960.0" font-size="16" font-family="sans-serif" stroke-width="2">
<g transform="translate(10.0 0)">
<text fill="hsl(0, 100%, 40%)" y="22">1 Million 3-Arrays.Hermes [[Double]] 528  ms</text>
<g>
<title>528  ms ±  26 ms</title>
<rect y="28" rx="5" height="22" width="224.94864821338382" fill="hsl(0, 100%, 80%)" stroke="hsl(0, 100%, 55%)" />
<g stroke="hsl(0, 100%, 40%)"><line x1="213.90906397631676" x2="235.98823245045088" y1="39" y2="39" />
<line x1="213.90906397631676" x2="213.90906397631676" y1="33" y2="45" />
<line x1="235.98823245045088" x2="235.98823245045088" y1="33" y2="45" />
</g>
</g>
<g fill="hsl(25, 100%, 40%)">
<text y="77">1 Million 3-Arrays.Aeson [[Double]]</text>
<text y="77" x="841.849508500508" text-anchor="end">1.974 s</text>
</g>
<g>
<title>1.974 s ± 230 ms</title>
<rect y="83" rx="5" height="22" width="841.849508500508" fill="hsl(25, 100%, 80%)" stroke="hsl(25, 100%, 55%)" />
<g stroke="hsl(25, 100%, 40%)"><line x1="743.699017001016" x2="940.0" y1="94" y2="94" />
<line x1="743.699017001016" x2="743.699017001016" y1="88" y2="100" />
<line x1="940.0" x2="940.0" y1="88" y2="100" />
</g>
</g>
<text fill="hsl(51, 100%, 40%)" y="132">Small Object to Map.Hermes Decode 1.44 μs</text>
<g>
<title>1.44 μs ±  88 ns</title>
<rect y="138" rx="5" height="22" width="0.0006150467434729473" fill="hsl(51, 100%, 80%)" stroke="hsl(51, 100%, 55%)" />
<g stroke="hsl(51, 100%, 40%)"><line x1="0.0005776739108727027" x2="0.000652419576073192" y1="149" y2="149" />
<line x1="0.0005776739108727027" x2="0.0005776739108727027" y1="143" y2="155" />
<line x1="0.000652419576073192" x2="0.000652419576073192" y1="143" y2="155" />
</g>
</g>
<text fill="hsl(77, 100%, 40%)" y="187">Small Object to Map.Aeson Lazy 3.04 μs</text>
<g>
<title>3.04 μs ± 264 ns</title>
<rect y="193" rx="5" height="22" width="0.0012958560443674853" fill="hsl(77, 100%, 80%)" stroke="hsl(77, 100%, 55%)" />
<g stroke="hsl(77, 100%, 40%)"><line x1="0.0011832505902329828" x2="0.001408461498501988" y1="204" y2="204" />
<line x1="0.0011832505902329828" x2="0.0011832505902329828" y1="198" y2="210" />
<line x1="0.001408461498501988" x2="0.001408461498501988" y1="198" y2="210" />
</g>
</g>
<text fill="hsl(102, 100%, 40%)" y="242">Small Object to Map.Aeson Strict 2.98 μs</text>
<g>
<title>2.98 μs ± 195 ns</title>
<rect y="248" rx="5" height="22" width="0.0012727691119863722" fill="hsl(102, 100%, 80%)" stroke="hsl(102, 100%, 55%)" />
<g stroke="hsl(102, 100%, 40%)"><line x1="0.001189503842977918" x2="0.0013560343809948265" y1="259" y2="259" />
<line x1="0.001189503842977918" x2="0.001189503842977918" y1="253" y2="265" />
<line x1="0.0013560343809948265" x2="0.0013560343809948265" y1="253" y2="265" />
</g>
</g>
<text fill="hsl(128, 100%, 40%)" y="297">Full Persons Array.Ordered Keys.Hermes Decode 109  ms</text>
<g>
<title>109  ms ± 2.1 ms</title>
<rect y="303" rx="5" height="22" width="46.27974079536912" fill="hsl(128, 100%, 80%)" stroke="hsl(128, 100%, 55%)" />
<g stroke="hsl(128, 100%, 40%)"><line x1="45.39659700847226" x2="47.16288458226598" y1="314" y2="314" />
<line x1="45.39659700847226" x2="45.39659700847226" y1="308" y2="320" />
<line x1="47.16288458226598" x2="47.16288458226598" y1="308" y2="320" />
</g>
</g>
<text fill="hsl(154, 100%, 40%)" y="352">Full Persons Array.Ordered Keys.Aeson Lazy 459  ms</text>
<g>
<title>459  ms ±  43 ms</title>
<rect y="358" rx="5" height="22" width="195.63656980609835" fill="hsl(154, 100%, 80%)" stroke="hsl(154, 100%, 55%)" />
<g stroke="hsl(154, 100%, 40%)"><line x1="177.29046348648342" x2="213.98267612571328" y1="369" y2="369" />
<line x1="177.29046348648342" x2="177.29046348648342" y1="363" y2="375" />
<line x1="213.98267612571328" x2="213.98267612571328" y1="363" y2="375" />
</g>
</g>
<text fill="hsl(180, 100%, 40%)" y="407">Full Persons Array.Ordered Keys.Aeson Strict 360  ms</text>
<g>
<title>360  ms ±  34 ms</title>
<rect y="413" rx="5" height="22" width="153.59193084353345" fill="hsl(180, 100%, 80%)" stroke="hsl(180, 100%, 55%)" />
<g stroke="hsl(180, 100%, 40%)"><line x1="139.00361827214996" x2="168.18024341491693" y1="424" y2="424" />
<line x1="139.00361827214996" x2="139.00361827214996" y1="418" y2="430" />
<line x1="168.18024341491693" x2="168.18024341491693" y1="418" y2="430" />
</g>
</g>
<text fill="hsl(205, 100%, 40%)" y="462">Full Persons Array.Unordered Keys.Hermes Decode 117  ms</text>
<g>
<title>117  ms ± 2.8 ms</title>
<rect y="468" rx="5" height="22" width="49.99516027033596" fill="hsl(205, 100%, 80%)" stroke="hsl(205, 100%, 55%)" />
<g stroke="hsl(205, 100%, 40%)"><line x1="48.78922067547506" x2="51.20109986519686" y1="479" y2="479" />
<line x1="48.78922067547506" x2="48.78922067547506" y1="473" y2="485" />
<line x1="51.20109986519686" x2="51.20109986519686" y1="473" y2="485" />
</g>
</g>
<text fill="hsl(231, 100%, 40%)" y="517">Full Persons Array.Unordered Keys.Aeson Lazy 449  ms</text>
<g>
<title>449  ms ± 8.9 ms</title>
<rect y="523" rx="5" height="22" width="191.28169620196854" fill="hsl(231, 100%, 80%)" stroke="hsl(231, 100%, 55%)" />
<g stroke="hsl(231, 100%, 40%)"><line x1="187.46956377251186" x2="195.09382863142523" y1="534" y2="534" />
<line x1="187.46956377251186" x2="187.46956377251186" y1="528" y2="540" />
<line x1="195.09382863142523" x2="195.09382863142523" y1="528" y2="540" />
</g>
</g>
<text fill="hsl(257, 100%, 40%)" y="572">Full Persons Array.Unordered Keys.Aeson Strict 359  ms</text>
<g>
<title>359  ms ±  31 ms</title>
<rect y="578" rx="5" height="22" width="153.01563149696682" fill="hsl(257, 100%, 80%)" stroke="hsl(257, 100%, 55%)" />
<g stroke="hsl(257, 100%, 40%)"><line x1="139.64940045686157" x2="166.38186253707207" y1="589" y2="589" />
<line x1="139.64940045686157" x2="139.64940045686157" y1="583" y2="595" />
<line x1="166.38186253707207" x2="166.38186253707207" y1="583" y2="595" />
</g>
</g>
<text fill="hsl(282, 100%, 40%)" y="627">Partial Twitter.Hermes Decode 457  μs</text>
<g>
<title>457  μs ±  24 μs</title>
<rect y="633" rx="5" height="22" width="0.19508015124071001" fill="hsl(282, 100%, 80%)" stroke="hsl(282, 100%, 55%)" />
<g stroke="hsl(282, 100%, 40%)"><line x1="0.18502578813787254" x2="0.20513451434354749" y1="644" y2="644" />
<line x1="0.18502578813787254" x2="0.18502578813787254" y1="638" y2="650" />
<line x1="0.20513451434354749" x2="0.20513451434354749" y1="638" y2="650" />
</g>
</g>
<text fill="hsl(308, 100%, 40%)" y="682">Partial Twitter.Aeson Lazy 17.0 ms</text>
<g>
<title>17.0 ms ± 1.1 ms</title>
<rect y="688" rx="5" height="22" width="7.2513203441365786" fill="hsl(308, 100%, 80%)" stroke="hsl(308, 100%, 55%)" />
<g stroke="hsl(308, 100%, 40%)"><line x1="6.777137728668772" x2="7.725502959604385" y1="699" y2="699" />
<line x1="6.777137728668772" x2="6.777137728668772" y1="693" y2="705" />
<line x1="7.725502959604385" x2="7.725502959604385" y1="693" y2="705" />
</g>
</g>
<text fill="hsl(334, 100%, 40%)" y="737">Partial Twitter.Aeson Strict 14.2 ms</text>
<g>
<title>14.2 ms ± 444 μs</title>
<rect y="743" rx="5" height="22" width="6.037035476688015" fill="hsl(334, 100%, 80%)" stroke="hsl(334, 100%, 55%)" />
<g stroke="hsl(334, 100%, 40%)"><line x1="5.847860678593038" x2="6.226210274782992" y1="754" y2="754" />
<line x1="5.847860678593038" x2="5.847860678593038" y1="748" y2="760" />
<line x1="6.226210274782992" x2="6.226210274782992" y1="748" y2="760" />
</g>
</g>
</g>
</svg>
