<svg xmlns="http://www.w3.org/2000/svg" height="997" width="960.0" font-size="16" font-family="sans-serif" stroke-width="2">
<g transform="translate(10.0 0)">
<text fill="hsl(0, 100%, 40%)" y="22">Small Map Decode.Hermes Decode 1.74 μs</text>
<g>
<title>1.74 μs ± 100 ns</title>
<rect y="28" rx="5" height="22" width="0.0022454942003983644" fill="hsl(0, 100%, 80%)" stroke="hsl(0, 100%, 55%)" />
<g stroke="hsl(0, 100%, 40%)"><line x1="0.0021170461744845414" x2="0.0023739422263121873" y1="39" y2="39" />
<line x1="0.0021170461744845414" x2="0.0021170461744845414" y1="33" y2="45" />
<line x1="0.0023739422263121873" x2="0.0023739422263121873" y1="33" y2="45" />
</g>
</g>
<text fill="hsl(20, 100%, 40%)" y="77">Small Map Decode.Hermes DecodeWith 1.06 μs</text>
<g>
<title>1.06 μs ±  45 ns</title>
<rect y="83" rx="5" height="22" width="0.0013617701861958298" fill="hsl(20, 100%, 80%)" stroke="hsl(20, 100%, 55%)" />
<g stroke="hsl(20, 100%, 40%)"><line x1="0.0013040109177747507" x2="0.001419529454616909" y1="94" y2="94" />
<line x1="0.0013040109177747507" x2="0.0013040109177747507" y1="88" y2="100" />
<line x1="0.001419529454616909" x2="0.001419529454616909" y1="88" y2="100" />
</g>
</g>
<text fill="hsl(40, 100%, 40%)" y="132">Small Map Decode.Aeson Decode Lazy 2.98 μs</text>
<g>
<title>2.98 μs ± 171 ns</title>
<rect y="138" rx="5" height="22" width="0.0038389784373093387" fill="hsl(40, 100%, 80%)" stroke="hsl(40, 100%, 55%)" />
<g stroke="hsl(40, 100%, 40%)"><line x1="0.0036193521589773393" x2="0.004058604715641338" y1="149" y2="149" />
<line x1="0.0036193521589773393" x2="0.0036193521589773393" y1="143" y2="155" />
<line x1="0.004058604715641338" x2="0.004058604715641338" y1="143" y2="155" />
</g>
</g>
<text fill="hsl(60, 100%, 40%)" y="187">Small Map Decode.Aeson Decode Strict 3.00 μs</text>
<g>
<title>3.00 μs ± 178 ns</title>
<rect y="193" rx="5" height="22" width="0.003864876026309939" fill="hsl(60, 100%, 80%)" stroke="hsl(60, 100%, 55%)" />
<g stroke="hsl(60, 100%, 40%)"><line x1="0.003635190332630127" x2="0.004094561719989752" y1="204" y2="204" />
<line x1="0.003635190332630127" x2="0.003635190332630127" y1="198" y2="210" />
<line x1="0.004094561719989752" x2="0.004094561719989752" y1="198" y2="210" />
</g>
</g>
<text fill="hsl(80, 100%, 40%)" y="242">Small Map Decode.Waargonaut Decode Attoparsec 61.7 μs</text>
<g>
<title>61.7 μs ± 5.8 μs</title>
<rect y="248" rx="5" height="22" width="0.07941232212284727" fill="hsl(80, 100%, 80%)" stroke="hsl(80, 100%, 55%)" />
<g stroke="hsl(80, 100%, 40%)"><line x1="0.07192317234028645" x2="0.08690147190540809" y1="259" y2="259" />
<line x1="0.07192317234028645" x2="0.07192317234028645" y1="253" y2="265" />
<line x1="0.08690147190540809" x2="0.08690147190540809" y1="253" y2="265" />
</g>
</g>
<text fill="hsl(100, 100%, 40%)" y="297">Full Decode Persons Array.Ordered Keys.Hermes Decode 170  ms</text>
<g>
<title>170  ms ± 5.7 ms</title>
<rect y="303" rx="5" height="22" width="219.22798224218616" fill="hsl(100, 100%, 80%)" stroke="hsl(100, 100%, 55%)" />
<g stroke="hsl(100, 100%, 40%)"><line x1="211.90080481025112" x2="226.5551596741212" y1="314" y2="314" />
<line x1="211.90080481025112" x2="211.90080481025112" y1="308" y2="320" />
<line x1="226.5551596741212" x2="226.5551596741212" y1="308" y2="320" />
</g>
</g>
<text fill="hsl(120, 100%, 40%)" y="352">Full Decode Persons Array.Ordered Keys.Hermes DecodeWith 162  ms</text>
<g>
<title>162  ms ± 9.5 ms</title>
<rect y="358" rx="5" height="22" width="207.90577396765573" fill="hsl(120, 100%, 80%)" stroke="hsl(120, 100%, 55%)" />
<g stroke="hsl(120, 100%, 40%)"><line x1="195.6852485355292" x2="220.12629939978225" y1="369" y2="369" />
<line x1="195.6852485355292" x2="195.6852485355292" y1="363" y2="375" />
<line x1="220.12629939978225" x2="220.12629939978225" y1="363" y2="375" />
</g>
</g>
<g fill="hsl(140, 100%, 40%)">
<text y="407">Full Decode Persons Array.Ordered Keys.Aeson Decode Lazy</text>
<text y="407" x="758.7403508036755" text-anchor="end">590  ms</text>
</g>
<g>
<title>590  ms ±  58 ms</title>
<rect y="413" rx="5" height="22" width="758.7403508036755" fill="hsl(140, 100%, 80%)" stroke="hsl(140, 100%, 55%)" />
<g stroke="hsl(140, 100%, 40%)"><line x1="684.1428150307302" x2="833.3378865766208" y1="424" y2="424" />
<line x1="684.1428150307302" x2="684.1428150307302" y1="418" y2="430" />
<line x1="833.3378865766208" x2="833.3378865766208" y1="418" y2="430" />
</g>
</g>
<g fill="hsl(160, 100%, 40%)">
<text y="462">Full Decode Persons Array.Ordered Keys.Aeson Decode Strict</text>
<text y="462" x="556.4254287115336" text-anchor="end">432  ms</text>
</g>
<g>
<title>432  ms ±  30 ms</title>
<rect y="468" rx="5" height="22" width="556.4254287115336" fill="hsl(160, 100%, 80%)" stroke="hsl(160, 100%, 55%)" />
<g stroke="hsl(160, 100%, 40%)"><line x1="518.3262679264957" x2="594.5245894965716" y1="479" y2="479" />
<line x1="518.3262679264957" x2="518.3262679264957" y1="473" y2="485" />
<line x1="594.5245894965716" x2="594.5245894965716" y1="473" y2="485" />
</g>
</g>
<text fill="hsl(180, 100%, 40%)" y="517">Full Decode Persons Array.Unordered Keys.Hermes Decode 189  ms</text>
<g>
<title>189  ms ± 7.7 ms</title>
<rect y="523" rx="5" height="22" width="243.2654104377927" fill="hsl(180, 100%, 80%)" stroke="hsl(180, 100%, 55%)" />
<g stroke="hsl(180, 100%, 40%)"><line x1="233.35017895533014" x2="253.18064192025525" y1="534" y2="534" />
<line x1="233.35017895533014" x2="233.35017895533014" y1="528" y2="540" />
<line x1="253.18064192025525" x2="253.18064192025525" y1="528" y2="540" />
</g>
</g>
<text fill="hsl(200, 100%, 40%)" y="572">Full Decode Persons Array.Unordered Keys.Hermes DecodeWith 178  ms</text>
<g>
<title>178  ms ± 3.9 ms</title>
<rect y="578" rx="5" height="22" width="228.64412893154383" fill="hsl(200, 100%, 80%)" stroke="hsl(200, 100%, 55%)" />
<g stroke="hsl(200, 100%, 40%)"><line x1="223.5786443652159" x2="233.70961349787177" y1="589" y2="589" />
<line x1="223.5786443652159" x2="223.5786443652159" y1="583" y2="595" />
<line x1="233.70961349787177" x2="233.70961349787177" y1="583" y2="595" />
</g>
</g>
<g fill="hsl(220, 100%, 40%)">
<text y="627">Full Decode Persons Array.Unordered Keys.Aeson Decode Lazy</text>
<text y="627" x="855.0095685652542" text-anchor="end">664  ms</text>
</g>
<g>
<title>664  ms ±  66 ms</title>
<rect y="633" rx="5" height="22" width="855.0095685652542" fill="hsl(220, 100%, 80%)" stroke="hsl(220, 100%, 55%)" />
<g stroke="hsl(220, 100%, 40%)"><line x1="770.0191371305084" x2="940.0" y1="644" y2="644" />
<line x1="770.0191371305084" x2="770.0191371305084" y1="638" y2="650" />
<line x1="940.0" x2="940.0" y1="638" y2="650" />
</g>
</g>
<g fill="hsl(240, 100%, 40%)">
<text y="682">Full Decode Persons Array.Unordered Keys.Aeson Decode Strict</text>
<text y="682" x="650.6052019134627" text-anchor="end">506  ms</text>
</g>
<g>
<title>506  ms ±  34 ms</title>
<rect y="688" rx="5" height="22" width="650.6052019134627" fill="hsl(240, 100%, 80%)" stroke="hsl(240, 100%, 55%)" />
<g stroke="hsl(240, 100%, 40%)"><line x1="607.3703557789145" x2="693.8400480480109" y1="699" y2="699" />
<line x1="607.3703557789145" x2="607.3703557789145" y1="693" y2="705" />
<line x1="693.8400480480109" x2="693.8400480480109" y1="693" y2="705" />
</g>
</g>
<text fill="hsl(260, 100%, 40%)" y="737">Partial Decode Twitter.Hermes Decode 749  μs</text>
<g>
<title>749  μs ±  43 μs</title>
<rect y="743" rx="5" height="22" width="0.9639191740306196" fill="hsl(260, 100%, 80%)" stroke="hsl(260, 100%, 55%)" />
<g stroke="hsl(260, 100%, 40%)"><line x1="0.9084119276188748" x2="1.0194264204423642" y1="754" y2="754" />
<line x1="0.9084119276188748" x2="0.9084119276188748" y1="748" y2="760" />
<line x1="1.0194264204423642" x2="1.0194264204423642" y1="748" y2="760" />
</g>
</g>
<text fill="hsl(280, 100%, 40%)" y="792">Partial Decode Twitter.Hermes DecodeWith 660  μs</text>
<g>
<title>660  μs ±  44 μs</title>
<rect y="798" rx="5" height="22" width="0.8492180740829001" fill="hsl(280, 100%, 80%)" stroke="hsl(280, 100%, 55%)" />
<g stroke="hsl(280, 100%, 40%)"><line x1="0.7929673267073059" x2="0.9054688214584943" y1="809" y2="809" />
<line x1="0.7929673267073059" x2="0.7929673267073059" y1="803" y2="815" />
<line x1="0.9054688214584943" x2="0.9054688214584943" y1="803" y2="815" />
</g>
</g>
<text fill="hsl(300, 100%, 40%)" y="847">Partial Decode Twitter.Aeson Decode Lazy 14.5 ms</text>
<g>
<title>14.5 ms ± 1.1 ms</title>
<rect y="853" rx="5" height="22" width="18.714906365962648" fill="hsl(300, 100%, 80%)" stroke="hsl(300, 100%, 55%)" />
<g stroke="hsl(300, 100%, 40%)"><line x1="17.29413649379692" x2="20.135676238128376" y1="864" y2="864" />
<line x1="17.29413649379692" x2="17.29413649379692" y1="858" y2="870" />
<line x1="20.135676238128376" x2="20.135676238128376" y1="858" y2="870" />
</g>
</g>
<text fill="hsl(320, 100%, 40%)" y="902">Partial Decode Twitter.Aeson Decode Strict 17.2 ms</text>
<g>
<title>17.2 ms ± 1.2 ms</title>
<rect y="908" rx="5" height="22" width="22.10312727293964" fill="hsl(320, 100%, 80%)" stroke="hsl(320, 100%, 55%)" />
<g stroke="hsl(320, 100%, 40%)"><line x1="20.55965366396575" x2="23.646600881913532" y1="919" y2="919" />
<line x1="20.55965366396575" x2="20.55965366396575" y1="913" y2="925" />
<line x1="23.646600881913532" x2="23.646600881913532" y1="913" y2="925" />
</g>
</g>
<text fill="hsl(340, 100%, 40%)" y="957">Partial Decode Twitter.Waargonaut Decode Attoparsec 7.79 ms</text>
<g>
<title>7.79 ms ± 421 μs</title>
<rect y="963" rx="5" height="22" width="10.023268474574012" fill="hsl(340, 100%, 80%)" stroke="hsl(340, 100%, 55%)" />
<g stroke="hsl(340, 100%, 40%)"><line x1="9.481971275504877" x2="10.564565673643147" y1="974" y2="974" />
<line x1="9.481971275504877" x2="9.481971275504877" y1="968" y2="980" />
<line x1="10.564565673643147" x2="10.564565673643147" y1="968" y2="980" />
</g>
</g>
</g>
</svg>
