<svg xmlns="http://www.w3.org/2000/svg" height="942" width="960.0" font-size="16" font-family="sans-serif" stroke-width="2">
<g transform="translate(10.0 0)">
<text fill="hsl(0, 100%, 40%)" y="22">Small Map Decode.Hermes Decode 1.75 μs</text>
<g>
<title>1.75 μs ± 103 ns</title>
<rect y="28" rx="5" height="22" width="0.002402407541650628" fill="hsl(0, 100%, 80%)" stroke="hsl(0, 100%, 55%)" />
<g stroke="hsl(0, 100%, 40%)"><line x1="0.002261041803174019" x2="0.002543773280127237" y1="39" y2="39" />
<line x1="0.002261041803174019" x2="0.002261041803174019" y1="33" y2="45" />
<line x1="0.002543773280127237" x2="0.002543773280127237" y1="33" y2="45" />
</g>
</g>
<text fill="hsl(21, 100%, 40%)" y="77">Small Map Decode.Aeson Decode Lazy 2.99 μs</text>
<g>
<title>2.99 μs ± 202 ns</title>
<rect y="83" rx="5" height="22" width="0.004112349328177678" fill="hsl(21, 100%, 80%)" stroke="hsl(21, 100%, 55%)" />
<g stroke="hsl(21, 100%, 40%)"><line x1="0.0038341836259948" x2="0.004390515030360556" y1="94" y2="94" />
<line x1="0.0038341836259948" x2="0.0038341836259948" y1="88" y2="100" />
<line x1="0.004390515030360556" x2="0.004390515030360556" y1="88" y2="100" />
</g>
</g>
<text fill="hsl(42, 100%, 40%)" y="132">Small Map Decode.Aeson Decode Strict 3.02 μs</text>
<g>
<title>3.02 μs ± 171 ns</title>
<rect y="138" rx="5" height="22" width="0.004155065451714285" fill="hsl(42, 100%, 80%)" stroke="hsl(42, 100%, 55%)" />
<g stroke="hsl(42, 100%, 40%)"><line x1="0.003920469892987406" x2="0.004389661010441165" y1="149" y2="149" />
<line x1="0.003920469892987406" x2="0.003920469892987406" y1="143" y2="155" />
<line x1="0.004389661010441165" x2="0.004389661010441165" y1="143" y2="155" />
</g>
</g>
<text fill="hsl(63, 100%, 40%)" y="187">Small Map Decode.Waargonaut Decode Attoparsec 62.3 μs</text>
<g>
<title>62.3 μs ± 5.7 μs</title>
<rect y="193" rx="5" height="22" width="0.08570086865584632" fill="hsl(63, 100%, 80%)" stroke="hsl(63, 100%, 55%)" />
<g stroke="hsl(63, 100%, 40%)"><line x1="0.07792994750139473" x2="0.09347178981029791" y1="204" y2="204" />
<line x1="0.07792994750139473" x2="0.07792994750139473" y1="198" y2="210" />
<line x1="0.09347178981029791" x2="0.09347178981029791" y1="198" y2="210" />
</g>
</g>
<text fill="hsl(84, 100%, 40%)" y="242">Full Decode Persons Array JSON.Ordered Keys.Hermes Decode 202  ms</text>
<g>
<title>202  ms ± 4.1 ms</title>
<rect y="248" rx="5" height="22" width="278.44056319928586" fill="hsl(84, 100%, 80%)" stroke="hsl(84, 100%, 55%)" />
<g stroke="hsl(84, 100%, 40%)"><line x1="272.80378769888904" x2="284.0773386996827" y1="259" y2="259" />
<line x1="272.80378769888904" x2="272.80378769888904" y1="253" y2="265" />
<line x1="284.0773386996827" x2="284.0773386996827" y1="253" y2="265" />
</g>
</g>
<text fill="hsl(105, 100%, 40%)" y="297">Full Decode Persons Array JSON.Ordered Keys.Hermes DecodeWith 199  ms</text>
<g>
<title>199  ms ± 8.0 ms</title>
<rect y="303" rx="5" height="22" width="273.6371940363441" fill="hsl(105, 100%, 80%)" stroke="hsl(105, 100%, 55%)" />
<g stroke="hsl(105, 100%, 40%)"><line x1="262.5962828859115" x2="284.67810518677675" y1="314" y2="314" />
<line x1="262.5962828859115" x2="262.5962828859115" y1="308" y2="320" />
<line x1="284.67810518677675" x2="284.67810518677675" y1="308" y2="320" />
</g>
</g>
<g fill="hsl(127, 100%, 40%)">
<text y="352">Full Decode Persons Array JSON.Ordered Keys.Aeson Decode Lazy</text>
<text y="352" x="824.997465896249" text-anchor="end">600  ms</text>
</g>
<g>
<title>600  ms ±  20 ms</title>
<rect y="358" rx="5" height="22" width="824.997465896249" fill="hsl(127, 100%, 80%)" stroke="hsl(127, 100%, 55%)" />
<g stroke="hsl(127, 100%, 40%)"><line x1="796.99790710997" x2="852.9970246825279" y1="369" y2="369" />
<line x1="796.99790710997" x2="796.99790710997" y1="363" y2="375" />
<line x1="852.9970246825279" x2="852.9970246825279" y1="363" y2="375" />
</g>
</g>
<g fill="hsl(148, 100%, 40%)">
<text y="407">Full Decode Persons Array JSON.Ordered Keys.Aeson Decode Strict</text>
<text y="407" x="601.2525658021851" text-anchor="end">437  ms</text>
</g>
<g>
<title>437  ms ±  42 ms</title>
<rect y="413" rx="5" height="22" width="601.2525658021851" fill="hsl(148, 100%, 80%)" stroke="hsl(148, 100%, 55%)" />
<g stroke="hsl(148, 100%, 40%)"><line x1="543.3763031447252" x2="659.1288284596451" y1="424" y2="424" />
<line x1="543.3763031447252" x2="543.3763031447252" y1="418" y2="430" />
<line x1="659.1288284596451" x2="659.1288284596451" y1="418" y2="430" />
</g>
</g>
<text fill="hsl(169, 100%, 40%)" y="462">Full Decode Persons Array JSON.Unordered Keys.Hermes Decode 222  ms</text>
<g>
<title>222  ms ± 3.4 ms</title>
<rect y="468" rx="5" height="22" width="304.93199842925094" fill="hsl(169, 100%, 80%)" stroke="hsl(169, 100%, 55%)" />
<g stroke="hsl(169, 100%, 40%)"><line x1="300.29437093915953" x2="309.56962591934234" y1="479" y2="479" />
<line x1="300.29437093915953" x2="300.29437093915953" y1="473" y2="485" />
<line x1="309.56962591934234" x2="309.56962591934234" y1="473" y2="485" />
</g>
</g>
<text fill="hsl(190, 100%, 40%)" y="517">Full Decode Persons Array JSON.Unordered Keys.Hermes DecodeWith 216  ms</text>
<g>
<title>216  ms ±  10 ms</title>
<rect y="523" rx="5" height="22" width="297.6645790894655" fill="hsl(190, 100%, 80%)" stroke="hsl(190, 100%, 55%)" />
<g stroke="hsl(190, 100%, 40%)"><line x1="283.43414790807105" x2="311.89501027086" y1="534" y2="534" />
<line x1="283.43414790807105" x2="283.43414790807105" y1="528" y2="540" />
<line x1="311.89501027086" x2="311.89501027086" y1="528" y2="540" />
</g>
</g>
<g fill="hsl(211, 100%, 40%)">
<text y="572">Full Decode Persons Array JSON.Unordered Keys.Aeson Decode Lazy</text>
<text y="572" x="900.4778753708796" text-anchor="end">655  ms</text>
</g>
<g>
<title>655  ms ±  29 ms</title>
<rect y="578" rx="5" height="22" width="900.4778753708796" fill="hsl(211, 100%, 80%)" stroke="hsl(211, 100%, 55%)" />
<g stroke="hsl(211, 100%, 40%)"><line x1="860.9557507417592" x2="940.0" y1="589" y2="589" />
<line x1="860.9557507417592" x2="860.9557507417592" y1="583" y2="595" />
<line x1="940.0" x2="940.0" y1="583" y2="595" />
</g>
</g>
<g fill="hsl(232, 100%, 40%)">
<text y="627">Full Decode Persons Array JSON.Unordered Keys.Aeson Decode Strict</text>
<text y="627" x="628.2566987572785" text-anchor="end">457  ms</text>
</g>
<g>
<title>457  ms ±  13 ms</title>
<rect y="633" rx="5" height="22" width="628.2566987572785" fill="hsl(232, 100%, 80%)" stroke="hsl(232, 100%, 55%)" />
<g stroke="hsl(232, 100%, 40%)"><line x1="610.6146713268632" x2="645.8987261876938" y1="644" y2="644" />
<line x1="610.6146713268632" x2="610.6146713268632" y1="638" y2="650" />
<line x1="645.8987261876938" x2="645.8987261876938" y1="638" y2="650" />
</g>
</g>
<text fill="hsl(254, 100%, 40%)" y="682">Partial Decode Twitter JSON.Hermes Decode 953  μs</text>
<g>
<title>953  μs ±  74 μs</title>
<rect y="688" rx="5" height="22" width="1.3104388265180762" fill="hsl(254, 100%, 80%)" stroke="hsl(254, 100%, 55%)" />
<g stroke="hsl(254, 100%, 40%)"><line x1="1.2082386395783855" x2="1.4126390134577669" y1="699" y2="699" />
<line x1="1.2082386395783855" x2="1.2082386395783855" y1="693" y2="705" />
<line x1="1.4126390134577669" x2="1.4126390134577669" y1="693" y2="705" />
</g>
</g>
<text fill="hsl(275, 100%, 40%)" y="737">Partial Decode Twitter JSON.Hermes DecodeWith 862  μs</text>
<g>
<title>862  μs ±  59 μs</title>
<rect y="743" rx="5" height="22" width="1.185631702262291" fill="hsl(275, 100%, 80%)" stroke="hsl(275, 100%, 55%)" />
<g stroke="hsl(275, 100%, 40%)"><line x1="1.104752231253656" x2="1.2665111732709262" y1="754" y2="754" />
<line x1="1.104752231253656" x2="1.104752231253656" y1="748" y2="760" />
<line x1="1.2665111732709262" x2="1.2665111732709262" y1="748" y2="760" />
</g>
</g>
<text fill="hsl(296, 100%, 40%)" y="792">Partial Decode Twitter JSON.Aeson Decode Lazy 14.9 ms</text>
<g>
<title>14.9 ms ± 1.5 ms</title>
<rect y="798" rx="5" height="22" width="20.435390061829256" fill="hsl(296, 100%, 80%)" stroke="hsl(296, 100%, 55%)" />
<g stroke="hsl(296, 100%, 40%)"><line x1="18.43438917447716" x2="22.43639094918135" y1="809" y2="809" />
<line x1="18.43438917447716" x2="18.43438917447716" y1="803" y2="815" />
<line x1="22.43639094918135" x2="22.43639094918135" y1="803" y2="815" />
</g>
</g>
<text fill="hsl(317, 100%, 40%)" y="847">Partial Decode Twitter JSON.Aeson Decode Strict 17.6 ms</text>
<g>
<title>17.6 ms ± 1.6 ms</title>
<rect y="853" rx="5" height="22" width="24.183570031287868" fill="hsl(317, 100%, 80%)" stroke="hsl(317, 100%, 55%)" />
<g stroke="hsl(317, 100%, 40%)"><line x1="21.99021760763425" x2="26.376922454941486" y1="864" y2="864" />
<line x1="21.99021760763425" x2="21.99021760763425" y1="858" y2="870" />
<line x1="26.376922454941486" x2="26.376922454941486" y1="858" y2="870" />
</g>
</g>
<text fill="hsl(338, 100%, 40%)" y="902">Partial Decode Twitter JSON.Waargonaut Decode Attoparsec 7.68 ms</text>
<g>
<title>7.68 ms ± 355 μs</title>
<rect y="908" rx="5" height="22" width="10.559704051101342" fill="hsl(338, 100%, 80%)" stroke="hsl(338, 100%, 55%)" />
<g stroke="hsl(338, 100%, 40%)"><line x1="10.0717541372009" x2="11.047653965001784" y1="919" y2="919" />
<line x1="10.0717541372009" x2="10.0717541372009" y1="913" y2="925" />
<line x1="11.047653965001784" x2="11.047653965001784" y1="913" y2="925" />
</g>
</g>
</g>
</svg>
