<svg xmlns="http://www.w3.org/2000/svg" height="777" width="960.0" font-size="16" font-family="sans-serif" stroke-width="2">
<g transform="translate(10.0 0)">
<text fill="hsl(0, 100%, 40%)" y="22">1 Million 3-Arrays.Hermes [[Double]] 542  ms</text>
<g>
<title>542  ms ±  29 ms</title>
<rect y="28" rx="5" height="22" width="245.4050231961744" fill="hsl(0, 100%, 80%)" stroke="hsl(0, 100%, 55%)" />
<g stroke="hsl(0, 100%, 40%)"><line x1="232.27844110922118" x2="258.5316052831276" y1="39" y2="39" />
<line x1="232.27844110922118" x2="232.27844110922118" y1="33" y2="45" />
<line x1="258.5316052831276" x2="258.5316052831276" y1="33" y2="45" />
</g>
</g>
<g fill="hsl(25, 100%, 40%)">
<text y="77">1 Million 3-Arrays.Aeson [[Double]]</text>
<text y="77" x="882.2315250370622" text-anchor="end">1.948 s</text>
</g>
<g>
<title>1.948 s ± 128 ms</title>
<rect y="83" rx="5" height="22" width="882.2315250370622" fill="hsl(25, 100%, 80%)" stroke="hsl(25, 100%, 55%)" />
<g stroke="hsl(25, 100%, 40%)"><line x1="824.4630500741243" x2="940.0" y1="94" y2="94" />
<line x1="824.4630500741243" x2="824.4630500741243" y1="88" y2="100" />
<line x1="940.0" x2="940.0" y1="88" y2="100" />
</g>
</g>
<text fill="hsl(51, 100%, 40%)" y="132">Small Object to Map.Hermes Decode 1.44 μs</text>
<g>
<title>1.44 μs ±  83 ns</title>
<rect y="138" rx="5" height="22" width="0.0006538992111672239" fill="hsl(51, 100%, 80%)" stroke="hsl(51, 100%, 55%)" />
<g stroke="hsl(51, 100%, 40%)"><line x1="0.0006163624598428147" x2="0.0006914359624916331" y1="149" y2="149" />
<line x1="0.0006163624598428147" x2="0.0006163624598428147" y1="143" y2="155" />
<line x1="0.0006914359624916331" x2="0.0006914359624916331" y1="143" y2="155" />
</g>
</g>
<text fill="hsl(77, 100%, 40%)" y="187">Small Object to Map.Aeson Lazy 3.01 μs</text>
<g>
<title>3.01 μs ± 205 ns</title>
<rect y="193" rx="5" height="22" width="0.0013634020505419973" fill="hsl(77, 100%, 80%)" stroke="hsl(77, 100%, 55%)" />
<g stroke="hsl(77, 100%, 40%)"><line x1="0.0012704727093774005" x2="0.0014563313917065942" y1="204" y2="204" />
<line x1="0.0012704727093774005" x2="0.0012704727093774005" y1="198" y2="210" />
<line x1="0.0014563313917065942" x2="0.0014563313917065942" y1="198" y2="210" />
</g>
</g>
<text fill="hsl(102, 100%, 40%)" y="242">Small Object to Map.Aeson Strict 3.01 μs</text>
<g>
<title>3.01 μs ±  99 ns</title>
<rect y="248" rx="5" height="22" width="0.0013640673195584243" fill="hsl(102, 100%, 80%)" stroke="hsl(102, 100%, 55%)" />
<g stroke="hsl(102, 100%, 40%)"><line x1="0.0013191877010915063" x2="0.0014089469380253422" y1="259" y2="259" />
<line x1="0.0013191877010915063" x2="0.0013191877010915063" y1="253" y2="265" />
<line x1="0.0014089469380253422" x2="0.0014089469380253422" y1="253" y2="265" />
</g>
</g>
<text fill="hsl(128, 100%, 40%)" y="297">Full Persons Array.Ordered Keys.Hermes Decode 113  ms</text>
<g>
<title>113  ms ± 5.2 ms</title>
<rect y="303" rx="5" height="22" width="51.042311643435795" fill="hsl(128, 100%, 80%)" stroke="hsl(128, 100%, 55%)" />
<g stroke="hsl(128, 100%, 40%)"><line x1="48.69984981087943" x2="53.38477347599216" y1="314" y2="314" />
<line x1="48.69984981087943" x2="48.69984981087943" y1="308" y2="320" />
<line x1="53.38477347599216" x2="53.38477347599216" y1="308" y2="320" />
</g>
</g>
<text fill="hsl(154, 100%, 40%)" y="352">Full Persons Array.Ordered Keys.Aeson Lazy 460  ms</text>
<g>
<title>460  ms ± 3.0 ms</title>
<rect y="358" rx="5" height="22" width="208.45393821234154" fill="hsl(154, 100%, 80%)" stroke="hsl(154, 100%, 55%)" />
<g stroke="hsl(154, 100%, 40%)"><line x1="207.10099660092274" x2="209.80687982376034" y1="369" y2="369" />
<line x1="207.10099660092274" x2="207.10099660092274" y1="363" y2="375" />
<line x1="209.80687982376034" x2="209.80687982376034" y1="363" y2="375" />
</g>
</g>
<text fill="hsl(180, 100%, 40%)" y="407">Full Persons Array.Ordered Keys.Aeson Strict 360  ms</text>
<g>
<title>360  ms ± 6.2 ms</title>
<rect y="413" rx="5" height="22" width="163.0813665222598" fill="hsl(180, 100%, 80%)" stroke="hsl(180, 100%, 55%)" />
<g stroke="hsl(180, 100%, 40%)"><line x1="160.25943411456794" x2="165.90329892995166" y1="424" y2="424" />
<line x1="160.25943411456794" x2="160.25943411456794" y1="418" y2="430" />
<line x1="165.90329892995166" x2="165.90329892995166" y1="418" y2="430" />
</g>
</g>
<text fill="hsl(205, 100%, 40%)" y="462">Full Persons Array.Unordered Keys.Hermes Decode 119  ms</text>
<g>
<title>119  ms ± 8.4 ms</title>
<rect y="468" rx="5" height="22" width="53.69460747145532" fill="hsl(205, 100%, 80%)" stroke="hsl(205, 100%, 55%)" />
<g stroke="hsl(205, 100%, 40%)"><line x1="49.91066436225067" x2="57.47855058065997" y1="479" y2="479" />
<line x1="49.91066436225067" x2="49.91066436225067" y1="473" y2="485" />
<line x1="57.47855058065997" x2="57.47855058065997" y1="473" y2="485" />
</g>
</g>
<text fill="hsl(231, 100%, 40%)" y="517">Full Persons Array.Unordered Keys.Aeson Lazy 476  ms</text>
<g>
<title>476  ms ±  34 ms</title>
<rect y="523" rx="5" height="22" width="215.61613971083582" fill="hsl(231, 100%, 80%)" stroke="hsl(231, 100%, 55%)" />
<g stroke="hsl(231, 100%, 40%)"><line x1="200.2484240428696" x2="230.98385537880205" y1="534" y2="534" />
<line x1="200.2484240428696" x2="200.2484240428696" y1="528" y2="540" />
<line x1="230.98385537880205" x2="230.98385537880205" y1="528" y2="540" />
</g>
</g>
<text fill="hsl(257, 100%, 40%)" y="572">Full Persons Array.Unordered Keys.Aeson Strict 363  ms</text>
<g>
<title>363  ms ±  15 ms</title>
<rect y="578" rx="5" height="22" width="164.52443336005163" fill="hsl(257, 100%, 80%)" stroke="hsl(257, 100%, 55%)" />
<g stroke="hsl(257, 100%, 40%)"><line x1="157.69993626221668" x2="171.34893045788658" y1="589" y2="589" />
<line x1="157.69993626221668" x2="157.69993626221668" y1="583" y2="595" />
<line x1="171.34893045788658" x2="171.34893045788658" y1="583" y2="595" />
</g>
</g>
<text fill="hsl(282, 100%, 40%)" y="627">Partial Twitter.Hermes Decode 465  μs</text>
<g>
<title>465  μs ± 6.5 μs</title>
<rect y="633" rx="5" height="22" width="0.210801282965502" fill="hsl(282, 100%, 80%)" stroke="hsl(282, 100%, 55%)" />
<g stroke="hsl(282, 100%, 40%)"><line x1="0.20785685211472033" x2="0.21374571381628366" y1="644" y2="644" />
<line x1="0.20785685211472033" x2="0.20785685211472033" y1="638" y2="650" />
<line x1="0.21374571381628366" x2="0.21374571381628366" y1="638" y2="650" />
</g>
</g>
<text fill="hsl(308, 100%, 40%)" y="682">Partial Twitter.Aeson Lazy 17.6 ms</text>
<g>
<title>17.6 ms ± 370 μs</title>
<rect y="688" rx="5" height="22" width="7.9535245808815676" fill="hsl(308, 100%, 80%)" stroke="hsl(308, 100%, 55%)" />
<g stroke="hsl(308, 100%, 40%)"><line x1="7.785913276641693" x2="8.121135885121442" y1="699" y2="699" />
<line x1="7.785913276641693" x2="7.785913276641693" y1="693" y2="705" />
<line x1="8.121135885121442" x2="8.121135885121442" y1="693" y2="705" />
</g>
</g>
<text fill="hsl(334, 100%, 40%)" y="737">Partial Twitter.Aeson Strict 14.4 ms</text>
<g>
<title>14.4 ms ± 1.4 ms</title>
<rect y="743" rx="5" height="22" width="6.536507836848201" fill="hsl(334, 100%, 80%)" stroke="hsl(334, 100%, 55%)" />
<g stroke="hsl(334, 100%, 40%)"><line x1="5.890625216960768" x2="7.182390456735634" y1="754" y2="754" />
<line x1="5.890625216960768" x2="5.890625216960768" y1="748" y2="760" />
<line x1="7.182390456735634" x2="7.182390456735634" y1="748" y2="760" />
</g>
</g>
</g>
</svg>
