<svg xmlns="http://www.w3.org/2000/svg" height="667" width="960.0" font-size="16" font-family="sans-serif" stroke-width="2">
<g transform="translate(10.0 0)">
<text fill="hsl(0, 100%, 40%)" y="22">Small Map.Hermes Decode 1.96 μs</text>
<g>
<title>1.96 μs ±  53 ns</title>
<rect y="28" rx="5" height="22" width="0.0032425436444699744" fill="hsl(0, 100%, 80%)" stroke="hsl(0, 100%, 55%)" />
<g stroke="hsl(0, 100%, 40%)"><line x1="0.0031549282869382618" x2="0.003330159002001687" y1="39" y2="39" />
<line x1="0.0031549282869382618" x2="0.0031549282869382618" y1="33" y2="45" />
<line x1="0.003330159002001687" x2="0.003330159002001687" y1="33" y2="45" />
</g>
</g>
<text fill="hsl(30, 100%, 40%)" y="77">Small Map.Aeson Lazy 3.30 μs</text>
<g>
<title>3.30 μs ± 197 ns</title>
<rect y="83" rx="5" height="22" width="0.005463188681286977" fill="hsl(30, 100%, 80%)" stroke="hsl(30, 100%, 55%)" />
<g stroke="hsl(30, 100%, 40%)"><line x1="0.005137016985301861" x2="0.005789360377272093" y1="94" y2="94" />
<line x1="0.005137016985301861" x2="0.005137016985301861" y1="88" y2="100" />
<line x1="0.005789360377272093" x2="0.005789360377272093" y1="88" y2="100" />
</g>
</g>
<text fill="hsl(60, 100%, 40%)" y="132">Small Map.Aeson Strict 3.20 μs</text>
<g>
<title>3.20 μs ±  64 ns</title>
<rect y="138" rx="5" height="22" width="0.005296391441447388" fill="hsl(60, 100%, 80%)" stroke="hsl(60, 100%, 55%)" />
<g stroke="hsl(60, 100%, 40%)"><line x1="0.0051903152232194135" x2="0.005402467659675363" y1="149" y2="149" />
<line x1="0.0051903152232194135" x2="0.0051903152232194135" y1="143" y2="155" />
<line x1="0.005402467659675363" x2="0.005402467659675363" y1="143" y2="155" />
</g>
</g>
<text fill="hsl(90, 100%, 40%)" y="187">Full Persons Array.Ordered Keys.Hermes Decode 144  ms</text>
<g>
<title>144  ms ±  14 ms</title>
<rect y="193" rx="5" height="22" width="238.4642941130384" fill="hsl(90, 100%, 80%)" stroke="hsl(90, 100%, 55%)" />
<g stroke="hsl(90, 100%, 40%)"><line x1="215.56980520011865" x2="261.35878302595813" y1="204" y2="204" />
<line x1="215.56980520011865" x2="215.56980520011865" y1="198" y2="210" />
<line x1="261.35878302595813" x2="261.35878302595813" y1="198" y2="210" />
</g>
</g>
<g fill="hsl(120, 100%, 40%)">
<text y="242">Full Persons Array.Ordered Keys.Aeson Lazy</text>
<text y="242" x="808.5652311643671" text-anchor="end">488  ms</text>
</g>
<g>
<title>488  ms ±  12 ms</title>
<rect y="248" rx="5" height="22" width="808.5652311643671" fill="hsl(120, 100%, 80%)" stroke="hsl(120, 100%, 55%)" />
<g stroke="hsl(120, 100%, 40%)"><line x1="789.293109409482" x2="827.8373529192522" y1="259" y2="259" />
<line x1="789.293109409482" x2="789.293109409482" y1="253" y2="265" />
<line x1="827.8373529192522" x2="827.8373529192522" y1="253" y2="265" />
</g>
</g>
<g fill="hsl(150, 100%, 40%)">
<text y="297">Full Persons Array.Ordered Keys.Aeson Strict</text>
<text y="297" x="637.9196943511785" text-anchor="end">385  ms</text>
</g>
<g>
<title>385  ms ±  27 ms</title>
<rect y="303" rx="5" height="22" width="637.9196943511785" fill="hsl(150, 100%, 80%)" stroke="hsl(150, 100%, 55%)" />
<g stroke="hsl(150, 100%, 40%)"><line x1="592.7865042016106" x2="683.0528845007464" y1="314" y2="314" />
<line x1="592.7865042016106" x2="592.7865042016106" y1="308" y2="320" />
<line x1="683.0528845007464" x2="683.0528845007464" y1="308" y2="320" />
</g>
</g>
<text fill="hsl(180, 100%, 40%)" y="352">Full Persons Array.Unordered Keys.Hermes Decode 145  ms</text>
<g>
<title>145  ms ± 7.3 ms</title>
<rect y="358" rx="5" height="22" width="239.715184106469" fill="hsl(180, 100%, 80%)" stroke="hsl(180, 100%, 55%)" />
<g stroke="hsl(180, 100%, 40%)"><line x1="227.6460063954557" x2="251.7843618174823" y1="369" y2="369" />
<line x1="227.6460063954557" x2="227.6460063954557" y1="363" y2="375" />
<line x1="251.7843618174823" x2="251.7843618174823" y1="363" y2="375" />
</g>
</g>
<g fill="hsl(210, 100%, 40%)">
<text y="407">Full Persons Array.Unordered Keys.Aeson Lazy</text>
<text y="407" x="855.8068971073914" text-anchor="end">517  ms</text>
</g>
<g>
<title>517  ms ±  51 ms</title>
<rect y="413" rx="5" height="22" width="855.8068971073914" fill="hsl(210, 100%, 80%)" stroke="hsl(210, 100%, 55%)" />
<g stroke="hsl(210, 100%, 40%)"><line x1="771.6137942147827" x2="940.0" y1="424" y2="424" />
<line x1="771.6137942147827" x2="771.6137942147827" y1="418" y2="430" />
<line x1="940.0" x2="940.0" y1="418" y2="430" />
</g>
</g>
<g fill="hsl(240, 100%, 40%)">
<text y="462">Full Persons Array.Unordered Keys.Aeson Strict</text>
<text y="462" x="630.7319732337746" text-anchor="end">381  ms</text>
</g>
<g>
<title>381  ms ± 1.9 ms</title>
<rect y="468" rx="5" height="22" width="630.7319732337746" fill="hsl(240, 100%, 80%)" stroke="hsl(240, 100%, 55%)" />
<g stroke="hsl(240, 100%, 40%)"><line x1="627.6002225590973" x2="633.8637239084519" y1="479" y2="479" />
<line x1="627.6002225590973" x2="627.6002225590973" y1="473" y2="485" />
<line x1="633.8637239084519" x2="633.8637239084519" y1="473" y2="485" />
</g>
</g>
<text fill="hsl(270, 100%, 40%)" y="517">Partial Twitter.Hermes Decode 557  μs</text>
<g>
<title>557  μs ±  38 μs</title>
<rect y="523" rx="5" height="22" width="0.9236462900772849" fill="hsl(270, 100%, 80%)" stroke="hsl(270, 100%, 55%)" />
<g stroke="hsl(270, 100%, 40%)"><line x1="0.8605183712055009" x2="0.986774208949069" y1="534" y2="534" />
<line x1="0.8605183712055009" x2="0.8605183712055009" y1="528" y2="540" />
<line x1="0.986774208949069" x2="0.986774208949069" y1="528" y2="540" />
</g>
</g>
<text fill="hsl(300, 100%, 40%)" y="572">Partial Twitter.Aeson Lazy 18.4 ms</text>
<g>
<title>18.4 ms ± 1.8 ms</title>
<rect y="578" rx="5" height="22" width="30.446340056012815" fill="hsl(300, 100%, 80%)" stroke="hsl(300, 100%, 55%)" />
<g stroke="hsl(300, 100%, 40%)"><line x1="27.406847859068808" x2="33.48583225295682" y1="589" y2="589" />
<line x1="27.406847859068808" x2="27.406847859068808" y1="583" y2="595" />
<line x1="33.48583225295682" x2="33.48583225295682" y1="583" y2="595" />
</g>
</g>
<text fill="hsl(330, 100%, 40%)" y="627">Partial Twitter.Aeson Strict 15.6 ms</text>
<g>
<title>15.6 ms ± 585 μs</title>
<rect y="633" rx="5" height="22" width="25.86845593340937" fill="hsl(330, 100%, 80%)" stroke="hsl(330, 100%, 55%)" />
<g stroke="hsl(330, 100%, 40%)"><line x1="24.898877770981905" x2="26.838034095836832" y1="644" y2="644" />
<line x1="24.898877770981905" x2="24.898877770981905" y1="638" y2="650" />
<line x1="26.838034095836832" x2="26.838034095836832" y1="638" y2="650" />
</g>
</g>
</g>
</svg>
