<svg xmlns="http://www.w3.org/2000/svg" height="777" width="960.0" font-size="16" font-family="sans-serif" stroke-width="2">
<g transform="translate(10.0 0)">
<text fill="hsl(0, 100%, 40%)" y="22">Small Map.Hermes Decode 1.71 μs</text>
<g>
<title>1.71 μs ± 154 ns</title>
<rect y="28" rx="5" height="22" width="0.002456387466226384" fill="hsl(0, 100%, 80%)" stroke="hsl(0, 100%, 55%)" />
<g stroke="hsl(0, 100%, 40%)"><line x1="0.0022356185007488096" x2="0.002677156431703958" y1="39" y2="39" />
<line x1="0.0022356185007488096" x2="0.0022356185007488096" y1="33" y2="45" />
<line x1="0.002677156431703958" x2="0.002677156431703958" y1="33" y2="45" />
</g>
</g>
<text fill="hsl(25, 100%, 40%)" y="77">Small Map.Aeson Lazy 3.03 μs</text>
<g>
<title>3.03 μs ± 223 ns</title>
<rect y="83" rx="5" height="22" width="0.0043513899262903975" fill="hsl(25, 100%, 80%)" stroke="hsl(25, 100%, 55%)" />
<g stroke="hsl(25, 100%, 40%)"><line x1="0.004031124626303857" x2="0.0046716552262769375" y1="94" y2="94" />
<line x1="0.004031124626303857" x2="0.004031124626303857" y1="88" y2="100" />
<line x1="0.0046716552262769375" x2="0.0046716552262769375" y1="88" y2="100" />
</g>
</g>
<text fill="hsl(51, 100%, 40%)" y="132">Small Map.Aeson Strict 3.05 μs</text>
<g>
<title>3.05 μs ± 254 ns</title>
<rect y="138" rx="5" height="22" width="0.004369841838187774" fill="hsl(51, 100%, 80%)" stroke="hsl(51, 100%, 55%)" />
<g stroke="hsl(51, 100%, 40%)"><line x1="0.004006193176247587" x2="0.004733490500127961" y1="149" y2="149" />
<line x1="0.004006193176247587" x2="0.004006193176247587" y1="143" y2="155" />
<line x1="0.004733490500127961" x2="0.004733490500127961" y1="143" y2="155" />
</g>
</g>
<text fill="hsl(77, 100%, 40%)" y="187">Small Map.Waargonaut Attoparsec 64.2 μs</text>
<g>
<title>64.2 μs ± 6.2 μs</title>
<rect y="193" rx="5" height="22" width="0.09213294173888646" fill="hsl(77, 100%, 80%)" stroke="hsl(77, 100%, 55%)" />
<g stroke="hsl(77, 100%, 40%)"><line x1="0.08323136426314644" x2="0.10103451921462649" y1="204" y2="204" />
<line x1="0.08323136426314644" x2="0.08323136426314644" y1="198" y2="210" />
<line x1="0.10103451921462649" x2="0.10103451921462649" y1="198" y2="210" />
</g>
</g>
<text fill="hsl(102, 100%, 40%)" y="242">Full Persons Array.Ordered Keys.Hermes Decode 179  ms</text>
<g>
<title>179  ms ±  10 ms</title>
<rect y="248" rx="5" height="22" width="257.02208330200386" fill="hsl(102, 100%, 80%)" stroke="hsl(102, 100%, 55%)" />
<g stroke="hsl(102, 100%, 40%)"><line x1="242.580632872661" x2="271.46353373134673" y1="259" y2="259" />
<line x1="242.580632872661" x2="242.580632872661" y1="253" y2="265" />
<line x1="271.46353373134673" x2="271.46353373134673" y1="253" y2="265" />
</g>
</g>
<g fill="hsl(128, 100%, 40%)">
<text y="297">Full Persons Array.Ordered Keys.Aeson Lazy</text>
<text y="297" x="825.8665137800655" text-anchor="end">576  ms</text>
</g>
<g>
<title>576  ms ±  33 ms</title>
<rect y="303" rx="5" height="22" width="825.8665137800655" fill="hsl(128, 100%, 80%)" stroke="hsl(128, 100%, 55%)" />
<g stroke="hsl(128, 100%, 40%)"><line x1="778.0939031604922" x2="873.6391243996387" y1="314" y2="314" />
<line x1="778.0939031604922" x2="778.0939031604922" y1="308" y2="320" />
<line x1="873.6391243996387" x2="873.6391243996387" y1="308" y2="320" />
</g>
</g>
<g fill="hsl(154, 100%, 40%)">
<text y="352">Full Persons Array.Ordered Keys.Aeson Strict</text>
<text y="352" x="621.0610635569872" text-anchor="end">433  ms</text>
</g>
<g>
<title>433  ms ±  26 ms</title>
<rect y="358" rx="5" height="22" width="621.0610635569872" fill="hsl(154, 100%, 80%)" stroke="hsl(154, 100%, 55%)" />
<g stroke="hsl(154, 100%, 40%)"><line x1="583.9292761975341" x2="658.1928509164402" y1="369" y2="369" />
<line x1="583.9292761975341" x2="583.9292761975341" y1="363" y2="375" />
<line x1="658.1928509164402" x2="658.1928509164402" y1="363" y2="375" />
</g>
</g>
<text fill="hsl(180, 100%, 40%)" y="407">Full Persons Array.Unordered Keys.Hermes Decode 188  ms</text>
<g>
<title>188  ms ±  15 ms</title>
<rect y="413" rx="5" height="22" width="269.1571327442769" fill="hsl(180, 100%, 80%)" stroke="hsl(180, 100%, 55%)" />
<g stroke="hsl(180, 100%, 40%)"><line x1="247.2868170615671" x2="291.0274484269867" y1="424" y2="424" />
<line x1="247.2868170615671" x2="247.2868170615671" y1="418" y2="430" />
<line x1="291.0274484269867" x2="291.0274484269867" y1="418" y2="430" />
</g>
</g>
<g fill="hsl(205, 100%, 40%)">
<text y="462">Full Persons Array.Unordered Keys.Aeson Lazy</text>
<text y="462" x="889.4916384306538" text-anchor="end">620  ms</text>
</g>
<g>
<title>620  ms ±  35 ms</title>
<rect y="468" rx="5" height="22" width="889.4916384306538" fill="hsl(205, 100%, 80%)" stroke="hsl(205, 100%, 55%)" />
<g stroke="hsl(205, 100%, 40%)"><line x1="838.9832768613076" x2="940.0" y1="479" y2="479" />
<line x1="838.9832768613076" x2="838.9832768613076" y1="473" y2="485" />
<line x1="940.0" x2="940.0" y1="473" y2="485" />
</g>
</g>
<g fill="hsl(231, 100%, 40%)">
<text y="517">Full Persons Array.Unordered Keys.Aeson Strict</text>
<text y="517" x="661.2461320725429" text-anchor="end">461  ms</text>
</g>
<g>
<title>461  ms ± 110 ms</title>
<rect y="523" rx="5" height="22" width="661.2461320725429" fill="hsl(231, 100%, 80%)" stroke="hsl(231, 100%, 55%)" />
<g stroke="hsl(231, 100%, 40%)"><line x1="503.9277558156148" x2="818.564508329471" y1="534" y2="534" />
<line x1="503.9277558156148" x2="503.9277558156148" y1="528" y2="540" />
<line x1="818.564508329471" x2="818.564508329471" y1="528" y2="540" />
</g>
</g>
<text fill="hsl(257, 100%, 40%)" y="572">Partial Twitter.Hermes Decode 597  μs</text>
<g>
<title>597  μs ±  41 μs</title>
<rect y="578" rx="5" height="22" width="0.8561057423432604" fill="hsl(257, 100%, 80%)" stroke="hsl(257, 100%, 55%)" />
<g stroke="hsl(257, 100%, 40%)"><line x1="0.7971684053627047" x2="0.9150430793238161" y1="589" y2="589" />
<line x1="0.7971684053627047" x2="0.7971684053627047" y1="583" y2="595" />
<line x1="0.9150430793238161" x2="0.9150430793238161" y1="583" y2="595" />
</g>
</g>
<text fill="hsl(282, 100%, 40%)" y="627">Partial Twitter.Aeson Lazy 14.4 ms</text>
<g>
<title>14.4 ms ± 1.0 ms</title>
<rect y="633" rx="5" height="22" width="20.680466869718373" fill="hsl(282, 100%, 80%)" stroke="hsl(282, 100%, 55%)" />
<g stroke="hsl(282, 100%, 40%)"><line x1="19.214457475724203" x2="22.146476263712543" y1="644" y2="644" />
<line x1="19.214457475724203" x2="19.214457475724203" y1="638" y2="650" />
<line x1="22.146476263712543" x2="22.146476263712543" y1="638" y2="650" />
</g>
</g>
<text fill="hsl(308, 100%, 40%)" y="682">Partial Twitter.Aeson Strict 17.2 ms</text>
<g>
<title>17.2 ms ± 1.3 ms</title>
<rect y="688" rx="5" height="22" width="24.739084930798963" fill="hsl(308, 100%, 80%)" stroke="hsl(308, 100%, 55%)" />
<g stroke="hsl(308, 100%, 40%)"><line x1="22.86734497648139" x2="26.610824885116536" y1="699" y2="699" />
<line x1="22.86734497648139" x2="22.86734497648139" y1="693" y2="705" />
<line x1="26.610824885116536" x2="26.610824885116536" y1="693" y2="705" />
</g>
</g>
<text fill="hsl(334, 100%, 40%)" y="737">Partial Twitter.Waargonaut Attoparsec 7.50 ms</text>
<g>
<title>7.50 ms ± 443 μs</title>
<rect y="743" rx="5" height="22" width="10.760506311799402" fill="hsl(334, 100%, 80%)" stroke="hsl(334, 100%, 55%)" />
<g stroke="hsl(334, 100%, 40%)"><line x1="10.125644114493632" x2="11.395368509105172" y1="754" y2="754" />
<line x1="10.125644114493632" x2="10.125644114493632" y1="748" y2="760" />
<line x1="11.395368509105172" x2="11.395368509105172" y1="748" y2="760" />
</g>
</g>
</g>
</svg>
