<svg xmlns="http://www.w3.org/2000/svg" height="997" width="960.0" font-size="16" font-family="sans-serif" stroke-width="2">
<g transform="translate(10.0 0)">
<text fill="hsl(0, 100%, 40%)" y="22">Small Map Decode.Hermes Decode 1.43 μs</text>
<g>
<title>1.43 μs ± 123 ns</title>
<rect y="28" rx="5" height="22" width="0.0020881889750664425" fill="hsl(0, 100%, 80%)" stroke="hsl(0, 100%, 55%)" />
<g stroke="hsl(0, 100%, 40%)"><line x1="0.001908298654201441" x2="0.002268079295931444" y1="39" y2="39" />
<line x1="0.001908298654201441" x2="0.001908298654201441" y1="33" y2="45" />
<line x1="0.002268079295931444" x2="0.002268079295931444" y1="33" y2="45" />
</g>
</g>
<text fill="hsl(20, 100%, 40%)" y="77">Small Map Decode.Hermes DecodeWith 1.13 μs</text>
<g>
<title>1.13 μs ±  23 ns</title>
<rect y="83" rx="5" height="22" width="0.0016440147665925668" fill="hsl(20, 100%, 80%)" stroke="hsl(20, 100%, 55%)" />
<g stroke="hsl(20, 100%, 40%)"><line x1="0.0016111343836731212" x2="0.0016768951495120124" y1="94" y2="94" />
<line x1="0.0016111343836731212" x2="0.0016111343836731212" y1="88" y2="100" />
<line x1="0.0016768951495120124" x2="0.0016768951495120124" y1="88" y2="100" />
</g>
</g>
<text fill="hsl(40, 100%, 40%)" y="132">Small Map Decode.Aeson Decode Lazy 3.02 μs</text>
<g>
<title>3.02 μs ± 241 ns</title>
<rect y="138" rx="5" height="22" width="0.004402932021681735" fill="hsl(40, 100%, 80%)" stroke="hsl(40, 100%, 55%)" />
<g stroke="hsl(40, 100%, 40%)"><line x1="0.0040511627252483905" x2="0.00475470131811508" y1="149" y2="149" />
<line x1="0.0040511627252483905" x2="0.0040511627252483905" y1="143" y2="155" />
<line x1="0.00475470131811508" x2="0.00475470131811508" y1="143" y2="155" />
</g>
</g>
<text fill="hsl(60, 100%, 40%)" y="187">Small Map Decode.Aeson Decode Strict 3.05 μs</text>
<g>
<title>3.05 μs ± 248 ns</title>
<rect y="193" rx="5" height="22" width="0.0044576392331135035" fill="hsl(60, 100%, 80%)" stroke="hsl(60, 100%, 55%)" />
<g stroke="hsl(60, 100%, 40%)"><line x1="0.004095630946900502" x2="0.004819647519326505" y1="204" y2="204" />
<line x1="0.004095630946900502" x2="0.004095630946900502" y1="198" y2="210" />
<line x1="0.004819647519326505" x2="0.004819647519326505" y1="198" y2="210" />
</g>
</g>
<text fill="hsl(80, 100%, 40%)" y="242">Small Map Decode.Waargonaut Decode Attoparsec 64.9 μs</text>
<g>
<title>64.9 μs ± 4.0 μs</title>
<rect y="248" rx="5" height="22" width="0.09477493745711393" fill="hsl(80, 100%, 80%)" stroke="hsl(80, 100%, 55%)" />
<g stroke="hsl(80, 100%, 40%)"><line x1="0.08890229728056474" x2="0.10064757763366312" y1="259" y2="259" />
<line x1="0.08890229728056474" x2="0.08890229728056474" y1="253" y2="265" />
<line x1="0.10064757763366312" x2="0.10064757763366312" y1="253" y2="265" />
</g>
</g>
<text fill="hsl(100, 100%, 40%)" y="297">Full Decode Persons Array.Ordered Keys.Hermes Decode 173  ms</text>
<g>
<title>173  ms ± 4.6 ms</title>
<rect y="303" rx="5" height="22" width="252.16322762844035" fill="hsl(100, 100%, 80%)" stroke="hsl(100, 100%, 55%)" />
<g stroke="hsl(100, 100%, 40%)"><line x1="245.39454157438905" x2="258.93191368249165" y1="314" y2="314" />
<line x1="245.39454157438905" x2="245.39454157438905" y1="308" y2="320" />
<line x1="258.93191368249165" x2="258.93191368249165" y1="308" y2="320" />
</g>
</g>
<text fill="hsl(120, 100%, 40%)" y="352">Full Decode Persons Array.Ordered Keys.Hermes DecodeWith 169  ms</text>
<g>
<title>169  ms ± 8.2 ms</title>
<rect y="358" rx="5" height="22" width="246.15324244003395" fill="hsl(120, 100%, 80%)" stroke="hsl(120, 100%, 55%)" />
<g stroke="hsl(120, 100%, 40%)"><line x1="234.206993323919" x2="258.0994915561489" y1="369" y2="369" />
<line x1="234.206993323919" x2="234.206993323919" y1="363" y2="375" />
<line x1="258.0994915561489" x2="258.0994915561489" y1="363" y2="375" />
</g>
</g>
<g fill="hsl(140, 100%, 40%)">
<text y="407">Full Decode Persons Array.Ordered Keys.Aeson Decode Lazy</text>
<text y="407" x="824.4579323677335" text-anchor="end">565  ms</text>
</g>
<g>
<title>565  ms ±  29 ms</title>
<rect y="413" rx="5" height="22" width="824.4579323677335" fill="hsl(140, 100%, 80%)" stroke="hsl(140, 100%, 55%)" />
<g stroke="hsl(140, 100%, 40%)"><line x1="781.598788577615" x2="867.3170761578521" y1="424" y2="424" />
<line x1="781.598788577615" x2="781.598788577615" y1="418" y2="430" />
<line x1="867.3170761578521" x2="867.3170761578521" y1="418" y2="430" />
</g>
</g>
<g fill="hsl(160, 100%, 40%)">
<text y="462">Full Decode Persons Array.Ordered Keys.Aeson Decode Strict</text>
<text y="462" x="603.3381803388792" text-anchor="end">413  ms</text>
</g>
<g>
<title>413  ms ±  17 ms</title>
<rect y="468" rx="5" height="22" width="603.3381803388792" fill="hsl(160, 100%, 80%)" stroke="hsl(160, 100%, 55%)" />
<g stroke="hsl(160, 100%, 40%)"><line x1="579.2091538284577" x2="627.4672068493006" y1="479" y2="479" />
<line x1="579.2091538284577" x2="579.2091538284577" y1="473" y2="485" />
<line x1="627.4672068493006" x2="627.4672068493006" y1="473" y2="485" />
</g>
</g>
<text fill="hsl(180, 100%, 40%)" y="517">Full Decode Persons Array.Unordered Keys.Hermes Decode 186  ms</text>
<g>
<title>186  ms ±  16 ms</title>
<rect y="523" rx="5" height="22" width="270.9745575241017" fill="hsl(180, 100%, 80%)" stroke="hsl(180, 100%, 55%)" />
<g stroke="hsl(180, 100%, 40%)"><line x1="247.7185522293276" x2="294.23056281887585" y1="534" y2="534" />
<line x1="247.7185522293276" x2="247.7185522293276" y1="528" y2="540" />
<line x1="294.23056281887585" x2="294.23056281887585" y1="528" y2="540" />
</g>
</g>
<text fill="hsl(200, 100%, 40%)" y="572">Full Decode Persons Array.Unordered Keys.Hermes DecodeWith 192  ms</text>
<g>
<title>192  ms ± 6.3 ms</title>
<rect y="578" rx="5" height="22" width="280.8885163101908" fill="hsl(200, 100%, 80%)" stroke="hsl(200, 100%, 55%)" />
<g stroke="hsl(200, 100%, 40%)"><line x1="271.62772264919795" x2="290.1493099711837" y1="589" y2="589" />
<line x1="271.62772264919795" x2="271.62772264919795" y1="583" y2="595" />
<line x1="290.1493099711837" x2="290.1493099711837" y1="583" y2="595" />
</g>
</g>
<g fill="hsl(220, 100%, 40%)">
<text y="627">Full Decode Persons Array.Unordered Keys.Aeson Decode Lazy</text>
<text y="627" x="901.385252288807" text-anchor="end">617  ms</text>
</g>
<g>
<title>617  ms ±  26 ms</title>
<rect y="633" rx="5" height="22" width="901.385252288807" fill="hsl(220, 100%, 80%)" stroke="hsl(220, 100%, 55%)" />
<g stroke="hsl(220, 100%, 40%)"><line x1="862.770504577614" x2="940.0" y1="644" y2="644" />
<line x1="862.770504577614" x2="862.770504577614" y1="638" y2="650" />
<line x1="940.0" x2="940.0" y1="638" y2="650" />
</g>
</g>
<g fill="hsl(240, 100%, 40%)">
<text y="682">Full Decode Persons Array.Unordered Keys.Aeson Decode Strict</text>
<text y="682" x="667.7887353971649" text-anchor="end">457  ms</text>
</g>
<g>
<title>457  ms ± 7.6 ms</title>
<rect y="688" rx="5" height="22" width="667.7887353971649" fill="hsl(240, 100%, 80%)" stroke="hsl(240, 100%, 55%)" />
<g stroke="hsl(240, 100%, 40%)"><line x1="656.7642510965575" x2="678.8132196977724" y1="699" y2="699" />
<line x1="656.7642510965575" x2="656.7642510965575" y1="693" y2="705" />
<line x1="678.8132196977724" x2="678.8132196977724" y1="693" y2="705" />
</g>
</g>
<text fill="hsl(260, 100%, 40%)" y="737">Partial Decode Twitter.Hermes Decode 603  μs</text>
<g>
<title>603  μs ±  18 μs</title>
<rect y="743" rx="5" height="22" width="0.8805599236869882" fill="hsl(260, 100%, 80%)" stroke="hsl(260, 100%, 55%)" />
<g stroke="hsl(260, 100%, 40%)"><line x1="0.8537134005094276" x2="0.9074064468645489" y1="754" y2="754" />
<line x1="0.8537134005094276" x2="0.8537134005094276" y1="748" y2="760" />
<line x1="0.9074064468645489" x2="0.9074064468645489" y1="748" y2="760" />
</g>
</g>
<text fill="hsl(280, 100%, 40%)" y="792">Partial Decode Twitter.Hermes DecodeWith 607  μs</text>
<g>
<title>607  μs ±  33 μs</title>
<rect y="798" rx="5" height="22" width="0.8857974326416522" fill="hsl(280, 100%, 80%)" stroke="hsl(280, 100%, 55%)" />
<g stroke="hsl(280, 100%, 40%)"><line x1="0.8372116072348041" x2="0.9343832580485003" y1="809" y2="809" />
<line x1="0.8372116072348041" x2="0.8372116072348041" y1="803" y2="815" />
<line x1="0.9343832580485003" x2="0.9343832580485003" y1="803" y2="815" />
</g>
</g>
<text fill="hsl(300, 100%, 40%)" y="847">Partial Decode Twitter.Aeson Decode Lazy 12.7 ms</text>
<g>
<title>12.7 ms ± 478 μs</title>
<rect y="853" rx="5" height="22" width="18.495087149352138" fill="hsl(300, 100%, 80%)" stroke="hsl(300, 100%, 55%)" />
<g stroke="hsl(300, 100%, 40%)"><line x1="17.797069976247823" x2="19.193104322456453" y1="864" y2="864" />
<line x1="17.797069976247823" x2="17.797069976247823" y1="858" y2="870" />
<line x1="19.193104322456453" x2="19.193104322456453" y1="858" y2="870" />
</g>
</g>
<text fill="hsl(320, 100%, 40%)" y="902">Partial Decode Twitter.Aeson Decode Strict 16.1 ms</text>
<g>
<title>16.1 ms ± 1.2 ms</title>
<rect y="908" rx="5" height="22" width="23.563388915023854" fill="hsl(320, 100%, 80%)" stroke="hsl(320, 100%, 55%)" />
<g stroke="hsl(320, 100%, 40%)"><line x1="21.758955875282822" x2="25.367821954764885" y1="919" y2="919" />
<line x1="21.758955875282822" x2="21.758955875282822" y1="913" y2="925" />
<line x1="25.367821954764885" x2="25.367821954764885" y1="913" y2="925" />
</g>
</g>
<text fill="hsl(340, 100%, 40%)" y="957">Partial Decode Twitter.Waargonaut Decode Attoparsec 8.29 ms</text>
<g>
<title>8.29 ms ± 643 μs</title>
<rect y="963" rx="5" height="22" width="12.104909395300494" fill="hsl(340, 100%, 80%)" stroke="hsl(340, 100%, 55%)" />
<g stroke="hsl(340, 100%, 40%)"><line x1="11.166381461631635" x2="13.043437328969352" y1="974" y2="974" />
<line x1="11.166381461631635" x2="11.166381461631635" y1="968" y2="980" />
<line x1="13.043437328969352" x2="13.043437328969352" y1="968" y2="980" />
</g>
</g>
</g>
</svg>
