<svg xmlns="http://www.w3.org/2000/svg" height="997" width="960.0" font-size="16" font-family="sans-serif" stroke-width="2">
<g transform="translate(10.0 0)">
<text fill="hsl(0, 100%, 40%)" y="22">Small Map.Hermes Decode 1.42 μs</text>
<g>
<title>1.42 μs ±  96 ns</title>
<rect y="28" rx="5" height="22" width="0.001902865505336175" fill="hsl(0, 100%, 80%)" stroke="hsl(0, 100%, 55%)" />
<g stroke="hsl(0, 100%, 40%)"><line x1="0.0017738459601026539" x2="0.002031885050569696" y1="39" y2="39" />
<line x1="0.0017738459601026539" x2="0.0017738459601026539" y1="33" y2="45" />
<line x1="0.002031885050569696" x2="0.002031885050569696" y1="33" y2="45" />
</g>
</g>
<text fill="hsl(20, 100%, 40%)" y="77">Small Map.Hermes DecodeWith 1.13 μs</text>
<g>
<title>1.13 μs ±  49 ns</title>
<rect y="83" rx="5" height="22" width="0.0015123283621092272" fill="hsl(20, 100%, 80%)" stroke="hsl(20, 100%, 55%)" />
<g stroke="hsl(20, 100%, 40%)"><line x1="0.0014468381245293118" x2="0.0015778185996891427" y1="94" y2="94" />
<line x1="0.0014468381245293118" x2="0.0014468381245293118" y1="88" y2="100" />
<line x1="0.0015778185996891427" x2="0.0015778185996891427" y1="88" y2="100" />
</g>
</g>
<text fill="hsl(40, 100%, 40%)" y="132">Small Map.Aeson Lazy 3.00 μs</text>
<g>
<title>3.00 μs ±  87 ns</title>
<rect y="138" rx="5" height="22" width="0.004012532770216487" fill="hsl(40, 100%, 80%)" stroke="hsl(40, 100%, 55%)" />
<g stroke="hsl(40, 100%, 40%)"><line x1="0.0038953913169136466" x2="0.004129674223519328" y1="149" y2="149" />
<line x1="0.0038953913169136466" x2="0.0038953913169136466" y1="143" y2="155" />
<line x1="0.004129674223519328" x2="0.004129674223519328" y1="143" y2="155" />
</g>
</g>
<text fill="hsl(60, 100%, 40%)" y="187">Small Map.Aeson Strict 3.04 μs</text>
<g>
<title>3.04 μs ± 250 ns</title>
<rect y="193" rx="5" height="22" width="0.004065887744727845" fill="hsl(60, 100%, 80%)" stroke="hsl(60, 100%, 55%)" />
<g stroke="hsl(60, 100%, 40%)"><line x1="0.003731425964455108" x2="0.0044003495250005825" y1="204" y2="204" />
<line x1="0.003731425964455108" x2="0.003731425964455108" y1="198" y2="210" />
<line x1="0.0044003495250005825" x2="0.0044003495250005825" y1="198" y2="210" />
</g>
</g>
<text fill="hsl(80, 100%, 40%)" y="242">Small Map.Waargonaut Attoparsec 64.3 μs</text>
<g>
<title>64.3 μs ± 3.8 μs</title>
<rect y="248" rx="5" height="22" width="0.08614155678956664" fill="hsl(80, 100%, 80%)" stroke="hsl(80, 100%, 55%)" />
<g stroke="hsl(80, 100%, 40%)"><line x1="0.08109088441022733" x2="0.09119222916890596" y1="259" y2="259" />
<line x1="0.08109088441022733" x2="0.08109088441022733" y1="253" y2="265" />
<line x1="0.09119222916890596" x2="0.09119222916890596" y1="253" y2="265" />
</g>
</g>
<text fill="hsl(100, 100%, 40%)" y="297">Full Persons Array.Ordered Keys.Hermes Decode 161  ms</text>
<g>
<title>161  ms ± 8.4 ms</title>
<rect y="303" rx="5" height="22" width="216.0710147634322" fill="hsl(100, 100%, 80%)" stroke="hsl(100, 100%, 55%)" />
<g stroke="hsl(100, 100%, 40%)"><line x1="204.82427307927196" x2="227.31775644759244" y1="314" y2="314" />
<line x1="204.82427307927196" x2="204.82427307927196" y1="308" y2="320" />
<line x1="227.31775644759244" x2="227.31775644759244" y1="308" y2="320" />
</g>
</g>
<text fill="hsl(120, 100%, 40%)" y="352">Full Persons Array.Ordered Keys.Hermes DecodeWith 170  ms</text>
<g>
<title>170  ms ± 3.9 ms</title>
<rect y="358" rx="5" height="22" width="228.33651036775655" fill="hsl(120, 100%, 80%)" stroke="hsl(120, 100%, 55%)" />
<g stroke="hsl(120, 100%, 40%)"><line x1="223.17714580980447" x2="233.49587492570862" y1="369" y2="369" />
<line x1="223.17714580980447" x2="223.17714580980447" y1="363" y2="375" />
<line x1="233.49587492570862" x2="233.49587492570862" y1="363" y2="375" />
</g>
</g>
<g fill="hsl(140, 100%, 40%)">
<text y="407">Full Persons Array.Ordered Keys.Aeson Lazy</text>
<text y="407" x="768.513668484682" text-anchor="end">574  ms</text>
</g>
<g>
<title>574  ms ±  37 ms</title>
<rect y="413" rx="5" height="22" width="768.513668484682" fill="hsl(140, 100%, 80%)" stroke="hsl(140, 100%, 55%)" />
<g stroke="hsl(140, 100%, 40%)"><line x1="718.2876304623567" x2="818.7397065070072" y1="424" y2="424" />
<line x1="718.2876304623567" x2="718.2876304623567" y1="418" y2="430" />
<line x1="818.7397065070072" x2="818.7397065070072" y1="418" y2="430" />
</g>
</g>
<g fill="hsl(160, 100%, 40%)">
<text y="462">Full Persons Array.Ordered Keys.Aeson Strict</text>
<text y="462" x="561.5352374586687" text-anchor="end">419  ms</text>
</g>
<g>
<title>419  ms ±  34 ms</title>
<rect y="468" rx="5" height="22" width="561.5352374586687" fill="hsl(160, 100%, 80%)" stroke="hsl(160, 100%, 55%)" />
<g stroke="hsl(160, 100%, 40%)"><line x1="516.5064961745704" x2="606.563978742767" y1="479" y2="479" />
<line x1="516.5064961745704" x2="516.5064961745704" y1="473" y2="485" />
<line x1="606.563978742767" x2="606.563978742767" y1="473" y2="485" />
</g>
</g>
<text fill="hsl(180, 100%, 40%)" y="517">Full Persons Array.Unordered Keys.Hermes Decode 189  ms</text>
<g>
<title>189  ms ±  14 ms</title>
<rect y="523" rx="5" height="22" width="253.54779658834545" fill="hsl(180, 100%, 80%)" stroke="hsl(180, 100%, 55%)" />
<g stroke="hsl(180, 100%, 40%)"><line x1="234.53997982296832" x2="272.5556133537226" y1="534" y2="534" />
<line x1="234.53997982296832" x2="234.53997982296832" y1="528" y2="540" />
<line x1="272.5556133537226" x2="272.5556133537226" y1="528" y2="540" />
</g>
</g>
<text fill="hsl(200, 100%, 40%)" y="572">Full Persons Array.Unordered Keys.Hermes DecodeWith 187  ms</text>
<g>
<title>187  ms ±  13 ms</title>
<rect y="578" rx="5" height="22" width="250.67566063214846" fill="hsl(200, 100%, 80%)" stroke="hsl(200, 100%, 55%)" />
<g stroke="hsl(200, 100%, 40%)"><line x1="232.59980691856347" x2="268.7515143457335" y1="589" y2="589" />
<line x1="232.59980691856347" x2="232.59980691856347" y1="583" y2="595" />
<line x1="268.7515143457335" x2="268.7515143457335" y1="583" y2="595" />
</g>
</g>
<g fill="hsl(220, 100%, 40%)">
<text y="627">Full Persons Array.Unordered Keys.Aeson Lazy</text>
<text y="627" x="855.9837780696847" text-anchor="end">639  ms</text>
</g>
<g>
<title>639  ms ±  63 ms</title>
<rect y="633" rx="5" height="22" width="855.9837780696847" fill="hsl(220, 100%, 80%)" stroke="hsl(220, 100%, 55%)" />
<g stroke="hsl(220, 100%, 40%)"><line x1="771.9675561393694" x2="940.0" y1="644" y2="644" />
<line x1="771.9675561393694" x2="771.9675561393694" y1="638" y2="650" />
<line x1="940.0" x2="940.0" y1="638" y2="650" />
</g>
</g>
<g fill="hsl(240, 100%, 40%)">
<text y="682">Full Persons Array.Unordered Keys.Aeson Strict</text>
<text y="682" x="628.9651823185707" text-anchor="end">470  ms</text>
</g>
<g>
<title>470  ms ±  34 ms</title>
<rect y="688" rx="5" height="22" width="628.9651823185707" fill="hsl(240, 100%, 80%)" stroke="hsl(240, 100%, 55%)" />
<g stroke="hsl(240, 100%, 40%)"><line x1="582.9622787385198" x2="674.9680858986216" y1="699" y2="699" />
<line x1="582.9622787385198" x2="582.9622787385198" y1="693" y2="705" />
<line x1="674.9680858986216" x2="674.9680858986216" y1="693" y2="705" />
</g>
</g>
<text fill="hsl(260, 100%, 40%)" y="737">Partial Twitter.Hermes Decode 619  μs</text>
<g>
<title>619  μs ±  58 μs</title>
<rect y="743" rx="5" height="22" width="0.8296451491491895" fill="hsl(260, 100%, 80%)" stroke="hsl(260, 100%, 55%)" />
<g stroke="hsl(260, 100%, 40%)"><line x1="0.7524214864402473" x2="0.9068688118581317" y1="754" y2="754" />
<line x1="0.7524214864402473" x2="0.7524214864402473" y1="748" y2="760" />
<line x1="0.9068688118581317" x2="0.9068688118581317" y1="748" y2="760" />
</g>
</g>
<text fill="hsl(280, 100%, 40%)" y="792">Partial Twitter.Hermes DecodeWith 620  μs</text>
<g>
<title>620  μs ±  58 μs</title>
<rect y="798" rx="5" height="22" width="0.8300412650309023" fill="hsl(280, 100%, 80%)" stroke="hsl(280, 100%, 55%)" />
<g stroke="hsl(280, 100%, 40%)"><line x1="0.7522047393906056" x2="0.9078777906711989" y1="809" y2="809" />
<line x1="0.7522047393906056" x2="0.7522047393906056" y1="803" y2="815" />
<line x1="0.9078777906711989" x2="0.9078777906711989" y1="803" y2="815" />
</g>
</g>
<text fill="hsl(300, 100%, 40%)" y="847">Partial Twitter.Aeson Lazy 13.8 ms</text>
<g>
<title>13.8 ms ± 572 μs</title>
<rect y="853" rx="5" height="22" width="18.440710364462195" fill="hsl(300, 100%, 80%)" stroke="hsl(300, 100%, 55%)" />
<g stroke="hsl(300, 100%, 40%)"><line x1="17.67395530267249" x2="19.2074654262519" y1="864" y2="864" />
<line x1="17.67395530267249" x2="17.67395530267249" y1="858" y2="870" />
<line x1="19.2074654262519" x2="19.2074654262519" y1="858" y2="870" />
</g>
</g>
<text fill="hsl(320, 100%, 40%)" y="902">Partial Twitter.Aeson Strict 17.4 ms</text>
<g>
<title>17.4 ms ± 695 μs</title>
<rect y="908" rx="5" height="22" width="23.286406062190668" fill="hsl(320, 100%, 80%)" stroke="hsl(320, 100%, 55%)" />
<g stroke="hsl(320, 100%, 40%)"><line x1="22.35582223796303" x2="24.216989886418308" y1="919" y2="919" />
<line x1="22.35582223796303" x2="22.35582223796303" y1="913" y2="925" />
<line x1="24.216989886418308" x2="24.216989886418308" y1="913" y2="925" />
</g>
</g>
<text fill="hsl(340, 100%, 40%)" y="957">Partial Twitter.Waargonaut Attoparsec 8.42 ms</text>
<g>
<title>8.42 ms ± 777 μs</title>
<rect y="963" rx="5" height="22" width="11.27427988303139" fill="hsl(340, 100%, 80%)" stroke="hsl(340, 100%, 55%)" />
<g stroke="hsl(340, 100%, 40%)"><line x1="10.232980251405507" x2="12.315579514657273" y1="974" y2="974" />
<line x1="10.232980251405507" x2="10.232980251405507" y1="968" y2="980" />
<line x1="12.315579514657273" x2="12.315579514657273" y1="968" y2="980" />
</g>
</g>
</g>
</svg>
