<svg xmlns="http://www.w3.org/2000/svg" height="777" width="960.0" font-size="16" font-family="sans-serif" stroke-width="2">
<g transform="translate(10.0 0)">
<text fill="hsl(0, 100%, 40%)" y="22">1 Million 3-Arrays.Hermes [[Double]] 514  ms</text>
<g>
<title>514  ms ±  23 ms</title>
<rect y="28" rx="5" height="22" width="239.87935337398764" fill="hsl(0, 100%, 80%)" stroke="hsl(0, 100%, 55%)" />
<g stroke="hsl(0, 100%, 40%)"><line x1="229.14793299407597" x2="250.6107737538993" y1="39" y2="39" />
<line x1="229.14793299407597" x2="229.14793299407597" y1="33" y2="45" />
<line x1="250.6107737538993" x2="250.6107737538993" y1="33" y2="45" />
</g>
</g>
<g fill="hsl(25, 100%, 40%)">
<text y="77">1 Million 3-Arrays.Aeson [[Double]]</text>
<text y="77" x="891.0039993619865" text-anchor="end">1.910 s</text>
</g>
<g>
<title>1.910 s ± 105 ms</title>
<rect y="83" rx="5" height="22" width="891.0039993619865" fill="hsl(25, 100%, 80%)" stroke="hsl(25, 100%, 55%)" />
<g stroke="hsl(25, 100%, 40%)"><line x1="842.0079987239731" x2="940.0" y1="94" y2="94" />
<line x1="842.0079987239731" x2="842.0079987239731" y1="88" y2="100" />
<line x1="940.0" x2="940.0" y1="88" y2="100" />
</g>
</g>
<text fill="hsl(51, 100%, 40%)" y="132">Small Object to Map.Hermes Decode 1.40 μs</text>
<g>
<title>1.40 μs ±  89 ns</title>
<rect y="138" rx="5" height="22" width="0.0006541396282750767" fill="hsl(51, 100%, 80%)" stroke="hsl(51, 100%, 55%)" />
<g stroke="hsl(51, 100%, 40%)"><line x1="0.0006125415468371618" x2="0.0006957377097129916" y1="149" y2="149" />
<line x1="0.0006125415468371618" x2="0.0006125415468371618" y1="143" y2="155" />
<line x1="0.0006957377097129916" x2="0.0006957377097129916" y1="143" y2="155" />
</g>
</g>
<text fill="hsl(77, 100%, 40%)" y="187">Small Object to Map.Aeson Lazy 3.15 μs</text>
<g>
<title>3.15 μs ± 191 ns</title>
<rect y="193" rx="5" height="22" width="0.0014696183205246253" fill="hsl(77, 100%, 80%)" stroke="hsl(77, 100%, 55%)" />
<g stroke="hsl(77, 100%, 40%)"><line x1="0.001380637803525116" x2="0.0015585988375241347" y1="204" y2="204" />
<line x1="0.001380637803525116" x2="0.001380637803525116" y1="198" y2="210" />
<line x1="0.0015585988375241347" x2="0.0015585988375241347" y1="198" y2="210" />
</g>
</g>
<text fill="hsl(102, 100%, 40%)" y="242">Small Object to Map.Aeson Strict 2.96 μs</text>
<g>
<title>2.96 μs ± 198 ns</title>
<rect y="248" rx="5" height="22" width="0.0013813068440004634" fill="hsl(102, 100%, 80%)" stroke="hsl(102, 100%, 55%)" />
<g stroke="hsl(102, 100%, 40%)"><line x1="0.0012889419339687576" x2="0.0014736717540321691" y1="259" y2="259" />
<line x1="0.0012889419339687576" x2="0.0012889419339687576" y1="253" y2="265" />
<line x1="0.0014736717540321691" x2="0.0014736717540321691" y1="253" y2="265" />
</g>
</g>
<text fill="hsl(128, 100%, 40%)" y="297">Full Persons Array.Ordered Keys.Hermes Decode 87.6 ms</text>
<g>
<title>87.6 ms ± 883 μs</title>
<rect y="303" rx="5" height="22" width="40.87334553580536" fill="hsl(128, 100%, 80%)" stroke="hsl(128, 100%, 55%)" />
<g stroke="hsl(128, 100%, 40%)"><line x1="40.461382736845444" x2="41.28530833476528" y1="314" y2="314" />
<line x1="40.461382736845444" x2="40.461382736845444" y1="308" y2="320" />
<line x1="41.28530833476528" x2="41.28530833476528" y1="308" y2="320" />
</g>
</g>
<text fill="hsl(154, 100%, 40%)" y="352">Full Persons Array.Ordered Keys.Aeson Lazy 413  ms</text>
<g>
<title>413  ms ±  37 ms</title>
<rect y="358" rx="5" height="22" width="192.62443235475124" fill="hsl(154, 100%, 80%)" stroke="hsl(154, 100%, 55%)" />
<g stroke="hsl(154, 100%, 40%)"><line x1="175.26853075042692" x2="209.98033395907555" y1="369" y2="369" />
<line x1="175.26853075042692" x2="175.26853075042692" y1="363" y2="375" />
<line x1="209.98033395907555" x2="209.98033395907555" y1="363" y2="375" />
</g>
</g>
<text fill="hsl(180, 100%, 40%)" y="407">Full Persons Array.Ordered Keys.Aeson Strict 294  ms</text>
<g>
<title>294  ms ± 3.2 ms</title>
<rect y="413" rx="5" height="22" width="137.23936628412832" fill="hsl(180, 100%, 80%)" stroke="hsl(180, 100%, 55%)" />
<g stroke="hsl(180, 100%, 40%)"><line x1="135.74498295172285" x2="138.7337496165338" y1="424" y2="424" />
<line x1="135.74498295172285" x2="135.74498295172285" y1="418" y2="430" />
<line x1="138.7337496165338" x2="138.7337496165338" y1="418" y2="430" />
</g>
</g>
<text fill="hsl(205, 100%, 40%)" y="462">Full Persons Array.Unordered Keys.Hermes Decode 99.0 ms</text>
<g>
<title>99.0 ms ± 3.9 ms</title>
<rect y="468" rx="5" height="22" width="46.181961866771694" fill="hsl(205, 100%, 80%)" stroke="hsl(205, 100%, 55%)" />
<g stroke="hsl(205, 100%, 40%)"><line x1="44.376457706451454" x2="47.98746602709193" y1="479" y2="479" />
<line x1="44.376457706451454" x2="44.376457706451454" y1="473" y2="485" />
<line x1="47.98746602709193" x2="47.98746602709193" y1="473" y2="485" />
</g>
</g>
<text fill="hsl(231, 100%, 40%)" y="517">Full Persons Array.Unordered Keys.Aeson Lazy 416  ms</text>
<g>
<title>416  ms ±  31 ms</title>
<rect y="523" rx="5" height="22" width="194.19986143264038" fill="hsl(231, 100%, 80%)" stroke="hsl(231, 100%, 55%)" />
<g stroke="hsl(231, 100%, 40%)"><line x1="179.7287249369136" x2="208.67099792836714" y1="534" y2="534" />
<line x1="179.7287249369136" x2="179.7287249369136" y1="528" y2="540" />
<line x1="208.67099792836714" x2="208.67099792836714" y1="528" y2="540" />
</g>
</g>
<text fill="hsl(257, 100%, 40%)" y="572">Full Persons Array.Unordered Keys.Aeson Strict 296  ms</text>
<g>
<title>296  ms ±  13 ms</title>
<rect y="578" rx="5" height="22" width="137.91593416465648" fill="hsl(257, 100%, 80%)" stroke="hsl(257, 100%, 55%)" />
<g stroke="hsl(257, 100%, 40%)"><line x1="131.62770022705678" x2="144.20416810225618" y1="589" y2="589" />
<line x1="131.62770022705678" x2="131.62770022705678" y1="583" y2="595" />
<line x1="144.20416810225618" x2="144.20416810225618" y1="583" y2="595" />
</g>
</g>
<text fill="hsl(282, 100%, 40%)" y="627">Partial Twitter.Hermes Decode 380  μs</text>
<g>
<title>380  μs ±  22 μs</title>
<rect y="633" rx="5" height="22" width="0.17740436666298148" fill="hsl(282, 100%, 80%)" stroke="hsl(282, 100%, 55%)" />
<g stroke="hsl(282, 100%, 40%)"><line x1="0.1671930622256804" x2="0.18761567110028257" y1="644" y2="644" />
<line x1="0.1671930622256804" x2="0.1671930622256804" y1="638" y2="650" />
<line x1="0.18761567110028257" x2="0.18761567110028257" y1="638" y2="650" />
</g>
</g>
<text fill="hsl(308, 100%, 40%)" y="682">Partial Twitter.Aeson Lazy 14.2 ms</text>
<g>
<title>14.2 ms ± 1.4 ms</title>
<rect y="688" rx="5" height="22" width="6.629855004166156" fill="hsl(308, 100%, 80%)" stroke="hsl(308, 100%, 55%)" />
<g stroke="hsl(308, 100%, 40%)"><line x1="5.9938179362200135" x2="7.265892072112299" y1="699" y2="699" />
<line x1="5.9938179362200135" x2="5.9938179362200135" y1="693" y2="705" />
<line x1="7.265892072112299" x2="7.265892072112299" y1="693" y2="705" />
</g>
</g>
<text fill="hsl(334, 100%, 40%)" y="737">Partial Twitter.Aeson Strict 11.1 ms</text>
<g>
<title>11.1 ms ± 698 μs</title>
<rect y="743" rx="5" height="22" width="5.182274498989581" fill="hsl(334, 100%, 80%)" stroke="hsl(334, 100%, 55%)" />
<g stroke="hsl(334, 100%, 40%)"><line x1="4.856680981913435" x2="5.507868016065727" y1="754" y2="754" />
<line x1="4.856680981913435" x2="4.856680981913435" y1="748" y2="760" />
<line x1="5.507868016065727" x2="5.507868016065727" y1="748" y2="760" />
</g>
</g>
</g>
</svg>
