<svg xmlns="http://www.w3.org/2000/svg" height="667" width="960.0" font-size="16" font-family="sans-serif" stroke-width="2">
<g transform="translate(10.0 0)">
<text fill="hsl(0, 100%, 40%)" y="22">Small Map.Hermes Decode 1.90 μs</text>
<g>
<title>1.90 μs ± 190 ns</title>
<rect y="28" rx="5" height="22" width="0.0035383044133542557" fill="hsl(0, 100%, 80%)" stroke="hsl(0, 100%, 55%)" />
<g stroke="hsl(0, 100%, 40%)"><line x1="0.0031854021431360715" x2="0.00389120668357244" y1="39" y2="39" />
<line x1="0.0031854021431360715" x2="0.0031854021431360715" y1="33" y2="45" />
<line x1="0.00389120668357244" x2="0.00389120668357244" y1="33" y2="45" />
</g>
</g>
<text fill="hsl(30, 100%, 40%)" y="77">Small Map.Aeson Lazy 3.24 μs</text>
<g>
<title>3.24 μs ± 221 ns</title>
<rect y="83" rx="5" height="22" width="0.006026141674648876" fill="hsl(30, 100%, 80%)" stroke="hsl(30, 100%, 55%)" />
<g stroke="hsl(30, 100%, 40%)"><line x1="0.005615282673040154" x2="0.0064370006762575985" y1="94" y2="94" />
<line x1="0.005615282673040154" x2="0.005615282673040154" y1="88" y2="100" />
<line x1="0.0064370006762575985" x2="0.0064370006762575985" y1="88" y2="100" />
</g>
</g>
<text fill="hsl(60, 100%, 40%)" y="132">Small Map.Aeson Strict 3.03 μs</text>
<g>
<title>3.03 μs ± 195 ns</title>
<rect y="138" rx="5" height="22" width="0.005629748595785612" fill="hsl(60, 100%, 80%)" stroke="hsl(60, 100%, 55%)" />
<g stroke="hsl(60, 100%, 40%)"><line x1="0.005266477902421339" x2="0.005993019289149885" y1="149" y2="149" />
<line x1="0.005266477902421339" x2="0.005266477902421339" y1="143" y2="155" />
<line x1="0.005993019289149885" x2="0.005993019289149885" y1="143" y2="155" />
</g>
</g>
<text fill="hsl(90, 100%, 40%)" y="187">Full Persons Array.Ordered Keys.Hermes Decode 145  ms</text>
<g>
<title>145  ms ±  10 ms</title>
<rect y="193" rx="5" height="22" width="269.2933046621847" fill="hsl(90, 100%, 80%)" stroke="hsl(90, 100%, 55%)" />
<g stroke="hsl(90, 100%, 40%)"><line x1="250.51232678937524" x2="288.07428253499415" y1="204" y2="204" />
<line x1="250.51232678937524" x2="250.51232678937524" y1="198" y2="210" />
<line x1="288.07428253499415" x2="288.07428253499415" y1="198" y2="210" />
</g>
</g>
<g fill="hsl(120, 100%, 40%)">
<text y="242">Full Persons Array.Ordered Keys.Aeson Lazy</text>
<text y="242" x="915.4130790352376" text-anchor="end">492  ms</text>
</g>
<g>
<title>492  ms ± 4.5 ms</title>
<rect y="248" rx="5" height="22" width="915.4130790352376" fill="hsl(120, 100%, 80%)" stroke="hsl(120, 100%, 55%)" />
<g stroke="hsl(120, 100%, 40%)"><line x1="907.0497337230696" x2="923.7764243474056" y1="259" y2="259" />
<line x1="907.0497337230696" x2="907.0497337230696" y1="253" y2="265" />
<line x1="923.7764243474056" x2="923.7764243474056" y1="253" y2="265" />
</g>
</g>
<g fill="hsl(150, 100%, 40%)">
<text y="297">Full Persons Array.Ordered Keys.Aeson Strict</text>
<text y="297" x="737.0903942368599" text-anchor="end">396  ms</text>
</g>
<g>
<title>396  ms ±  29 ms</title>
<rect y="303" rx="5" height="22" width="737.0903942368599" fill="hsl(150, 100%, 80%)" stroke="hsl(150, 100%, 55%)" />
<g stroke="hsl(150, 100%, 40%)"><line x1="683.3319439019978" x2="790.848844571722" y1="314" y2="314" />
<line x1="683.3319439019978" x2="683.3319439019978" y1="308" y2="320" />
<line x1="790.848844571722" x2="790.848844571722" y1="308" y2="320" />
</g>
</g>
<text fill="hsl(180, 100%, 40%)" y="352">Full Persons Array.Unordered Keys.Hermes Decode 158  ms</text>
<g>
<title>158  ms ± 7.7 ms</title>
<rect y="358" rx="5" height="22" width="293.4176452388423" fill="hsl(180, 100%, 80%)" stroke="hsl(180, 100%, 55%)" />
<g stroke="hsl(180, 100%, 40%)"><line x1="279.16740612277476" x2="307.6678843549098" y1="369" y2="369" />
<line x1="279.16740612277476" x2="279.16740612277476" y1="363" y2="375" />
<line x1="307.6678843549098" x2="307.6678843549098" y1="363" y2="375" />
</g>
</g>
<g fill="hsl(210, 100%, 40%)">
<text y="407">Full Persons Array.Unordered Keys.Aeson Lazy</text>
<text y="407" x="926.4882637354066" text-anchor="end">498  ms</text>
</g>
<g>
<title>498  ms ± 7.3 ms</title>
<rect y="413" rx="5" height="22" width="926.4882637354066" fill="hsl(210, 100%, 80%)" stroke="hsl(210, 100%, 55%)" />
<g stroke="hsl(210, 100%, 40%)"><line x1="912.9765274708132" x2="940.0" y1="424" y2="424" />
<line x1="912.9765274708132" x2="912.9765274708132" y1="418" y2="430" />
<line x1="940.0" x2="940.0" y1="418" y2="430" />
</g>
</g>
<g fill="hsl(240, 100%, 40%)">
<text y="462">Full Persons Array.Unordered Keys.Aeson Strict</text>
<text y="462" x="727.9335172416137" text-anchor="end">391  ms</text>
</g>
<g>
<title>391  ms ±  25 ms</title>
<rect y="468" rx="5" height="22" width="727.9335172416137" fill="hsl(240, 100%, 80%)" stroke="hsl(240, 100%, 55%)" />
<g stroke="hsl(240, 100%, 40%)"><line x1="681.4729996101264" x2="774.394034873101" y1="479" y2="479" />
<line x1="681.4729996101264" x2="681.4729996101264" y1="473" y2="485" />
<line x1="774.394034873101" x2="774.394034873101" y1="473" y2="485" />
</g>
</g>
<text fill="hsl(270, 100%, 40%)" y="517">Partial Twitter.Hermes Decode 592  μs</text>
<g>
<title>592  μs ±  49 μs</title>
<rect y="523" rx="5" height="22" width="1.1023500046026258" fill="hsl(270, 100%, 80%)" stroke="hsl(270, 100%, 55%)" />
<g stroke="hsl(270, 100%, 40%)"><line x1="1.0110565151682074" x2="1.1936434940370442" y1="534" y2="534" />
<line x1="1.0110565151682074" x2="1.0110565151682074" y1="528" y2="540" />
<line x1="1.1936434940370442" x2="1.1936434940370442" y1="528" y2="540" />
</g>
</g>
<text fill="hsl(300, 100%, 40%)" y="572">Partial Twitter.Aeson Lazy 18.1 ms</text>
<g>
<title>18.1 ms ± 1.1 ms</title>
<rect y="578" rx="5" height="22" width="33.67443741458778" fill="hsl(300, 100%, 80%)" stroke="hsl(300, 100%, 55%)" />
<g stroke="hsl(300, 100%, 40%)"><line x1="31.643090425138315" x2="35.705784404037246" y1="589" y2="589" />
<line x1="31.643090425138315" x2="31.643090425138315" y1="583" y2="595" />
<line x1="35.705784404037246" x2="35.705784404037246" y1="583" y2="595" />
</g>
</g>
<text fill="hsl(330, 100%, 40%)" y="627">Partial Twitter.Aeson Strict 15.7 ms</text>
<g>
<title>15.7 ms ± 809 μs</title>
<rect y="633" rx="5" height="22" width="29.210622675929972" fill="hsl(330, 100%, 80%)" stroke="hsl(330, 100%, 55%)" />
<g stroke="hsl(330, 100%, 40%)"><line x1="27.70466131286785" x2="30.716584038992096" y1="644" y2="644" />
<line x1="27.70466131286785" x2="27.70466131286785" y1="638" y2="650" />
<line x1="30.716584038992096" x2="30.716584038992096" y1="638" y2="650" />
</g>
</g>
</g>
</svg>
