<svg xmlns="http://www.w3.org/2000/svg" height="777" width="960.0" font-size="16" font-family="sans-serif" stroke-width="2">
<g transform="translate(10.0 0)">
<text fill="hsl(0, 100%, 40%)" y="22">1 Million 3-Arrays.Hermes [[Double]] 555  ms</text>
<g>
<title>555  ms ±  29 ms</title>
<rect y="28" rx="5" height="22" width="249.88751255851574" fill="hsl(0, 100%, 80%)" stroke="hsl(0, 100%, 55%)" />
<g stroke="hsl(0, 100%, 40%)"><line x1="236.93929970246475" x2="262.8357254145667" y1="39" y2="39" />
<line x1="236.93929970246475" x2="236.93929970246475" y1="33" y2="45" />
<line x1="262.8357254145667" x2="262.8357254145667" y1="33" y2="45" />
</g>
</g>
<g fill="hsl(25, 100%, 40%)">
<text y="77">1 Million 3-Arrays.Aeson [[Double]]</text>
<text y="77" x="880.7986077637506" text-anchor="end">1.958 s</text>
</g>
<g>
<title>1.958 s ± 132 ms</title>
<rect y="83" rx="5" height="22" width="880.7986077637506" fill="hsl(25, 100%, 80%)" stroke="hsl(25, 100%, 55%)" />
<g stroke="hsl(25, 100%, 40%)"><line x1="821.5972155275012" x2="940.0" y1="94" y2="94" />
<line x1="821.5972155275012" x2="821.5972155275012" y1="88" y2="100" />
<line x1="940.0" x2="940.0" y1="88" y2="100" />
</g>
</g>
<text fill="hsl(51, 100%, 40%)" y="132">Small Object to Map.Hermes Decode 1.51 μs</text>
<g>
<title>1.51 μs ±  32 ns</title>
<rect y="138" rx="5" height="22" width="0.000680609722130112" fill="hsl(51, 100%, 80%)" stroke="hsl(51, 100%, 55%)" />
<g stroke="hsl(51, 100%, 40%)"><line x1="0.0006661552691798693" x2="0.0006950641750803546" y1="149" y2="149" />
<line x1="0.0006661552691798693" x2="0.0006661552691798693" y1="143" y2="155" />
<line x1="0.0006950641750803546" x2="0.0006950641750803546" y1="143" y2="155" />
</g>
</g>
<text fill="hsl(77, 100%, 40%)" y="187">Small Object to Map.Aeson Lazy 3.04 μs</text>
<g>
<title>3.04 μs ± 177 ns</title>
<rect y="193" rx="5" height="22" width="0.0013676191978497926" fill="hsl(77, 100%, 80%)" stroke="hsl(77, 100%, 55%)" />
<g stroke="hsl(77, 100%, 40%)"><line x1="0.0012877849378214725" x2="0.0014474534578781126" y1="204" y2="204" />
<line x1="0.0012877849378214725" x2="0.0012877849378214725" y1="198" y2="210" />
<line x1="0.0014474534578781126" x2="0.0014474534578781126" y1="198" y2="210" />
</g>
</g>
<text fill="hsl(102, 100%, 40%)" y="242">Small Object to Map.Aeson Strict 3.03 μs</text>
<g>
<title>3.03 μs ± 198 ns</title>
<rect y="248" rx="5" height="22" width="0.001363813452517544" fill="hsl(102, 100%, 80%)" stroke="hsl(102, 100%, 55%)" />
<g stroke="hsl(102, 100%, 40%)"><line x1="0.0012749251362613324" x2="0.0014527017687737556" y1="259" y2="259" />
<line x1="0.0012749251362613324" x2="0.0012749251362613324" y1="253" y2="265" />
<line x1="0.0014527017687737556" x2="0.0014527017687737556" y1="253" y2="265" />
</g>
</g>
<text fill="hsl(128, 100%, 40%)" y="297">Full Persons Array.Ordered Keys.Hermes Decode 112  ms</text>
<g>
<title>112  ms ± 1.6 ms</title>
<rect y="303" rx="5" height="22" width="50.217112525794676" fill="hsl(128, 100%, 80%)" stroke="hsl(128, 100%, 55%)" />
<g stroke="hsl(128, 100%, 40%)"><line x1="49.48657106583892" x2="50.94765398575043" y1="314" y2="314" />
<line x1="49.48657106583892" x2="49.48657106583892" y1="308" y2="320" />
<line x1="50.94765398575043" x2="50.94765398575043" y1="308" y2="320" />
</g>
</g>
<text fill="hsl(154, 100%, 40%)" y="352">Full Persons Array.Ordered Keys.Aeson Lazy 456  ms</text>
<g>
<title>456  ms ± 8.8 ms</title>
<rect y="358" rx="5" height="22" width="205.32925212891357" fill="hsl(154, 100%, 80%)" stroke="hsl(154, 100%, 55%)" />
<g stroke="hsl(154, 100%, 40%)"><line x1="201.34908914611992" x2="209.3094151117072" y1="369" y2="369" />
<line x1="201.34908914611992" x2="201.34908914611992" y1="363" y2="375" />
<line x1="209.3094151117072" x2="209.3094151117072" y1="363" y2="375" />
</g>
</g>
<text fill="hsl(180, 100%, 40%)" y="407">Full Persons Array.Ordered Keys.Aeson Strict 365  ms</text>
<g>
<title>365  ms ±  24 ms</title>
<rect y="413" rx="5" height="22" width="164.32725089685096" fill="hsl(180, 100%, 80%)" stroke="hsl(180, 100%, 55%)" />
<g stroke="hsl(180, 100%, 40%)"><line x1="153.6574032895499" x2="174.997098504152" y1="424" y2="424" />
<line x1="153.6574032895499" x2="153.6574032895499" y1="418" y2="430" />
<line x1="174.997098504152" x2="174.997098504152" y1="418" y2="430" />
</g>
</g>
<text fill="hsl(205, 100%, 40%)" y="462">Full Persons Array.Unordered Keys.Hermes Decode 121  ms</text>
<g>
<title>121  ms ± 3.9 ms</title>
<rect y="468" rx="5" height="22" width="54.46154029103497" fill="hsl(205, 100%, 80%)" stroke="hsl(205, 100%, 55%)" />
<g stroke="hsl(205, 100%, 40%)"><line x1="52.68477590463735" x2="56.238304677432595" y1="479" y2="479" />
<line x1="52.68477590463735" x2="52.68477590463735" y1="473" y2="485" />
<line x1="56.238304677432595" x2="56.238304677432595" y1="473" y2="485" />
</g>
</g>
<text fill="hsl(231, 100%, 40%)" y="517">Full Persons Array.Unordered Keys.Aeson Lazy 457  ms</text>
<g>
<title>457  ms ±  12 ms</title>
<rect y="523" rx="5" height="22" width="205.82185254214218" fill="hsl(231, 100%, 80%)" stroke="hsl(231, 100%, 55%)" />
<g stroke="hsl(231, 100%, 40%)"><line x1="200.2882088680365" x2="211.35549621624787" y1="534" y2="534" />
<line x1="200.2882088680365" x2="200.2882088680365" y1="528" y2="540" />
<line x1="211.35549621624787" x2="211.35549621624787" y1="528" y2="540" />
</g>
</g>
<text fill="hsl(257, 100%, 40%)" y="572">Full Persons Array.Unordered Keys.Aeson Strict 365  ms</text>
<g>
<title>365  ms ±  26 ms</title>
<rect y="578" rx="5" height="22" width="164.26351388667615" fill="hsl(257, 100%, 80%)" stroke="hsl(257, 100%, 55%)" />
<g stroke="hsl(257, 100%, 40%)"><line x1="152.45721662470726" x2="176.06981114864504" y1="589" y2="589" />
<line x1="152.45721662470726" x2="152.45721662470726" y1="583" y2="595" />
<line x1="176.06981114864504" x2="176.06981114864504" y1="583" y2="595" />
</g>
</g>
<text fill="hsl(282, 100%, 40%)" y="627">Partial Twitter.Hermes Decode 465  μs</text>
<g>
<title>465  μs ±  21 μs</title>
<rect y="633" rx="5" height="22" width="0.2091578159146484" fill="hsl(282, 100%, 80%)" stroke="hsl(282, 100%, 55%)" />
<g stroke="hsl(282, 100%, 40%)"><line x1="0.1996434624831045" x2="0.21867216934619232" y1="644" y2="644" />
<line x1="0.1996434624831045" x2="0.1996434624831045" y1="638" y2="650" />
<line x1="0.21867216934619232" x2="0.21867216934619232" y1="638" y2="650" />
</g>
</g>
<text fill="hsl(308, 100%, 40%)" y="682">Partial Twitter.Aeson Lazy 17.3 ms</text>
<g>
<title>17.3 ms ± 1.3 ms</title>
<rect y="688" rx="5" height="22" width="7.76688048829708" fill="hsl(308, 100%, 80%)" stroke="hsl(308, 100%, 55%)" />
<g stroke="hsl(308, 100%, 40%)"><line x1="7.189819365091591" x2="8.343941611502569" y1="699" y2="699" />
<line x1="7.189819365091591" x2="7.189819365091591" y1="693" y2="705" />
<line x1="8.343941611502569" x2="8.343941611502569" y1="693" y2="705" />
</g>
</g>
<text fill="hsl(334, 100%, 40%)" y="737">Partial Twitter.Aeson Strict 14.3 ms</text>
<g>
<title>14.3 ms ± 550 μs</title>
<rect y="743" rx="5" height="22" width="6.444352229550116" fill="hsl(334, 100%, 80%)" stroke="hsl(334, 100%, 55%)" />
<g stroke="hsl(334, 100%, 40%)"><line x1="6.19675875975852" x2="6.691945699341712" y1="754" y2="754" />
<line x1="6.19675875975852" x2="6.19675875975852" y1="748" y2="760" />
<line x1="6.691945699341712" x2="6.691945699341712" y1="748" y2="760" />
</g>
</g>
</g>
</svg>
