<svg xmlns="http://www.w3.org/2000/svg" height="667" width="960.0" font-size="16" font-family="sans-serif" stroke-width="2">
<g transform="translate(10.0 0)">
<text fill="hsl(0, 100%, 40%)" y="22">Small Map.Hermes Decode 1.43 μs</text>
<g>
<title>1.43 μs ±  98 ns</title>
<rect y="28" rx="5" height="22" width="0.0026710287603163197" fill="hsl(0, 100%, 80%)" stroke="hsl(0, 100%, 55%)" />
<g stroke="hsl(0, 100%, 40%)"><line x1="0.002487454286906129" x2="0.00285460323372651" y1="39" y2="39" />
<line x1="0.002487454286906129" x2="0.002487454286906129" y1="33" y2="45" />
<line x1="0.00285460323372651" x2="0.00285460323372651" y1="33" y2="45" />
</g>
</g>
<text fill="hsl(30, 100%, 40%)" y="77">Small Map.Aeson Lazy 3.07 μs</text>
<g>
<title>3.07 μs ± 117 ns</title>
<rect y="83" rx="5" height="22" width="0.005742068472308123" fill="hsl(30, 100%, 80%)" stroke="hsl(30, 100%, 55%)" />
<g stroke="hsl(30, 100%, 40%)"><line x1="0.005522931160859899" x2="0.005961205783756346" y1="94" y2="94" />
<line x1="0.005522931160859899" x2="0.005522931160859899" y1="88" y2="100" />
<line x1="0.005961205783756346" x2="0.005961205783756346" y1="88" y2="100" />
</g>
</g>
<text fill="hsl(60, 100%, 40%)" y="132">Small Map.Aeson Strict 3.01 μs</text>
<g>
<title>3.01 μs ± 203 ns</title>
<rect y="138" rx="5" height="22" width="0.0056180561492232915" fill="hsl(60, 100%, 80%)" stroke="hsl(60, 100%, 55%)" />
<g stroke="hsl(60, 100%, 40%)"><line x1="0.005238587219225449" x2="0.005997525079221134" y1="149" y2="149" />
<line x1="0.005238587219225449" x2="0.005238587219225449" y1="143" y2="155" />
<line x1="0.005997525079221134" x2="0.005997525079221134" y1="143" y2="155" />
</g>
</g>
<text fill="hsl(90, 100%, 40%)" y="187">Full Persons Array.Ordered Keys.Hermes Decode 107  ms</text>
<g>
<title>107  ms ± 2.9 ms</title>
<rect y="193" rx="5" height="22" width="200.25433949792654" fill="hsl(90, 100%, 80%)" stroke="hsl(90, 100%, 55%)" />
<g stroke="hsl(90, 100%, 40%)"><line x1="194.88745484282583" x2="205.62122415302724" y1="204" y2="204" />
<line x1="194.88745484282583" x2="194.88745484282583" y1="198" y2="210" />
<line x1="205.62122415302724" x2="205.62122415302724" y1="198" y2="210" />
</g>
</g>
<g fill="hsl(120, 100%, 40%)">
<text y="242">Full Persons Array.Ordered Keys.Aeson Lazy</text>
<text y="242" x="860.3090548015819" text-anchor="end">461  ms</text>
</g>
<g>
<title>461  ms ±  42 ms</title>
<rect y="248" rx="5" height="22" width="860.3090548015819" fill="hsl(120, 100%, 80%)" stroke="hsl(120, 100%, 55%)" />
<g stroke="hsl(120, 100%, 40%)"><line x1="781.3789903147939" x2="939.2391192883698" y1="259" y2="259" />
<line x1="781.3789903147939" x2="781.3789903147939" y1="253" y2="265" />
<line x1="939.2391192883698" x2="939.2391192883698" y1="253" y2="265" />
</g>
</g>
<g fill="hsl(150, 100%, 40%)">
<text y="297">Full Persons Array.Ordered Keys.Aeson Strict</text>
<text y="297" x="678.8933158894338" text-anchor="end">363  ms</text>
</g>
<g>
<title>363  ms ±  33 ms</title>
<rect y="303" rx="5" height="22" width="678.8933158894338" fill="hsl(150, 100%, 80%)" stroke="hsl(150, 100%, 55%)" />
<g stroke="hsl(150, 100%, 40%)"><line x1="617.3183387486195" x2="740.4682930302481" y1="314" y2="314" />
<line x1="617.3183387486195" x2="617.3183387486195" y1="308" y2="320" />
<line x1="740.4682930302481" x2="740.4682930302481" y1="308" y2="320" />
</g>
</g>
<text fill="hsl(180, 100%, 40%)" y="352">Full Persons Array.Unordered Keys.Hermes Decode 116  ms</text>
<g>
<title>116  ms ± 3.4 ms</title>
<rect y="358" rx="5" height="22" width="215.8180685287534" fill="hsl(180, 100%, 80%)" stroke="hsl(180, 100%, 55%)" />
<g stroke="hsl(180, 100%, 40%)"><line x1="209.45318542908592" x2="222.18295162842088" y1="369" y2="369" />
<line x1="209.45318542908592" x2="209.45318542908592" y1="363" y2="375" />
<line x1="222.18295162842088" x2="222.18295162842088" y1="363" y2="375" />
</g>
</g>
<g fill="hsl(210, 100%, 40%)">
<text y="407">Full Persons Array.Unordered Keys.Aeson Lazy</text>
<text y="407" x="860.453496331459" text-anchor="end">461  ms</text>
</g>
<g>
<title>461  ms ±  43 ms</title>
<rect y="413" rx="5" height="22" width="860.453496331459" fill="hsl(210, 100%, 80%)" stroke="hsl(210, 100%, 55%)" />
<g stroke="hsl(210, 100%, 40%)"><line x1="780.9069926629179" x2="940.0" y1="424" y2="424" />
<line x1="780.9069926629179" x2="780.9069926629179" y1="418" y2="430" />
<line x1="940.0" x2="940.0" y1="418" y2="430" />
</g>
</g>
<g fill="hsl(240, 100%, 40%)">
<text y="462">Full Persons Array.Unordered Keys.Aeson Strict</text>
<text y="462" x="677.5282908909905" text-anchor="end">363  ms</text>
</g>
<g>
<title>363  ms ±  30 ms</title>
<rect y="468" rx="5" height="22" width="677.5282908909905" fill="hsl(240, 100%, 80%)" stroke="hsl(240, 100%, 55%)" />
<g stroke="hsl(240, 100%, 40%)"><line x1="622.2775041919576" x2="732.7790775900235" y1="479" y2="479" />
<line x1="622.2775041919576" x2="622.2775041919576" y1="473" y2="485" />
<line x1="732.7790775900235" x2="732.7790775900235" y1="473" y2="485" />
</g>
</g>
<text fill="hsl(270, 100%, 40%)" y="517">Partial Twitter.Hermes Decode 457  μs</text>
<g>
<title>457  μs ±  22 μs</title>
<rect y="523" rx="5" height="22" width="0.8529070019567534" fill="hsl(270, 100%, 80%)" stroke="hsl(270, 100%, 55%)" />
<g stroke="hsl(270, 100%, 40%)"><line x1="0.8116415582427394" x2="0.8941724456707674" y1="534" y2="534" />
<line x1="0.8116415582427394" x2="0.8116415582427394" y1="528" y2="540" />
<line x1="0.8941724456707674" x2="0.8941724456707674" y1="528" y2="540" />
</g>
</g>
<text fill="hsl(300, 100%, 40%)" y="572">Partial Twitter.Aeson Lazy 17.5 ms</text>
<g>
<title>17.5 ms ± 723 μs</title>
<rect y="578" rx="5" height="22" width="32.63437700946249" fill="hsl(300, 100%, 80%)" stroke="hsl(300, 100%, 55%)" />
<g stroke="hsl(300, 100%, 40%)"><line x1="31.28376174052447" x2="33.98499227840051" y1="589" y2="589" />
<line x1="31.28376174052447" x2="31.28376174052447" y1="583" y2="595" />
<line x1="33.98499227840051" x2="33.98499227840051" y1="583" y2="595" />
</g>
</g>
<text fill="hsl(330, 100%, 40%)" y="627">Partial Twitter.Aeson Strict 14.7 ms</text>
<g>
<title>14.7 ms ± 678 μs</title>
<rect y="633" rx="5" height="22" width="27.539660241451845" fill="hsl(330, 100%, 80%)" stroke="hsl(330, 100%, 55%)" />
<g stroke="hsl(330, 100%, 40%)"><line x1="26.27271067309212" x2="28.80660980981157" y1="644" y2="644" />
<line x1="26.27271067309212" x2="26.27271067309212" y1="638" y2="650" />
<line x1="28.80660980981157" x2="28.80660980981157" y1="638" y2="650" />
</g>
</g>
</g>
</svg>
