<svg xmlns="http://www.w3.org/2000/svg" height="667" width="960.0" font-size="16" font-family="sans-serif" stroke-width="2">
<g transform="translate(10.0 0)">
<text fill="hsl(0, 100%, 40%)" y="22">Small Map.Hermes Decode 1.81 μs</text>
<g>
<title>1.81 μs ±  97 ns</title>
<rect y="28" rx="5" height="22" width="0.0033609021759698826" fill="hsl(0, 100%, 80%)" stroke="hsl(0, 100%, 55%)" />
<g stroke="hsl(0, 100%, 40%)"><line x1="0.003179840193792451" x2="0.003541964158147314" y1="39" y2="39" />
<line x1="0.003179840193792451" x2="0.003179840193792451" y1="33" y2="45" />
<line x1="0.003541964158147314" x2="0.003541964158147314" y1="33" y2="45" />
</g>
</g>
<text fill="hsl(30, 100%, 40%)" y="77">Small Map.Aeson Lazy 3.03 μs</text>
<g>
<title>3.03 μs ± 200 ns</title>
<rect y="83" rx="5" height="22" width="0.005628245365002458" fill="hsl(30, 100%, 80%)" stroke="hsl(30, 100%, 55%)" />
<g stroke="hsl(30, 100%, 40%)"><line x1="0.005256620385939209" x2="0.005999870344065708" y1="94" y2="94" />
<line x1="0.005256620385939209" x2="0.005256620385939209" y1="88" y2="100" />
<line x1="0.005999870344065708" x2="0.005999870344065708" y1="88" y2="100" />
</g>
</g>
<text fill="hsl(60, 100%, 40%)" y="132">Small Map.Aeson Strict 3.02 μs</text>
<g>
<title>3.02 μs ± 179 ns</title>
<rect y="138" rx="5" height="22" width="0.005604050488344834" fill="hsl(60, 100%, 80%)" stroke="hsl(60, 100%, 55%)" />
<g stroke="hsl(60, 100%, 40%)"><line x1="0.005271277076469401" x2="0.005936823900220268" y1="149" y2="149" />
<line x1="0.005271277076469401" x2="0.005271277076469401" y1="143" y2="155" />
<line x1="0.005936823900220268" x2="0.005936823900220268" y1="143" y2="155" />
</g>
</g>
<text fill="hsl(90, 100%, 40%)" y="187">Full Persons Array.Ordered Keys.Hermes Decode 138  ms</text>
<g>
<title>138  ms ± 4.4 ms</title>
<rect y="193" rx="5" height="22" width="256.45288014024817" fill="hsl(90, 100%, 80%)" stroke="hsl(90, 100%, 55%)" />
<g stroke="hsl(90, 100%, 40%)"><line x1="248.19123566260578" x2="264.71452461789056" y1="204" y2="204" />
<line x1="248.19123566260578" x2="248.19123566260578" y1="198" y2="210" />
<line x1="264.71452461789056" x2="264.71452461789056" y1="198" y2="210" />
</g>
</g>
<g fill="hsl(120, 100%, 40%)">
<text y="242">Full Persons Array.Ordered Keys.Aeson Lazy</text>
<text y="242" x="861.5724126878481" text-anchor="end">464  ms</text>
</g>
<g>
<title>464  ms ±  39 ms</title>
<rect y="248" rx="5" height="22" width="861.5724126878481" fill="hsl(120, 100%, 80%)" stroke="hsl(120, 100%, 55%)" />
<g stroke="hsl(120, 100%, 40%)"><line x1="789.1923496313829" x2="933.9524757443133" y1="259" y2="259" />
<line x1="789.1923496313829" x2="789.1923496313829" y1="253" y2="265" />
<line x1="933.9524757443133" x2="933.9524757443133" y1="253" y2="265" />
</g>
</g>
<g fill="hsl(150, 100%, 40%)">
<text y="297">Full Persons Array.Ordered Keys.Aeson Strict</text>
<text y="297" x="676.7362118917805" text-anchor="end">364  ms</text>
</g>
<g>
<title>364  ms ±  35 ms</title>
<rect y="303" rx="5" height="22" width="676.7362118917805" fill="hsl(150, 100%, 80%)" stroke="hsl(150, 100%, 55%)" />
<g stroke="hsl(150, 100%, 40%)"><line x1="611.0771504964807" x2="742.3952732870803" y1="314" y2="314" />
<line x1="611.0771504964807" x2="611.0771504964807" y1="308" y2="320" />
<line x1="742.3952732870803" x2="742.3952732870803" y1="308" y2="320" />
</g>
</g>
<text fill="hsl(180, 100%, 40%)" y="352">Full Persons Array.Unordered Keys.Hermes Decode 144  ms</text>
<g>
<title>144  ms ± 6.5 ms</title>
<rect y="358" rx="5" height="22" width="268.3725121456203" fill="hsl(180, 100%, 80%)" stroke="hsl(180, 100%, 55%)" />
<g stroke="hsl(180, 100%, 40%)"><line x1="256.37324964920924" x2="280.37177464203137" y1="369" y2="369" />
<line x1="256.37324964920924" x2="256.37324964920924" y1="363" y2="375" />
<line x1="280.37177464203137" x2="280.37177464203137" y1="363" y2="375" />
</g>
</g>
<g fill="hsl(210, 100%, 40%)">
<text y="407">Full Persons Array.Unordered Keys.Aeson Lazy</text>
<text y="407" x="857.9773372627382" text-anchor="end">462  ms</text>
</g>
<g>
<title>462  ms ±  44 ms</title>
<rect y="413" rx="5" height="22" width="857.9773372627382" fill="hsl(210, 100%, 80%)" stroke="hsl(210, 100%, 55%)" />
<g stroke="hsl(210, 100%, 40%)"><line x1="775.9546745254763" x2="940.0" y1="424" y2="424" />
<line x1="775.9546745254763" x2="775.9546745254763" y1="418" y2="430" />
<line x1="940.0" x2="940.0" y1="418" y2="430" />
</g>
</g>
<g fill="hsl(240, 100%, 40%)">
<text y="462">Full Persons Array.Unordered Keys.Aeson Strict</text>
<text y="462" x="672.6465952693882" text-anchor="end">362  ms</text>
</g>
<g>
<title>362  ms ±  33 ms</title>
<rect y="468" rx="5" height="22" width="672.6465952693882" fill="hsl(240, 100%, 80%)" stroke="hsl(240, 100%, 55%)" />
<g stroke="hsl(240, 100%, 40%)"><line x1="611.330178970235" x2="733.9630115685413" y1="479" y2="479" />
<line x1="611.330178970235" x2="611.330178970235" y1="473" y2="485" />
<line x1="733.9630115685413" x2="733.9630115685413" y1="473" y2="485" />
</g>
</g>
<text fill="hsl(270, 100%, 40%)" y="517">Partial Twitter.Hermes Decode 529  μs</text>
<g>
<title>529  μs ±  47 μs</title>
<rect y="523" rx="5" height="22" width="0.9836433665912803" fill="hsl(270, 100%, 80%)" stroke="hsl(270, 100%, 55%)" />
<g stroke="hsl(270, 100%, 40%)"><line x1="0.8961716539158203" x2="1.0711150792667403" y1="534" y2="534" />
<line x1="0.8961716539158203" x2="0.8961716539158203" y1="528" y2="540" />
<line x1="1.0711150792667403" x2="1.0711150792667403" y1="528" y2="540" />
</g>
</g>
<text fill="hsl(300, 100%, 40%)" y="572">Partial Twitter.Aeson Lazy 17.4 ms</text>
<g>
<title>17.4 ms ± 710 μs</title>
<rect y="578" rx="5" height="22" width="32.279969891781064" fill="hsl(300, 100%, 80%)" stroke="hsl(300, 100%, 55%)" />
<g stroke="hsl(300, 100%, 40%)"><line x1="30.960572997013667" x2="33.59936678654846" y1="589" y2="589" />
<line x1="30.960572997013667" x2="30.960572997013667" y1="583" y2="595" />
<line x1="33.59936678654846" x2="33.59936678654846" y1="583" y2="595" />
</g>
</g>
<text fill="hsl(330, 100%, 40%)" y="627">Partial Twitter.Aeson Strict 14.4 ms</text>
<g>
<title>14.4 ms ± 936 μs</title>
<rect y="633" rx="5" height="22" width="26.70298544696531" fill="hsl(330, 100%, 80%)" stroke="hsl(330, 100%, 55%)" />
<g stroke="hsl(330, 100%, 40%)"><line x1="24.962508275072445" x2="28.443462618858177" y1="644" y2="644" />
<line x1="24.962508275072445" x2="24.962508275072445" y1="638" y2="650" />
<line x1="28.443462618858177" x2="28.443462618858177" y1="638" y2="650" />
</g>
</g>
</g>
</svg>
