<svg xmlns="http://www.w3.org/2000/svg" height="612" width="960.0" font-size="16" font-family="sans-serif" stroke-width="2">
<g transform="translate(10.0 0)">
<text fill="hsl(0, 100%, 40%)" y="22">Decode.Arrays.Hermes 267  ms</text>
<g>
<title>267  ms ±  18 ms</title>
<rect y="28" rx="5" height="22" width="108.47074284486479" fill="hsl(0, 100%, 80%)" stroke="hsl(0, 100%, 55%)" />
<g stroke="hsl(0, 100%, 40%)"><line x1="101.04941038109062" x2="115.89207530863895" y1="39" y2="39" />
<line x1="101.04941038109062" x2="101.04941038109062" y1="33" y2="45" />
<line x1="115.89207530863895" x2="115.89207530863895" y1="33" y2="45" />
</g>
</g>
<g fill="hsl(32, 100%, 40%)">
<text y="77">Decode.Arrays.Aeson</text>
<text y="77" x="895.7874665541243" text-anchor="end">2.206 s</text>
</g>
<g>
<title>2.206 s ± 109 ms</title>
<rect y="83" rx="5" height="22" width="895.7874665541243" fill="hsl(32, 100%, 80%)" stroke="hsl(32, 100%, 55%)" />
<g stroke="hsl(32, 100%, 40%)"><line x1="851.5749331082486" x2="940.0" y1="94" y2="94" />
<line x1="851.5749331082486" x2="851.5749331082486" y1="88" y2="100" />
<line x1="940.0" x2="940.0" y1="88" y2="100" />
</g>
</g>
<text fill="hsl(65, 100%, 40%)" y="132">Decode.Persons.Hermes 47.2 ms</text>
<g>
<title>47.2 ms ± 3.9 ms</title>
<rect y="138" rx="5" height="22" width="19.14904432322063" fill="hsl(65, 100%, 80%)" stroke="hsl(65, 100%, 55%)" />
<g stroke="hsl(65, 100%, 40%)"><line x1="17.573145119736736" x2="20.72494352670452" y1="149" y2="149" />
<line x1="17.573145119736736" x2="17.573145119736736" y1="143" y2="155" />
<line x1="20.72494352670452" x2="20.72494352670452" y1="143" y2="155" />
</g>
</g>
<text fill="hsl(98, 100%, 40%)" y="187">Decode.Persons.Aeson 134  ms</text>
<g>
<title>134  ms ± 7.2 ms</title>
<rect y="193" rx="5" height="22" width="54.5250922067249" fill="hsl(98, 100%, 80%)" stroke="hsl(98, 100%, 55%)" />
<g stroke="hsl(98, 100%, 40%)"><line x1="51.60312472993799" x2="57.44705968351181" y1="204" y2="204" />
<line x1="51.60312472993799" x2="51.60312472993799" y1="198" y2="210" />
<line x1="57.44705968351181" x2="57.44705968351181" y1="198" y2="210" />
</g>
</g>
<text fill="hsl(130, 100%, 40%)" y="242">Decode.Partial Twitter.Hermes 246  μs</text>
<g>
<title>246  μs ±  21 μs</title>
<rect y="248" rx="5" height="22" width="0.10008216865749912" fill="hsl(130, 100%, 80%)" stroke="hsl(130, 100%, 55%)" />
<g stroke="hsl(130, 100%, 40%)"><line x1="0.09158077707286993" x2="0.10858356024212831" y1="259" y2="259" />
<line x1="0.09158077707286993" x2="0.09158077707286993" y1="253" y2="265" />
<line x1="0.10858356024212831" x2="0.10858356024212831" y1="253" y2="265" />
</g>
</g>
<text fill="hsl(163, 100%, 40%)" y="297">Decode.Partial Twitter.JsonStream 2.11 ms</text>
<g>
<title>2.11 ms ±  73 μs</title>
<rect y="303" rx="5" height="22" width="0.8550340924858658" fill="hsl(163, 100%, 80%)" stroke="hsl(163, 100%, 55%)" />
<g stroke="hsl(163, 100%, 40%)"><line x1="0.825303518809726" x2="0.8847646661620057" y1="314" y2="314" />
<line x1="0.825303518809726" x2="0.825303518809726" y1="308" y2="320" />
<line x1="0.8847646661620057" x2="0.8847646661620057" y1="308" y2="320" />
</g>
</g>
<text fill="hsl(196, 100%, 40%)" y="352">Decode.Partial Twitter.Aeson 4.30 ms</text>
<g>
<title>4.30 ms ± 139 μs</title>
<rect y="358" rx="5" height="22" width="1.745181424215002" fill="hsl(196, 100%, 80%)" stroke="hsl(196, 100%, 55%)" />
<g stroke="hsl(196, 100%, 40%)"><line x1="1.6886502008087056" x2="1.8017126476212986" y1="369" y2="369" />
<line x1="1.6886502008087056" x2="1.6886502008087056" y1="363" y2="375" />
<line x1="1.8017126476212986" x2="1.8017126476212986" y1="363" y2="375" />
</g>
</g>
<text fill="hsl(229, 100%, 40%)" y="407">Decode.Persons (Aeson Value).Hermes 108  ms</text>
<g>
<title>108  ms ±  10 ms</title>
<rect y="413" rx="5" height="22" width="43.89905933723556" fill="hsl(229, 100%, 80%)" stroke="hsl(229, 100%, 55%)" />
<g stroke="hsl(229, 100%, 40%)"><line x1="39.85163767043275" x2="47.946481004038375" y1="424" y2="424" />
<line x1="39.85163767043275" x2="39.85163767043275" y1="418" y2="430" />
<line x1="47.946481004038375" x2="47.946481004038375" y1="418" y2="430" />
</g>
</g>
<text fill="hsl(261, 100%, 40%)" y="462">Decode.Persons (Aeson Value).Aeson 119  ms</text>
<g>
<title>119  ms ± 9.1 ms</title>
<rect y="468" rx="5" height="22" width="48.42325999676998" fill="hsl(261, 100%, 80%)" stroke="hsl(261, 100%, 55%)" />
<g stroke="hsl(261, 100%, 40%)"><line x1="44.7081896560621" x2="52.13833033747785" y1="479" y2="479" />
<line x1="44.7081896560621" x2="44.7081896560621" y1="473" y2="485" />
<line x1="52.13833033747785" x2="52.13833033747785" y1="473" y2="485" />
</g>
</g>
<text fill="hsl(294, 100%, 40%)" y="517">Decode.Twitter (Aeson Value).Hermes 4.26 ms</text>
<g>
<title>4.26 ms ± 149 μs</title>
<rect y="523" rx="5" height="22" width="1.7305123868878605" fill="hsl(294, 100%, 80%)" stroke="hsl(294, 100%, 55%)" />
<g stroke="hsl(294, 100%, 40%)"><line x1="1.6699204161766796" x2="1.7911043575990413" y1="534" y2="534" />
<line x1="1.6699204161766796" x2="1.6699204161766796" y1="528" y2="540" />
<line x1="1.7911043575990413" x2="1.7911043575990413" y1="528" y2="540" />
</g>
</g>
<text fill="hsl(327, 100%, 40%)" y="572">Decode.Twitter (Aeson Value).Aeson 4.83 ms</text>
<g>
<title>4.83 ms ± 243 μs</title>
<rect y="578" rx="5" height="22" width="1.962360969687332" fill="hsl(327, 100%, 80%)" stroke="hsl(327, 100%, 55%)" />
<g stroke="hsl(327, 100%, 40%)"><line x1="1.8636828189967407" x2="2.0610391203779237" y1="589" y2="589" />
<line x1="1.8636828189967407" x2="1.8636828189967407" y1="583" y2="595" />
<line x1="2.0610391203779237" x2="2.0610391203779237" y1="583" y2="595" />
</g>
</g>
</g>
</svg>
