<svg xmlns="http://www.w3.org/2000/svg" height="612" width="960.0" font-size="16" font-family="sans-serif" stroke-width="2">
<g transform="translate(10.0 0)">
<text fill="hsl(0, 100%, 40%)" y="22">Decode.Arrays.Hermes 268  ms</text>
<g>
<title>268  ms ±  12 ms</title>
<rect y="28" rx="5" height="22" width="106.11801369420215" fill="hsl(0, 100%, 80%)" stroke="hsl(0, 100%, 55%)" />
<g stroke="hsl(0, 100%, 40%)"><line x1="101.31401103015097" x2="110.92201635825333" y1="39" y2="39" />
<line x1="101.31401103015097" x2="101.31401103015097" y1="33" y2="45" />
<line x1="110.92201635825333" x2="110.92201635825333" y1="33" y2="45" />
</g>
</g>
<g fill="hsl(32, 100%, 40%)">
<text y="77">Decode.Arrays.Aeson</text>
<text y="77" x="880.3601874845376" text-anchor="end">2.225 s</text>
</g>
<g>
<title>2.225 s ± 151 ms</title>
<rect y="83" rx="5" height="22" width="880.3601874845376" fill="hsl(32, 100%, 80%)" stroke="hsl(32, 100%, 55%)" />
<g stroke="hsl(32, 100%, 40%)"><line x1="820.7203749690752" x2="940.0" y1="94" y2="94" />
<line x1="820.7203749690752" x2="820.7203749690752" y1="88" y2="100" />
<line x1="940.0" x2="940.0" y1="88" y2="100" />
</g>
</g>
<text fill="hsl(65, 100%, 40%)" y="132">Decode.Persons.Hermes 44.4 ms</text>
<g>
<title>44.4 ms ± 3.5 ms</title>
<rect y="138" rx="5" height="22" width="17.554779124217802" fill="hsl(65, 100%, 80%)" stroke="hsl(65, 100%, 55%)" />
<g stroke="hsl(65, 100%, 40%)"><line x1="16.16689419910087" x2="18.942664049334734" y1="149" y2="149" />
<line x1="16.16689419910087" x2="16.16689419910087" y1="143" y2="155" />
<line x1="18.942664049334734" x2="18.942664049334734" y1="143" y2="155" />
</g>
</g>
<text fill="hsl(98, 100%, 40%)" y="187">Decode.Persons.Aeson 135  ms</text>
<g>
<title>135  ms ±  11 ms</title>
<rect y="193" rx="5" height="22" width="53.21883126683768" fill="hsl(98, 100%, 80%)" stroke="hsl(98, 100%, 55%)" />
<g stroke="hsl(98, 100%, 40%)"><line x1="48.68822065411833" x2="57.74944187955703" y1="204" y2="204" />
<line x1="48.68822065411833" x2="48.68822065411833" y1="198" y2="210" />
<line x1="57.74944187955703" x2="57.74944187955703" y1="198" y2="210" />
</g>
</g>
<text fill="hsl(130, 100%, 40%)" y="242">Decode.Partial Twitter.Hermes 234  μs</text>
<g>
<title>234  μs ±  15 μs</title>
<rect y="248" rx="5" height="22" width="0.09245780540461358" fill="hsl(130, 100%, 80%)" stroke="hsl(130, 100%, 55%)" />
<g stroke="hsl(130, 100%, 40%)"><line x1="0.08671323402076161" x2="0.09820237678846555" y1="259" y2="259" />
<line x1="0.08671323402076161" x2="0.08671323402076161" y1="253" y2="265" />
<line x1="0.09820237678846555" x2="0.09820237678846555" y1="253" y2="265" />
</g>
</g>
<text fill="hsl(163, 100%, 40%)" y="297">Decode.Partial Twitter.JsonStream 2.13 ms</text>
<g>
<title>2.13 ms ± 154 μs</title>
<rect y="303" rx="5" height="22" width="0.8412451612053498" fill="hsl(163, 100%, 80%)" stroke="hsl(163, 100%, 55%)" />
<g stroke="hsl(163, 100%, 40%)"><line x1="0.7801231814361567" x2="0.9023671409745428" y1="314" y2="314" />
<line x1="0.7801231814361567" x2="0.7801231814361567" y1="308" y2="320" />
<line x1="0.9023671409745428" x2="0.9023671409745428" y1="308" y2="320" />
</g>
</g>
<text fill="hsl(196, 100%, 40%)" y="352">Decode.Partial Twitter.Aeson 4.32 ms</text>
<g>
<title>4.32 ms ± 356 μs</title>
<rect y="358" rx="5" height="22" width="1.7099120761988604" fill="hsl(196, 100%, 80%)" stroke="hsl(196, 100%, 55%)" />
<g stroke="hsl(196, 100%, 40%)"><line x1="1.569165490985521" x2="1.8506586614121998" y1="369" y2="369" />
<line x1="1.569165490985521" x2="1.569165490985521" y1="363" y2="375" />
<line x1="1.8506586614121998" x2="1.8506586614121998" y1="363" y2="375" />
</g>
</g>
<text fill="hsl(229, 100%, 40%)" y="407">Decode.Persons (Aeson Value).Hermes 109  ms</text>
<g>
<title>109  ms ± 8.9 ms</title>
<rect y="413" rx="5" height="22" width="43.033276490927044" fill="hsl(229, 100%, 80%)" stroke="hsl(229, 100%, 55%)" />
<g stroke="hsl(229, 100%, 40%)"><line x1="39.4948401398004" x2="46.571712842053685" y1="424" y2="424" />
<line x1="39.4948401398004" x2="39.4948401398004" y1="418" y2="430" />
<line x1="46.571712842053685" x2="46.571712842053685" y1="418" y2="430" />
</g>
</g>
<text fill="hsl(261, 100%, 40%)" y="462">Decode.Persons (Aeson Value).Aeson 119  ms</text>
<g>
<title>119  ms ± 9.4 ms</title>
<rect y="468" rx="5" height="22" width="47.261971269930704" fill="hsl(261, 100%, 80%)" stroke="hsl(261, 100%, 55%)" />
<g stroke="hsl(261, 100%, 40%)"><line x1="43.561534645044915" x2="50.962407894816494" y1="479" y2="479" />
<line x1="43.561534645044915" x2="43.561534645044915" y1="473" y2="485" />
<line x1="50.962407894816494" x2="50.962407894816494" y1="473" y2="485" />
</g>
</g>
<text fill="hsl(294, 100%, 40%)" y="517">Decode.Twitter (Aeson Value).Hermes 4.21 ms</text>
<g>
<title>4.21 ms ± 335 μs</title>
<rect y="523" rx="5" height="22" width="1.665267181578805" fill="hsl(294, 100%, 80%)" stroke="hsl(294, 100%, 55%)" />
<g stroke="hsl(294, 100%, 40%)"><line x1="1.5326797788994493" x2="1.7978545842581606" y1="534" y2="534" />
<line x1="1.5326797788994493" x2="1.5326797788994493" y1="528" y2="540" />
<line x1="1.7978545842581606" x2="1.7978545842581606" y1="528" y2="540" />
</g>
</g>
<text fill="hsl(327, 100%, 40%)" y="572">Decode.Twitter (Aeson Value).Aeson 4.82 ms</text>
<g>
<title>4.82 ms ± 465 μs</title>
<rect y="578" rx="5" height="22" width="1.9089408118060547" fill="hsl(327, 100%, 80%)" stroke="hsl(327, 100%, 55%)" />
<g stroke="hsl(327, 100%, 40%)"><line x1="1.7249983927309662" x2="2.092883230881143" y1="589" y2="589" />
<line x1="1.7249983927309662" x2="1.7249983927309662" y1="583" y2="595" />
<line x1="2.092883230881143" x2="2.092883230881143" y1="583" y2="595" />
</g>
</g>
</g>
</svg>
