<svg xmlns="http://www.w3.org/2000/svg" height="612" width="960.0" font-size="16" font-family="sans-serif" stroke-width="2">
<g transform="translate(10.0 0)">
<text fill="hsl(0, 100%, 40%)" y="22">Decode.Arrays.Hermes 268  ms</text>
<g>
<title>268  ms ± 7.7 ms</title>
<rect y="28" rx="5" height="22" width="106.19354225633622" fill="hsl(0, 100%, 80%)" stroke="hsl(0, 100%, 55%)" />
<g stroke="hsl(0, 100%, 40%)"><line x1="103.13578332897148" x2="109.25130118370095" y1="39" y2="39" />
<line x1="103.13578332897148" x2="103.13578332897148" y1="33" y2="45" />
<line x1="109.25130118370095" x2="109.25130118370095" y1="33" y2="45" />
</g>
</g>
<g fill="hsl(32, 100%, 40%)">
<text y="77">Decode.Arrays.Aeson</text>
<text y="77" x="879.3049997270558" text-anchor="end">2.220 s</text>
</g>
<g>
<title>2.220 s ± 153 ms</title>
<rect y="83" rx="5" height="22" width="879.3049997270558" fill="hsl(32, 100%, 80%)" stroke="hsl(32, 100%, 55%)" />
<g stroke="hsl(32, 100%, 40%)"><line x1="818.6099994541116" x2="940.0" y1="94" y2="94" />
<line x1="818.6099994541116" x2="818.6099994541116" y1="88" y2="100" />
<line x1="940.0" x2="940.0" y1="88" y2="100" />
</g>
</g>
<text fill="hsl(65, 100%, 40%)" y="132">Decode.Persons.Hermes 47.5 ms</text>
<g>
<title>47.5 ms ± 2.6 ms</title>
<rect y="138" rx="5" height="22" width="18.808860442420823" fill="hsl(65, 100%, 80%)" stroke="hsl(65, 100%, 55%)" />
<g stroke="hsl(65, 100%, 40%)"><line x1="17.78050014035233" x2="19.837220744489315" y1="149" y2="149" />
<line x1="17.78050014035233" x2="17.78050014035233" y1="143" y2="155" />
<line x1="19.837220744489315" x2="19.837220744489315" y1="143" y2="155" />
</g>
</g>
<text fill="hsl(98, 100%, 40%)" y="187">Decode.Persons.Aeson 133  ms</text>
<g>
<title>133  ms ± 9.2 ms</title>
<rect y="193" rx="5" height="22" width="52.553303644969354" fill="hsl(98, 100%, 80%)" stroke="hsl(98, 100%, 55%)" />
<g stroke="hsl(98, 100%, 40%)"><line x1="48.91589366644237" x2="56.190713623496336" y1="204" y2="204" />
<line x1="48.91589366644237" x2="48.91589366644237" y1="198" y2="210" />
<line x1="56.190713623496336" x2="56.190713623496336" y1="198" y2="210" />
</g>
</g>
<text fill="hsl(130, 100%, 40%)" y="242">Decode.Partial Twitter.Hermes 239  μs</text>
<g>
<title>239  μs ±  15 μs</title>
<rect y="248" rx="5" height="22" width="0.09451932602269482" fill="hsl(130, 100%, 80%)" stroke="hsl(130, 100%, 55%)" />
<g stroke="hsl(130, 100%, 40%)"><line x1="0.08853209231618153" x2="0.1005065597292081" y1="259" y2="259" />
<line x1="0.08853209231618153" x2="0.08853209231618153" y1="253" y2="265" />
<line x1="0.1005065597292081" x2="0.1005065597292081" y1="253" y2="265" />
</g>
</g>
<text fill="hsl(163, 100%, 40%)" y="297">Decode.Partial Twitter.JsonStream 2.12 ms</text>
<g>
<title>2.12 ms ± 107 μs</title>
<rect y="303" rx="5" height="22" width="0.8399005226018006" fill="hsl(163, 100%, 80%)" stroke="hsl(163, 100%, 55%)" />
<g stroke="hsl(163, 100%, 40%)"><line x1="0.7976942655354009" x2="0.8821067796682003" y1="314" y2="314" />
<line x1="0.7976942655354009" x2="0.7976942655354009" y1="308" y2="320" />
<line x1="0.8821067796682003" x2="0.8821067796682003" y1="308" y2="320" />
</g>
</g>
<text fill="hsl(196, 100%, 40%)" y="352">Decode.Partial Twitter.Aeson 4.26 ms</text>
<g>
<title>4.26 ms ± 423 μs</title>
<rect y="358" rx="5" height="22" width="1.68583740030661" fill="hsl(196, 100%, 80%)" stroke="hsl(196, 100%, 55%)" />
<g stroke="hsl(196, 100%, 40%)"><line x1="1.5181692379229563" x2="1.8535055626902635" y1="369" y2="369" />
<line x1="1.5181692379229563" x2="1.5181692379229563" y1="363" y2="375" />
<line x1="1.8535055626902635" x2="1.8535055626902635" y1="363" y2="375" />
</g>
</g>
<text fill="hsl(229, 100%, 40%)" y="407">Decode.Persons (Aeson Value).Hermes 107  ms</text>
<g>
<title>107  ms ± 9.6 ms</title>
<rect y="413" rx="5" height="22" width="42.54116833357021" fill="hsl(229, 100%, 80%)" stroke="hsl(229, 100%, 55%)" />
<g stroke="hsl(229, 100%, 40%)"><line x1="38.726010508397756" x2="46.35632615874267" y1="424" y2="424" />
<line x1="38.726010508397756" x2="38.726010508397756" y1="418" y2="430" />
<line x1="46.35632615874267" x2="46.35632615874267" y1="418" y2="430" />
</g>
</g>
<text fill="hsl(261, 100%, 40%)" y="462">Decode.Persons (Aeson Value).Aeson 120  ms</text>
<g>
<title>120  ms ± 9.2 ms</title>
<rect y="468" rx="5" height="22" width="47.446257936694245" fill="hsl(261, 100%, 80%)" stroke="hsl(261, 100%, 55%)" />
<g stroke="hsl(261, 100%, 40%)"><line x1="43.79689182483564" x2="51.09562404855285" y1="479" y2="479" />
<line x1="43.79689182483564" x2="43.79689182483564" y1="473" y2="485" />
<line x1="51.09562404855285" x2="51.09562404855285" y1="473" y2="485" />
</g>
</g>
<text fill="hsl(294, 100%, 40%)" y="517">Decode.Twitter (Aeson Value).Hermes 4.17 ms</text>
<g>
<title>4.17 ms ± 245 μs</title>
<rect y="523" rx="5" height="22" width="1.6505314708386116" fill="hsl(294, 100%, 80%)" stroke="hsl(294, 100%, 55%)" />
<g stroke="hsl(294, 100%, 40%)"><line x1="1.5532993249746148" x2="1.7477636167026085" y1="534" y2="534" />
<line x1="1.5532993249746148" x2="1.5532993249746148" y1="528" y2="540" />
<line x1="1.7477636167026085" x2="1.7477636167026085" y1="528" y2="540" />
</g>
</g>
<text fill="hsl(327, 100%, 40%)" y="572">Decode.Twitter (Aeson Value).Aeson 4.81 ms</text>
<g>
<title>4.81 ms ± 442 μs</title>
<rect y="578" rx="5" height="22" width="1.9044705288985875" fill="hsl(327, 100%, 80%)" stroke="hsl(327, 100%, 55%)" />
<g stroke="hsl(327, 100%, 40%)"><line x1="1.7295733344627056" x2="2.0793677233344696" y1="589" y2="589" />
<line x1="1.7295733344627056" x2="1.7295733344627056" y1="583" y2="595" />
<line x1="2.0793677233344696" x2="2.0793677233344696" y1="583" y2="595" />
</g>
</g>
</g>
</svg>
