<svg xmlns="http://www.w3.org/2000/svg" height="612" width="960.0" font-size="16" font-family="sans-serif" stroke-width="2">
<g transform="translate(10.0 0)">
<text fill="hsl(0, 100%, 40%)" y="22">Decode.Arrays.Hermes 268  ms</text>
<g>
<title>268  ms ±  11 ms</title>
<rect y="28" rx="5" height="22" width="106.02849621161678" fill="hsl(0, 100%, 80%)" stroke="hsl(0, 100%, 55%)" />
<g stroke="hsl(0, 100%, 40%)"><line x1="101.82939336972505" x2="110.22759905350851" y1="39" y2="39" />
<line x1="101.82939336972505" x2="101.82939336972505" y1="33" y2="45" />
<line x1="110.22759905350851" x2="110.22759905350851" y1="33" y2="45" />
</g>
</g>
<g fill="hsl(32, 100%, 40%)">
<text y="77">Decode.Arrays.Aeson</text>
<text y="77" x="876.5686007831259" text-anchor="end">2.215 s</text>
</g>
<g>
<title>2.215 s ± 160 ms</title>
<rect y="83" rx="5" height="22" width="876.5686007831259" fill="hsl(32, 100%, 80%)" stroke="hsl(32, 100%, 55%)" />
<g stroke="hsl(32, 100%, 40%)"><line x1="813.1372015662519" x2="940.0" y1="94" y2="94" />
<line x1="813.1372015662519" x2="813.1372015662519" y1="88" y2="100" />
<line x1="940.0" x2="940.0" y1="88" y2="100" />
</g>
</g>
<text fill="hsl(65, 100%, 40%)" y="132">Decode.Persons.Hermes 47.3 ms</text>
<g>
<title>47.3 ms ± 4.3 ms</title>
<rect y="138" rx="5" height="22" width="18.73430776798638" fill="hsl(65, 100%, 80%)" stroke="hsl(65, 100%, 55%)" />
<g stroke="hsl(65, 100%, 40%)"><line x1="17.036383883988503" x2="20.432231651984257" y1="149" y2="149" />
<line x1="17.036383883988503" x2="17.036383883988503" y1="143" y2="155" />
<line x1="20.432231651984257" x2="20.432231651984257" y1="143" y2="155" />
</g>
</g>
<text fill="hsl(98, 100%, 40%)" y="187">Decode.Persons.Aeson 133  ms</text>
<g>
<title>133  ms ± 9.5 ms</title>
<rect y="193" rx="5" height="22" width="52.581717842076706" fill="hsl(98, 100%, 80%)" stroke="hsl(98, 100%, 55%)" />
<g stroke="hsl(98, 100%, 40%)"><line x1="48.81844525701182" x2="56.344990427141596" y1="204" y2="204" />
<line x1="48.81844525701182" x2="48.81844525701182" y1="198" y2="210" />
<line x1="56.344990427141596" x2="56.344990427141596" y1="198" y2="210" />
</g>
</g>
<text fill="hsl(130, 100%, 40%)" y="242">Decode.Partial Twitter.Hermes 241  μs</text>
<g>
<title>241  μs ±  14 μs</title>
<rect y="248" rx="5" height="22" width="0.09540997786826313" fill="hsl(130, 100%, 80%)" stroke="hsl(130, 100%, 55%)" />
<g stroke="hsl(130, 100%, 40%)"><line x1="0.08992632243884403" x2="0.10089363329768224" y1="259" y2="259" />
<line x1="0.08992632243884403" x2="0.08992632243884403" y1="253" y2="265" />
<line x1="0.10089363329768224" x2="0.10089363329768224" y1="253" y2="265" />
</g>
</g>
<text fill="hsl(163, 100%, 40%)" y="297">Decode.Partial Twitter.JsonStream 2.12 ms</text>
<g>
<title>2.12 ms ± 159 μs</title>
<rect y="303" rx="5" height="22" width="0.8374931168653246" fill="hsl(163, 100%, 80%)" stroke="hsl(163, 100%, 55%)" />
<g stroke="hsl(163, 100%, 40%)"><line x1="0.7746046914967035" x2="0.9003815422339456" y1="314" y2="314" />
<line x1="0.7746046914967035" x2="0.7746046914967035" y1="308" y2="320" />
<line x1="0.9003815422339456" x2="0.9003815422339456" y1="308" y2="320" />
</g>
</g>
<text fill="hsl(196, 100%, 40%)" y="352">Decode.Partial Twitter.Aeson 4.25 ms</text>
<g>
<title>4.25 ms ± 263 μs</title>
<rect y="358" rx="5" height="22" width="1.6835648365727347" fill="hsl(196, 100%, 80%)" stroke="hsl(196, 100%, 55%)" />
<g stroke="hsl(196, 100%, 40%)"><line x1="1.5796320414524088" x2="1.7874976316930606" y1="369" y2="369" />
<line x1="1.5796320414524088" x2="1.5796320414524088" y1="363" y2="375" />
<line x1="1.7874976316930606" x2="1.7874976316930606" y1="363" y2="375" />
</g>
</g>
<text fill="hsl(229, 100%, 40%)" y="407">Decode.Persons (Aeson Value).Hermes 106  ms</text>
<g>
<title>106  ms ± 3.7 ms</title>
<rect y="413" rx="5" height="22" width="42.1163890401333" fill="hsl(229, 100%, 80%)" stroke="hsl(229, 100%, 55%)" />
<g stroke="hsl(229, 100%, 40%)"><line x1="40.63328301366002" x2="43.59949506660658" y1="424" y2="424" />
<line x1="40.63328301366002" x2="40.63328301366002" y1="418" y2="430" />
<line x1="43.59949506660658" x2="43.59949506660658" y1="418" y2="430" />
</g>
</g>
<text fill="hsl(261, 100%, 40%)" y="462">Decode.Persons (Aeson Value).Aeson 119  ms</text>
<g>
<title>119  ms ± 9.7 ms</title>
<rect y="468" rx="5" height="22" width="47.2885573801313" fill="hsl(261, 100%, 80%)" stroke="hsl(261, 100%, 55%)" />
<g stroke="hsl(261, 100%, 40%)"><line x1="43.44457876568229" x2="51.132535994580316" y1="479" y2="479" />
<line x1="43.44457876568229" x2="43.44457876568229" y1="473" y2="485" />
<line x1="51.132535994580316" x2="51.132535994580316" y1="473" y2="485" />
</g>
</g>
<text fill="hsl(294, 100%, 40%)" y="517">Decode.Twitter (Aeson Value).Hermes 4.16 ms</text>
<g>
<title>4.16 ms ± 240 μs</title>
<rect y="523" rx="5" height="22" width="1.6480204946245922" fill="hsl(294, 100%, 80%)" stroke="hsl(294, 100%, 55%)" />
<g stroke="hsl(294, 100%, 40%)"><line x1="1.553031069106698" x2="1.7430099201424865" y1="534" y2="534" />
<line x1="1.553031069106698" x2="1.553031069106698" y1="528" y2="540" />
<line x1="1.7430099201424865" x2="1.7430099201424865" y1="528" y2="540" />
</g>
</g>
<text fill="hsl(327, 100%, 40%)" y="572">Decode.Twitter (Aeson Value).Aeson 4.81 ms</text>
<g>
<title>4.81 ms ± 345 μs</title>
<rect y="578" rx="5" height="22" width="1.9039037689301814" fill="hsl(327, 100%, 80%)" stroke="hsl(327, 100%, 55%)" />
<g stroke="hsl(327, 100%, 40%)"><line x1="1.7673030628915996" x2="2.0405044749687633" y1="589" y2="589" />
<line x1="1.7673030628915996" x2="1.7673030628915996" y1="583" y2="595" />
<line x1="2.0405044749687633" x2="2.0405044749687633" y1="583" y2="595" />
</g>
</g>
</g>
</svg>
