<svg xmlns="http://www.w3.org/2000/svg" height="612" width="960.0" font-size="16" font-family="sans-serif" stroke-width="2">
<g transform="translate(10.0 0)">
<text fill="hsl(0, 100%, 40%)" y="22">Decode.Arrays.Hermes 1.18 ms</text>
<g>
<title>1.18 ms ±  55 μs</title>
<rect y="28" rx="5" height="22" width="8.30283187857066" fill="hsl(0, 100%, 80%)" stroke="hsl(0, 100%, 55%)" />
<g stroke="hsl(0, 100%, 40%)"><line x1="7.916129039205362" x2="8.689534717935956" y1="39" y2="39" />
<line x1="7.916129039205362" x2="7.916129039205362" y1="33" y2="45" />
<line x1="8.689534717935956" x2="8.689534717935956" y1="33" y2="45" />
</g>
</g>
<text fill="hsl(32, 100%, 40%)" y="77">Decode.Arrays.Aeson 17.1 ms</text>
<g>
<title>17.1 ms ± 1.3 ms</title>
<rect y="83" rx="5" height="22" width="120.88491648757838" fill="hsl(32, 100%, 80%)" stroke="hsl(32, 100%, 55%)" />
<g stroke="hsl(32, 100%, 40%)"><line x1="111.53002871904991" x2="130.23980425610685" y1="94" y2="94" />
<line x1="111.53002871904991" x2="111.53002871904991" y1="88" y2="100" />
<line x1="130.23980425610685" x2="130.23980425610685" y1="88" y2="100" />
</g>
</g>
<g fill="hsl(65, 100%, 40%)">
<text y="132">Decode.Persons.Hermes</text>
<text y="132" x="347.62482237358876" text-anchor="end">49.2 ms</text>
</g>
<g>
<title>49.2 ms ± 3.4 ms</title>
<rect y="138" rx="5" height="22" width="347.62482237358876" fill="hsl(65, 100%, 80%)" stroke="hsl(65, 100%, 55%)" />
<g stroke="hsl(65, 100%, 40%)"><line x1="323.6748569109902" x2="371.57478783618734" y1="149" y2="149" />
<line x1="323.6748569109902" x2="323.6748569109902" y1="143" y2="155" />
<line x1="371.57478783618734" x2="371.57478783618734" y1="143" y2="155" />
</g>
</g>
<g fill="hsl(98, 100%, 40%)">
<text y="187">Decode.Persons.Aeson</text>
<text y="187" x="910.6535153129109" text-anchor="end">129  ms</text>
</g>
<g>
<title>129  ms ± 4.2 ms</title>
<rect y="193" rx="5" height="22" width="910.6535153129109" fill="hsl(98, 100%, 80%)" stroke="hsl(98, 100%, 55%)" />
<g stroke="hsl(98, 100%, 40%)"><line x1="881.3070306258219" x2="940.0" y1="204" y2="204" />
<line x1="881.3070306258219" x2="881.3070306258219" y1="198" y2="210" />
<line x1="940.0" x2="940.0" y1="198" y2="210" />
</g>
</g>
<text fill="hsl(130, 100%, 40%)" y="242">Decode.Partial Twitter.Hermes 267  μs</text>
<g>
<title>267  μs ±  17 μs</title>
<rect y="248" rx="5" height="22" width="1.8875530592755383" fill="hsl(130, 100%, 80%)" stroke="hsl(130, 100%, 55%)" />
<g stroke="hsl(130, 100%, 40%)"><line x1="1.7681749374353748" x2="2.006931181115702" y1="259" y2="259" />
<line x1="1.7681749374353748" x2="1.7681749374353748" y1="253" y2="265" />
<line x1="2.006931181115702" x2="2.006931181115702" y1="253" y2="265" />
</g>
</g>
<text fill="hsl(163, 100%, 40%)" y="297">Decode.Partial Twitter.JsonStream 2.40 ms</text>
<g>
<title>2.40 ms ± 215 μs</title>
<rect y="303" rx="5" height="22" width="16.963888550007983" fill="hsl(163, 100%, 80%)" stroke="hsl(163, 100%, 55%)" />
<g stroke="hsl(163, 100%, 40%)"><line x1="15.44411900138532" x2="18.48365809863065" y1="314" y2="314" />
<line x1="15.44411900138532" x2="15.44411900138532" y1="308" y2="320" />
<line x1="18.48365809863065" x2="18.48365809863065" y1="308" y2="320" />
</g>
</g>
<text fill="hsl(196, 100%, 40%)" y="352">Decode.Partial Twitter.Aeson 2.66 ms</text>
<g>
<title>2.66 ms ± 199 μs</title>
<rect y="358" rx="5" height="22" width="18.785803382338653" fill="hsl(196, 100%, 80%)" stroke="hsl(196, 100%, 55%)" />
<g stroke="hsl(196, 100%, 40%)"><line x1="17.377260557040156" x2="20.19434620763715" y1="369" y2="369" />
<line x1="17.377260557040156" x2="17.377260557040156" y1="363" y2="375" />
<line x1="20.19434620763715" x2="20.19434620763715" y1="363" y2="375" />
</g>
</g>
<g fill="hsl(229, 100%, 40%)">
<text y="407">Decode.Persons (Aeson Value).Hermes</text>
<text y="407" x="788.1723054686831" text-anchor="end">112  ms</text>
</g>
<g>
<title>112  ms ± 9.2 ms</title>
<rect y="413" rx="5" height="22" width="788.1723054686831" fill="hsl(229, 100%, 80%)" stroke="hsl(229, 100%, 55%)" />
<g stroke="hsl(229, 100%, 40%)"><line x1="723.0872044725247" x2="853.2574064648416" y1="424" y2="424" />
<line x1="723.0872044725247" x2="723.0872044725247" y1="418" y2="430" />
<line x1="853.2574064648416" x2="853.2574064648416" y1="418" y2="430" />
</g>
</g>
<g fill="hsl(261, 100%, 40%)">
<text y="462">Decode.Persons (Aeson Value).Aeson</text>
<text y="462" x="760.8043508624324" text-anchor="end">108  ms</text>
</g>
<g>
<title>108  ms ± 4.6 ms</title>
<rect y="468" rx="5" height="22" width="760.8043508624324" fill="hsl(261, 100%, 80%)" stroke="hsl(261, 100%, 55%)" />
<g stroke="hsl(261, 100%, 40%)"><line x1="728.5160328758172" x2="793.0926688490476" y1="479" y2="479" />
<line x1="728.5160328758172" x2="728.5160328758172" y1="473" y2="485" />
<line x1="793.0926688490476" x2="793.0926688490476" y1="473" y2="485" />
</g>
</g>
<text fill="hsl(294, 100%, 40%)" y="517">Decode.Twitter (Aeson Value).Hermes 2.78 ms</text>
<g>
<title>2.78 ms ±  86 μs</title>
<rect y="523" rx="5" height="22" width="19.63834583452803" fill="hsl(294, 100%, 80%)" stroke="hsl(294, 100%, 55%)" />
<g stroke="hsl(294, 100%, 40%)"><line x1="19.029423946364787" x2="20.247267722691277" y1="534" y2="534" />
<line x1="19.029423946364787" x2="19.029423946364787" y1="528" y2="540" />
<line x1="20.247267722691277" x2="20.247267722691277" y1="528" y2="540" />
</g>
</g>
<text fill="hsl(327, 100%, 40%)" y="572">Decode.Twitter (Aeson Value).Aeson 2.81 ms</text>
<g>
<title>2.81 ms ± 274 μs</title>
<rect y="578" rx="5" height="22" width="19.853178639277616" fill="hsl(327, 100%, 80%)" stroke="hsl(327, 100%, 55%)" />
<g stroke="hsl(327, 100%, 40%)"><line x1="17.91505055041849" x2="21.791306728136743" y1="589" y2="589" />
<line x1="17.91505055041849" x2="17.91505055041849" y1="583" y2="595" />
<line x1="21.791306728136743" x2="21.791306728136743" y1="583" y2="595" />
</g>
</g>
</g>
</svg>
