<svg xmlns="http://www.w3.org/2000/svg" height="612" width="960.0" font-size="16" font-family="sans-serif" stroke-width="2">
<g transform="translate(10.0 0)">
<text fill="hsl(0, 100%, 40%)" y="22">Hermes Arrays 1.24 ms</text>
<g>
<title>1.24 ms ±  70 μs</title>
<rect y="28" rx="5" height="22" width="7.837372694135283" fill="hsl(0, 100%, 80%)" stroke="hsl(0, 100%, 55%)" />
<g stroke="hsl(0, 100%, 40%)"><line x1="7.394733901218766" x2="8.2800114870518" y1="39" y2="39" />
<line x1="7.394733901218766" x2="7.394733901218766" y1="33" y2="45" />
<line x1="8.2800114870518" x2="8.2800114870518" y1="33" y2="45" />
</g>
</g>
<text fill="hsl(32, 100%, 40%)" y="77">Aeson Arrays 19.1 ms</text>
<g>
<title>19.1 ms ± 1.7 ms</title>
<rect y="83" rx="5" height="22" width="120.76327422768324" fill="hsl(32, 100%, 80%)" stroke="hsl(32, 100%, 55%)" />
<g stroke="hsl(32, 100%, 40%)"><line x1="109.83553000256863" x2="131.69101845279783" y1="94" y2="94" />
<line x1="109.83553000256863" x2="109.83553000256863" y1="88" y2="100" />
<line x1="131.69101845279783" x2="131.69101845279783" y1="88" y2="100" />
</g>
</g>
<g fill="hsl(65, 100%, 40%)">
<text y="132">Hermes Persons</text>
<text y="132" x="287.91954185750603" text-anchor="end">45.5 ms</text>
</g>
<g>
<title>45.5 ms ± 1.8 ms</title>
<rect y="138" rx="5" height="22" width="287.91954185750603" fill="hsl(65, 100%, 80%)" stroke="hsl(65, 100%, 55%)" />
<g stroke="hsl(65, 100%, 40%)"><line x1="276.5338077742009" x2="299.30527594081116" y1="149" y2="149" />
<line x1="276.5338077742009" x2="276.5338077742009" y1="143" y2="155" />
<line x1="299.30527594081116" x2="299.30527594081116" y1="143" y2="155" />
</g>
</g>
<g fill="hsl(98, 100%, 40%)">
<text y="187">Aeson Persons</text>
<text y="187" x="855.1583504329332" text-anchor="end">135  ms</text>
</g>
<g>
<title>135  ms ±  13 ms</title>
<rect y="193" rx="5" height="22" width="855.1583504329332" fill="hsl(98, 100%, 80%)" stroke="hsl(98, 100%, 55%)" />
<g stroke="hsl(98, 100%, 40%)"><line x1="770.3167008658663" x2="940.0" y1="204" y2="204" />
<line x1="770.3167008658663" x2="770.3167008658663" y1="198" y2="210" />
<line x1="940.0" x2="940.0" y1="198" y2="210" />
</g>
</g>
<text fill="hsl(130, 100%, 40%)" y="242">Hermes Partial Twitter 286  μs</text>
<g>
<title>286  μs ±  27 μs</title>
<rect y="248" rx="5" height="22" width="1.8067172120301904" fill="hsl(130, 100%, 80%)" stroke="hsl(130, 100%, 55%)" />
<g stroke="hsl(130, 100%, 40%)"><line x1="1.6374466399110024" x2="1.9759877841493785" y1="259" y2="259" />
<line x1="1.6374466399110024" x2="1.6374466399110024" y1="253" y2="265" />
<line x1="1.9759877841493785" x2="1.9759877841493785" y1="253" y2="265" />
</g>
</g>
<text fill="hsl(163, 100%, 40%)" y="297">Aeson Partial Twitter 2.87 ms</text>
<g>
<title>2.87 ms ± 207 μs</title>
<rect y="303" rx="5" height="22" width="18.14158223887541" fill="hsl(163, 100%, 80%)" stroke="hsl(163, 100%, 55%)" />
<g stroke="hsl(163, 100%, 40%)"><line x1="16.832929261757315" x2="19.45023521599351" y1="314" y2="314" />
<line x1="16.832929261757315" x2="16.832929261757315" y1="308" y2="320" />
<line x1="19.45023521599351" x2="19.45023521599351" y1="308" y2="320" />
</g>
</g>
<text fill="hsl(196, 100%, 40%)" y="352">JsonStream Partial Twitter 2.89 ms</text>
<g>
<title>2.89 ms ± 183 μs</title>
<rect y="358" rx="5" height="22" width="18.25200375836302" fill="hsl(196, 100%, 80%)" stroke="hsl(196, 100%, 55%)" />
<g stroke="hsl(196, 100%, 40%)"><line x1="17.09637509334072" x2="19.407632423385323" y1="369" y2="369" />
<line x1="17.09637509334072" x2="17.09637509334072" y1="363" y2="375" />
<line x1="19.407632423385323" x2="19.407632423385323" y1="363" y2="375" />
</g>
</g>
<g fill="hsl(229, 100%, 40%)">
<text y="407">Hermes Persons (Aeson Value)</text>
<text y="407" x="764.5413920373283" text-anchor="end">121  ms</text>
</g>
<g>
<title>121  ms ± 4.8 ms</title>
<rect y="413" rx="5" height="22" width="764.5413920373283" fill="hsl(229, 100%, 80%)" stroke="hsl(229, 100%, 55%)" />
<g stroke="hsl(229, 100%, 40%)"><line x1="734.190280041438" x2="794.8925040332185" y1="424" y2="424" />
<line x1="734.190280041438" x2="734.190280041438" y1="418" y2="430" />
<line x1="794.8925040332185" x2="794.8925040332185" y1="418" y2="430" />
</g>
</g>
<g fill="hsl(261, 100%, 40%)">
<text y="462">Aeson Persons (Aeson Value)</text>
<text y="462" x="709.803712667867" text-anchor="end">112  ms</text>
</g>
<g>
<title>112  ms ± 7.5 ms</title>
<rect y="468" rx="5" height="22" width="709.803712667867" fill="hsl(261, 100%, 80%)" stroke="hsl(261, 100%, 55%)" />
<g stroke="hsl(261, 100%, 40%)"><line x1="662.0553517494776" x2="757.5520735862564" y1="479" y2="479" />
<line x1="662.0553517494776" x2="662.0553517494776" y1="473" y2="485" />
<line x1="757.5520735862564" x2="757.5520735862564" y1="473" y2="485" />
</g>
</g>
<text fill="hsl(294, 100%, 40%)" y="517">Hermes Twitter (Aeson Value) 2.93 ms</text>
<g>
<title>2.93 ms ± 226 μs</title>
<rect y="523" rx="5" height="22" width="18.505027751653454" fill="hsl(294, 100%, 80%)" stroke="hsl(294, 100%, 55%)" />
<g stroke="hsl(294, 100%, 40%)"><line x1="17.074870415074173" x2="19.935185088232735" y1="534" y2="534" />
<line x1="17.074870415074173" x2="17.074870415074173" y1="528" y2="540" />
<line x1="19.935185088232735" x2="19.935185088232735" y1="528" y2="540" />
</g>
</g>
<text fill="hsl(327, 100%, 40%)" y="572">Aeson Twitter (Aeson Value) 3.01 ms</text>
<g>
<title>3.01 ms ± 124 μs</title>
<rect y="578" rx="5" height="22" width="19.04593553278637" fill="hsl(327, 100%, 80%)" stroke="hsl(327, 100%, 55%)" />
<g stroke="hsl(327, 100%, 40%)"><line x1="18.259395422530734" x2="19.832475643042006" y1="589" y2="589" />
<line x1="18.259395422530734" x2="18.259395422530734" y1="583" y2="595" />
<line x1="19.832475643042006" x2="19.832475643042006" y1="583" y2="595" />
</g>
</g>
</g>
</svg>
