<svg xmlns="http://www.w3.org/2000/svg" height="612" width="960.0" font-size="16" font-family="sans-serif" stroke-width="2">
<g transform="translate(10.0 0)">
<text fill="hsl(0, 100%, 40%)" y="22">Decode.Arrays.Hermes 266  ms</text>
<g>
<title>266  ms ±  18 ms</title>
<rect y="28" rx="5" height="22" width="104.47366635987666" fill="hsl(0, 100%, 80%)" stroke="hsl(0, 100%, 55%)" />
<g stroke="hsl(0, 100%, 40%)"><line x1="97.25708938496531" x2="111.69024333478801" y1="39" y2="39" />
<line x1="97.25708938496531" x2="97.25708938496531" y1="33" y2="45" />
<line x1="111.69024333478801" x2="111.69024333478801" y1="33" y2="45" />
</g>
</g>
<g fill="hsl(32, 100%, 40%)">
<text y="77">Decode.Arrays.Aeson</text>
<text y="77" x="859.4832502382286" text-anchor="end">2.184 s</text>
</g>
<g>
<title>2.184 s ± 205 ms</title>
<rect y="83" rx="5" height="22" width="859.4832502382286" fill="hsl(32, 100%, 80%)" stroke="hsl(32, 100%, 55%)" />
<g stroke="hsl(32, 100%, 40%)"><line x1="778.9665004764572" x2="940.0" y1="94" y2="94" />
<line x1="778.9665004764572" x2="778.9665004764572" y1="88" y2="100" />
<line x1="940.0" x2="940.0" y1="88" y2="100" />
</g>
</g>
<text fill="hsl(65, 100%, 40%)" y="132">Decode.Persons.Hermes 48.1 ms</text>
<g>
<title>48.1 ms ± 4.0 ms</title>
<rect y="138" rx="5" height="22" width="18.908398973526733" fill="hsl(65, 100%, 80%)" stroke="hsl(65, 100%, 55%)" />
<g stroke="hsl(65, 100%, 40%)"><line x1="17.35094824007258" x2="20.465849706980887" y1="149" y2="149" />
<line x1="17.35094824007258" x2="17.35094824007258" y1="143" y2="155" />
<line x1="20.465849706980887" x2="20.465849706980887" y1="143" y2="155" />
</g>
</g>
<text fill="hsl(98, 100%, 40%)" y="187">Decode.Persons.Aeson 134  ms</text>
<g>
<title>134  ms ±  11 ms</title>
<rect y="193" rx="5" height="22" width="52.68202714732721" fill="hsl(98, 100%, 80%)" stroke="hsl(98, 100%, 55%)" />
<g stroke="hsl(98, 100%, 40%)"><line x1="48.282806187873604" x2="57.08124810678082" y1="204" y2="204" />
<line x1="48.282806187873604" x2="48.282806187873604" y1="198" y2="210" />
<line x1="57.08124810678082" x2="57.08124810678082" y1="198" y2="210" />
</g>
</g>
<text fill="hsl(130, 100%, 40%)" y="242">Decode.Partial Twitter.Hermes 247  μs</text>
<g>
<title>247  μs ±  17 μs</title>
<rect y="248" rx="5" height="22" width="0.09724197765326205" fill="hsl(130, 100%, 80%)" stroke="hsl(130, 100%, 55%)" />
<g stroke="hsl(130, 100%, 40%)"><line x1="0.09069406163326889" x2="0.10378989367325521" y1="259" y2="259" />
<line x1="0.09069406163326889" x2="0.09069406163326889" y1="253" y2="265" />
<line x1="0.10378989367325521" x2="0.10378989367325521" y1="253" y2="265" />
</g>
</g>
<text fill="hsl(163, 100%, 40%)" y="297">Decode.Partial Twitter.JsonStream 2.12 ms</text>
<g>
<title>2.12 ms ± 150 μs</title>
<rect y="303" rx="5" height="22" width="0.8340169454304516" fill="hsl(163, 100%, 80%)" stroke="hsl(163, 100%, 55%)" />
<g stroke="hsl(163, 100%, 40%)"><line x1="0.7748633458479905" x2="0.8931705450129126" y1="314" y2="314" />
<line x1="0.7748633458479905" x2="0.7748633458479905" y1="308" y2="320" />
<line x1="0.8931705450129126" x2="0.8931705450129126" y1="308" y2="320" />
</g>
</g>
<text fill="hsl(196, 100%, 40%)" y="352">Decode.Partial Twitter.Aeson 4.26 ms</text>
<g>
<title>4.26 ms ± 221 μs</title>
<rect y="358" rx="5" height="22" width="1.677790337312601" fill="hsl(196, 100%, 80%)" stroke="hsl(196, 100%, 55%)" />
<g stroke="hsl(196, 100%, 40%)"><line x1="1.590866946612166" x2="1.764713728013036" y1="369" y2="369" />
<line x1="1.590866946612166" x2="1.590866946612166" y1="363" y2="375" />
<line x1="1.764713728013036" x2="1.764713728013036" y1="363" y2="375" />
</g>
</g>
<text fill="hsl(229, 100%, 40%)" y="407">Decode.Persons (Aeson Value).Hermes 110  ms</text>
<g>
<title>110  ms ± 9.2 ms</title>
<rect y="413" rx="5" height="22" width="43.1129929948042" fill="hsl(229, 100%, 80%)" stroke="hsl(229, 100%, 55%)" />
<g stroke="hsl(229, 100%, 40%)"><line x1="39.495730635561294" x2="46.73025535404711" y1="424" y2="424" />
<line x1="39.495730635561294" x2="39.495730635561294" y1="418" y2="430" />
<line x1="46.73025535404711" x2="46.73025535404711" y1="418" y2="430" />
</g>
</g>
<text fill="hsl(261, 100%, 40%)" y="462">Decode.Persons (Aeson Value).Aeson 118  ms</text>
<g>
<title>118  ms ± 8.8 ms</title>
<rect y="468" rx="5" height="22" width="46.57999757495502" fill="hsl(261, 100%, 80%)" stroke="hsl(261, 100%, 55%)" />
<g stroke="hsl(261, 100%, 40%)"><line x1="43.10200619472342" x2="50.05798895518662" y1="479" y2="479" />
<line x1="43.10200619472342" x2="43.10200619472342" y1="473" y2="485" />
<line x1="50.05798895518662" x2="50.05798895518662" y1="473" y2="485" />
</g>
</g>
<text fill="hsl(294, 100%, 40%)" y="517">Decode.Twitter (Aeson Value).Hermes 4.26 ms</text>
<g>
<title>4.26 ms ± 340 μs</title>
<rect y="523" rx="5" height="22" width="1.6759484776043916" fill="hsl(294, 100%, 80%)" stroke="hsl(294, 100%, 55%)" />
<g stroke="hsl(294, 100%, 40%)"><line x1="1.5420057350159335" x2="1.8098912201928496" y1="534" y2="534" />
<line x1="1.5420057350159335" x2="1.5420057350159335" y1="528" y2="540" />
<line x1="1.8098912201928496" x2="1.8098912201928496" y1="528" y2="540" />
</g>
</g>
<text fill="hsl(327, 100%, 40%)" y="572">Decode.Twitter (Aeson Value).Aeson 4.81 ms</text>
<g>
<title>4.81 ms ± 466 μs</title>
<rect y="578" rx="5" height="22" width="1.8919120613483735" fill="hsl(327, 100%, 80%)" stroke="hsl(327, 100%, 55%)" />
<g stroke="hsl(327, 100%, 40%)"><line x1="1.708552535781846" x2="2.075271586914901" y1="589" y2="589" />
<line x1="1.708552535781846" x2="1.708552535781846" y1="583" y2="595" />
<line x1="2.075271586914901" x2="2.075271586914901" y1="583" y2="595" />
</g>
</g>
</g>
</svg>
