<svg xmlns="http://www.w3.org/2000/svg" height="612" width="960.0" font-size="16" font-family="sans-serif" stroke-width="2">
<g transform="translate(10.0 0)">
<text fill="hsl(0, 100%, 40%)" y="22">Decode.Arrays.Hermes 1.03 ms</text>
<g>
<title>1.03 ms ±  31 μs</title>
<rect y="28" rx="5" height="22" width="6.291565707134919" fill="hsl(0, 100%, 80%)" stroke="hsl(0, 100%, 55%)" />
<g stroke="hsl(0, 100%, 40%)"><line x1="6.101318371742446" x2="6.481813042527392" y1="39" y2="39" />
<line x1="6.101318371742446" x2="6.101318371742446" y1="33" y2="45" />
<line x1="6.481813042527392" x2="6.481813042527392" y1="33" y2="45" />
</g>
</g>
<text fill="hsl(32, 100%, 40%)" y="77">Decode.Arrays.Aeson 11.5 ms</text>
<g>
<title>11.5 ms ± 543 μs</title>
<rect y="83" rx="5" height="22" width="70.29660752795661" fill="hsl(32, 100%, 80%)" stroke="hsl(32, 100%, 55%)" />
<g stroke="hsl(32, 100%, 40%)"><line x1="66.98647960937629" x2="73.60673544653693" y1="94" y2="94" />
<line x1="66.98647960937629" x2="66.98647960937629" y1="88" y2="100" />
<line x1="73.60673544653693" x2="73.60673544653693" y1="88" y2="100" />
</g>
</g>
<g fill="hsl(65, 100%, 40%)">
<text y="132">Decode.Persons.Hermes</text>
<text y="132" x="267.04218320706156" text-anchor="end">43.8 ms</text>
</g>
<g>
<title>43.8 ms ± 2.2 ms</title>
<rect y="138" rx="5" height="22" width="267.04218320706156" fill="hsl(65, 100%, 80%)" stroke="hsl(65, 100%, 55%)" />
<g stroke="hsl(65, 100%, 40%)"><line x1="253.6918964426339" x2="280.3924699714892" y1="149" y2="149" />
<line x1="253.6918964426339" x2="253.6918964426339" y1="143" y2="155" />
<line x1="280.3924699714892" x2="280.3924699714892" y1="143" y2="155" />
</g>
</g>
<g fill="hsl(98, 100%, 40%)">
<text y="187">Decode.Persons.Aeson</text>
<text y="187" x="867.5034427119492" text-anchor="end">142  ms</text>
</g>
<g>
<title>142  ms ±  12 ms</title>
<rect y="193" rx="5" height="22" width="867.5034427119492" fill="hsl(98, 100%, 80%)" stroke="hsl(98, 100%, 55%)" />
<g stroke="hsl(98, 100%, 40%)"><line x1="795.0068854238984" x2="940.0" y1="204" y2="204" />
<line x1="795.0068854238984" x2="795.0068854238984" y1="198" y2="210" />
<line x1="940.0" x2="940.0" y1="198" y2="210" />
</g>
</g>
<text fill="hsl(130, 100%, 40%)" y="242">Decode.Partial Twitter.Hermes 260  μs</text>
<g>
<title>260  μs ±  18 μs</title>
<rect y="248" rx="5" height="22" width="1.5863352200039005" fill="hsl(130, 100%, 80%)" stroke="hsl(130, 100%, 55%)" />
<g stroke="hsl(130, 100%, 40%)"><line x1="1.4788919516741525" x2="1.6937784883336484" y1="259" y2="259" />
<line x1="1.4788919516741525" x2="1.4788919516741525" y1="253" y2="265" />
<line x1="1.6937784883336484" x2="1.6937784883336484" y1="253" y2="265" />
</g>
</g>
<text fill="hsl(163, 100%, 40%)" y="297">Decode.Partial Twitter.JsonStream 2.26 ms</text>
<g>
<title>2.26 ms ± 107 μs</title>
<rect y="303" rx="5" height="22" width="13.76385307874635" fill="hsl(163, 100%, 80%)" stroke="hsl(163, 100%, 55%)" />
<g stroke="hsl(163, 100%, 40%)"><line x1="13.109464022295258" x2="14.41824213519744" y1="314" y2="314" />
<line x1="13.109464022295258" x2="13.109464022295258" y1="308" y2="320" />
<line x1="14.41824213519744" x2="14.41824213519744" y1="308" y2="320" />
</g>
</g>
<text fill="hsl(196, 100%, 40%)" y="352">Decode.Partial Twitter.Aeson 2.69 ms</text>
<g>
<title>2.69 ms ± 244 μs</title>
<rect y="358" rx="5" height="22" width="16.396250774460647" fill="hsl(196, 100%, 80%)" stroke="hsl(196, 100%, 55%)" />
<g stroke="hsl(196, 100%, 40%)"><line x1="14.908448929094705" x2="17.88405261982659" y1="369" y2="369" />
<line x1="14.908448929094705" x2="14.908448929094705" y1="363" y2="375" />
<line x1="17.88405261982659" x2="17.88405261982659" y1="363" y2="375" />
</g>
</g>
<g fill="hsl(229, 100%, 40%)">
<text y="407">Decode.Persons (Aeson Value).Hermes</text>
<text y="407" x="618.2620897067726" text-anchor="end">101  ms</text>
</g>
<g>
<title>101  ms ± 4.3 ms</title>
<rect y="413" rx="5" height="22" width="618.2620897067726" fill="hsl(229, 100%, 80%)" stroke="hsl(229, 100%, 55%)" />
<g stroke="hsl(229, 100%, 40%)"><line x1="591.8601589401654" x2="644.6640204733798" y1="424" y2="424" />
<line x1="591.8601589401654" x2="591.8601589401654" y1="418" y2="430" />
<line x1="644.6640204733798" x2="644.6640204733798" y1="418" y2="430" />
</g>
</g>
<g fill="hsl(261, 100%, 40%)">
<text y="462">Decode.Persons (Aeson Value).Aeson</text>
<text y="462" x="673.1715954520187" text-anchor="end">110  ms</text>
</g>
<g>
<title>110  ms ± 9.6 ms</title>
<rect y="468" rx="5" height="22" width="673.1715954520187" fill="hsl(261, 100%, 80%)" stroke="hsl(261, 100%, 55%)" />
<g stroke="hsl(261, 100%, 40%)"><line x1="614.4937440995095" x2="731.8494468045278" y1="479" y2="479" />
<line x1="614.4937440995095" x2="614.4937440995095" y1="473" y2="485" />
<line x1="731.8494468045278" x2="731.8494468045278" y1="473" y2="485" />
</g>
</g>
<text fill="hsl(294, 100%, 40%)" y="517">Decode.Twitter (Aeson Value).Hermes 2.10 ms</text>
<g>
<title>2.10 ms ± 164 μs</title>
<rect y="523" rx="5" height="22" width="12.830058655537208" fill="hsl(294, 100%, 80%)" stroke="hsl(294, 100%, 55%)" />
<g stroke="hsl(294, 100%, 40%)"><line x1="11.83243070267067" x2="13.827686608403745" y1="534" y2="534" />
<line x1="11.83243070267067" x2="11.83243070267067" y1="528" y2="540" />
<line x1="13.827686608403745" x2="13.827686608403745" y1="528" y2="540" />
</g>
</g>
<text fill="hsl(327, 100%, 40%)" y="572">Decode.Twitter (Aeson Value).Aeson 2.68 ms</text>
<g>
<title>2.68 ms ± 216 μs</title>
<rect y="578" rx="5" height="22" width="16.34660518744771" fill="hsl(327, 100%, 80%)" stroke="hsl(327, 100%, 55%)" />
<g stroke="hsl(327, 100%, 40%)"><line x1="15.030326921897586" x2="17.662883452997836" y1="589" y2="589" />
<line x1="15.030326921897586" x2="15.030326921897586" y1="583" y2="595" />
<line x1="17.662883452997836" x2="17.662883452997836" y1="583" y2="595" />
</g>
</g>
</g>
</svg>
