<svg xmlns="http://www.w3.org/2000/svg" height="612" width="960.0" font-size="16" font-family="sans-serif" stroke-width="2">
<g transform="translate(10.0 0)">
<text fill="hsl(0, 100%, 40%)" y="22">Decode.Arrays.Hermes 264  ms</text>
<g>
<title>264  ms ±  21 ms</title>
<rect y="28" rx="5" height="22" width="103.89676183091412" fill="hsl(0, 100%, 80%)" stroke="hsl(0, 100%, 55%)" />
<g stroke="hsl(0, 100%, 40%)"><line x1="95.61716124392447" x2="112.17636241790376" y1="39" y2="39" />
<line x1="95.61716124392447" x2="95.61716124392447" y1="33" y2="45" />
<line x1="112.17636241790376" x2="112.17636241790376" y1="33" y2="45" />
</g>
</g>
<g fill="hsl(32, 100%, 40%)">
<text y="77">Decode.Arrays.Aeson</text>
<text y="77" x="871.2081320852694" text-anchor="end">2.216 s</text>
</g>
<g>
<title>2.216 s ± 175 ms</title>
<rect y="83" rx="5" height="22" width="871.2081320852694" fill="hsl(32, 100%, 80%)" stroke="hsl(32, 100%, 55%)" />
<g stroke="hsl(32, 100%, 40%)"><line x1="802.4162641705389" x2="940.0" y1="94" y2="94" />
<line x1="802.4162641705389" x2="802.4162641705389" y1="88" y2="100" />
<line x1="940.0" x2="940.0" y1="88" y2="100" />
</g>
</g>
<text fill="hsl(65, 100%, 40%)" y="132">Decode.Persons.Hermes 47.2 ms</text>
<g>
<title>47.2 ms ± 4.3 ms</title>
<rect y="138" rx="5" height="22" width="18.551045406040974" fill="hsl(65, 100%, 80%)" stroke="hsl(65, 100%, 55%)" />
<g stroke="hsl(65, 100%, 40%)"><line x1="16.850468832980155" x2="20.25162197910179" y1="149" y2="149" />
<line x1="16.850468832980155" x2="16.850468832980155" y1="143" y2="155" />
<line x1="20.25162197910179" x2="20.25162197910179" y1="143" y2="155" />
</g>
</g>
<text fill="hsl(98, 100%, 40%)" y="187">Decode.Persons.Aeson 134  ms</text>
<g>
<title>134  ms ± 5.9 ms</title>
<rect y="193" rx="5" height="22" width="52.71121196928424" fill="hsl(98, 100%, 80%)" stroke="hsl(98, 100%, 55%)" />
<g stroke="hsl(98, 100%, 40%)"><line x1="50.39943367736795" x2="55.02299026120053" y1="204" y2="204" />
<line x1="50.39943367736795" x2="50.39943367736795" y1="198" y2="210" />
<line x1="55.02299026120053" x2="55.02299026120053" y1="198" y2="210" />
</g>
</g>
<text fill="hsl(130, 100%, 40%)" y="242">Decode.Partial Twitter.Hermes 245  μs</text>
<g>
<title>245  μs ±  22 μs</title>
<rect y="248" rx="5" height="22" width="0.09645486081408819" fill="hsl(130, 100%, 80%)" stroke="hsl(130, 100%, 55%)" />
<g stroke="hsl(130, 100%, 40%)"><line x1="0.08782769014597845" x2="0.10508203148219793" y1="259" y2="259" />
<line x1="0.08782769014597845" x2="0.08782769014597845" y1="253" y2="265" />
<line x1="0.10508203148219793" x2="0.10508203148219793" y1="253" y2="265" />
</g>
</g>
<text fill="hsl(163, 100%, 40%)" y="297">Decode.Partial Twitter.JsonStream 2.11 ms</text>
<g>
<title>2.11 ms ± 106 μs</title>
<rect y="303" rx="5" height="22" width="0.8288805829872347" fill="hsl(163, 100%, 80%)" stroke="hsl(163, 100%, 55%)" />
<g stroke="hsl(163, 100%, 40%)"><line x1="0.7870536223413998" x2="0.8707075436330696" y1="314" y2="314" />
<line x1="0.7870536223413998" x2="0.7870536223413998" y1="308" y2="320" />
<line x1="0.8707075436330696" x2="0.8707075436330696" y1="308" y2="320" />
</g>
</g>
<text fill="hsl(196, 100%, 40%)" y="352">Decode.Partial Twitter.Aeson 4.25 ms</text>
<g>
<title>4.25 ms ± 261 μs</title>
<rect y="358" rx="5" height="22" width="1.6730120611733539" fill="hsl(196, 100%, 80%)" stroke="hsl(196, 100%, 55%)" />
<g stroke="hsl(196, 100%, 40%)"><line x1="1.5703336459443191" x2="1.7756904764023886" y1="369" y2="369" />
<line x1="1.5703336459443191" x2="1.5703336459443191" y1="363" y2="375" />
<line x1="1.7756904764023886" x2="1.7756904764023886" y1="363" y2="375" />
</g>
</g>
<text fill="hsl(229, 100%, 40%)" y="407">Decode.Persons (Aeson Value).Hermes 107  ms</text>
<g>
<title>107  ms ±  10 ms</title>
<rect y="413" rx="5" height="22" width="42.22980260197994" fill="hsl(229, 100%, 80%)" stroke="hsl(229, 100%, 55%)" />
<g stroke="hsl(229, 100%, 40%)"><line x1="38.29759020503556" x2="46.16201499892432" y1="424" y2="424" />
<line x1="38.29759020503556" x2="38.29759020503556" y1="418" y2="430" />
<line x1="46.16201499892432" x2="46.16201499892432" y1="418" y2="430" />
</g>
</g>
<text fill="hsl(261, 100%, 40%)" y="462">Decode.Persons (Aeson Value).Aeson 119  ms</text>
<g>
<title>119  ms ±  10 ms</title>
<rect y="468" rx="5" height="22" width="46.88480115730052" fill="hsl(261, 100%, 80%)" stroke="hsl(261, 100%, 55%)" />
<g stroke="hsl(261, 100%, 40%)"><line x1="42.76557501372386" x2="51.00402730087718" y1="479" y2="479" />
<line x1="42.76557501372386" x2="42.76557501372386" y1="473" y2="485" />
<line x1="51.00402730087718" x2="51.00402730087718" y1="473" y2="485" />
</g>
</g>
<text fill="hsl(294, 100%, 40%)" y="517">Decode.Twitter (Aeson Value).Hermes 4.17 ms</text>
<g>
<title>4.17 ms ± 232 μs</title>
<rect y="523" rx="5" height="22" width="1.6409724640822017" fill="hsl(294, 100%, 80%)" stroke="hsl(294, 100%, 55%)" />
<g stroke="hsl(294, 100%, 40%)"><line x1="1.5498010654575753" x2="1.732143862706828" y1="534" y2="534" />
<line x1="1.5498010654575753" x2="1.5498010654575753" y1="528" y2="540" />
<line x1="1.732143862706828" x2="1.732143862706828" y1="528" y2="540" />
</g>
</g>
<text fill="hsl(327, 100%, 40%)" y="572">Decode.Twitter (Aeson Value).Aeson 4.80 ms</text>
<g>
<title>4.80 ms ± 254 μs</title>
<rect y="578" rx="5" height="22" width="1.8886583527660672" fill="hsl(327, 100%, 80%)" stroke="hsl(327, 100%, 55%)" />
<g stroke="hsl(327, 100%, 40%)"><line x1="1.788892410202122" x2="1.9884242953300124" y1="589" y2="589" />
<line x1="1.788892410202122" x2="1.788892410202122" y1="583" y2="595" />
<line x1="1.9884242953300124" x2="1.9884242953300124" y1="583" y2="595" />
</g>
</g>
</g>
</svg>
