<svg xmlns="http://www.w3.org/2000/svg" height="612" width="960.0" font-size="16" font-family="sans-serif" stroke-width="2">
<g transform="translate(10.0 0)">
<text fill="hsl(0, 100%, 40%)" y="22">Hermes Arrays 1.18 ms</text>
<g>
<title>1.18 ms ± 112 μs</title>
<rect y="28" rx="5" height="22" width="7.944352965434327" fill="hsl(0, 100%, 80%)" stroke="hsl(0, 100%, 55%)" />
<g stroke="hsl(0, 100%, 40%)"><line x1="7.186771941346033" x2="8.701933989522619" y1="39" y2="39" />
<line x1="7.186771941346033" x2="7.186771941346033" y1="33" y2="45" />
<line x1="8.701933989522619" x2="8.701933989522619" y1="33" y2="45" />
</g>
</g>
<text fill="hsl(32, 100%, 40%)" y="77">Aeson Arrays 17.2 ms</text>
<g>
<title>17.2 ms ± 475 μs</title>
<rect y="83" rx="5" height="22" width="116.22116907658899" fill="hsl(32, 100%, 80%)" stroke="hsl(32, 100%, 55%)" />
<g stroke="hsl(32, 100%, 40%)"><line x1="113.0118468468379" x2="119.43049130634009" y1="94" y2="94" />
<line x1="113.0118468468379" x2="113.0118468468379" y1="88" y2="100" />
<line x1="119.43049130634009" x2="119.43049130634009" y1="88" y2="100" />
</g>
</g>
<g fill="hsl(65, 100%, 40%)">
<text y="132">Hermes Persons</text>
<text y="132" x="300.3885823055336" text-anchor="end">44.5 ms</text>
</g>
<g>
<title>44.5 ms ± 2.9 ms</title>
<rect y="138" rx="5" height="22" width="300.3885823055336" fill="hsl(65, 100%, 80%)" stroke="hsl(65, 100%, 55%)" />
<g stroke="hsl(65, 100%, 40%)"><line x1="280.84315696155943" x2="319.93400764950775" y1="149" y2="149" />
<line x1="280.84315696155943" x2="280.84315696155943" y1="143" y2="155" />
<line x1="319.93400764950775" x2="319.93400764950775" y1="143" y2="155" />
</g>
</g>
<g fill="hsl(98, 100%, 40%)">
<text y="187">Aeson Persons</text>
<text y="187" x="872.3094571038177" text-anchor="end">129  ms</text>
</g>
<g>
<title>129  ms ±  10 ms</title>
<rect y="193" rx="5" height="22" width="872.3094571038177" fill="hsl(98, 100%, 80%)" stroke="hsl(98, 100%, 55%)" />
<g stroke="hsl(98, 100%, 40%)"><line x1="804.6189142076355" x2="940.0" y1="204" y2="204" />
<line x1="804.6189142076355" x2="804.6189142076355" y1="198" y2="210" />
<line x1="940.0" x2="940.0" y1="198" y2="210" />
</g>
</g>
<text fill="hsl(130, 100%, 40%)" y="242">Hermes Partial Twitter 280  μs</text>
<g>
<title>280  μs ±  14 μs</title>
<rect y="248" rx="5" height="22" width="1.8938451399322556" fill="hsl(130, 100%, 80%)" stroke="hsl(130, 100%, 55%)" />
<g stroke="hsl(130, 100%, 40%)"><line x1="1.802317369179305" x2="1.985372910685206" y1="259" y2="259" />
<line x1="1.802317369179305" x2="1.802317369179305" y1="253" y2="265" />
<line x1="1.985372910685206" x2="1.985372910685206" y1="253" y2="265" />
</g>
</g>
<text fill="hsl(163, 100%, 40%)" y="297">Aeson Partial Twitter 2.79 ms</text>
<g>
<title>2.79 ms ± 155 μs</title>
<rect y="303" rx="5" height="22" width="18.848671649013752" fill="hsl(163, 100%, 80%)" stroke="hsl(163, 100%, 55%)" />
<g stroke="hsl(163, 100%, 40%)"><line x1="17.800254062625086" x2="19.89708923540242" y1="314" y2="314" />
<line x1="17.800254062625086" x2="17.800254062625086" y1="308" y2="320" />
<line x1="19.89708923540242" x2="19.89708923540242" y1="308" y2="320" />
</g>
</g>
<text fill="hsl(196, 100%, 40%)" y="352">JsonStream Partial Twitter 2.45 ms</text>
<g>
<title>2.45 ms ± 158 μs</title>
<rect y="358" rx="5" height="22" width="16.51767860535582" fill="hsl(196, 100%, 80%)" stroke="hsl(196, 100%, 55%)" />
<g stroke="hsl(196, 100%, 40%)"><line x1="15.452064171827178" x2="17.58329303888446" y1="369" y2="369" />
<line x1="15.452064171827178" x2="15.452064171827178" y1="363" y2="375" />
<line x1="17.58329303888446" x2="17.58329303888446" y1="363" y2="375" />
</g>
</g>
<g fill="hsl(229, 100%, 40%)">
<text y="407">Hermes Persons (Aeson Value)</text>
<text y="407" x="782.8451011341481" text-anchor="end">116  ms</text>
</g>
<g>
<title>116  ms ± 8.4 ms</title>
<rect y="413" rx="5" height="22" width="782.8451011341481" fill="hsl(229, 100%, 80%)" stroke="hsl(229, 100%, 55%)" />
<g stroke="hsl(229, 100%, 40%)"><line x1="726.1499687117648" x2="839.5402335565313" y1="424" y2="424" />
<line x1="726.1499687117648" x2="726.1499687117648" y1="418" y2="430" />
<line x1="839.5402335565313" x2="839.5402335565313" y1="418" y2="430" />
</g>
</g>
<g fill="hsl(261, 100%, 40%)">
<text y="462">Aeson Persons (Aeson Value)</text>
<text y="462" x="707.8816401405329" text-anchor="end">105  ms</text>
</g>
<g>
<title>105  ms ± 3.6 ms</title>
<rect y="468" rx="5" height="22" width="707.8816401405329" fill="hsl(261, 100%, 80%)" stroke="hsl(261, 100%, 55%)" />
<g stroke="hsl(261, 100%, 40%)"><line x1="683.2525547757174" x2="732.5107255053484" y1="479" y2="479" />
<line x1="683.2525547757174" x2="683.2525547757174" y1="473" y2="485" />
<line x1="732.5107255053484" x2="732.5107255053484" y1="473" y2="485" />
</g>
</g>
<text fill="hsl(294, 100%, 40%)" y="517">Hermes Twitter (Aeson Value) 2.93 ms</text>
<g>
<title>2.93 ms ± 223 μs</title>
<rect y="523" rx="5" height="22" width="19.802925535512863" fill="hsl(294, 100%, 80%)" stroke="hsl(294, 100%, 55%)" />
<g stroke="hsl(294, 100%, 40%)"><line x1="18.29448653901766" x2="21.311364532008064" y1="534" y2="534" />
<line x1="18.29448653901766" x2="18.29448653901766" y1="528" y2="540" />
<line x1="21.311364532008064" x2="21.311364532008064" y1="528" y2="540" />
</g>
</g>
<text fill="hsl(327, 100%, 40%)" y="572">Aeson Twitter (Aeson Value) 2.86 ms</text>
<g>
<title>2.86 ms ± 212 μs</title>
<rect y="578" rx="5" height="22" width="19.333731897899415" fill="hsl(327, 100%, 80%)" stroke="hsl(327, 100%, 55%)" />
<g stroke="hsl(327, 100%, 40%)"><line x1="17.899718187427737" x2="20.767745608371094" y1="589" y2="589" />
<line x1="17.899718187427737" x2="17.899718187427737" y1="583" y2="595" />
<line x1="20.767745608371094" x2="20.767745608371094" y1="583" y2="595" />
</g>
</g>
</g>
</svg>
