<svg xmlns="http://www.w3.org/2000/svg" height="612" width="960.0" font-size="16" font-family="sans-serif" stroke-width="2">
<g transform="translate(10.0 0)">
<text fill="hsl(0, 100%, 40%)" y="22">Decode.Arrays.Hermes 268  ms</text>
<g>
<title>268  ms ±  13 ms</title>
<rect y="28" rx="5" height="22" width="106.32370264604836" fill="hsl(0, 100%, 80%)" stroke="hsl(0, 100%, 55%)" />
<g stroke="hsl(0, 100%, 40%)"><line x1="101.265368538057" x2="111.38203675403972" y1="39" y2="39" />
<line x1="101.265368538057" x2="101.265368538057" y1="33" y2="45" />
<line x1="111.38203675403972" x2="111.38203675403972" y1="33" y2="45" />
</g>
</g>
<g fill="hsl(32, 100%, 40%)">
<text y="77">Decode.Arrays.Aeson</text>
<text y="77" x="883.2991002373365" text-anchor="end">2.226 s</text>
</g>
<g>
<title>2.226 s ± 143 ms</title>
<rect y="83" rx="5" height="22" width="883.2991002373365" fill="hsl(32, 100%, 80%)" stroke="hsl(32, 100%, 55%)" />
<g stroke="hsl(32, 100%, 40%)"><line x1="826.5982004746729" x2="940.0" y1="94" y2="94" />
<line x1="826.5982004746729" x2="826.5982004746729" y1="88" y2="100" />
<line x1="940.0" x2="940.0" y1="88" y2="100" />
</g>
</g>
<text fill="hsl(65, 100%, 40%)" y="132">Decode.Persons.Hermes 47.7 ms</text>
<g>
<title>47.7 ms ± 3.8 ms</title>
<rect y="138" rx="5" height="22" width="18.94312429193436" fill="hsl(65, 100%, 80%)" stroke="hsl(65, 100%, 55%)" />
<g stroke="hsl(65, 100%, 40%)"><line x1="17.4485156608446" x2="20.43773292302412" y1="149" y2="149" />
<line x1="17.4485156608446" x2="17.4485156608446" y1="143" y2="155" />
<line x1="20.43773292302412" x2="20.43773292302412" y1="143" y2="155" />
</g>
</g>
<text fill="hsl(98, 100%, 40%)" y="187">Decode.Persons.Aeson 134  ms</text>
<g>
<title>134  ms ± 8.9 ms</title>
<rect y="193" rx="5" height="22" width="53.15915308423606" fill="hsl(98, 100%, 80%)" stroke="hsl(98, 100%, 55%)" />
<g stroke="hsl(98, 100%, 40%)"><line x1="49.64493734960339" x2="56.67336881886873" y1="204" y2="204" />
<line x1="49.64493734960339" x2="49.64493734960339" y1="198" y2="210" />
<line x1="56.67336881886873" x2="56.67336881886873" y1="198" y2="210" />
</g>
</g>
<text fill="hsl(130, 100%, 40%)" y="242">Decode.Partial Twitter.Hermes 246  μs</text>
<g>
<title>246  μs ±  16 μs</title>
<rect y="248" rx="5" height="22" width="0.09772059722362479" fill="hsl(130, 100%, 80%)" stroke="hsl(130, 100%, 55%)" />
<g stroke="hsl(130, 100%, 40%)"><line x1="0.09136257051125239" x2="0.10407862393599719" y1="259" y2="259" />
<line x1="0.09136257051125239" x2="0.09136257051125239" y1="253" y2="265" />
<line x1="0.10407862393599719" x2="0.10407862393599719" y1="253" y2="265" />
</g>
</g>
<text fill="hsl(163, 100%, 40%)" y="297">Decode.Partial Twitter.JsonStream 2.13 ms</text>
<g>
<title>2.13 ms ± 119 μs</title>
<rect y="303" rx="5" height="22" width="0.844053360705666" fill="hsl(163, 100%, 80%)" stroke="hsl(163, 100%, 55%)" />
<g stroke="hsl(163, 100%, 40%)"><line x1="0.7970182740164826" x2="0.8910884473948493" y1="314" y2="314" />
<line x1="0.7970182740164826" x2="0.7970182740164826" y1="308" y2="320" />
<line x1="0.8910884473948493" x2="0.8910884473948493" y1="308" y2="320" />
</g>
</g>
<text fill="hsl(196, 100%, 40%)" y="352">Decode.Partial Twitter.Aeson 4.32 ms</text>
<g>
<title>4.32 ms ± 280 μs</title>
<rect y="358" rx="5" height="22" width="1.7126475507859276" fill="hsl(196, 100%, 80%)" stroke="hsl(196, 100%, 55%)" />
<g stroke="hsl(196, 100%, 40%)"><line x1="1.6016748565127152" x2="1.8236202450591399" y1="369" y2="369" />
<line x1="1.6016748565127152" x2="1.6016748565127152" y1="363" y2="375" />
<line x1="1.8236202450591399" x2="1.8236202450591399" y1="363" y2="375" />
</g>
</g>
<text fill="hsl(229, 100%, 40%)" y="407">Decode.Persons (Aeson Value).Hermes 108  ms</text>
<g>
<title>108  ms ±  11 ms</title>
<rect y="413" rx="5" height="22" width="42.98391605431559" fill="hsl(229, 100%, 80%)" stroke="hsl(229, 100%, 55%)" />
<g stroke="hsl(229, 100%, 40%)"><line x1="38.718092737846796" x2="47.24973937078439" y1="424" y2="424" />
<line x1="38.718092737846796" x2="38.718092737846796" y1="418" y2="430" />
<line x1="47.24973937078439" x2="47.24973937078439" y1="418" y2="430" />
</g>
</g>
<text fill="hsl(261, 100%, 40%)" y="462">Decode.Persons (Aeson Value).Aeson 120  ms</text>
<g>
<title>120  ms ±  10 ms</title>
<rect y="468" rx="5" height="22" width="47.43694253429484" fill="hsl(261, 100%, 80%)" stroke="hsl(261, 100%, 55%)" />
<g stroke="hsl(261, 100%, 40%)"><line x1="43.364988013619524" x2="51.50889705497016" y1="479" y2="479" />
<line x1="43.364988013619524" x2="43.364988013619524" y1="473" y2="485" />
<line x1="51.50889705497016" x2="51.50889705497016" y1="473" y2="485" />
</g>
</g>
<text fill="hsl(294, 100%, 40%)" y="517">Decode.Twitter (Aeson Value).Hermes 4.26 ms</text>
<g>
<title>4.26 ms ± 222 μs</title>
<rect y="523" rx="5" height="22" width="1.6915117602788017" fill="hsl(294, 100%, 80%)" stroke="hsl(294, 100%, 55%)" />
<g stroke="hsl(294, 100%, 40%)"><line x1="1.6034972132622267" x2="1.7795263072953766" y1="534" y2="534" />
<line x1="1.6034972132622267" x2="1.6034972132622267" y1="528" y2="540" />
<line x1="1.7795263072953766" x2="1.7795263072953766" y1="528" y2="540" />
</g>
</g>
<text fill="hsl(327, 100%, 40%)" y="572">Decode.Twitter (Aeson Value).Aeson 4.86 ms</text>
<g>
<title>4.86 ms ± 455 μs</title>
<rect y="578" rx="5" height="22" width="1.9282871739341074" fill="hsl(327, 100%, 80%)" stroke="hsl(327, 100%, 55%)" />
<g stroke="hsl(327, 100%, 40%)"><line x1="1.7476553591010116" x2="2.1089189887672033" y1="589" y2="589" />
<line x1="1.7476553591010116" x2="1.7476553591010116" y1="583" y2="595" />
<line x1="2.1089189887672033" x2="2.1089189887672033" y1="583" y2="595" />
</g>
</g>
</g>
</svg>
