<svg xmlns="http://www.w3.org/2000/svg" height="612" width="960.0" font-size="16" font-family="sans-serif" stroke-width="2">
<g transform="translate(10.0 0)">
<text fill="hsl(0, 100%, 40%)" y="22">Decode.Arrays.Hermes 264  ms</text>
<g>
<title>264  ms ±  14 ms</title>
<rect y="28" rx="5" height="22" width="112.91800013105865" fill="hsl(0, 100%, 80%)" stroke="hsl(0, 100%, 55%)" />
<g stroke="hsl(0, 100%, 40%)"><line x1="107.06867956712289" x2="118.76732069499441" y1="39" y2="39" />
<line x1="107.06867956712289" x2="107.06867956712289" y1="33" y2="45" />
<line x1="118.76732069499441" x2="118.76732069499441" y1="33" y2="45" />
</g>
</g>
<g fill="hsl(32, 100%, 40%)">
<text y="77">Decode.Arrays.Aeson</text>
<text y="77" x="914.930062597931" text-anchor="end">2.139 s</text>
</g>
<g>
<title>2.139 s ±  59 ms</title>
<rect y="83" rx="5" height="22" width="914.930062597931" fill="hsl(32, 100%, 80%)" stroke="hsl(32, 100%, 55%)" />
<g stroke="hsl(32, 100%, 40%)"><line x1="889.8601251958621" x2="940.0" y1="94" y2="94" />
<line x1="889.8601251958621" x2="889.8601251958621" y1="88" y2="100" />
<line x1="940.0" x2="940.0" y1="88" y2="100" />
</g>
</g>
<text fill="hsl(65, 100%, 40%)" y="132">Decode.Persons.Hermes 47.2 ms</text>
<g>
<title>47.2 ms ± 3.7 ms</title>
<rect y="138" rx="5" height="22" width="20.20439436707094" fill="hsl(65, 100%, 80%)" stroke="hsl(65, 100%, 55%)" />
<g stroke="hsl(65, 100%, 40%)"><line x1="18.636399697348025" x2="21.772389036793854" y1="149" y2="149" />
<line x1="18.636399697348025" x2="18.636399697348025" y1="143" y2="155" />
<line x1="21.772389036793854" x2="21.772389036793854" y1="143" y2="155" />
</g>
</g>
<text fill="hsl(98, 100%, 40%)" y="187">Decode.Persons.Aeson 133  ms</text>
<g>
<title>133  ms ±  13 ms</title>
<rect y="193" rx="5" height="22" width="56.71851556231411" fill="hsl(98, 100%, 80%)" stroke="hsl(98, 100%, 55%)" />
<g stroke="hsl(98, 100%, 40%)"><line x1="51.075838479506885" x2="62.361192645121335" y1="204" y2="204" />
<line x1="51.075838479506885" x2="51.075838479506885" y1="198" y2="210" />
<line x1="62.361192645121335" x2="62.361192645121335" y1="198" y2="210" />
</g>
</g>
<text fill="hsl(130, 100%, 40%)" y="242">Decode.Partial Twitter.Hermes 244  μs</text>
<g>
<title>244  μs ±  13 μs</title>
<rect y="248" rx="5" height="22" width="0.10420992930505897" fill="hsl(130, 100%, 80%)" stroke="hsl(130, 100%, 55%)" />
<g stroke="hsl(130, 100%, 40%)"><line x1="0.09851077655606125" x2="0.1099090820540567" y1="259" y2="259" />
<line x1="0.09851077655606125" x2="0.09851077655606125" y1="253" y2="265" />
<line x1="0.1099090820540567" x2="0.1099090820540567" y1="253" y2="265" />
</g>
</g>
<text fill="hsl(163, 100%, 40%)" y="297">Decode.Partial Twitter.JsonStream 2.11 ms</text>
<g>
<title>2.11 ms ± 183 μs</title>
<rect y="303" rx="5" height="22" width="0.9038483929475575" fill="hsl(163, 100%, 80%)" stroke="hsl(163, 100%, 55%)" />
<g stroke="hsl(163, 100%, 40%)"><line x1="0.8256578375902203" x2="0.9820389483048947" y1="314" y2="314" />
<line x1="0.8256578375902203" x2="0.8256578375902203" y1="308" y2="320" />
<line x1="0.9820389483048947" x2="0.9820389483048947" y1="308" y2="320" />
</g>
</g>
<text fill="hsl(196, 100%, 40%)" y="352">Decode.Partial Twitter.Aeson 4.24 ms</text>
<g>
<title>4.24 ms ± 422 μs</title>
<rect y="358" rx="5" height="22" width="1.8138835861594544" fill="hsl(196, 100%, 80%)" stroke="hsl(196, 100%, 55%)" />
<g stroke="hsl(196, 100%, 40%)"><line x1="1.633512801341321" x2="1.994254370977588" y1="369" y2="369" />
<line x1="1.633512801341321" x2="1.633512801341321" y1="363" y2="375" />
<line x1="1.994254370977588" x2="1.994254370977588" y1="363" y2="375" />
</g>
</g>
<text fill="hsl(229, 100%, 40%)" y="407">Decode.Persons (Aeson Value).Hermes 109  ms</text>
<g>
<title>109  ms ± 6.8 ms</title>
<rect y="413" rx="5" height="22" width="46.61520115996782" fill="hsl(229, 100%, 80%)" stroke="hsl(229, 100%, 55%)" />
<g stroke="hsl(229, 100%, 40%)"><line x1="43.71329939236903" x2="49.517102927566604" y1="424" y2="424" />
<line x1="43.71329939236903" x2="43.71329939236903" y1="418" y2="430" />
<line x1="49.517102927566604" x2="49.517102927566604" y1="418" y2="430" />
</g>
</g>
<text fill="hsl(261, 100%, 40%)" y="462">Decode.Persons (Aeson Value).Aeson 118  ms</text>
<g>
<title>118  ms ± 8.7 ms</title>
<rect y="468" rx="5" height="22" width="50.57310649088605" fill="hsl(261, 100%, 80%)" stroke="hsl(261, 100%, 55%)" />
<g stroke="hsl(261, 100%, 40%)"><line x1="46.85648817536053" x2="54.28972480641156" y1="479" y2="479" />
<line x1="46.85648817536053" x2="46.85648817536053" y1="473" y2="485" />
<line x1="54.28972480641156" x2="54.28972480641156" y1="473" y2="485" />
</g>
</g>
<text fill="hsl(294, 100%, 40%)" y="517">Decode.Twitter (Aeson Value).Hermes 4.19 ms</text>
<g>
<title>4.19 ms ± 278 μs</title>
<rect y="523" rx="5" height="22" width="1.793104118109758" fill="hsl(294, 100%, 80%)" stroke="hsl(294, 100%, 55%)" />
<g stroke="hsl(294, 100%, 40%)"><line x1="1.6741986530706074" x2="1.9120095831489086" y1="534" y2="534" />
<line x1="1.6741986530706074" x2="1.6741986530706074" y1="528" y2="540" />
<line x1="1.9120095831489086" x2="1.9120095831489086" y1="528" y2="540" />
</g>
</g>
<text fill="hsl(327, 100%, 40%)" y="572">Decode.Twitter (Aeson Value).Aeson 4.80 ms</text>
<g>
<title>4.80 ms ± 432 μs</title>
<rect y="578" rx="5" height="22" width="2.05136073915316" fill="hsl(327, 100%, 80%)" stroke="hsl(327, 100%, 55%)" />
<g stroke="hsl(327, 100%, 40%)"><line x1="1.8666689445515399" x2="2.23605253375478" y1="589" y2="589" />
<line x1="1.8666689445515399" x2="1.8666689445515399" y1="583" y2="595" />
<line x1="2.23605253375478" x2="2.23605253375478" y1="583" y2="595" />
</g>
</g>
</g>
</svg>
